<?xml version="1.0" standalone="no"?>
<!DOCTYPE svg PUBLIC "-//W3C//DTD SVG 20010904//EN"
 "http://www.w3.org/TR/2001/REC-SVG-20010904/DTD/svg10.dtd">
<svg version="1.0" xmlns="http://www.w3.org/2000/svg"
 width="1200.000000pt" height="1200.000000pt" viewBox="0 0 1200.000000 1200.000000"
 preserveAspectRatio="xMidYMid meet">

<g transform="translate(0.000000,1200.000000) scale(0.100000,-0.100000)"
fill="#000000" stroke="none">
<path d="M6328 9462 c-7 -2 -22 -7 -33 -12 -11 -4 -27 -10 -36 -13 -11 -4 -19
-22 -23 -54 -14 -98 -16 -103 -35 -91 -20 12 -56 4 -47 -10 3 -5 -5 -7 -19 -5
-20 4 -23 2 -21 -22 3 -19 -3 -31 -20 -42 -13 -8 -24 -20 -24 -27 0 -7 3 -6 8
2 6 9 36 12 113 10 57 -2 149 2 204 7 55 5 129 9 165 8 36 -1 98 -2 139 -3 55
-1 77 2 89 14 15 14 14 17 -3 30 -11 7 -25 12 -32 9 -7 -3 -13 0 -13 7 0 12
-15 10 -51 -4 -22 -9 -36 54 -16 69 8 5 17 22 21 38 5 23 3 27 -15 27 -12 0
-41 11 -63 24 -23 13 -66 28 -96 34 -50 10 -161 12 -192 4z m225 -142 c-4 -16
-8 -18 -19 -9 -16 13 -10 29 11 29 8 0 11 -7 8 -20z m-203 -30 c8 -5 11 -10 5
-10 -5 0 -17 5 -25 10 -8 5 -10 10 -5 10 6 0 17 -5 25 -10z m-134 -45 c-1 -29
-3 -29 -35 -11 -15 8 -20 16 -12 20 6 4 15 5 20 1 5 -3 12 -1 16 5 10 16 13
12 11 -15z"/>
<path d="M3867 9444 c7 -3 11 -11 9 -17 -1 -7 -1 -9 1 -4 3 4 9 4 15 1 6 -4 9
-1 6 7 -3 8 -13 15 -24 16 -10 2 -14 0 -7 -3z"/>
<path d="M3725 9384 l-30 -13 27 -1 c15 0 30 5 33 11 11 16 2 17 -30 3z"/>
<path d="M5953 9363 c-3 -9 -1 -24 5 -34 14 -23 1 -32 -33 -23 -19 5 -25 2
-25 -10 0 -9 8 -16 19 -16 20 0 35 -25 25 -41 -3 -5 2 -9 10 -9 9 0 16 -4 16
-10 0 -5 9 -10 21 -10 12 0 19 5 17 12 -3 7 13 31 34 52 21 22 38 42 38 45 0
10 -57 41 -91 51 -24 7 -31 6 -36 -7z"/>
<path d="M4045 9360 c-3 -5 -4 -20 -1 -34 4 -22 -1 -27 -40 -42 -62 -24 -136
-72 -129 -84 3 -6 -5 -14 -20 -20 -14 -5 -28 -18 -32 -27 -4 -10 -10 -20 -15
-23 -4 -3 -9 -15 -11 -25 -2 -11 -9 -33 -16 -50 -18 -43 -17 -135 2 -172 9
-17 35 -47 57 -66 33 -28 52 -36 100 -41 33 -4 60 -11 60 -15 0 -5 10 -11 21
-14 15 -4 20 -11 16 -24 -6 -16 -5 -16 6 1 7 10 22 32 34 50 71 98 104 152
117 194 9 26 32 67 51 91 48 61 55 90 24 110 -13 9 -43 35 -66 58 -23 23 -58
46 -77 53 -35 11 -35 12 -20 36 15 23 15 24 -4 24 -11 0 -22 7 -26 15 -6 17
-22 20 -31 5z m91 -352 c-58 -97 -145 -157 -236 -164 l-45 -3 40 9 c66 15 120
38 118 49 -2 6 0 10 5 9 13 -5 52 28 44 37 -4 5 -2 5 4 2 15 -9 48 29 38 44
-4 7 -3 10 3 6 5 -3 17 7 27 24 9 16 19 29 22 29 3 0 -6 -19 -20 -42z"/>
<path d="M7369 9246 c32 -45 48 -56 84 -56 19 1 17 3 -8 14 -16 8 -43 30 -58
50 -40 51 -54 45 -18 -8z"/>
<path d="M5691 9261 c-11 -7 -9 -11 9 -21 27 -15 56 4 30 20 -18 12 -21 12
-39 1z"/>
<path d="M7160 9234 c0 -6 -9 -20 -21 -32 l-20 -23 22 -18 c26 -21 104 -18
126 5 22 22 16 43 -12 39 -14 -1 -25 2 -25 6 0 5 -10 9 -23 9 -13 0 -28 5 -35
12 -7 7 -12 8 -12 2z"/>
<path d="M5642 9184 c-22 -15 -30 -44 -13 -44 5 0 16 -15 25 -34 12 -26 21
-33 36 -29 19 5 20 7 5 29 -15 23 -15 24 10 24 29 0 45 27 24 41 -22 14 -37
11 -42 -8 -3 -11 -5 -7 -6 10 -1 31 -8 33 -39 11z"/>
<path d="M4860 9129 c-16 -17 -30 -36 -31 -42 0 -7 -1 -48 -2 -93 -1 -48 -7
-87 -15 -96 -10 -13 -9 -18 3 -28 12 -10 15 -10 15 0 0 8 2 11 4 9 3 -3 -4
-53 -17 -119 -10 -47 -30 -71 -79 -95 -61 -30 -181 -51 -224 -41 -26 7 -27 9
-11 20 21 16 22 26 2 26 -9 0 -19 -8 -22 -17 -4 -10 -13 -24 -20 -32 -8 -7
-17 -26 -20 -42 -3 -16 -12 -29 -20 -29 -15 0 -64 29 -75 44 -4 6 -10 8 -13 4
-4 -3 -19 -3 -34 2 -15 4 -35 3 -44 -2 -13 -7 -25 -1 -52 27 -40 39 -44 41
-70 21 -14 -10 -25 -11 -37 -5 -14 7 -16 6 -12 -6 7 -18 -22 -49 -38 -39 -8 5
-9 2 -5 -9 3 -10 3 -17 -2 -17 -4 0 -6 -11 -3 -25 3 -16 11 -25 23 -25 10 0
21 -4 24 -10 8 -13 -15 -13 -35 0 -9 5 -19 5 -27 -2 -7 -6 -26 -8 -43 -6 -24
4 -30 1 -30 -14 0 -19 -40 -34 -65 -24 -13 5 -14 10 -5 27 9 16 8 26 -5 45
-16 25 -31 31 -37 15 -1 -5 -63 -12 -136 -15 -99 -5 -138 -10 -149 -21 -16
-17 -23 -17 -138 -20 -44 0 -85 -4 -90 -7 -6 -3 -27 -7 -47 -9 -31 -3 -43 2
-69 29 -40 40 -65 40 -101 0 -25 -28 -35 -32 -85 -34 -82 -3 -80 -2 -97 -20
-20 -19 -20 -29 -1 -47 13 -13 11 -16 -13 -23 -41 -11 -41 -11 -51 -13 -5 0
-17 -8 -25 -17 -28 -27 -4 -52 56 -58 190 -19 286 -29 378 -42 308 -43 389
-55 425 -64 64 -15 114 -12 142 10 31 24 95 27 117 4 9 -8 16 -11 16 -5 0 6 6
11 14 11 7 0 34 11 60 25 51 27 88 32 85 13 -5 -39 24 -58 59 -39 11 6 35 8
55 4 l36 -6 -25 -44 c-23 -39 -25 -47 -14 -73 7 -16 10 -35 8 -42 -3 -7 -2
-20 1 -28 5 -14 14 -14 66 -5 l60 11 -37 18 c-40 19 -69 46 -49 46 20 0 26 2
37 11 8 6 24 -2 50 -26 l39 -35 100 0 c55 0 135 -7 178 -15 43 -8 88 -13 100
-11 12 3 25 5 30 5 4 1 7 8 7 16 0 22 17 18 23 -5 8 -31 43 -24 83 15 29 29
31 35 16 35 -21 0 -48 26 -35 32 4 3 35 13 68 22 33 10 67 22 76 26 9 5 38 11
65 15 27 4 67 13 89 20 51 17 123 26 130 15 6 -10 295 -4 428 10 66 7 105 7
117 0 10 -6 27 -10 38 -10 27 0 112 -39 112 -51 0 -5 11 -14 25 -19 14 -5 27
-15 29 -22 14 -51 24 -73 35 -70 7 1 10 -1 7 -6 -11 -17 99 -99 145 -109 15
-3 40 -2 54 1 21 5 24 10 15 25 -8 16 -5 20 27 26 20 4 42 14 49 23 10 14 28
16 103 14 59 -2 91 1 91 7 0 6 7 11 15 11 8 0 15 4 15 9 0 5 12 12 28 15 15 4
36 9 47 12 16 4 17 3 5 -5 -12 -8 -9 -12 13 -20 16 -6 35 -11 43 -11 8 0 14
-9 14 -20 0 -11 -5 -20 -10 -20 -6 0 -4 -13 5 -29 9 -19 22 -29 35 -28 23 1
28 27 5 27 -8 0 -15 5 -15 11 0 7 11 8 30 4 26 -6 30 -4 30 14 0 12 8 21 23
24 18 4 17 4 -6 6 -16 0 -26 5 -23 10 7 11 -39 31 -74 31 -16 0 -32 5 -35 10
-9 14 71 12 123 -3 23 -7 40 -15 37 -18 -3 -3 20 -12 50 -19 50 -12 57 -12 76
6 19 17 22 17 47 2 77 -49 176 -89 229 -94 65 -6 125 -24 195 -59 26 -13 55
-24 65 -24 10 0 59 -11 108 -25 50 -14 107 -26 127 -26 20 0 40 -5 43 -11 4
-6 13 -8 21 -5 14 5 82 -35 95 -56 4 -6 15 -8 25 -4 18 7 17 9 -5 27 -13 10
-29 19 -37 19 -8 0 -14 7 -14 15 0 32 114 4 153 -38 32 -34 33 -44 10 -92 -17
-35 -16 -35 10 -63 15 -15 44 -34 64 -41 21 -8 44 -18 51 -23 14 -12 17 -42 2
-33 -5 3 -10 1 -10 -4 0 -6 -6 -11 -14 -11 -7 0 -21 -11 -30 -25 -14 -21 -20
-23 -41 -15 -18 7 -25 6 -25 -3 0 -6 -9 6 -20 27 -16 28 -18 41 -10 51 8 10 8
15 -1 21 -7 4 -15 2 -17 -4 -2 -7 -22 -12 -43 -12 -22 0 -49 -5 -60 -11 -14
-7 -24 -7 -33 0 -8 7 -15 5 -23 -7 -6 -11 -25 -19 -48 -20 -21 -2 -46 -7 -56
-12 -25 -14 -29 -13 -29 10 0 26 -17 26 -25 -1 -8 -24 -39 -20 -101 12 -21 10
-43 19 -49 19 -6 0 -17 9 -25 20 -8 11 -19 20 -26 20 -6 0 -25 18 -43 40 -17
22 -38 40 -45 40 -13 0 -26 21 -25 37 2 15 -32 23 -52 13 -16 -9 -26 -8 -45 5
-14 9 -31 14 -37 12 -7 -2 3 -13 21 -23 60 -34 85 -56 72 -64 -7 -4 -9 -13 -5
-20 6 -9 10 -9 16 1 7 10 8 9 6 -6 -5 -35 -18 -47 -43 -41 -19 5 -24 2 -24
-13 0 -22 -16 -37 -22 -20 -2 6 -15 1 -31 -11 -16 -13 -26 -28 -23 -36 3 -7 1
-16 -4 -19 -6 -4 -10 -17 -10 -29 0 -28 -20 -47 -52 -48 -13 -1 -29 -6 -37
-12 -12 -9 -12 -8 -2 9 9 16 9 30 -2 65 -7 25 -17 45 -22 46 -47 3 -115 18
-115 25 0 5 -5 9 -10 9 -6 0 -10 -6 -8 -12 1 -7 -6 -23 -17 -35 -20 -24 -45
-31 -45 -12 0 14 -37 2 -72 -23 -29 -20 -31 -18 -28 20 2 23 -14 30 -26 11 -4
-8 -10 -5 -17 7 -10 17 -11 17 -18 -1 -4 -11 -8 -27 -8 -35 -1 -13 1 -13 8 -1
5 8 16 11 25 8 24 -10 19 -27 -8 -27 -14 0 -28 -4 -31 -10 -3 -5 -13 -10 -22
-10 -12 0 -14 8 -11 35 5 41 2 42 -22 13 -15 -19 -20 -20 -34 -9 -8 7 -21 11
-28 8 -8 -4 -7 -6 5 -6 47 -2 -20 -40 -88 -48 -39 -5 -135 16 -157 35 -9 8
-22 11 -28 7 -6 -4 -17 -2 -24 5 -17 13 -155 11 -173 -3 -7 -5 -33 -10 -57
-12 -24 -2 -50 -6 -56 -10 -7 -4 -16 -1 -21 6 -4 7 -11 10 -15 7 -3 -4 1 -15
11 -24 13 -14 14 -19 3 -25 -19 -12 -58 -11 -58 1 0 6 -11 22 -24 36 -20 22
-27 24 -45 15 -18 -10 -25 -7 -51 19 -16 17 -41 35 -55 40 -24 9 -25 8 -25
-30 0 -32 -4 -40 -17 -39 -11 0 -13 3 -5 6 14 5 16 23 3 23 -5 0 -13 -9 -16
-20 -5 -15 -15 -20 -40 -20 -19 0 -36 4 -40 9 -3 6 -44 7 -97 4 -80 -5 -92 -4
-104 12 -12 15 -11 20 4 32 16 14 16 14 -1 9 -10 -3 -23 -6 -29 -6 -6 0 -6 -6
2 -15 10 -12 7 -17 -16 -26 -38 -15 -87 -13 -98 5 -8 12 -15 12 -48 -1 -27
-11 -45 -12 -65 -6 -16 6 -54 8 -85 5 l-58 -4 0 31 c0 17 -4 31 -10 31 -5 0
-10 -4 -10 -10 0 -5 -16 -10 -35 -10 -19 0 -35 5 -35 10 0 6 -9 10 -21 10 -11
0 -17 -4 -14 -10 7 -11 -13 -12 -230 -10 -338 5 -381 6 -393 14 -8 5 -20 2
-31 -9 -18 -15 -57 -14 -86 4 -11 7 -28 8 -200 11 -66 1 -127 -1 -135 -4 -18
-6 -63 -16 -106 -23 -18 -3 -41 0 -52 6 -18 10 -20 8 -18 -21 1 -22 -4 -33
-14 -35 -26 -6 -39 81 -33 211 6 112 7 119 40 164 47 67 44 95 -17 156 -28 27
-50 54 -50 58 0 5 15 8 33 6 27 -2 36 -10 55 -48 12 -24 22 -57 22 -72 0 -15
4 -30 10 -33 10 -6 77 25 123 57 32 23 36 66 8 92 -25 23 -114 56 -149 56 -40
0 -44 9 -20 42 15 22 17 33 9 41 -14 14 -191 11 -205 -3 -6 -6 -10 -27 -11
-47 0 -34 -5 -40 -42 -61 -26 -14 -45 -33 -49 -47 -4 -17 -18 -27 -47 -37 -26
-8 -43 -20 -45 -31 -3 -16 1 -18 32 -14 33 4 41 0 38 -24 -1 -4 8 -5 18 -2 21
6 25 -3 11 -26 -10 -16 1 -37 62 -116 37 -47 39 -51 32 -105 -8 -63 -18 -80
-44 -73 -20 5 -91 73 -77 73 5 0 3 6 -3 13 -6 8 -16 49 -22 92 -13 84 -19 82
-38 -10 -7 -33 -17 -69 -23 -79 -6 -11 -10 -50 -9 -88 1 -40 -3 -68 -9 -68 -5
0 -10 5 -10 10 0 6 -4 10 -10 10 -5 0 -10 -7 -10 -15 0 -8 -7 -15 -15 -15 -8
0 -15 -4 -15 -10 0 -15 -36 -12 -50 5 -18 22 -30 18 -30 -10 0 -21 -5 -25 -29
-25 -57 0 -62 -7 -36 -52 13 -22 38 -56 56 -76 31 -33 104 -72 135 -72 25 0
74 -30 74 -45 0 -20 32 -35 75 -35 38 0 57 -22 36 -43 -8 -8 -7 -15 5 -28 11
-12 14 -27 10 -44 -5 -21 -10 -24 -26 -15 -23 12 -60 13 -60 2 0 -5 11 -19 25
-32 22 -20 31 -22 86 -17 38 3 72 13 88 25 43 32 109 47 122 29 3 -5 25 14 47
41 53 63 123 95 207 94 47 0 65 4 82 20 13 12 27 17 34 12 9 -5 7 -9 -7 -15
-16 -6 -14 -9 18 -23 21 -9 51 -16 68 -16 22 0 41 -9 61 -30 31 -31 83 -50
135 -50 63 0 93 -12 108 -41 8 -16 10 -27 5 -24 -5 4 -9 -1 -9 -9 0 -9 5 -16
10 -16 6 0 10 -5 10 -11 0 -6 14 -28 30 -48 58 -69 82 -89 101 -84 11 3 19 0
19 -6 0 -6 5 -11 10 -11 6 0 10 10 10 21 0 18 2 20 16 8 13 -11 20 -7 50 27
26 28 33 45 29 61 -5 20 -1 23 22 23 14 0 50 16 78 36 55 37 125 53 233 54 36
0 63 6 80 19 36 25 116 47 242 66 129 19 225 12 249 -18 37 -47 62 -63 127
-82 38 -10 75 -20 82 -21 7 -1 24 -9 37 -18 35 -23 59 -21 45 3 -14 27 -13 31
11 31 11 0 17 -4 14 -10 -3 -5 3 -10 15 -10 12 0 18 5 15 10 -10 16 7 12 39
-9 17 -11 33 -18 38 -15 4 3 8 1 8 -4 0 -15 97 -12 110 4 21 25 111 18 197
-17 43 -17 82 -35 88 -40 5 -5 19 -9 31 -9 13 0 25 -4 28 -9 5 -8 42 -18 96
-26 8 -2 59 -12 113 -22 95 -19 147 -20 147 -2 0 5 -4 9 -10 9 -5 0 -10 4 -10
9 0 4 24 11 52 14 52 6 54 6 96 -36 47 -46 61 -79 42 -102 -15 -18 -9 -57 9
-63 10 -3 12 0 8 12 -15 38 14 12 41 -38 l29 -54 -24 -26 c-13 -14 -26 -26
-28 -26 -2 0 -3 25 -2 55 1 30 -1 55 -4 55 -10 0 -20 -78 -13 -105 6 -24 5
-25 -31 -21 -25 3 -42 0 -54 -12 -28 -27 -85 -53 -119 -54 -19 -1 -32 -6 -32
-14 0 -7 -19 -18 -42 -24 -27 -8 -37 -14 -29 -19 10 -6 9 -10 -4 -15 -29 -11
-46 -7 -64 15 l-17 21 -32 -36 c-37 -43 -51 -46 -44 -10 4 24 3 25 -17 14 -29
-15 -51 -6 -51 20 l0 21 -31 -22 c-29 -20 -30 -23 -14 -35 20 -15 16 -47 -6
-52 -9 -2 -24 4 -33 13 -12 13 -33 16 -95 14 -43 -1 -83 1 -89 5 -12 7 -52
-10 -63 -26 -3 -5 -18 -3 -34 4 -22 10 -29 10 -33 0 -5 -17 -42 -15 -42 2 0 7
7 19 15 26 9 7 14 19 11 27 -3 8 2 13 13 13 22 0 45 25 37 39 -3 5 2 7 12 4
27 -7 25 31 -4 74 -29 43 -32 73 -6 67 13 -4 17 2 19 26 2 34 -23 43 -34 13
-4 -10 -13 -24 -20 -31 -7 -7 -16 -25 -20 -40 -3 -15 -19 -51 -35 -80 -16 -30
-30 -67 -32 -83 -2 -16 -6 -32 -9 -36 -12 -12 -38 8 -48 37 -12 32 -33 40 -43
15 -7 -18 -32 -20 -39 -2 -3 7 -6 4 -6 -7 -1 -13 -6 -16 -18 -11 -10 3 -40 9
-68 12 -27 3 -53 10 -56 16 -4 5 -16 3 -30 -6 -21 -13 -74 -23 -89 -17 -3 1
-32 4 -65 6 -33 2 -80 8 -105 13 -25 6 -87 8 -140 4 -83 -5 -101 -9 -139 -35
-34 -23 -50 -28 -70 -22 -14 4 -31 6 -37 5 -7 -1 -14 6 -18 14 -4 12 -10 13
-24 6 -19 -10 -48 1 -39 16 3 5 20 10 38 11 45 4 55 13 34 28 -10 8 -16 17
-12 20 4 4 15 -3 26 -14 23 -28 51 -29 51 -2 0 14 7 20 23 20 13 0 27 4 32 9
6 6 36 11 68 12 37 2 57 7 57 15 0 17 -68 28 -86 13 -10 -8 -14 -8 -14 0 0 19
-37 12 -43 -8 -5 -20 -11 -21 -270 -36 -42 -2 -95 -10 -116 -16 -22 -6 -48 -8
-58 -4 -10 4 -31 9 -48 10 -16 2 -62 6 -101 9 -40 3 -82 10 -96 15 -22 8 -25
6 -36 -32 -14 -43 -5 -60 27 -50 12 3 11 2 -2 -7 -11 -7 -84 -13 -195 -15 -97
-1 -192 -5 -210 -7 -27 -4 -39 1 -68 29 -19 18 -32 33 -27 33 4 0 -3 7 -15 16
-12 8 -20 19 -17 24 3 4 -6 28 -20 52 -13 24 -31 64 -40 88 -19 53 -28 157
-15 165 6 4 10 29 10 56 0 46 2 51 31 63 25 10 28 14 14 20 -47 18 -71 5 -65
-34 1 -8 -1 -12 -6 -8 -4 4 -20 -5 -35 -21 -33 -35 -69 -49 -69 -28 0 8 9 22
20 32 11 10 26 30 33 45 l14 26 -48 -7 c-81 -13 -86 -19 -95 -106 -5 -60 -3
-83 8 -103 10 -17 12 -35 6 -55 -5 -18 -2 -47 7 -80 18 -60 30 -80 47 -80 7 0
13 -5 13 -12 0 -7 6 -18 13 -25 6 -6 12 -20 12 -29 0 -10 6 -20 13 -22 6 -3
-2 -6 -19 -6 -19 -1 -34 -7 -38 -17 -10 -26 -7 -29 8 -8 8 10 18 16 22 11 26
-26 -113 -50 -144 -25 -10 8 -13 9 -9 1 10 -16 -9 -26 -34 -18 -16 5 -19 12
-15 31 5 19 2 24 -12 24 -22 0 -43 22 -60 63 -14 32 -31 32 -43 0 -6 -18 -2
-24 26 -38 38 -18 63 -51 43 -57 -7 -3 -28 1 -47 8 -20 7 -50 10 -68 7 -21 -4
-33 -1 -33 6 0 6 -6 11 -14 11 -8 0 -13 -8 -12 -17 1 -16 -6 -18 -53 -14 -40
2 -52 0 -46 -9 6 -9 -2 -11 -31 -8 -22 3 -47 8 -56 12 -13 6 -18 4 -18 -9 0
-18 -26 -17 -73 1 -14 5 -20 1 -24 -16 -4 -16 -8 -18 -14 -8 -5 7 -9 8 -9 2 0
-7 -26 -11 -70 -12 -38 0 -70 3 -70 8 0 5 -16 8 -35 7 -19 -1 -35 -5 -35 -10
0 -9 20 -46 37 -67 7 -9 11 -29 10 -44 -1 -20 3 -29 14 -31 9 -2 43 -13 77
-25 l62 -23 52 40 c29 22 58 42 64 46 19 11 158 37 204 37 25 1 65 5 89 9 35
7 58 4 115 -15 39 -13 85 -31 102 -40 17 -10 43 -15 57 -12 15 3 51 1 82 -4
44 -7 72 -4 134 11 66 16 105 19 230 16 133 -3 155 -6 190 -26 49 -27 55 -41
30 -70 -28 -32 -25 -67 7 -75 14 -4 30 -2 37 5 6 6 31 11 55 11 61 0 55 -28
-10 -47 -27 -7 -48 -18 -48 -24 0 -15 29 -22 43 -10 8 6 31 14 53 19 29 6 40
13 42 29 2 12 9 20 15 17 7 -2 53 11 102 31 105 41 155 53 155 36 0 -7 4 -10
8 -7 5 3 31 7 59 10 27 3 68 11 90 19 27 9 55 12 80 7 21 -4 34 -8 29 -9 -5 0
-1 -10 9 -21 13 -15 15 -25 8 -47 -13 -41 -1 -178 15 -178 8 0 20 -8 27 -18 8
-12 15 -14 20 -8 3 6 18 8 33 5 22 -5 25 -4 15 7 -19 19 -16 66 5 87 10 10 17
23 15 28 -2 6 7 16 19 22 14 6 17 11 8 11 -9 1 -4 9 14 20 28 18 29 18 47 0
14 -14 33 -19 78 -19 33 0 63 -4 66 -10 3 -5 14 -10 24 -10 10 0 24 -7 31 -16
8 -8 28 -21 47 -29 18 -8 36 -21 39 -30 3 -8 11 -15 18 -15 23 0 118 -69 132
-95 12 -23 12 -31 -1 -54 -15 -30 -70 -62 -92 -54 -7 3 -13 -2 -13 -11 0 -9 7
-19 15 -22 8 -4 12 -11 8 -18 -5 -8 -3 -8 8 1 8 6 39 24 69 40 44 22 70 29
130 31 82 2 79 4 181 -92 81 -77 198 -113 400 -122 158 -7 224 -1 216 21 -3 7
3 15 15 19 18 4 19 8 9 20 -10 12 -7 22 14 55 15 25 33 41 45 41 10 0 22 5 26
11 3 6 17 8 33 4 73 -18 116 -22 140 -12 39 14 102 0 108 -24 3 -10 13 -19 22
-19 59 -1 154 -55 226 -129 61 -63 153 -111 187 -98 14 6 18 11 11 14 -7 3
-13 10 -13 16 0 6 -9 20 -20 32 -20 21 -20 22 -1 43 25 30 88 29 150 -2 26
-14 73 -34 104 -45 51 -17 57 -18 57 -3 0 12 3 13 12 4 7 -7 21 -12 33 -12 30
0 65 -28 65 -51 0 -11 5 -17 10 -14 6 4 7 12 3 18 -8 14 18 -6 70 -52 27 -25
34 -37 25 -43 -10 -6 -10 -8 1 -8 11 0 11 -3 1 -15 -9 -10 -9 -15 -1 -15 6 0
11 -8 11 -17 0 -26 25 -68 38 -66 17 4 32 -30 21 -48 -5 -7 -9 -26 -9 -41 0
-16 -4 -28 -9 -28 -5 0 -7 -8 -4 -19 6 -23 -13 -37 -21 -16 -7 19 -26 19 -26
0 0 -8 5 -15 11 -15 5 0 7 -4 4 -10 -3 -5 -15 -10 -26 -10 -16 0 -18 6 -14 35
3 25 0 35 -10 35 -8 0 -16 -4 -20 -10 -3 -5 -12 -7 -20 -4 -11 5 -12 11 -4 26
16 29 4 33 -28 8 l-28 -22 -27 31 c-15 17 -35 31 -43 31 -11 0 -15 11 -15 39
0 36 -2 39 -35 45 -26 5 -39 2 -53 -12 -11 -11 -23 -21 -28 -23 -5 -2 -24 -21
-42 -43 -31 -35 -33 -43 -30 -95 3 -55 3 -56 -23 -53 -17 2 -29 -3 -32 -12
-10 -24 -40 -21 -32 3 4 15 -1 24 -22 35 l-28 14 27 11 c28 11 44 29 33 39 -3
3 -10 1 -14 -6 -5 -8 -19 -11 -39 -7 -22 3 -45 -2 -78 -20 -26 -14 -49 -25
-50 -25 -2 0 -4 14 -4 31 0 17 -4 28 -10 24 -5 -3 -10 -2 -10 3 0 6 7 12 15
16 17 6 20 32 5 41 -11 7 -41 -55 -33 -67 4 -8 -20 -38 -32 -38 -3 0 -11 15
-18 33 l-11 32 -6 -30 c-11 -63 -90 -38 -90 29 0 14 -4 26 -10 26 -5 0 -10
-14 -10 -31 0 -32 -27 -69 -38 -53 -4 5 -20 18 -35 28 -27 16 -30 16 -47 1
-17 -15 -39 -15 -90 1 -12 4 -12 7 -1 13 10 7 9 10 -8 16 -12 4 -28 2 -35 -4
-6 -5 -22 -8 -34 -4 -12 3 -52 0 -89 -7 -50 -10 -68 -10 -71 -2 -2 7 -15 12
-28 12 -15 0 -24 6 -24 16 0 13 -7 15 -40 9 -27 -5 -46 -3 -55 5 -10 9 -19 9
-27 2 -8 -6 -32 -7 -60 -3 -28 5 -51 4 -57 -2 -7 -7 -15 -6 -26 3 -13 11 -19
10 -34 -4 -18 -17 -51 -13 -51 6 0 6 -14 8 -34 5 -19 -3 -36 -1 -38 4 -5 14
-60 18 -76 6 -8 -7 -21 -6 -38 2 -17 7 -31 8 -44 1 -25 -13 -60 -13 -60 1 0 7
-9 9 -22 6 -14 -4 -30 0 -42 11 -11 9 -16 11 -12 4 10 -17 -23 -28 -45 -14
-10 7 -43 12 -74 12 -44 0 -53 -3 -49 -15 7 -18 3 -19 -31 -3 -19 8 -31 8 -51
-1 -14 -6 -41 -9 -58 -5 -29 5 -32 8 -28 37 2 21 0 28 -6 19 -7 -10 -11 -10
-22 3 -10 12 -10 15 4 15 10 0 14 5 11 10 -4 6 -16 8 -28 4 -19 -6 -20 -5 -8
10 12 14 11 16 -5 17 -17 0 -16 1 3 9 22 9 87 6 123 -5 11 -4 20 -2 20 4 0 6
-4 11 -10 11 -5 0 -21 12 -34 27 -21 23 -28 25 -38 14 -11 -11 -10 -12 1 -6 9
5 12 4 8 -2 -9 -15 -52 -4 -76 18 -26 24 -48 24 -61 -1 -8 -15 -8 -20 1 -20 7
0 9 -3 5 -7 -12 -12 -77 29 -74 46 3 13 18 16 76 17 40 1 75 -3 78 -7 9 -15
27 -10 21 5 -4 11 3 14 26 14 57 -1 62 2 99 36 19 18 41 35 47 37 7 3 13 12
14 20 2 9 16 28 32 42 l30 26 -31 1 c-28 0 -44 13 -48 40 -2 10 -56 65 -56 57
0 -4 -9 1 -21 12 -12 11 -26 18 -33 15 -17 -6 -56 58 -56 93 0 18 -7 39 -16
47 -21 22 -76 21 -90 -2 -12 -18 -39 -28 -149 -56 -33 -8 -85 -22 -115 -31
-30 -9 -67 -14 -82 -11 -32 6 -33 2 -7 -39 10 -16 22 -37 26 -45 8 -17 29 -40
37 -40 2 0 19 -13 37 -29 22 -20 30 -35 25 -47 -5 -14 -2 -16 28 -11 44 7 71
-11 62 -41 -4 -12 -11 -22 -16 -22 -17 0 -50 -44 -50 -67 0 -22 10 -27 48 -26
13 1 26 -36 20 -62 -4 -23 -22 -20 -26 5 -5 27 -16 25 -30 -5 -6 -14 -16 -25
-22 -25 -6 0 -8 -4 -5 -10 4 -6 -5 -10 -19 -10 -33 0 -33 13 0 39 25 19 25 20
5 31 -12 6 -21 17 -21 25 0 8 -6 15 -14 15 -8 0 -17 6 -19 13 -4 9 -6 8 -6 -2
-1 -8 -9 -20 -18 -27 -15 -10 -21 -10 -35 3 -20 18 -23 11 -8 -17 13 -24 -19
-32 -79 -19 -30 7 -47 7 -55 -1 -15 -15 -26 -12 -26 6 0 12 -8 14 -45 9 -42
-7 -45 -6 -56 21 -11 28 -12 28 -21 8 -10 -22 -42 -28 -125 -25 -26 1 -43 -3
-43 -10 0 -7 -14 -8 -42 -4 -51 9 -57 13 -38 26 11 7 1 8 -33 5 -26 -2 -63 1
-81 6 -29 9 -37 8 -52 -7 -12 -11 -19 -14 -22 -6 -2 6 -8 11 -14 11 -5 0 -24
10 -41 22 -17 12 -28 17 -24 11 11 -17 -4 -45 -20 -39 -8 3 -22 2 -32 -3 -9
-5 -32 -6 -51 -2 -28 7 -31 10 -17 16 9 4 17 13 17 21 0 8 5 14 11 14 7 0 18
8 25 18 11 15 8 21 -19 47 -18 16 -38 30 -45 31 -8 2 -22 10 -33 20 -28 25
-34 10 -14 -32 14 -30 15 -38 4 -45 -10 -6 -11 -9 -1 -9 6 0 12 -9 12 -19 0
-17 -9 -20 -66 -23 -36 -1 -73 1 -82 7 -25 14 -162 15 -162 1 0 -6 -4 -5 -9 3
-8 12 -19 13 -68 4 -53 -11 -60 -10 -75 8 -20 23 -47 27 -28 4 16 -19 5 -34
-12 -17 -7 7 -24 12 -40 12 -15 0 -48 7 -74 16 -27 9 -57 13 -73 9 l-26 -7 25
-10 c14 -6 20 -12 13 -15 -22 -8 -53 17 -53 44 0 21 -3 23 -14 14 -10 -8 -16
-9 -21 -1 -11 18 -26 11 -23 -12 2 -16 -3 -24 -16 -26 -10 -2 -16 0 -13 5 8
12 -85 15 -135 4 -35 -8 -46 -7 -60 6 -16 14 -23 14 -57 3 -21 -7 -47 -9 -59
-6 -11 4 -23 2 -27 -4 -9 -14 -21 -13 -40 7 -14 13 -18 14 -25 3 -12 -19 -36
2 -50 44 -8 25 -7 50 5 105 8 40 15 86 15 102 0 17 5 39 11 50 10 20 11 20 24
2 13 -17 14 -15 15 15 0 37 25 91 49 109 14 10 14 17 3 57 -6 26 -12 55 -12
66 0 29 -13 24 -28 -10 -12 -25 -11 -34 2 -62 9 -17 13 -35 9 -38 -5 -4 -33
-12 -65 -19 -57 -12 -126 -51 -166 -94 -38 -41 -39 -85 -2 -208 18 -60 37
-109 42 -109 4 0 8 -5 8 -12 0 -6 9 -21 20 -33 l20 -21 -67 1 c-38 1 -75 3
-83 6 -20 5 -15 -25 8 -53 34 -41 42 -46 119 -75 197 -75 274 -96 345 -93 20
0 46 -5 56 -11 16 -10 26 -8 54 9 43 27 104 28 150 5 18 -10 35 -21 38 -25 3
-4 32 -11 65 -17 33 -5 67 -12 75 -15 18 -7 54 19 46 33 -13 20 27 29 70 16
24 -7 46 -10 51 -6 4 3 1 -2 -6 -11 -7 -10 -11 -25 -7 -33 3 -8 0 -15 -5 -15
-15 0 -88 -81 -89 -97 0 -7 -7 -13 -15 -13 -8 0 -15 -4 -15 -10 0 -15 -30 -12
-30 3 0 6 -5 4 -11 -5 -6 -11 -22 -18 -39 -18 -34 0 -45 -13 -26 -29 15 -13
49 -4 40 10 -6 10 7 12 30 3 9 -3 13 -10 10 -15 -3 -5 -10 -6 -16 -3 -8 5 -9
-1 -4 -17 9 -28 9 -34 2 -75 -4 -29 -2 -32 25 -36 16 -3 41 1 56 9 14 7 34 13
45 13 14 0 18 5 14 15 -3 9 0 15 9 15 10 0 15 -15 17 -51 2 -42 8 -56 29 -71
40 -30 138 -48 180 -33 29 9 38 8 61 -8 32 -21 63 -15 71 14 7 25 -18 37 -44
21 -26 -17 -46 -15 -53 4 -4 10 0 18 13 21 13 3 17 11 14 24 -4 15 -1 18 11
13 9 -3 30 -1 47 5 20 7 37 7 48 1 14 -7 26 -1 56 30 l39 40 -26 27 c-38 40
-38 63 -1 108 18 21 35 51 38 66 13 60 125 68 310 24 61 -14 117 -28 125 -30
8 -3 62 -16 120 -29 58 -13 126 -31 153 -40 150 -50 177 -58 250 -70 29 -6 37
-4 37 8 0 11 8 14 28 11 15 -3 47 -7 72 -10 25 -3 74 -12 110 -20 72 -16 113
-12 149 16 17 14 28 16 42 8 10 -5 19 -14 19 -19 0 -4 14 -11 30 -15 41 -9 90
-35 96 -50 3 -7 18 -12 35 -11 26 2 29 -1 27 -25 -1 -15 -6 -25 -11 -22 -5 3
-13 -1 -18 -8 -8 -12 -11 -12 -19 1 -9 13 -14 10 -33 -15 -35 -46 -66 -70 -96
-71 -29 -2 -35 16 -16 45 6 11 4 13 -8 8 -11 -4 -17 -1 -17 8 0 22 -23 18 -38
-5 -7 -11 -19 -20 -28 -20 -12 0 -15 -5 -9 -22 26 -82 15 -115 -41 -121 -17
-2 -34 -6 -40 -9 -5 -4 -41 -6 -79 -6 -137 0 -175 -2 -175 -12 0 -5 6 -10 13
-10 8 0 24 -11 38 -26 21 -22 21 -24 4 -18 -16 6 -18 5 -7 -7 16 -17 15 -39
-2 -39 -8 0 -16 -7 -20 -15 -3 -8 -12 -15 -21 -15 -26 0 -17 -19 13 -25 39 -9
112 -45 112 -56 0 -5 6 -9 14 -9 18 0 37 -24 39 -49 1 -12 7 -21 14 -21 7 0
13 -11 13 -25 0 -14 -6 -25 -12 -25 -9 0 -8 -4 2 -11 11 -8 2 -9 -34 -5 -28 3
-54 12 -59 19 -7 9 -10 9 -14 0 -2 -7 -17 -13 -32 -13 -16 0 -38 -9 -51 -20
-14 -12 -39 -20 -64 -21 -68 -2 -90 -6 -119 -18 -36 -14 -44 -14 -44 2 0 18
-49 93 -73 110 -11 7 -17 17 -13 21 4 4 -2 9 -14 12 -12 3 -24 13 -27 21 -3 8
-10 11 -16 8 -5 -3 -10 -2 -10 3 0 18 -54 22 -68 4 -9 -13 -15 -13 -24 -4 -10
10 -8 14 10 19 31 8 23 26 -18 39 -19 6 -40 21 -48 33 -10 15 -25 21 -49 21
-19 0 -47 7 -63 15 -20 10 -30 12 -30 4 0 -7 -9 -9 -26 -5 -18 5 -32 2 -45
-10 -11 -10 -22 -14 -26 -10 -4 4 -1 12 7 17 12 8 11 9 -5 7 -11 -2 -22 -6
-25 -10 -3 -3 -29 -2 -57 3 -47 9 -55 8 -75 -11 -12 -11 -24 -20 -27 -21 -34
-4 -48 -11 -60 -28 -7 -12 -18 -21 -24 -21 -5 0 -18 -10 -28 -22 -11 -11 -19
-16 -19 -10 0 7 -7 12 -15 12 -9 0 -12 -6 -8 -16 3 -8 -9 -1 -28 15 -18 17
-37 31 -41 31 -4 0 -27 20 -51 45 -39 39 -63 81 -81 138 -3 9 -12 17 -21 17
-9 0 -50 16 -91 35 -93 44 -129 43 -163 -2 -13 -18 -30 -33 -38 -33 -8 0 -11
-4 -8 -10 3 -6 1 -10 -4 -10 -6 0 -11 5 -11 11 0 6 -7 9 -14 6 -10 -4 -13 -1
-9 9 3 7 14 14 24 14 25 0 24 12 -1 28 -22 14 -17 37 6 28 16 -6 17 -2 5 22
-16 28 -24 56 -22 70 1 6 -3 12 -9 12 -5 0 -10 7 -10 15 0 8 -9 15 -19 15 -34
0 -61 -33 -71 -89 -11 -58 -5 -82 14 -56 7 10 18 14 30 9 14 -6 17 -16 14 -58
-2 -38 0 -50 10 -48 8 1 11 -2 7 -8 -4 -6 -1 -23 6 -39 9 -21 19 -28 36 -27
20 1 23 5 19 30 -3 16 -11 33 -18 37 -10 7 -10 9 2 9 8 0 22 -15 31 -33 9 -17
22 -31 29 -29 6 1 9 -2 5 -7 -6 -11 70 -71 90 -71 6 0 18 -11 25 -25 7 -14 17
-25 22 -25 22 0 4 -28 -22 -33 -16 -4 -30 -13 -30 -21 0 -19 -31 -30 -42 -14
-6 10 -8 9 -8 -4 0 -14 -12 -18 -77 -20 -86 -3 -240 12 -263 27 -8 5 -35 13
-60 17 -110 21 -172 26 -277 24 -98 -3 -114 -1 -129 15 -14 15 -18 16 -30 4
-11 -10 -22 -11 -47 -4 -17 5 -33 6 -35 1 -3 -11 -96 -1 -104 12 -6 8 -8 7 -8
-2 0 -10 -14 -12 -55 -9 -30 2 -56 1 -57 -3 -2 -4 -17 -5 -35 -3 -24 4 -30 9
-25 21 5 14 4 15 -10 2 -14 -13 -14 -17 0 -35 27 -36 112 -97 161 -116 95 -35
299 -68 430 -69 l23 0 -26 -35 c-15 -19 -22 -35 -17 -35 6 0 11 5 11 10 0 6 5
10 11 10 6 0 9 -6 6 -12 -3 -9 10 -13 47 -14 52 -1 193 -43 232 -69 11 -7 35
-26 51 -42 37 -33 50 -44 86 -67 15 -10 24 -22 21 -27 -3 -5 -7 -19 -9 -30 -7
-34 -15 -35 -16 -3 0 29 0 29 -10 5 -14 -36 -44 -58 -89 -65 -21 -3 -43 -13
-48 -22 -8 -14 -24 -17 -88 -15 -44 1 -86 -3 -94 -9 -12 -8 -9 -10 13 -11 26
-1 60 -5 73 -8 14 -3 -27 -31 -45 -31 -12 0 -21 -4 -21 -9 0 -5 -24 -12 -53
-15 -77 -10 -90 -22 -38 -36 24 -6 40 -14 37 -18 -9 -8 151 -70 182 -71 12 -1
30 -5 40 -11 23 -13 208 -50 249 -50 18 0 33 -4 33 -9 0 -5 26 -19 57 -31 31
-12 61 -24 67 -28 18 -11 164 -61 286 -98 63 -19 149 -47 190 -61 77 -26 145
-42 106 -25 -19 8 -19 9 3 15 22 5 61 -10 61 -24 0 -4 -10 -5 -22 -2 -13 3
-21 3 -18 0 3 -3 20 -8 37 -12 18 -3 44 -10 60 -16 47 -18 100 -22 109 -8 4 7
2 15 -4 17 -20 6 -14 42 7 42 11 0 21 4 23 9 2 6 18 5 40 -2 35 -11 48 -33 48
-82 0 -20 -36 -24 -60 -8 -11 8 -28 13 -37 11 -16 -3 -16 -4 0 -18 10 -8 26
-23 35 -32 9 -9 29 -19 44 -23 16 -4 26 -10 24 -14 -3 -4 3 -7 13 -8 10 -1 40
-15 66 -32 27 -17 55 -31 62 -31 7 0 30 -9 50 -20 21 -11 43 -20 49 -20 6 0
25 -7 42 -16 17 -8 69 -26 114 -39 46 -13 103 -31 128 -40 25 -9 57 -14 72
-11 15 3 30 1 33 -5 10 -14 200 -107 269 -130 55 -19 91 -21 495 -25 458 -5
571 -12 686 -45 39 -10 88 -24 110 -31 95 -26 199 -64 335 -120 169 -70 199
-76 425 -83 94 -2 213 -7 265 -11 105 -7 255 7 397 36 184 38 353 37 738 -5
400 -44 633 -42 663 4 8 11 19 21 25 21 5 0 2 -9 -8 -20 -19 -21 -48 -5 320
-180 102 -48 169 -83 175 -89 5 -6 4 -6 141 -81 52 -29 164 -98 249 -154 177
-118 315 -191 480 -257 19 -7 87 -40 150 -73 63 -32 142 -73 175 -89 33 -17
146 -88 250 -157 105 -69 226 -150 270 -178 l80 -53 3 63 c2 42 -1 64 -9 67
-6 2 -19 11 -29 21 -10 10 -28 21 -40 25 -13 4 -38 23 -57 42 -20 19 -41 32
-49 29 -8 -3 -21 5 -29 18 -16 24 -53 45 -94 52 -29 6 -70 35 -71 51 0 6 -8
18 -19 25 -10 7 -21 23 -25 35 -9 29 -37 38 -53 17 -12 -16 -13 -17 -13 -1 0
11 -8 17 -25 17 -16 0 -25 6 -25 15 0 8 -9 15 -20 15 -22 0 -27 15 -7 23 6 3
2 6 -11 6 -14 1 -26 10 -31 25 -5 13 -16 26 -24 29 -8 3 -17 19 -20 36 -4 17
-13 31 -21 31 -7 0 -16 7 -20 15 -3 8 -13 15 -22 15 -9 0 -27 9 -41 20 -14 11
-34 20 -43 20 -10 0 -23 7 -30 15 -10 11 -10 15 0 15 27 0 1 25 -31 30 -26 4
-35 10 -37 28 -3 19 -9 22 -52 22 -27 0 -52 5 -55 10 -3 6 -15 10 -27 10 -12
0 -22 8 -25 20 -4 15 -11 19 -27 15 -21 -6 -21 -6 -2 9 19 15 18 16 -15 16
-50 0 -77 10 -82 29 -2 10 -19 21 -38 26 -23 5 -28 9 -16 12 31 8 18 19 -35
29 -42 7 -53 13 -52 27 1 12 -7 20 -27 24 -16 3 -32 10 -35 14 -3 5 -13 9 -23
9 -10 0 -27 11 -37 25 -10 14 -23 25 -29 25 -14 0 -48 40 -57 65 -6 19 -7 18
-14 -4 -7 -23 -8 -24 -15 -5 -4 10 -5 29 -2 40 3 14 -1 24 -12 28 -9 3 -14 10
-10 16 3 5 12 72 20 147 19 178 33 239 62 266 26 25 31 49 7 40 -12 -4 -15 -1
-12 13 6 34 35 28 42 -8 11 -60 12 -143 2 -163 -5 -11 -10 -27 -11 -35 -6 -56
-18 -117 -27 -127 -7 -9 -7 -13 1 -13 6 0 18 12 28 28 10 15 20 29 23 32 3 3
28 34 55 70 27 36 52 67 55 70 22 21 110 168 167 280 l68 135 0 90 c0 75 -4
96 -23 128 -12 21 -22 43 -22 50 0 7 -11 35 -25 62 -13 28 -25 58 -25 68 0 14
-7 18 -27 17 -45 -3 -53 -1 -53 15 0 8 -3 14 -7 14 -27 -4 -53 3 -53 14 0 13
-40 57 -52 57 -13 0 -18 -34 -6 -47 9 -11 9 -16 -1 -23 -8 -4 -10 -13 -6 -19
5 -9 11 -7 21 6 13 17 13 17 14 -3 0 -12 11 -33 25 -48 53 -57 72 -137 41
-168 -12 -12 -12 -18 0 -39 7 -13 13 -18 14 -11 0 18 20 5 20 -14 0 -8 -5 -13
-12 -12 -6 2 -12 -8 -13 -22 -1 -14 -7 -35 -13 -47 -7 -12 -12 -31 -12 -42 0
-15 -6 -21 -23 -21 -26 0 -47 -17 -47 -39 -1 -21 -47 -54 -65 -47 -8 3 -17 1
-20 -5 -4 -5 -23 -16 -43 -25 -40 -16 -122 -96 -122 -118 0 -8 -7 -19 -15 -26
-18 -15 -47 -108 -51 -163 -1 -22 -11 -61 -20 -88 -15 -41 -16 -52 -5 -73 11
-20 11 -29 -3 -57 -9 -17 -16 -37 -16 -43 0 -6 -9 -20 -21 -29 -19 -17 -22
-17 -39 -2 -17 16 -20 15 -37 -12 -38 -60 -63 -67 -63 -17 0 19 -5 24 -26 24
-24 0 -25 3 -19 28 4 15 8 39 10 53 1 14 18 50 37 80 20 30 43 71 51 91 28 68
46 199 45 323 -1 66 2 130 6 142 6 20 5 21 -18 10 -14 -7 -26 -18 -26 -24 0
-7 -4 -13 -9 -13 -23 0 -55 -162 -47 -235 10 -84 9 -156 -2 -180 -5 -11 -17
-45 -26 -75 -10 -30 -22 -64 -27 -75 -5 -11 -13 -32 -19 -47 -5 -16 -14 -28
-19 -28 -13 0 -20 54 -31 260 -12 231 -26 268 -68 182 -33 -67 -46 -86 -104
-150 -32 -34 -58 -71 -58 -82 0 -25 -15 -33 -29 -16 -30 36 4 249 61 381 34
80 59 157 53 163 -7 7 -55 -42 -55 -55 0 -19 -24 -16 -43 5 -24 27 -23 162 2
252 15 53 17 70 7 70 -34 0 -110 -142 -135 -250 -21 -95 -37 -146 -54 -177 -9
-18 -17 -37 -17 -43 0 -6 -10 -25 -22 -43 -13 -18 -24 -34 -26 -36 -1 -3 -9 4
-16 15 -8 10 -16 17 -19 14 -22 -23 -77 -102 -77 -111 0 -6 -12 -9 -27 -7
l-28 3 -3 110 c-1 61 1 165 5 233 5 67 6 122 3 122 -3 0 -12 -21 -19 -48 -20
-67 -48 -117 -90 -161 -20 -21 -47 -51 -59 -66 -22 -25 -25 -26 -40 -11 -9 9
-21 32 -27 52 l-10 35 -42 -35 c-22 -20 -46 -36 -51 -36 -5 0 -12 -7 -16 -15
-3 -8 -11 -15 -18 -15 -7 0 -40 -13 -72 -29 -41 -21 -68 -28 -88 -24 -17 3
-35 0 -44 -8 -11 -9 -43 -14 -83 -15 -36 0 -74 -4 -83 -8 -9 -4 -21 -5 -27 -2
-5 3 -17 -1 -26 -10 -12 -13 -25 -15 -63 -8 -26 4 -51 6 -57 5 -34 -9 -60 -12
-150 -15 -74 -3 -105 0 -121 11 -15 9 -24 11 -29 4 -3 -6 -19 -11 -34 -11 -15
0 -32 -5 -39 -12 -8 -8 -12 -8 -12 -1 0 20 -62 25 -82 7 -17 -16 -19 -16 -38
1 -25 23 -40 26 -110 26 -30 0 -80 7 -110 15 -30 9 -77 22 -104 30 -26 8 -63
14 -80 14 -18 0 -36 4 -42 9 -17 17 -89 33 -184 42 -157 13 -254 31 -310 57
-72 32 -243 47 -274 23 -6 -4 -33 -11 -60 -15 -27 -3 -56 -12 -64 -19 -13 -10
-14 -9 -7 2 6 10 4 13 -6 9 -8 -3 -66 3 -129 14 -63 10 -134 18 -156 18 -25
-1 -48 5 -57 14 -8 9 -33 18 -54 22 -31 5 -55 21 -111 75 -39 38 -77 69 -85
69 -8 0 -17 9 -20 20 -3 11 -12 20 -21 20 -9 0 -16 7 -16 15 0 8 -12 17 -27
21 -16 3 -44 11 -63 17 -19 6 -68 11 -108 12 l-73 2 4 -48 c3 -31 1 -50 -6
-52 -7 -3 -2 -12 13 -22 48 -34 170 -166 170 -185 0 -28 -49 -63 -80 -56 -36
9 -70 15 -113 20 -35 5 -38 3 -44 -24 -3 -17 -10 -30 -15 -30 -6 0 -8 7 -4 15
6 17 -28 40 -45 29 -12 -7 -9 -63 5 -82 7 -11 12 -8 22 10 l13 23 1 -27 c0
-31 17 -36 35 -11 11 14 14 12 29 -17 9 -18 14 -35 12 -38 -8 -8 -82 23 -211
89 -71 36 -209 103 -305 148 -210 98 -227 109 -211 140 9 16 18 20 36 15 21
-5 25 -2 25 15 0 12 5 21 10 21 19 0 10 39 -10 45 -27 9 -103 83 -96 94 8 13
-15 18 -106 27 -54 4 -78 3 -78 -4 0 -7 -19 -10 -50 -8 -57 3 -75 -7 -84 -46
-5 -21 -2 -28 14 -33 18 -6 29 -25 14 -25 -3 0 -49 20 -102 45 -103 50 -232
129 -232 144 0 5 -26 19 -57 31 -211 81 -452 205 -492 254 -11 13 -11 19 -1
31 10 12 10 24 0 60 -16 58 -9 130 19 189 l23 46 116 0 c65 -1 137 -5 162 -10
25 -6 70 -14 100 -20 52 -9 95 -25 238 -91 34 -16 69 -29 78 -29 13 0 80 -32
124 -59 8 -6 27 -12 42 -16 15 -3 42 -18 60 -34 18 -15 42 -31 54 -35 31 -9
185 -110 217 -141 16 -17 27 -22 27 -14 0 11 2 11 10 -1 5 -8 10 -10 10 -5 0
6 4 3 9 -4 8 -12 11 -9 16 12 5 19 2 33 -8 45 -29 32 -67 120 -67 154 0 36 24
68 51 68 8 0 23 14 33 30 35 61 50 65 214 51 242 -19 307 -30 395 -67 71 -30
107 -52 125 -76 7 -10 18 -16 23 -13 5 4 9 1 9 -4 0 -6 7 -11 15 -11 8 0 15
-4 15 -10 0 -14 80 -90 95 -90 8 0 25 -12 39 -27 23 -25 27 -26 51 -13 22 12
40 12 113 1 85 -12 356 -84 376 -100 12 -9 137 -44 139 -39 27 55 63 62 222
48 109 -9 321 -53 391 -81 16 -6 50 -17 76 -23 46 -13 47 -12 42 8 -7 29 21
52 131 107 50 25 135 68 190 96 119 61 140 67 700 211 66 17 183 40 260 52 92
14 151 28 173 42 31 19 35 38 7 38 -19 0 -26 27 -9 40 8 7 14 17 14 22 0 6 8
22 19 36 24 35 34 107 16 122 -11 9 -11 17 -3 36 6 13 15 24 20 24 4 0 8 6 8
12 0 7 21 31 46 54 l46 42 -15 43 c-26 77 -24 109 12 178 24 47 31 70 26 90
-9 35 -7 174 4 181 4 3 14 20 22 38 8 18 22 35 31 38 19 6 24 20 9 26 -5 2
-12 20 -16 41 -6 30 -4 37 9 37 9 0 16 -8 16 -20 0 -11 7 -20 15 -20 18 0 19
14 3 32 -7 8 -18 23 -24 33 -7 12 -22 20 -38 20 -29 -1 -34 18 -11 41 8 9 15
24 15 35 0 11 -7 22 -15 25 -8 4 -15 10 -15 16 0 5 7 16 15 24 11 11 15 37 15
94 0 54 4 80 13 83 6 2 9 8 4 12 -4 5 -13 3 -19 -3 -7 -7 -18 -12 -26 -12 -17
0 -7 37 19 66 43 46 12 45 -107 -5 -50 -21 -122 -57 -160 -81 -89 -56 -248
-175 -271 -203 -19 -22 -109 -107 -171 -159 -17 -16 -37 -28 -44 -28 -7 0 -35
25 -63 55 l-50 56 3 62 c4 72 -20 179 -49 219 -12 17 -19 44 -19 73 0 83 -50
102 -185 70 -64 -16 -171 -20 -178 -7 -3 4 -8 25 -11 48 l-7 41 123 7 c68 4
166 11 218 16 303 32 338 43 417 136 26 32 62 71 79 88 44 44 52 64 46 108 -4
30 0 44 15 61 38 42 42 58 28 137 -7 41 -11 80 -8 86 6 17 -96 194 -116 201
-43 14 -79 34 -84 47 -13 33 -77 68 -139 76 -161 22 -180 28 -209 64 -16 18
-39 36 -53 40 -33 8 -41 34 -13 45 12 5 87 14 167 21 170 13 298 29 321 41 23
11 35 -5 79 -104 20 -45 48 -100 62 -122 14 -22 32 -65 41 -96 10 -32 40 -88
74 -136 93 -132 293 -394 334 -440 48 -53 53 -74 45 -191 l-7 -95 28 18 c47
30 163 127 179 149 7 11 14 34 14 51 0 17 5 36 10 41 15 15 21 54 9 54 -13 0
-1 63 12 68 5 2 9 23 9 46 0 23 5 47 11 53 16 16 7 54 -16 67 -33 18 -109 88
-127 118 -10 15 -25 28 -33 28 -8 0 -15 4 -15 8 0 5 -9 20 -21 33 -13 15 -20
35 -18 59 1 19 -2 43 -6 54 -7 16 -1 261 8 309 2 9 17 32 34 50 17 17 28 38
26 45 -3 6 2 12 10 12 9 0 18 9 22 19 11 35 136 39 149 5 3 -8 14 -14 24 -14
10 0 27 -9 37 -20 10 -11 26 -20 36 -20 23 0 151 -128 244 -243 17 -20 44 -51
62 -68 17 -17 34 -41 37 -54 3 -13 25 -34 51 -50 28 -16 52 -40 63 -61 10 -21
22 -33 32 -32 8 2 24 -4 34 -14 11 -10 34 -22 50 -27 39 -10 82 -37 128 -77
47 -41 61 -70 54 -105 -5 -25 -1 -31 27 -45 49 -26 79 -52 67 -59 -15 -9 -12
-31 6 -49 11 -12 12 -16 2 -16 -17 0 74 -91 127 -127 22 -15 49 -35 60 -45 47
-43 169 -137 173 -133 10 9 28 -21 24 -41 -3 -17 7 -27 52 -53 49 -28 55 -36
50 -56 -5 -20 -1 -25 23 -31 15 -4 40 -15 55 -25 14 -11 30 -19 35 -19 5 0 23
-13 40 -29 18 -16 38 -31 45 -34 10 -4 10 -8 -2 -16 -9 -7 -10 -11 -3 -11 8 0
10 -12 6 -35 -5 -30 -3 -35 13 -35 11 0 32 -12 47 -26 24 -20 30 -35 34 -82 5
-55 4 -58 -21 -70 -48 -22 -30 -34 44 -30 66 3 70 2 70 -18 0 -12 7 -39 16
-60 15 -37 15 -39 -5 -55 -27 -22 -27 -25 7 -32 15 -3 38 -15 51 -26 13 -12
29 -21 35 -21 18 -1 67 -56 68 -76 1 -11 -2 -34 -6 -51 -7 -29 -5 -34 16 -42
41 -15 61 -47 55 -84 -5 -32 -3 -35 39 -52 39 -16 43 -21 41 -48 -1 -22 4 -34
18 -41 12 -6 19 -19 17 -28 -3 -14 4 -18 31 -18 36 0 64 -21 52 -40 -3 -5 1
-13 9 -16 9 -3 16 -15 16 -25 0 -14 7 -19 28 -19 40 0 60 -19 64 -60 3 -32 6
-35 33 -35 26 0 31 -4 35 -30 3 -20 12 -31 25 -33 11 -2 27 -10 35 -17 8 -7
27 -15 43 -19 20 -5 27 -12 27 -31 0 -13 5 -27 10 -30 6 -4 10 32 10 100 l0
107 -170 165 c-189 184 -243 255 -310 412 -107 249 -140 298 -277 413 -102 85
-118 99 -278 244 -66 60 -166 147 -223 193 -109 87 -103 80 -294 376 -47 72
-156 183 -207 210 -62 31 -292 216 -339 271 -32 37 -121 148 -180 224 -15 19
-53 66 -86 104 -32 39 -74 102 -92 140 -25 56 -53 92 -126 166 -52 52 -114
124 -138 160 -23 36 -58 81 -76 100 -24 26 -37 53 -49 105 -9 38 -22 88 -30
110 -39 113 -77 210 -110 275 -35 69 -37 71 -55 55 -13 -12 -42 -19 -91 -22
-155 -9 -233 -89 -352 -360 -13 -29 -23 -29 -63 2 -37 28 -90 33 -120 10 -22
-16 -64 -20 -64 -5 0 19 -2 25 -21 63 -11 21 -31 47 -44 59 -19 16 -22 25 -15
39 11 19 -7 44 -38 52 -93 26 -126 29 -225 17 -56 -6 -118 -16 -138 -22 -32
-9 -41 -7 -77 15 -22 15 -52 29 -66 33 -14 3 -30 12 -36 19 -15 18 14 23 195
30 249 10 452 37 515 70 38 19 76 67 90 112 7 21 21 58 32 82 15 33 18 55 13
91 -6 41 -4 50 14 62 21 15 21 15 1 40 -10 14 -29 52 -41 84 -27 74 -58 116
-106 145 -21 12 -54 38 -73 58 -20 20 -50 48 -67 62 -28 23 -31 30 -26 66 4
32 0 48 -21 81 -32 50 -55 63 -117 66 -27 1 -56 9 -66 18 -18 15 -46 29 -70
34 -8 1 -13 -10 -13 -31 0 -31 -18 -58 -36 -54 -11 3 -45 -11 -62 -24 -10 -8
-9 -14 5 -31 17 -19 17 -20 1 -7 -18 13 -24 6 -19 -22 1 -5 3 -23 5 -40 l4
-31 -29 34 c-16 19 -29 38 -29 41 0 4 -7 10 -16 13 -13 5 -15 1 -10 -18 6 -25
-9 -47 -16 -25 -3 8 -14 2 -29 -12 -21 -22 -24 -34 -24 -99 0 -66 -3 -78 -24
-97 -13 -13 -20 -23 -16 -23 5 0 -5 -11 -23 -23 -17 -13 -29 -26 -26 -30 3 -3
-10 -13 -30 -22 -19 -9 -38 -26 -41 -36 -4 -11 -10 -17 -15 -14 -5 3 -16 -5
-24 -17 -9 -12 -16 -16 -16 -9 0 9 -4 10 -12 3 -16 -12 -168 -22 -168 -10 0
12 -38 10 -45 -2 -4 -6 -31 -8 -68 -5 -34 3 -125 8 -202 10 -77 3 -151 7 -165
9 -14 2 -28 5 -31 5 -4 1 -10 12 -13 25 -6 23 -10 25 -56 21 -46 -3 -67 7 -37
18 9 4 9 6 0 6 -9 1 -10 8 -2 27 5 15 7 29 5 32 -6 6 60 43 71 40 12 -3 83 25
83 32 0 4 -48 10 -107 15 -153 11 -203 15 -256 24 -5 0 -5 6 -2 11 4 6 -6 10
-22 10 -30 0 -133 44 -133 57 0 4 -19 9 -43 10 -32 1 -37 -1 -22 -7 14 -7 9
-8 -17 -4 -25 4 -38 2 -38 -5 0 -6 -4 -11 -10 -11 -16 0 -12 28 6 38 14 8 14
10 -1 22 -15 12 -19 12 -30 -3 -14 -19 -40 -23 -50 -7 -3 6 -24 10 -45 10 -26
0 -43 6 -50 18 -9 14 -10 11 -6 -15 4 -24 2 -33 -8 -33 -22 0 -37 25 -24 38 9
9 7 12 -7 12 -15 0 -16 3 -7 9 10 6 10 10 -2 20 -10 8 -16 9 -21 1 -3 -5 -19
-10 -35 -10 -32 0 -62 -34 -74 -83 -5 -22 -11 -27 -25 -22 -14 4 -20 -1 -23
-20 -6 -29 8 -45 15 -18 3 14 8 10 19 -16 9 -19 17 -29 19 -24 6 16 79 24 85
9 3 -8 15 -11 31 -8 14 3 24 1 21 -4 -3 -5 -8 -18 -12 -29 -6 -16 -9 -17 -16
-5 -7 11 -13 12 -35 2 -16 -8 -32 -9 -39 -4 -32 26 -57 21 -99 -21 -23 -23
-36 -42 -29 -45 7 -2 12 -15 12 -28 0 -14 4 -23 8 -20 12 7 26 -6 40 -38 22
-49 -6 -55 -92 -18 -36 15 -39 15 -51 -1 -15 -21 -25 -22 -25 -2 0 18 -3 18
-64 0 -69 -21 -136 -20 -136 2 0 13 -3 14 -12 5 -7 -7 -26 -13 -42 -13 l-31
-2 35 -7 c28 -5 31 -8 17 -14 -9 -5 -30 -5 -45 -2 -36 9 -22 9 -223 2 l-176
-6 5 28 c2 19 13 32 32 40 43 20 44 39 4 74 -35 31 -36 33 -17 48 10 8 19 20
19 25 1 19 77 62 112 63 20 1 58 9 86 19 28 9 58 16 67 15 9 -2 19 4 22 13 4
8 15 15 26 15 10 0 22 7 25 16 3 8 2 12 -3 9 -5 -3 -12 -1 -16 5 -3 6 1 13 9
16 8 3 18 14 21 23 6 20 45 41 75 41 11 0 20 7 20 15 0 9 9 15 24 15 14 0 28
5 31 10 11 18 43 11 50 -11 6 -17 9 -19 17 -8 7 10 11 11 14 2 4 -9 13 -9 30
-2 14 5 35 9 47 9 12 1 32 9 45 19 22 19 31 38 12 26 -5 -3 -10 1 -10 9 0 9
-9 25 -20 36 -11 11 -20 27 -20 36 0 27 -44 13 -48 -15 -5 -30 -26 -52 -44
-47 -54 17 -75 15 -86 -10 -7 -15 -20 -24 -34 -24 -13 0 -48 -7 -78 -15 -44
-12 -65 -13 -102 -4 -27 6 -48 15 -48 20 0 4 -6 6 -14 3 -7 -3 -20 6 -29 20
-11 17 -29 26 -59 31 -24 4 -69 22 -100 40 l-58 34 -30 -30z m58 -41 c15 -15
15 -28 1 -28 -11 0 -39 24 -39 34 0 11 26 6 38 -6z m-8 -118 c0 -5 -7 -10 -16
-10 -8 0 -12 5 -9 10 3 6 10 10 16 10 5 0 9 -4 9 -10z m86 -2 c4 -6 -1 -17
-11 -24 -23 -17 -29 -12 -20 15 7 23 20 27 31 9z m-61 -18 c3 -5 1 -10 -4 -10
-6 0 -11 5 -11 10 0 6 2 10 4 10 3 0 8 -4 11 -10z m1075 -80 c0 -5 -8 -10 -17
-10 -15 0 -16 2 -3 10 19 12 20 12 20 0z m-170 -10 c0 -5 -9 -10 -20 -10 -11
0 -20 5 -20 10 0 6 9 10 20 10 11 0 20 -4 20 -10z m2337 -44 c13 -12 23 -26
23 -33 0 -6 4 -13 10 -15 18 -6 16 -52 -2 -56 -14 -3 -18 3 -18 25 0 27 -15
53 -31 53 -4 0 -3 -16 1 -35 9 -40 2 -114 -13 -132 -17 -23 -26 -14 -20 22 5
30 3 35 -14 35 -10 0 -24 -5 -31 -12 -9 -9 -12 -8 -12 5 0 9 5 17 10 17 12 0
13 40 1 59 -5 8 -16 11 -25 8 -15 -6 -15 -9 -1 -31 15 -22 14 -24 -5 -29 -12
-3 -24 -15 -27 -26 -3 -12 -10 -21 -15 -21 -6 0 -8 7 -5 14 4 11 1 13 -11 9
-9 -3 -14 -3 -10 2 4 4 1 20 -8 36 -12 25 -17 27 -40 19 -35 -14 -36 -13 -24
11 7 11 18 18 25 15 17 -6 51 31 47 54 -2 15 5 17 53 15 30 -1 55 2 55 6 0 10
31 17 50 10 8 -2 25 -14 37 -25z m-292 -86 c3 -5 1 -10 -4 -10 -6 0 -11 5 -11
10 0 6 2 10 4 10 3 0 8 -4 11 -10z m369 -25 c3 -8 1 -15 -4 -15 -6 0 -10 7
-10 15 0 8 2 15 4 15 2 0 6 -7 10 -15z m-1984 -45 c0 -6 9 -6 24 0 21 7 23 6
19 -11 -3 -10 0 -19 6 -19 13 0 15 -39 2 -58 -11 -19 -84 -34 -92 -20 -4 6 -9
3 -13 -8 -5 -16 -16 -19 -76 -19 -63 0 -70 2 -66 18 2 9 0 17 -5 17 -7 0 -13
-18 -11 -40 0 -3 -45 -5 -101 -4 -171 1 -177 2 -177 22 0 10 -9 25 -20 35 -31
26 -26 49 8 41 15 -4 33 -10 41 -14 16 -8 51 -2 51 10 0 4 20 11 45 15 49 7
105 -10 105 -32 0 -7 6 -10 14 -7 8 3 12 12 9 20 -6 16 8 17 57 8 28 -6 31
-10 28 -34 -3 -22 -1 -26 13 -23 12 3 17 14 16 31 -2 23 6 31 48 54 54 28 75
34 75 18z m1785 -50 c-3 -5 -11 -10 -16 -10 -6 0 -7 5 -4 10 3 6 11 10 16 10
6 0 7 -4 4 -10z m165 -62 c0 -17 -3 -18 -15 -8 -8 7 -15 19 -15 26 0 8 6 11
15 8 8 -4 15 -15 15 -26z m-3902 -2 c-2 -17 -10 -21 -45 -21 -28 0 -45 5 -52
18 -12 19 -1 23 16 6 8 -8 17 -7 32 3 30 22 53 19 49 -6z m326 -334 c2 -4 -11
-6 -30 -4 -19 2 -34 6 -34 8 0 8 59 4 64 -4z m-87 -8 c-3 -3 -12 -4 -19 -1 -8
3 -5 6 6 6 11 1 17 -2 13 -5z m33 -89 c0 -8 -4 -15 -9 -15 -5 0 -11 7 -15 15
-3 9 0 15 9 15 8 0 15 -7 15 -15z m-80 -15 c0 -5 -2 -10 -4 -10 -3 0 -8 5 -11
10 -3 6 -1 10 4 10 6 0 11 -4 11 -10z m-980 -105 c-7 -9 -15 -13 -17 -11 -7 7
7 26 19 26 6 0 6 -6 -2 -15z m7 -80 c8 -9 23 -13 34 -10 18 6 54 -8 74 -29 6
-6 10 -26 9 -43 -3 -66 -13 -80 -45 -63 -37 20 -89 79 -89 102 0 17 -2 18 -15
8 -18 -15 -21 1 -5 31 13 23 17 23 37 4z m4853 -285 c0 -5 -2 -10 -4 -10 -3 0
-8 5 -11 10 -3 6 -1 10 4 10 6 0 11 -4 11 -10z m-985 -90 c3 -5 1 -10 -4 -10
-6 0 -11 5 -11 10 0 6 2 10 4 10 3 0 8 -4 11 -10z m1061 -31 c4 -8 9 -7 15 2
6 10 9 6 9 -13 0 -16 -3 -28 -8 -28 -8 0 -42 37 -42 45 0 9 19 5 26 -6z
m-5182 -44 c3 -10 -1 -15 -14 -15 -20 0 -33 13 -23 24 11 11 31 6 37 -9z
m4754 -22 c-19 -73 -30 -90 -54 -85 -17 3 -23 -1 -26 -19 -3 -21 -10 -25 -53
-30 -27 -3 -58 -9 -67 -13 -11 -5 -18 -4 -18 3 0 6 6 11 13 12 9 0 9 2 -1 6
-10 4 -8 9 8 20 14 10 19 21 15 34 -5 16 -1 19 22 19 25 1 26 2 9 12 -17 10
-16 12 20 30 21 11 47 21 56 23 10 2 26 8 35 14 10 6 26 11 35 11 14 0 15 -5
6 -37z m-4477 4 c-13 -13 -26 -3 -16 12 3 6 11 8 17 5 6 -4 6 -10 -1 -17z
m4965 -29 c12 -55 11 -132 -2 -157 -28 -54 -64 -43 -64 19 0 29 6 43 24 57 25
19 42 78 26 88 -13 8 -13 25 -1 25 5 0 13 -15 17 -32z m-2582 -4 c4 -12 2 -15
-9 -10 -8 3 -15 1 -15 -5 0 -6 -4 -7 -10 -4 -6 4 -5 11 3 20 16 19 24 18 31
-1z m1852 -105 c10 -17 -9 -29 -35 -22 -23 6 -23 7 -6 20 23 16 32 16 41 2z
m74 -29 c-8 -5 -19 -10 -25 -10 -5 0 -3 5 5 10 8 5 20 10 25 10 6 0 3 -5 -5
-10z m-3148 -248 c-13 -2 -31 0 -40 3 -15 6 -15 8 3 15 11 4 29 3 40 -4 19
-10 19 -11 -3 -14z m-35 -69 c0 -14 -8 -16 -31 -7 -24 9 -19 22 7 20 13 0 24
-7 24 -13z m2708 -22 c33 -6 119 -14 190 -17 86 -5 138 -12 152 -21 l22 -15
-24 -24 c-15 -14 -44 -28 -72 -33 -26 -5 -52 -16 -59 -25 -6 -9 -20 -16 -30
-16 -10 0 -31 -6 -45 -14 -15 -7 -39 -13 -53 -13 -37 0 -53 -17 -36 -37 10
-13 8 -18 -16 -28 -28 -11 -28 -12 -6 -16 13 -2 38 3 56 12 50 23 162 36 187
20 4 -2 11 1 15 7 4 8 3 9 -4 5 -7 -4 -12 -1 -12 7 0 8 11 17 25 19 20 4 26 1
31 -19 9 -36 53 -53 137 -54 71 -1 143 18 157 41 4 6 27 4 61 -4 30 -8 63 -14
74 -13 12 1 21 -6 25 -23 3 -14 12 -25 20 -25 10 0 16 -12 18 -32 2 -19 -1
-33 -7 -33 -6 0 -11 11 -11 25 0 31 -20 25 -64 -21 -18 -19 -40 -34 -50 -34
-11 0 -16 -9 -16 -31 0 -17 -3 -29 -7 -27 -5 2 -20 10 -35 17 -15 8 -34 11
-42 8 -19 -8 -21 -49 -4 -77 17 -26 -4 -50 -30 -34 -29 17 -55 6 -48 -22 6
-24 -7 -33 -19 -14 -10 17 -55 12 -55 -6 0 -19 -47 -59 -72 -60 -12 -1 -18 6
-18 18 0 14 -5 18 -16 14 -13 -5 -14 -1 -9 24 9 40 -4 59 -19 28 -6 -12 -20
-24 -31 -27 -11 -2 -24 -9 -28 -17 -11 -19 -41 -18 -34 0 7 18 -26 25 -68 14
-16 -4 -33 -4 -39 2 -6 6 -18 0 -34 -18 -18 -19 -27 -23 -30 -13 -4 11 -6 11
-13 0 -4 -7 -30 -14 -61 -15 l-54 -2 4 29 c2 15 10 33 17 39 7 6 11 20 8 30
-4 13 0 20 9 20 21 0 51 36 43 50 -4 7 0 10 11 8 12 -2 18 2 16 11 -2 7 4 22
13 31 15 17 14 21 -29 62 -35 35 -45 51 -44 76 1 20 6 32 15 32 7 0 13 4 13
10 0 6 3 9 8 9 26 -4 42 3 42 20 0 23 -23 34 -39 18 -8 -8 -14 -9 -19 -1 -20
31 -100 38 -88 8 3 -8 0 -14 -7 -14 -18 0 -43 70 -28 80 7 4 9 15 5 25 -5 12
-4 16 3 12 15 -9 -24 65 -39 75 -16 11 105 4 187 -11z m-3515 -61 c8 -5 11
-10 5 -10 -5 0 -17 5 -25 10 -8 5 -10 10 -5 10 6 0 17 -5 25 -10z m-55 -60 c3
-5 -1 -10 -10 -10 -9 0 -13 5 -10 10 3 6 8 10 10 10 2 0 7 -4 10 -10z m3320
-50 c3 -5 -1 -10 -10 -10 -9 0 -13 5 -10 10 3 6 8 10 10 10 2 0 7 -4 10 -10z
m1105 -94 c0 -11 -19 -15 -25 -6 -3 5 1 10 9 10 9 0 16 -2 16 -4z m-4455 -96
c3 -5 -1 -10 -10 -10 -9 0 -13 5 -10 10 3 6 8 10 10 10 2 0 7 -4 10 -10z
m4215 -130 c0 -5 -5 -10 -11 -10 -5 0 -7 5 -4 10 3 6 8 10 11 10 2 0 4 -4 4
-10z m-4132 -31 c47 -1 80 -13 64 -23 -20 -12 -142 4 -142 19 0 15 33 25 38
13 2 -4 20 -8 40 -9z m818 -9 c24 0 44 -4 44 -10 0 -11 -100 -14 -150 -4 -32
7 -32 7 -9 19 15 9 31 10 47 4 13 -5 43 -9 68 -9z m-709 -6 c-3 -3 -12 -4 -19
-1 -8 3 -5 6 6 6 11 1 17 -2 13 -5z m46 -1 c-7 -2 -19 -2 -25 0 -7 3 -2 5 12
5 14 0 19 -2 13 -5z m1967 -3 c0 -5 -4 -10 -10 -10 -5 0 -10 5 -10 10 0 6 5
10 10 10 6 0 10 -4 10 -10z m1917 -66 c-3 -4 -14 -3 -24 0 -15 6 -15 8 -3 16
16 10 39 -4 27 -16z m-70 -29 c-4 -8 -11 -15 -17 -15 -14 0 -13 27 3 33 16 6
21 1 14 -18z m-3257 -123 c7 2 21 -11 32 -29 l19 -31 -22 5 c-14 4 -20 2 -16
-4 9 -14 -44 -22 -72 -11 -30 11 -24 62 7 66 12 2 22 9 22 15 0 8 3 8 9 -1 4
-7 14 -12 21 -10z m1665 -412 c33 -34 38 -43 28 -58 -6 -9 -17 -16 -24 -14 -7
2 -34 -3 -61 -9 -35 -9 -51 -10 -59 -2 -8 8 0 16 27 30 l39 18 -28 3 c-21 3
-27 8 -23 19 4 11 2 13 -9 9 -20 -7 -19 8 1 28 28 28 67 19 109 -24z m-3397
-48 c2 -13 -2 -22 -10 -21 -19 1 -55 17 -40 18 6 1 11 4 11 9 -3 18 2 23 19
20 9 -2 18 -13 20 -26z m3907 18 c3 -5 -1 -10 -9 -10 -9 0 -16 5 -16 10 0 6 4
10 9 10 6 0 13 -4 16 -10z m-1578 -63 c-6 -20 -27 -19 -27 2 0 14 5 19 15 14
9 -3 14 -10 12 -16z m176 -43 c40 -26 41 -49 1 -41 -13 2 -24 1 -24 -3 0 -4
-18 -3 -40 2 -22 6 -40 14 -40 18 0 4 -10 11 -22 14 l-23 7 23 9 c12 5 22 15
22 21 0 18 59 3 103 -27z m-1149 -179 c-6 -16 -24 -21 -24 -7 0 11 11 22 21
22 5 0 6 -7 3 -15z m1230 -20 c-6 -14 -56 -14 -61 0 -1 6 12 10 31 11 21 0 32
-4 30 -11z m56 -75 c0 -5 -2 -10 -4 -10 -3 0 -8 5 -11 10 -3 6 -1 10 4 10 6 0
11 -4 11 -10z m-310 -65 c18 -22 8 -27 -26 -15 -23 9 -25 13 -14 20 20 13 26
12 40 -5z m2917 -67 c-3 -8 -6 -5 -6 6 -1 11 2 17 5 13 3 -3 4 -12 1 -19z m53
-14 c0 -8 -5 -12 -10 -9 -6 4 -8 11 -5 16 9 14 15 11 15 -7z m30 -104 c0 -5
-5 -10 -11 -10 -5 0 -7 5 -4 10 3 6 8 10 11 10 2 0 4 -4 4 -10z m-4062 -38 c2
-7 0 -12 -5 -11 -4 1 -15 1 -23 -1 -11 -1 -9 -4 5 -10 17 -8 15 -9 -10 -8 -16
1 -59 -2 -94 -7 -57 -6 -63 -6 -50 7 32 32 74 48 123 45 30 -1 51 -7 54 -15z
m4043 -25 c-7 -19 -15 -24 -30 -20 -27 7 -27 33 -1 33 12 0 20 7 20 17 0 12 3
14 10 7 7 -7 8 -19 1 -37z m99 18 c0 -8 -4 -15 -10 -15 -5 0 -10 7 -10 15 0 8
5 15 10 15 6 0 10 -7 10 -15z m-4510 -115 c0 -21 -24 -28 -35 -10 -8 14 3 30
21 30 8 0 14 -9 14 -20z m137 -47 c10 -15 37 -47 61 -71 23 -25 40 -47 38 -50
-10 -9 -66 -4 -96 10 -47 20 -76 98 -48 126 18 18 26 15 45 -15z m2133 -215
c81 -34 190 -62 190 -48 0 5 -9 10 -21 10 -12 0 -19 5 -16 13 4 13 12 13 65 0
18 -4 33 -12 34 -18 1 -12 68 -33 85 -28 7 3 23 -3 38 -13 14 -9 28 -14 32
-11 3 4 18 -2 33 -13 15 -11 40 -24 56 -31 43 -16 150 -23 158 -11 4 6 14 8
23 5 11 -4 14 -3 9 6 -4 6 11 3 36 -8 24 -10 62 -27 84 -36 50 -21 71 -53 55
-84 -7 -11 -16 -21 -21 -21 -6 0 -10 -7 -10 -15 0 -19 29 -20 36 0 4 8 10 12
15 9 5 -3 9 3 9 13 0 40 11 41 125 16 108 -23 124 -27 195 -39 19 -3 42 -8 50
-11 8 -4 18 -5 23 -5 4 1 7 -2 7 -7 0 -5 15 -15 33 -22 17 -7 38 -21 46 -32 9
-13 20 -17 37 -13 16 4 26 1 33 -11 8 -13 10 -14 11 -4 0 11 4 10 16 -5 8 -10
12 -12 8 -4 -5 11 -1 10 13 -3 12 -10 24 -14 27 -9 7 12 79 -3 84 -17 2 -5 10
-7 17 -5 21 8 42 -17 38 -45 -3 -20 -1 -22 5 -8 6 15 11 12 29 -22 24 -45 17
-53 -34 -38 -24 8 -40 7 -60 -3 -16 -7 -40 -14 -56 -15 -15 -2 -34 -8 -42 -15
-12 -10 -16 -9 -21 3 -3 8 -17 17 -32 20 -15 3 -35 9 -44 12 -13 5 -18 2 -19
-11 -1 -17 -2 -17 -6 -1 -2 9 -9 15 -14 11 -6 -3 -19 4 -30 17 -19 22 -20 22
-34 3 -8 -10 -15 -34 -15 -53 0 -29 -2 -32 -15 -21 -10 8 -19 9 -27 3 -22 -17
-68 -25 -68 -12 0 8 -7 6 -18 -4 -23 -21 -62 -22 -62 -2 0 24 -26 28 -53 10
-14 -9 -43 -17 -66 -18 -39 -1 -54 -11 -29 -19 6 -2 -5 -4 -25 -4 -21 0 -37 5
-37 11 0 5 -4 4 -9 -3 -4 -7 -18 -14 -29 -15 -12 -1 -22 -5 -22 -10 0 -5 -7
-4 -15 3 -8 7 -15 9 -15 5 0 -4 -7 -2 -15 5 -12 10 -15 10 -15 0 0 -10 -3 -10
-15 0 -8 7 -15 18 -15 24 0 6 4 4 10 -4 7 -12 12 -11 28 8 11 12 23 22 27 22
16 0 45 33 45 52 0 17 -12 23 -35 18 -40 -10 -77 -4 -93 13 -9 10 -16 21 -14
23 1 2 0 4 -3 4 -3 0 -16 0 -30 0 -18 0 -28 -7 -35 -26 -11 -28 -27 -28 -44
-1 -8 13 -8 20 3 26 8 5 11 16 7 26 -5 14 -9 15 -21 5 -7 -6 -15 -21 -17 -32
-5 -34 -33 -45 -57 -24 -11 10 -24 15 -30 12 -5 -3 -21 -2 -36 4 -30 11 -56 3
-34 -11 9 -6 10 -9 2 -9 -6 0 -18 -3 -26 -6 -9 -3 -16 3 -20 15 -7 28 -25 26
-39 -4 -6 -14 -18 -25 -25 -25 -8 0 -12 -4 -9 -9 4 -5 -2 -7 -13 -4 -10 3 -22
0 -25 -6 -12 -19 -21 -12 -22 19 -1 17 -4 33 -7 36 -10 10 -27 -6 -27 -25 0
-14 -11 -20 -50 -25 -27 -4 -50 -11 -50 -17 0 -5 -13 -3 -30 6 -27 14 -30 14
-39 -3 -6 -9 -11 -11 -11 -4 0 6 -7 12 -16 12 -8 0 -13 -4 -10 -9 3 -5 -31 -7
-76 -4 -76 4 -97 12 -98 36 0 4 6 7 14 7 7 0 16 12 19 28 4 15 11 34 16 42 8
12 13 12 30 -4 19 -17 20 -17 40 3 12 12 23 21 26 21 3 0 12 0 20 0 13 0 14 4
4 22 -10 19 -9 20 7 14 33 -13 38 -11 42 12 2 12 0 22 -5 23 -4 0 -17 2 -28 5
-11 2 -27 1 -35 -3 -19 -8 -19 -8 -53 -18 -22 -6 -33 -3 -53 16 -16 15 -21 26
-14 33 13 13 13 43 1 51 -6 3 -16 -1 -23 -8 -10 -12 -15 -11 -29 7 -15 18 -16
23 -3 37 13 14 13 18 -1 29 -10 8 -12 17 -6 24 6 7 13 27 16 46 6 35 25 66 25
42 0 -7 5 -12 10 -12 16 0 11 32 -7 45 -15 11 -15 15 -4 29 12 14 11 16 -7 16
-11 0 -23 7 -26 16 -4 9 -13 14 -21 10 -16 -6 -18 -4 -10 16 4 10 33 13 118
13 61 0 119 -3 127 -7z m-292 -18 c9 0 25 -7 36 -15 17 -13 17 -16 3 -29 -8
-9 -17 -21 -19 -28 -3 -9 -11 -8 -31 5 -15 9 -44 21 -64 25 -48 10 -52 37 -5
36 17 -1 32 3 32 8 0 6 7 7 16 4 9 -3 23 -6 32 -6z m-131 -19 c0 -11 -5 -18
-9 -15 -4 3 -5 11 -1 19 7 21 12 19 10 -4z m2279 -3 c11 -17 -27 -46 -115 -92
-105 -54 -198 -80 -235 -66 -38 14 -41 35 -12 67 15 15 29 39 32 53 12 55 8
53 117 48 56 -2 118 -1 137 2 39 6 67 2 76 -12z m-4142 -68 c17 -6 27 -6 32 1
4 6 11 6 20 -2 20 -16 7 -30 -22 -24 -13 3 -35 7 -49 10 -14 3 -25 10 -25 15
0 13 12 13 44 0z m1701 -111 c12 -19 -5 -23 -22 -6 -16 16 -16 17 -1 17 9 0
20 -5 23 -11z m145 -21 c0 -13 -23 -5 -28 10 -2 7 2 10 12 6 9 -3 16 -11 16
-16z m-1735 -7 c-6 -5 -27 -12 -47 -15 -31 -6 -38 -4 -38 9 0 11 11 15 47 15
28 0 43 -4 38 -9z m1655 -16 c0 -29 -3 -30 -24 -9 -22 21 -20 34 4 34 15 0 20
-7 20 -25z m-995 -15 c-10 -17 8 -40 31 -40 14 0 24 -6 24 -14 0 -8 7 -16 15
-20 33 -12 -1 -58 -36 -49 -12 4 -25 0 -30 -8 -7 -11 -9 -10 -9 4 0 16 -9 21
-27 15 -5 -2 -7 -9 -5 -15 2 -7 -2 -13 -8 -13 -16 0 -12 -19 12 -53 12 -18 18
-29 13 -25 -4 4 -17 3 -28 -3 -15 -9 -18 -8 -11 3 4 7 -2 5 -12 -4 -20 -17
-22 -16 -62 27 -48 52 -52 80 -17 115 14 14 37 37 52 53 17 17 37 27 55 27 15
0 28 5 28 11 0 5 5 7 10 4 6 -4 8 -10 5 -15z m205 -40 c0 -5 -5 -10 -11 -10
-5 0 -7 5 -4 10 3 6 8 10 11 10 2 0 4 -4 4 -10z m7100 0 c0 -5 -4 -10 -10 -10
-5 0 -10 5 -10 10 0 6 5 10 10 10 6 0 10 -4 10 -10z m-7173 -32 c2 -17 0 -19
-7 -8 -5 8 -6 18 -4 22 8 12 10 10 11 -14z m-846 -25 c13 -16 12 -17 -3 -4
-17 13 -22 21 -14 21 2 0 10 -8 17 -17z m909 -68 c8 -9 21 -13 36 -9 20 5 24
2 24 -15 0 -14 6 -21 20 -21 11 0 20 5 20 10 0 6 7 10 15 10 9 0 15 9 15 21 0
15 4 19 16 15 9 -3 19 -6 22 -6 4 0 7 -15 8 -34 l0 -33 -49 1 c-27 1 -51 -3
-54 -7 -3 -5 -16 -6 -28 -3 -13 3 -26 2 -30 -4 -3 -5 -21 -9 -39 -8 -18 1 -38
-2 -44 -6 -7 -4 -12 -2 -12 3 0 6 5 11 11 11 7 0 9 9 6 21 -6 24 18 69 38 69
7 0 18 -7 25 -15z m3150 10 c0 -10 -52 -25 -63 -18 -7 4 -3 9 9 14 23 9 54 11
54 4z m-110 -155 c0 -5 -4 -10 -10 -10 -5 0 -10 5 -10 10 0 6 5 10 10 10 6 0
10 -4 10 -10z m-388 -38 c4 -15 1 -18 -18 -14 -13 2 -24 8 -24 13 0 5 7 6 15
3 8 -4 15 -1 15 5 0 17 7 13 12 -7z m-2566 -749 c-10 -10 -19 5 -10 18 6 11 8
11 12 0 2 -7 1 -15 -2 -18z m889 -13 c3 -5 -1 -10 -9 -10 -9 0 -16 5 -16 10 0
6 4 10 9 10 6 0 13 -4 16 -10z m161 -84 c13 -4 24 -13 24 -22 0 -13 -5 -12
-29 5 -16 12 -34 21 -40 21 -15 0 -14 17 2 23 6 2 13 -2 15 -9 2 -6 14 -15 28
-18z m94 -58 c0 -16 -30 -7 -39 11 -10 17 -9 18 14 7 14 -6 25 -14 25 -18z
m47 -24 c-3 -3 -12 -4 -19 -1 -8 3 -5 6 6 6 11 1 17 -2 13 -5z m63 -14 c11
-11 33 -20 48 -20 15 0 32 -4 38 -9 5 -4 30 -14 57 -21 26 -7 47 -16 47 -20 0
-4 12 -12 26 -19 15 -6 24 -15 20 -18 -4 -4 4 -13 16 -21 25 -14 26 -15 -57
15 -79 28 -246 114 -240 123 9 15 23 12 45 -10z m336 -175 c12 -8 24 -11 28
-8 3 3 6 1 6 -5 0 -18 -19 -14 -47 8 -29 23 -18 27 13 5z m1524 -290 c33 -17
40 -28 13 -18 -23 8 -60 33 -50 33 5 0 21 -7 37 -15z m-455 -95 c13 -6 15 -9
5 -9 -8 0 -22 4 -30 9 -18 12 -2 12 25 0z m45 -20 c0 -5 -4 -10 -10 -10 -5 0
-10 5 -10 10 0 6 5 10 10 10 6 0 10 -4 10 -10z m100 -47 c19 -12 31 -23 27
-23 -12 0 -117 51 -117 56 0 10 57 -11 90 -33z m2592 -100 c5 -22 -12 -63 -25
-63 -5 0 -7 10 -3 23 3 12 6 30 6 40 0 9 4 17 9 17 5 0 11 -8 13 -17z"/>
<path d="M8201 8734 c0 -11 3 -14 6 -6 3 7 2 16 -1 19 -3 4 -6 -2 -5 -13z"/>
<path d="M7906 7334 c-4 -10 -1 -14 6 -12 15 5 23 28 10 28 -5 0 -13 -7 -16
-16z"/>
<path d="M7260 6822 c0 -12 19 -26 26 -19 2 2 -2 10 -11 17 -9 8 -15 8 -15 2z"/>
<path d="M7752 6510 c-14 -23 -16 -40 -3 -40 9 0 25 49 19 56 -2 2 -9 -6 -16
-16z"/>
<path d="M7640 6510 c0 -5 5 -10 11 -10 5 0 7 5 4 10 -3 6 -8 10 -11 10 -2 0
-4 -4 -4 -10z"/>
<path d="M6877 4343 c-4 -3 -7 -11 -7 -17 0 -6 5 -5 12 2 6 6 9 14 7 17 -3 3
-9 2 -12 -2z"/>
<path d="M6665 4259 c-11 -16 -1 -19 13 -3 7 8 8 14 3 14 -5 0 -13 -5 -16 -11z"/>
<path d="M6706 4236 c7 -19 48 -22 42 -3 -3 6 -14 13 -26 15 -16 3 -20 -1 -16
-12z"/>
<path d="M6895 4234 c-23 -23 -3 -44 33 -35 37 10 44 51 8 51 -13 0 -32 -7
-41 -16z"/>
<path d="M7440 4206 c0 -9 5 -16 10 -16 6 0 10 4 10 9 0 6 -4 13 -10 16 -5 3
-10 -1 -10 -9z"/>
<path d="M6127 4159 c7 -7 15 -10 18 -7 3 3 -2 9 -12 12 -14 6 -15 5 -6 -5z"/>
<path d="M6760 4160 c-9 -6 -10 -10 -3 -10 6 0 15 5 18 10 8 12 4 12 -15 0z"/>
<path d="M4407 4199 c7 -7 15 -10 18 -7 3 3 -2 9 -12 12 -14 6 -15 5 -6 -5z"/>
<path d="M3485 9088 c-11 -6 -21 -12 -23 -13 -9 -8 14 -35 30 -35 22 0 60 18
70 34 16 24 -41 34 -77 14z"/>
<path d="M7650 9092 c0 -13 35 -42 49 -42 8 0 3 10 -10 25 -25 25 -39 32 -39
17z"/>
<path d="M7201 9023 c-6 -10 -11 -15 -11 -11 0 9 -50 -41 -50 -51 0 -13 -58
-51 -78 -51 -20 0 -39 -17 -57 -53 -5 -12 -21 -24 -35 -28 -16 -4 -19 -7 -7
-8 9 -1 16 -4 16 -8 -9 -56 52 -105 126 -102 24 2 50 -3 59 -10 9 -7 23 -11
31 -7 8 3 26 0 40 -6 21 -9 34 -7 75 12 28 13 50 27 50 31 0 4 8 10 19 14 21
6 24 52 4 73 -7 7 -13 20 -13 28 0 8 -4 14 -10 14 -5 0 -10 5 -10 12 0 6 -24
47 -52 90 -53 79 -78 94 -97 61z"/>
<path d="M6546 8991 c-3 -5 1 -14 9 -21 13 -10 15 -9 15 9 0 21 -14 28 -24 12z"/>
<path d="M5583 8963 c-12 -2 -25 -13 -28 -24 -7 -20 -25 -27 -25 -9 0 6 -7 10
-15 10 -8 0 -15 -7 -15 -15 0 -9 -10 -29 -22 -45 -21 -29 -21 -30 -3 -50 16
-18 17 -24 7 -41 -16 -25 -1 -24 21 2 10 11 16 27 13 34 -5 14 20 29 33 20 5
-2 14 6 21 20 13 25 19 25 108 -1 16 -5 22 -2 22 9 0 9 -5 19 -10 22 -6 4 -8
11 -4 16 3 6 3 21 0 35 -5 20 -12 24 -44 23 -20 -1 -47 -4 -59 -6z"/>
<path d="M3280 8832 c-20 -17 -23 -23 -12 -33 14 -15 16 -29 3 -29 -5 0 -11
10 -15 22 -5 22 -7 21 -44 -18 -21 -23 -44 -59 -51 -81 -26 -79 29 -109 87
-47 21 22 22 24 3 24 -28 0 -32 23 -9 58 22 35 59 44 53 15 -2 -10 -4 -18 -5
-18 -1 0 -3 -15 -4 -32 -2 -40 6 -41 38 -7 19 21 30 26 53 21 21 -4 36 1 59
19 25 20 43 25 105 28 88 4 114 13 99 31 -12 15 -98 30 -147 26 -18 -1 -47 4
-64 13 -17 9 -52 18 -78 22 -38 5 -51 2 -71 -14z m90 -17 c10 -11 9 -17 -3
-29 -13 -13 -17 -13 -31 3 -9 10 -16 23 -16 29 0 17 35 15 50 -3z"/>
<path d="M4120 8763 c0 -22 2 -25 10 -13 13 20 13 40 0 40 -5 0 -10 -12 -10
-27z"/>
<path d="M5508 8733 c-3 -16 -7 -34 -9 -42 -2 -7 2 -16 10 -19 8 -2 11 0 8 6
-4 5 0 15 8 22 19 16 20 60 1 60 -7 0 -16 -12 -18 -27z"/>
<path d="M5565 8750 c3 -5 10 -10 16 -10 5 0 9 5 9 10 0 6 -7 10 -16 10 -8 0
-12 -4 -9 -10z"/>
<path d="M5401 8607 c-13 -33 -14 -47 -3 -47 13 0 30 48 21 61 -6 10 -11 5
-18 -14z"/>
<path d="M6727 8617 c-3 -8 -1 -20 4 -28 8 -12 10 -12 19 1 5 8 8 19 7 24 -5
16 -24 18 -30 3z"/>
<path d="M5264 8140 c-12 -5 -32 -27 -45 -49 -13 -23 -56 -68 -96 -101 -140
-115 -147 -193 -26 -279 31 -23 63 -41 72 -41 9 0 30 -8 46 -19 26 -15 41 -17
90 -11 33 5 83 11 110 14 28 3 64 8 82 11 39 6 116 36 109 43 -3 2 0 14 6 26
6 11 11 34 10 50 -3 35 -30 96 -44 96 -5 0 -19 11 -31 24 -12 13 -32 26 -45
30 -13 4 -48 22 -78 39 -51 29 -71 55 -66 84 4 19 -26 71 -47 83 -22 11 -19
11 -47 0z m6 -34 c0 -13 -40 -95 -48 -100 -15 -9 -25 11 -18 37 6 25 42 67 56
67 6 0 10 -2 10 -4z m-73 -228 c67 -28 79 -60 38 -96 -22 -19 -31 -21 -65 -13
-65 14 -91 37 -84 69 4 15 11 33 17 40 12 15 58 16 94 0z"/>
<path d="M5676 7971 c-8 -12 50 -39 102 -47 34 -5 43 -3 48 10 4 10 2 22 -3
27 -13 13 -140 22 -147 10z"/>
<path d="M4916 7925 c-3 -9 0 -15 9 -15 16 0 20 16 6 24 -5 3 -11 -1 -15 -9z"/>
<path d="M4899 7878 c-20 -89 21 -147 56 -79 16 32 16 30 -29 69 -14 11 -25
15 -27 10z"/>
<path d="M4980 7864 c0 -8 5 -12 10 -9 6 4 8 11 5 16 -9 14 -15 11 -15 -7z"/>
<path d="M3375 7850 c-3 -6 1 -7 9 -4 18 7 21 14 7 14 -6 0 -13 -4 -16 -10z"/>
<path d="M5840 7790 c0 -5 7 -10 15 -10 8 0 15 5 15 10 0 6 -7 10 -15 10 -8 0
-15 -4 -15 -10z"/>
<path d="M4874 7724 c3 -9 6 -19 6 -23 0 -4 11 -13 25 -19 32 -15 35 -15 35
-2 0 6 -7 10 -15 10 -9 0 -21 11 -27 25 -12 27 -34 35 -24 9z"/>
<path d="M7084 7706 c22 -18 56 -21 56 -6 0 6 -9 10 -19 10 -11 0 -28 3 -38 6
-16 5 -16 4 1 -10z"/>
<path d="M6895 7680 c-22 -24 -35 -26 -35 -5 0 17 -25 20 -35 5 -3 -5 -25 -10
-48 -11 -36 0 -99 -16 -74 -18 71 -6 238 -7 242 -2 7 13 -7 51 -20 51 -6 0
-20 -9 -30 -20z"/>
<path d="M4976 7671 c-10 -15 5 -62 18 -58 6 2 12 13 14 24 3 23 -23 50 -32
34z"/>
<path d="M6165 7658 c-31 -18 -45 -35 -47 -59 -4 -34 42 -43 81 -15 35 24 39
46 13 69 -22 20 -21 20 -47 5z"/>
<path d="M6500 7660 c-8 -5 -11 -12 -8 -16 10 -9 58 4 58 16 0 13 -30 13 -50
0z"/>
<path d="M7316 7661 c-4 -6 4 -16 19 -23 15 -7 24 -17 21 -25 -3 -8 -2 -11 3
-8 6 3 8 18 7 33 -5 38 -5 39 -16 22 -8 -12 -11 -13 -19 -1 -6 9 -11 10 -15 2z"/>
<path d="M6267 7642 c-15 -18 11 -34 34 -21 10 5 30 9 46 9 27 0 68 18 48 21
-43 8 -118 2 -128 -9z"/>
<path d="M5836 7613 c-11 -11 -6 -23 8 -23 8 0 17 4 20 9 7 10 -19 23 -28 14z"/>
<path d="M5910 7594 c0 -8 5 -12 10 -9 6 4 8 11 5 16 -9 14 -15 11 -15 -7z"/>
<path d="M8010 7570 c0 -5 5 -10 10 -10 6 0 10 5 10 10 0 6 -4 10 -10 10 -5 0
-10 -4 -10 -10z"/>
<path d="M5012 7514 c10 -10 20 -15 24 -12 3 4 -5 12 -18 18 -22 12 -22 12 -6
-6z"/>
<path d="M3685 7010 c-3 -5 1 -10 10 -10 9 0 13 5 10 10 -3 6 -8 10 -10 10 -2
0 -7 -4 -10 -10z"/>
<path d="M4819 6813 c-28 -35 -79 -53 -79 -28 0 14 -3 14 -25 -1 -15 -10 -25
-12 -25 -5 0 17 -27 13 -34 -6 -10 -26 13 -33 93 -29 l75 3 13 39 c18 52 12
63 -18 27z"/>
<path d="M5891 6797 c-9 -16 -9 -30 -2 -50 12 -31 27 -34 52 -11 14 13 16 21
8 35 -8 15 -6 17 8 12 11 -3 7 3 -9 15 -33 28 -42 27 -57 -1z"/>
<path d="M4245 6600 c-55 -23 -66 -40 -74 -110 -7 -58 -7 -60 16 -60 13 0 22
4 18 10 -8 13 29 48 60 56 31 8 40 21 26 38 -9 10 -7 15 9 19 26 7 28 53 2 59
-9 3 -35 -3 -57 -12z"/>
<path d="M4386 6594 c-4 -9 -9 -14 -13 -11 -7 8 -33 -11 -33 -24 0 -5 7 -9 15
-9 8 0 14 -3 14 -7 -3 -20 2 -24 17 -12 13 10 17 10 25 -2 6 -10 9 -10 9 -1 0
6 7 12 15 12 22 0 18 23 -8 48 -28 26 -33 27 -41 6z"/>
<path d="M5350 6550 c0 -5 5 -10 11 -10 5 0 7 5 4 10 -3 6 -8 10 -11 10 -2 0
-4 -4 -4 -10z"/>
<path d="M5380 6543 c0 -14 2 -15 9 -4 5 7 14 10 20 7 6 -4 11 -2 11 3 0 6 -9
11 -20 11 -12 0 -20 -7 -20 -17z"/>
<path d="M5430 6544 c0 -8 5 -12 10 -9 6 4 8 11 5 16 -9 14 -15 11 -15 -7z"/>
<path d="M5780 6550 c0 -5 7 -10 15 -10 8 0 15 5 15 10 0 6 -7 10 -15 10 -8 0
-15 -4 -15 -10z"/>
<path d="M5692 6508 c-16 -16 -15 -28 2 -28 16 0 29 27 17 34 -4 3 -13 0 -19
-6z"/>
<path d="M3070 6441 c0 -11 5 -23 10 -26 6 -4 10 5 10 19 0 14 -4 26 -10 26
-5 0 -10 -9 -10 -19z"/>
<path d="M4135 6440 c-3 -5 -1 -10 4 -10 6 0 11 5 11 10 0 6 -2 10 -4 10 -3 0
-8 -4 -11 -10z"/>
<path d="M4172 5915 c-22 -12 -22 -14 -7 -29 13 -13 20 -14 31 -5 15 12 19 35
7 42 -5 2 -18 -2 -31 -8z"/>
<path d="M4083 5874 c-43 -33 -42 -51 2 -56 39 -4 46 5 37 50 l-7 32 -32 -26z"/>
<path d="M4040 5759 c0 -5 5 -7 10 -4 6 3 10 8 10 11 0 2 -4 4 -10 4 -5 0 -10
-5 -10 -11z"/>
<path d="M10722 5750 c0 -14 2 -19 5 -12 2 6 2 18 0 25 -3 6 -5 1 -5 -13z"/>
<path d="M3800 5504 c0 -8 5 -12 10 -9 6 4 8 11 5 16 -9 14 -15 11 -15 -7z"/>
<path d="M7530 5496 c0 -9 5 -16 10 -16 6 0 10 4 10 9 0 6 -4 13 -10 16 -5 3
-10 -1 -10 -9z"/>
<path d="M3537 5464 c-10 -11 3 -24 23 -24 13 0 17 5 14 15 -6 15 -26 20 -37
9z"/>
<path d="M4535 5410 c-3 -5 1 -10 9 -10 9 0 16 5 16 10 0 6 -4 10 -9 10 -6 0
-13 -4 -16 -10z"/>
<path d="M5237 5393 c-4 -3 -7 -13 -7 -22 1 -13 3 -13 11 2 11 19 8 33 -4 20z"/>
<path d="M5662 5263 c-15 -28 -15 -33 2 -33 20 0 25 11 16 35 -7 19 -7 19 -18
-2z"/>
<path d="M7240 5253 c0 -5 5 -15 10 -23 8 -12 10 -11 10 8 0 12 -4 22 -10 22
-5 0 -10 -3 -10 -7z"/>
<path d="M6544 5235 c-4 -9 -3 -19 0 -23 9 -8 42 12 39 24 -4 16 -33 16 -39
-1z"/>
<path d="M11100 5050 c0 -5 7 -10 15 -10 8 0 15 5 15 10 0 6 -7 10 -15 10 -8
0 -15 -4 -15 -10z"/>
<path d="M2940 5043 c-8 -2 -22 -7 -30 -10 -8 -4 -17 -6 -20 -5 -3 0 -7 -13
-8 -29 l-2 -31 39 23 c26 14 39 28 38 40 -1 11 -1 19 -2 18 0 0 -7 -3 -15 -6z"/>
<path d="M10858 5033 c-10 -2 -18 -8 -18 -13 0 -4 8 -11 18 -15 15 -6 14 -8
-5 -16 -13 -4 -23 -13 -23 -18 0 -12 51 7 61 22 4 5 25 8 48 5 22 -2 41 -2 41
-1 0 1 -18 12 -40 23 -39 20 -50 22 -82 13z"/>
<path d="M2990 4963 c-71 -26 -100 -45 -106 -71 -4 -15 -15 -39 -25 -54 -23
-32 -23 -38 -4 -38 9 0 12 -6 9 -15 -4 -10 0 -15 14 -15 12 0 24 -4 27 -10 3
-5 12 -10 20 -10 8 0 26 -5 42 -11 l28 -10 -33 -30 c-18 -16 -37 -27 -42 -24
-6 4 -10 -6 -10 -20 l0 -26 26 20 c29 23 121 29 167 12 38 -15 96 5 139 47 28
26 35 39 27 48 -6 7 -12 34 -14 60 -3 26 -10 51 -17 56 -7 4 -9 8 -3 8 12 0
-23 24 -49 34 -17 6 -17 5 -4 -16 30 -48 29 -56 -5 -48 -18 4 -45 15 -62 24
-38 20 -45 20 -61 -1 -11 -16 -13 -16 -19 10 -4 15 -5 41 -1 57 6 31 -6 37
-44 23z m183 -190 c-7 -2 -19 -2 -25 0 -7 3 -2 5 12 5 14 0 19 -2 13 -5z"/>
<path d="M4265 4930 c-3 -5 1 -10 9 -10 9 0 16 5 16 10 0 6 -4 10 -9 10 -6 0
-13 -4 -16 -10z"/>
<path d="M4850 4930 c0 -6 4 -10 10 -10 5 0 7 -7 3 -15 -3 -10 0 -15 8 -13 8
2 13 -3 11 -10 -3 -17 23 -26 44 -14 14 8 13 12 -15 28 -17 10 -31 21 -31 25
0 4 -7 9 -15 13 -8 3 -15 1 -15 -4z"/>
<path d="M5547 4844 c-7 -7 1 -33 16 -52 8 -11 12 -11 18 0 12 18 11 40 -1 33
-5 -3 -10 1 -10 9 0 16 -12 21 -23 10z"/>
<path d="M5030 4830 c0 -5 -7 -7 -15 -4 -10 4 -15 0 -15 -14 0 -28 49 -143 72
-167 18 -19 18 -19 18 4 0 12 9 36 21 52 l20 29 -47 55 c-50 58 -54 61 -54 45z"/>
<path d="M4270 4739 c0 -11 5 -17 10 -14 6 3 10 13 10 21 0 8 -4 14 -10 14 -5
0 -10 -9 -10 -21z"/>
<path d="M4289 4714 c-8 -10 -9 -18 -3 -22 6 -4 13 -15 17 -24 3 -10 11 -18
16 -18 13 0 24 34 12 38 -6 2 -9 7 -6 12 3 4 -1 13 -9 19 -10 9 -17 7 -27 -5z"/>
<path d="M4042 4638 c2 -5 8 -9 13 -9 5 0 11 4 13 9 1 5 -4 9 -13 9 -9 0 -14
-4 -13 -9z"/>
<path d="M3500 4425 c0 -14 4 -25 9 -25 12 0 23 29 15 41 -10 18 -24 9 -24
-16z"/>
<path d="M3395 4414 c-33 -35 -31 -44 5 -44 28 0 30 3 30 35 0 19 -2 35 -5 35
-3 0 -17 -12 -30 -26z"/>
<path d="M3687 4386 c-6 -15 1 -26 15 -26 4 0 8 9 8 20 0 23 -15 27 -23 6z"/>
<path d="M5230 4333 c0 -5 5 -15 10 -23 8 -12 10 -11 10 8 0 12 -4 22 -10 22
-5 0 -10 -3 -10 -7z"/>
<path d="M10760 4060 c0 -5 5 -10 10 -10 6 0 10 5 10 10 0 6 -4 10 -10 10 -5
0 -10 -4 -10 -10z"/>
<path d="M3080 3720 c-12 -8 -12 -10 5 -10 11 0 27 5 35 10 12 8 12 10 -5 10
-11 0 -27 -5 -35 -10z"/>
<path d="M10761 3716 c-8 -10 -6 -19 9 -39 11 -14 20 -39 20 -55 0 -17 6 -32
15 -36 13 -5 15 6 13 70 -1 41 -5 67 -9 57 -6 -17 -7 -17 -14 0 -9 21 -19 22
-34 3z"/>
<path d="M10615 3520 c3 -5 8 -10 11 -10 2 0 4 5 4 10 0 6 -5 10 -11 10 -5 0
-7 -4 -4 -10z"/>
</g>
</svg>
