<?xml version="1.0" standalone="no"?>
<!DOCTYPE svg PUBLIC "-//W3C//DTD SVG 20010904//EN"
 "http://www.w3.org/TR/2001/REC-SVG-20010904/DTD/svg10.dtd">
<svg version="1.0" xmlns="http://www.w3.org/2000/svg"
 width="1170.000000pt" height="780.000000pt" viewBox="0 0 1170.000000 780.000000"
 preserveAspectRatio="xMidYMid meet">

<g transform="translate(0.000000,780.000000) scale(0.100000,-0.100000)"
fill="#000000" stroke="none">
<path d="M5377 7742 c-31 -31 -80 -87 -109 -124 -29 -37 -87 -94 -129 -127
-156 -124 -304 -303 -399 -482 -214 -408 -241 -773 -109 -1479 108 -579 200
-977 608 -2620 310 -1251 404 -1682 491 -2259 36 -242 80 -592 80 -642 0 -5 8
-9 18 -9 17 0 17 8 6 138 -7 75 -12 162 -12 192 0 30 9 -28 19 -130 9 -102 18
-188 18 -192 1 -7 81 -12 81 -5 0 1 -7 59 -15 127 -9 69 -24 202 -35 295 -101
906 -193 1515 -350 2335 -49 258 -258 1356 -310 1635 -151 803 -268 1544 -291
1830 -18 239 2 471 61 702 34 128 55 182 150 378 72 147 158 270 291 418 l70
77 -39 0 c-36 0 -46 -6 -95 -58z m-276 -384 c-23 -60 -93 -193 -119 -226 -139
-176 -256 -433 -318 -698 -47 -202 -38 -449 31 -824 109 -590 221 -1082 535
-2340 99 -398 180 -729 179 -735 -1 -26 -27 72 -187 710 -392 1559 -553 2309
-603 2800 -47 473 99 931 398 1246 47 49 87 89 89 89 2 0 0 -10 -5 -22z m-182
-522 c-63 -307 -61 -533 12 -1032 80 -554 149 -946 478 -2689 219 -1165 313
-1735 220 -1335 -22 96 -90 369 -150 605 -535 2102 -698 2786 -769 3230 -60
376 -42 698 56 994 42 125 167 382 179 369 2 -2 -10 -66 -26 -142z m498 -4338
c-3 -8 -6 -5 -6 6 -1 11 2 17 5 13 3 -3 4 -12 1 -19z m32 -123 c-2 -17 -27 69
-27 90 0 11 6 -2 14 -30 7 -27 13 -54 13 -60z m46 -179 c19 -81 35 -153 34
-159 -1 -15 -78 282 -79 302 0 34 11 -4 45 -143z m57 -241 c3 -13 1 -22 -3
-19 -9 5 -13 44 -5 44 2 0 6 -11 8 -25z m26 -130 c0 -16 -2 -15 -8 5 -4 14 -8
34 -8 45 0 16 2 15 8 -5 4 -14 8 -34 8 -45z m20 -90 c0 -16 -2 -15 -8 5 -4 14
-8 34 -8 45 0 16 2 15 8 -5 4 -14 8 -34 8 -45z m9 -47 c-3 -8 -6 -5 -6 6 -1
11 2 17 5 13 3 -3 4 -12 1 -19z m70 -110 c-3 -8 -6 -5 -6 6 -1 11 2 17 5 13 3
-3 4 -12 1 -19z m-20 -130 c-3 -8 -6 -5 -6 6 -1 11 2 17 5 13 3 -3 4 -12 1
-19z m10 -50 c-3 -8 -6 -5 -6 6 -1 11 2 17 5 13 3 -3 4 -12 1 -19z m40 -35
c-3 -10 -5 -4 -5 12 0 17 2 24 5 18 2 -7 2 -21 0 -30z m-30 -15 c-3 -7 -5 -2
-5 12 0 14 2 19 5 13 2 -7 2 -19 0 -25z m50 -145 c-3 -10 -5 -2 -5 17 0 19 2
27 5 18 2 -10 2 -26 0 -35z m10 -70 c-3 -10 -5 -4 -5 12 0 17 2 24 5 18 2 -7
2 -21 0 -30z m38 -269 c9 -80 15 -148 12 -150 -6 -6 -37 227 -42 318 -3 63 -3
67 5 26 4 -27 16 -114 25 -194z m22 -236 c-3 -7 -5 -2 -5 12 0 14 2 19 5 13 2
-7 2 -19 0 -25z m21 -198 c-1 -41 -2 -40 -8 15 -4 33 -8 78 -8 100 1 34 2 32
8 -15 5 -30 8 -75 8 -100z"/>
<path d="M5603 7785 c-5 -8 -45 -32 -89 -54 -63 -30 -92 -52 -133 -100 -30
-34 -52 -63 -50 -65 2 -2 47 21 99 50 103 58 120 64 120 36 0 -28 -19 -47 -94
-92 -161 -97 -256 -181 -297 -262 -16 -32 -29 -60 -29 -64 0 -3 39 30 86 75
85 79 251 201 274 201 8 0 10 -9 7 -27 -4 -16 -17 -80 -31 -143 -57 -265 -86
-554 -86 -860 0 -203 24 -771 40 -945 33 -361 106 -986 225 -1935 194 -1546
269 -2279 325 -3160 11 -173 20 -343 20 -377 l0 -63 40 0 40 0 0 68 c0 109
-53 838 -65 902 -3 14 -12 99 -20 190 -42 482 -64 712 -111 1135 -19 176 -64
563 -100 860 -36 297 -92 761 -124 1030 -180 1496 -206 1849 -160 2170 39 265
91 465 175 675 79 198 78 195 61 181 -25 -21 -103 -189 -145 -312 -54 -159
-87 -299 -115 -490 -14 -88 -28 -164 -31 -167 -14 -13 3 630 19 741 39 272 92
506 127 564 16 26 39 39 122 72 142 55 244 79 393 92 130 11 305 0 346 -22 27
-15 23 -43 -4 -36 -108 24 -141 29 -175 22 -37 -7 -37 -8 -14 -18 18 -9 25 -9
28 0 5 13 56 1 120 -29 65 -30 67 -42 59 -326 -12 -427 -30 -773 -111 -2157
-53 -891 -89 -1591 -105 -2010 -7 -165 -15 -352 -19 -415 l-7 -115 -7 105 c-3
58 -11 409 -17 780 -6 371 -15 882 -20 1135 -18 906 -23 1840 -11 2085 16 324
46 699 67 843 5 29 3 37 -10 37 -9 0 -18 -10 -21 -22 -8 -39 -25 -206 -40
-401 -34 -443 -38 -661 -31 -1832 4 -632 9 -1208 11 -1280 3 -71 12 -605 20
-1185 8 -580 17 -1075 20 -1100 3 -25 5 -433 5 -907 l0 -863 40 0 40 0 0 963
c0 851 6 1334 25 1857 37 1061 49 1292 135 2810 44 770 63 1162 86 1722 4 115
10 171 19 178 9 8 27 -6 71 -52 204 -222 351 -617 410 -1108 27 -218 24 -619
-5 -910 -49 -498 -126 -1136 -236 -1955 -155 -1154 -178 -1329 -220 -1670 -24
-198 -56 -466 -70 -595 -15 -129 -28 -237 -31 -239 -7 -7 -5 142 6 444 18 496
66 1254 140 2205 143 1833 187 2671 161 3060 -24 362 -70 639 -109 664 -5 3
-3 -27 5 -67 21 -111 51 -319 65 -452 19 -178 16 -795 -5 -1090 -10 -132 -29
-400 -42 -595 -28 -389 -34 -463 -100 -1260 -151 -1839 -181 -2358 -192 -3353
l-6 -557 36 0 36 0 5 53 c3 28 8 113 11 187 22 491 121 1409 300 2755 185
1393 292 2332 316 2758 38 676 -106 1327 -371 1679 -45 59 -75 111 -85 144
-18 62 -50 85 -39 29 7 -42 -2 -44 -39 -10 -27 26 -35 59 -17 70 15 9 130 -30
226 -77 410 -197 730 -638 833 -1145 96 -472 29 -912 -498 -3278 -134 -603
-257 -1180 -321 -1508 -23 -120 -44 -216 -46 -214 -18 17 281 1796 465 2777
199 1058 302 1654 326 1890 12 108 16 213 13 345 -4 179 -6 194 -33 263 -15
40 -29 71 -30 70 -2 -2 2 -41 7 -88 18 -134 14 -494 -5 -640 -29 -210 -111
-672 -246 -1385 -27 -143 -79 -415 -115 -605 -142 -749 -197 -1059 -306 -1715
-149 -902 -202 -1330 -260 -2110 -5 -77 -13 -164 -16 -192 l-5 -53 35 0 c22 0
36 5 36 13 1 29 40 403 55 512 46 357 213 1297 232 1315 8 7 3 -19 -66 -385
-93 -494 -150 -865 -185 -1215 -9 -85 -18 -174 -21 -197 -4 -37 -2 -43 14 -43
16 0 19 12 25 98 35 483 135 1119 287 1807 39 178 264 1076 439 1750 237 914
421 1668 504 2065 114 540 13 1087 -282 1530 -72 109 -187 235 -347 381 -27
25 -67 73 -88 107 -33 53 -43 62 -68 62 l-29 0 25 -40 25 -39 -82 39 c-75 37
-88 40 -162 39 l-81 0 50 -18 c425 -152 765 -525 924 -1014 97 -300 121 -573
76 -892 -32 -227 -181 -858 -404 -1710 -66 -253 -134 -514 -151 -580 -65 -250
-82 -310 -91 -325 -11 -18 -15 -38 62 310 221 1003 350 1660 411 2095 19 131
23 203 22 400 0 218 -3 251 -26 366 -35 170 -98 355 -169 497 -32 64 -52 108
-44 98 24 -32 19 -1 -21 131 -59 196 -109 312 -152 349 -36 33 -64 46 -44 22
19 -23 91 -196 126 -302 19 -58 40 -115 46 -128 10 -21 9 -21 -7 2 -222 310
-452 496 -737 597 -71 26 -79 31 -93 66 -14 34 -19 37 -53 37 -32 0 -39 -4
-42 -22 -2 -13 -8 -22 -14 -21 -6 1 -49 7 -95 13 -46 5 -85 15 -87 20 -4 12
-32 13 -32 2 0 -5 -57 -14 -128 -21 -170 -15 -297 -47 -464 -116 -14 -5 -18
-2 -18 12 0 36 39 62 147 97 l108 35 -132 1 c-106 0 -134 -3 -140 -15z m941
-41 c3 -8 2 -12 -4 -9 -6 3 -10 10 -10 16 0 14 7 11 14 -7z m333 -5886 c-3 -7
-5 -2 -5 12 0 14 2 19 5 13 2 -7 2 -19 0 -25z"/>
<path d="M10360 7753 c0 -27 9 -232 20 -458 11 -225 27 -554 35 -730 9 -176
29 -549 45 -830 67 -1157 82 -1505 70 -1598 -10 -80 -40 -178 -75 -247 -31
-62 -79 -121 -225 -275 -219 -233 -333 -392 -463 -645 -125 -245 -197 -452
-238 -686 -30 -168 -33 -501 -6 -659 73 -423 244 -772 512 -1041 229 -231 456
-346 710 -361 332 -19 699 185 921 512 l34 50 0 1008 0 1008 -106 170 c-165
265 -274 405 -494 634 -240 250 -245 266 -254 885 -11 692 -25 1529 -36 2070
-6 289 -13 686 -16 883 l-6 357 -214 0 -214 0 0 -47z"/>
<path d="M6215 7690 c-3 -5 1 -10 9 -10 9 0 16 5 16 10 0 6 -4 10 -9 10 -6 0
-13 -4 -16 -10z"/>
<path d="M6089 7620 c-13 -10 -19 -19 -13 -20 6 0 19 9 29 20 23 26 14 26 -16
0z"/>
<path d="M484 7343 c-4 -21 -7 -688 -6 -1483 2 -888 -2 -1514 -8 -1625 -5 -99
-14 -619 -20 -1155 -9 -1015 -18 -1403 -50 -2399 -11 -327 -20 -614 -20 -638
l0 -43 221 0 222 0 -7 31 c-10 51 -7 2668 4 2849 14 242 40 322 181 557 412
685 545 1597 349 2384 -107 424 -405 1022 -705 1410 -126 163 -147 177 -161
112z"/>
<path d="M9156 6938 c-3 -18 -8 -134 -11 -258 -3 -124 -10 -373 -16 -555 -5
-181 -13 -544 -18 -805 -8 -518 -7 -511 -67 -538 -40 -19 -71 -14 -106 17
l-32 29 -7 598 c-4 330 -8 801 -8 1047 -1 288 -5 455 -11 468 -14 26 -39 24
-44 -3 -8 -35 -31 -688 -56 -1528 -16 -561 -16 -563 -33 -596 -16 -31 -53 -54
-88 -54 -28 0 -75 26 -85 47 -5 10 -11 493 -14 1073 -3 580 -7 1056 -8 1058
-1 1 -10 2 -21 2 -15 0 -19 -10 -25 -54 -10 -91 -35 -503 -61 -1041 -14 -280
-32 -643 -42 -805 -22 -374 -24 -1028 -5 -1113 12 -51 23 -68 82 -130 37 -40
112 -110 165 -157 116 -102 203 -206 245 -296 66 -137 90 -369 90 -854 -1
-301 17 -1730 27 -2208 l5 -282 194 0 194 0 0 58 c0 58 -22 557 -40 897 -5
105 -16 393 -25 640 -21 607 -31 797 -61 1085 -14 135 -28 310 -31 390 -12
289 22 367 294 681 76 88 127 177 137 244 4 22 -2 157 -13 300 -61 777 -89
1321 -111 2173 -6 216 -15 413 -19 438 -10 50 -26 74 -40 59 -12 -14 -31 -748
-37 -1470 -3 -330 -10 -617 -15 -638 -7 -26 -20 -44 -42 -57 -45 -28 -81 -25
-117 8 l-31 27 -9 315 c-5 173 -14 646 -21 1050 -6 411 -15 743 -20 753 -16
28 -38 20 -43 -15z"/>
<path d="M4255 6930 c-3 -11 3 -109 14 -217 51 -489 151 -1720 151 -1855 0
-54 -4 -72 -20 -88 -26 -26 -64 -35 -102 -24 -61 18 -66 35 -93 319 -44 450
-109 1008 -180 1555 -42 315 -43 320 -60 320 -30 0 -34 -34 -19 -190 43 -468
134 -1759 134 -1902 0 -71 -6 -85 -41 -103 -72 -37 -142 2 -153 86 -3 24 -19
199 -36 389 -32 362 -49 525 -106 1035 -62 550 -79 675 -94 675 -23 0 -40 -33
-35 -68 22 -155 125 -1840 125 -2035 0 -96 -92 -141 -161 -79 -36 32 -31 4
-69 472 -24 302 -42 467 -121 1141 -32 279 -59 514 -59 523 0 25 -37 20 -42
-6 -2 -13 10 -270 28 -572 54 -903 67 -1343 58 -1836 -11 -536 -10 -577 18
-638 15 -31 76 -102 178 -207 213 -220 253 -277 291 -423 20 -75 20 -98 15
-797 -5 -580 -17 -1816 -19 -1868 0 -7 1 -130 1 -274 l2 -263 200 0 200 0 0
40 c0 106 -22 687 -40 1040 -11 217 -29 593 -40 835 -11 242 -27 541 -35 665
-26 393 -18 569 30 712 39 117 81 173 263 359 135 139 178 189 198 234 l27 58
-6 196 c-7 259 -81 966 -152 1466 -125 873 -186 1285 -196 1313 -13 37 -44 44
-54 12z"/>
<path d="M2126 4054 c-194 -35 -363 -133 -546 -314 -193 -191 -313 -388 -406
-665 -64 -192 -84 -301 -91 -495 -15 -422 81 -802 303 -1200 163 -293 311
-498 537 -739 100 -107 167 -197 199 -267 19 -42 22 -72 26 -211 l4 -163 154
0 154 0 0 73 c0 79 26 190 65 271 29 60 78 120 229 276 297 309 420 479 580
811 123 253 182 439 211 657 19 143 19 468 0 596 -70 464 -283 865 -605 1138
-231 195 -536 282 -814 232z"/>
<path d="M7968 3720 c-144 -26 -278 -100 -384 -211 -131 -139 -211 -301 -261
-532 -24 -111 -23 -366 1 -491 24 -126 99 -348 145 -431 60 -108 147 -224 254
-339 119 -128 158 -185 186 -269 36 -108 42 -244 34 -865 l-6 -582 157 0 157
0 -6 73 c-3 39 -10 250 -15 467 -5 217 -13 496 -16 620 -9 325 -2 352 138 509
189 212 226 261 282 374 61 125 111 264 147 407 21 84 24 118 24 295 0 220
-12 289 -75 452 -89 233 -290 444 -478 504 -75 23 -210 33 -284 19z"/>
</g>
</svg>
