<?xml version="1.0" standalone="no"?>
<!DOCTYPE svg PUBLIC "-//W3C//DTD SVG 20010904//EN"
 "http://www.w3.org/TR/2001/REC-SVG-20010904/DTD/svg10.dtd">
<svg version="1.0" xmlns="http://www.w3.org/2000/svg"
 width="764.000000pt" height="955.000000pt" viewBox="0 0 764.000000 955.000000"
 preserveAspectRatio="xMidYMid meet">

<g transform="translate(0.000000,955.000000) scale(0.100000,-0.100000)"
fill="#000000" stroke="none">
<path d="M3805 4763 c4 -20 3 -25 -4 -18 -11 11 -135 5 -147 -7 -4 -4 -1 -14
6 -23 7 -9 10 -18 6 -22 -3 -3 -6 -1 -6 4 0 10 -31 11 -114 4 -6 -1 0 -10 13
-22 18 -17 25 -18 37 -8 16 14 26 9 16 -8 -10 -16 -68 -21 -65 -5 2 6 0 11 -5
11 -23 -4 -42 3 -39 14 2 14 -53 13 -62 -2 -8 -12 -51 -16 -73 -7 -9 4 -26 3
-37 -4 -18 -9 -21 -8 -21 11 0 21 -1 21 -18 6 -10 -10 -30 -17 -45 -17 -14 0
-28 -4 -31 -8 -2 -4 -18 -9 -35 -10 -17 -1 -41 -6 -53 -11 -13 -5 -33 -5 -46
0 -20 8 -22 6 -17 -11 5 -16 2 -20 -17 -20 -18 0 -20 2 -8 10 8 5 11 12 7 16
-4 4 -22 -7 -40 -24 -18 -18 -38 -32 -45 -32 -7 0 -12 -4 -12 -9 0 -4 18 -5
40 -1 33 6 38 5 29 -6 -9 -11 -8 -14 5 -14 9 0 16 -4 16 -10 0 -10 -32 -30
-49 -30 -15 0 -14 27 2 33 6 3 2 6 -10 6 -13 1 -23 -5 -23 -11 0 -9 -2 -10 -8
-2 -9 15 -79 11 -94 -4 -9 -9 -3 -9 21 -2 43 12 75 -3 68 -31 -5 -17 -3 -18 9
-8 8 6 18 9 22 5 21 -21 -12 -63 -35 -44 -16 13 -34 2 -27 -17 4 -10 -2 -12
-24 -9 -30 5 -58 -16 -33 -24 7 -2 16 -14 20 -26 5 -11 25 -27 45 -34 34 -13
38 -12 56 10 17 20 21 21 30 8 6 -9 10 -10 10 -3 0 6 -4 15 -10 18 -20 12 -10
27 15 23 26 -5 30 -1 17 18 -18 27 -72 19 -72 -10 0 -8 -7 -17 -16 -20 -10 -4
-13 -2 -8 7 5 8 2 7 -9 -2 -15 -12 -17 -11 -17 2 0 9 20 28 45 43 25 14 45 30
45 36 0 33 71 59 96 34 9 -10 14 -19 12 -22 -3 -2 -11 2 -17 10 -10 12 -18 13
-37 4 -29 -14 -31 -34 -4 -50 23 -15 27 -30 5 -22 -17 7 -19 -4 -5 -26 11 -17
12 -16 33 35 9 22 16 34 16 28 1 -18 28 -16 34 1 3 8 3 24 0 35 -3 12 -1 21 4
21 5 0 11 -21 11 -46 1 -25 7 -54 12 -64 20 -38 9 -44 -21 -12 -16 17 -33 32
-36 32 -4 0 -3 -3 0 -7 4 -3 2 -12 -5 -20 -9 -11 -8 -13 3 -11 9 2 13 -4 12
-17 -2 -24 17 -38 33 -24 16 13 56 20 49 8 -4 -5 -1 -9 5 -9 7 0 9 -8 5 -20
-7 -22 18 -29 31 -8 5 7 12 5 22 -8 13 -18 14 -18 7 4 -5 16 -2 22 9 22 9 0
16 -6 16 -14 0 -7 7 -19 16 -27 13 -11 15 -11 14 2 -4 28 0 50 9 45 5 -3 12 4
16 17 4 13 8 17 12 9 2 -6 9 -10 14 -6 5 3 5 14 -2 26 -7 13 -7 18 -1 14 6 -3
13 -2 17 4 3 5 1 10 -4 10 -6 0 -11 7 -11 15 0 8 4 15 8 15 5 0 19 10 32 22
18 17 22 18 17 5 -8 -22 12 -67 30 -67 7 0 13 -1 13 -3 0 -1 8 -27 19 -56 l18
-53 16 31 c15 29 14 30 -6 28 -18 -2 -22 3 -22 25 0 15 -9 33 -20 42 -19 14
-19 16 -3 43 9 15 22 29 29 32 8 2 6 -4 -4 -19 -16 -22 -13 -55 4 -44 5 3 24
-4 43 -15 41 -26 41 -26 43 1 2 18 0 19 -7 8 -7 -12 -12 -12 -21 -3 -9 9 -7
15 13 23 29 13 61 57 34 47 -10 -4 -16 -1 -16 8 0 8 9 15 19 15 11 0 23 5 26
10 3 6 17 10 30 10 13 0 27 5 30 10 5 8 12 7 22 -2 12 -10 18 -9 28 6 8 10 18
15 24 12 11 -7 61 13 61 25 0 4 9 5 20 2 11 -3 20 0 20 6 0 6 8 11 18 11 10 0
22 3 26 7 4 4 37 9 74 11 149 6 141 5 126 20 -8 7 -19 10 -25 6 -6 -3 -24 3
-40 15 -15 11 -33 21 -39 21 -5 0 -10 4 -10 9 0 5 -11 12 -25 15 -14 4 -25 13
-25 20 0 20 -27 27 -40 10 -17 -19 -30 -18 -31 4 0 16 -1 16 -11 0 -11 -14
-14 -15 -35 -1 -13 8 -23 22 -23 29 0 8 -5 14 -11 14 -7 0 -9 -10 -4 -27z m27
-45 c-14 -14 -132 -19 -132 -7 0 5 28 10 63 12 34 2 66 4 72 5 5 1 3 -4 -3
-10z m-462 -67 c0 -6 -13 -18 -29 -27 -19 -11 -27 -22 -23 -33 5 -14 4 -14
-10 -1 -9 8 -15 16 -14 17 3 3 71 51 74 52 1 1 2 -3 2 -8z m74 -36 c-4 -8 -11
-15 -16 -15 -6 0 -5 6 2 15 7 8 14 15 16 15 2 0 1 -7 -2 -15z m383 -7 c-3 -8
-6 -5 -6 6 -1 11 2 17 5 13 3 -3 4 -12 1 -19z m-417 -8 c0 -5 -5 -10 -11 -10
-5 0 -7 5 -4 10 3 6 8 10 11 10 2 0 4 -4 4 -10z m184 -52 c-8 -27 -31 -51 -44
-46 -9 3 35 68 46 68 3 0 2 -10 -2 -22z m-474 -8 c0 -5 -4 -10 -10 -10 -5 0
-10 5 -10 10 0 6 5 10 10 10 6 0 10 -4 10 -10z m389 -24 c-13 -6 -29 -17 -35
-25 -8 -10 -13 -11 -18 -3 -8 14 53 54 68 45 5 -4 -1 -11 -15 -17z m-82 8 c-3
-3 -12 -4 -19 -1 -8 3 -5 6 6 6 11 1 17 -2 13 -5z m-227 -48 c0 -8 -7 -16 -15
-20 -15 -5 -21 14 -8 27 11 12 23 8 23 -7z m34 -72 c3 -8 2 -12 -4 -9 -6 3
-10 1 -10 -6 0 -7 -3 -10 -6 -6 -7 6 2 37 10 37 2 0 7 -7 10 -16z"/>
<path d="M4165 4630 c-3 -5 -30 -16 -61 -25 -39 -11 -58 -23 -66 -40 -6 -13
-21 -26 -33 -29 -36 -9 -85 -55 -85 -79 0 -20 -6 -22 -69 -25 -38 -1 -81 2
-95 8 -17 6 -26 6 -26 0 0 -6 -5 -10 -11 -10 -7 0 -9 11 -5 30 7 36 -9 40 -18
5 -8 -33 -1 -45 30 -45 15 0 24 -5 22 -12 -4 -19 9 -21 44 -7 24 10 33 10 36
1 2 -7 9 -9 15 -5 8 4 8 1 -1 -9 -10 -12 -9 -18 3 -28 13 -11 15 -8 15 15 0
20 4 26 15 21 8 -3 15 -1 15 4 0 6 7 10 15 10 8 0 15 -7 15 -15 0 -8 5 -15 10
-15 6 0 10 5 10 10 0 15 49 -22 50 -38 0 -10 4 -10 20 0 13 9 16 15 7 20 -6 4
-8 10 -4 15 5 4 16 -2 25 -14 14 -17 26 -20 70 -18 l54 2 -5 -30 c-3 -25 -2
-28 8 -14 7 10 17 17 24 17 6 0 11 5 11 11 0 5 4 8 9 4 6 -3 15 4 21 15 6 12
7 20 1 20 -5 0 -11 -6 -14 -12 -4 -10 -7 -10 -16 -1 -6 7 -8 11 -5 8 4 -2 19
4 34 15 16 11 32 20 37 20 5 0 17 14 27 31 19 32 34 33 21 2 -5 -10 -7 -22 -6
-26 0 -4 -7 -10 -16 -14 -28 -10 -53 -35 -46 -45 3 -6 -1 -14 -8 -19 -10 -6
-4 -9 19 -9 17 0 32 5 32 11 0 5 -4 7 -10 4 -5 -3 -10 -1 -10 5 0 7 7 9 17 6
9 -4 20 -1 25 6 6 10 12 9 23 -6 9 -12 15 -15 15 -7 0 7 6 11 15 8 8 -4 17 -2
20 3 4 6 -4 10 -17 10 -17 0 -20 2 -9 9 8 5 20 7 28 4 7 -3 13 0 13 6 0 11
-13 15 -37 12 -9 -1 -11 8 -6 31 7 41 12 46 23 28 8 -12 10 -12 16 3 7 18 54
24 54 7 0 -5 -7 -10 -17 -10 -29 0 -4 -13 27 -14 27 -1 28 1 13 12 -11 8 -12
12 -4 12 11 0 11 3 0 16 -7 9 -18 26 -24 38 -7 12 -19 20 -29 18 -13 -2 -17 1
-13 11 4 10 -1 13 -21 8 -19 -3 -22 -6 -9 -9 20 -4 23 -22 4 -22 -19 0 -77 30
-77 39 0 5 -12 11 -27 14 -16 3 -45 17 -65 31 -21 14 -40 21 -43 16z m32 -102
c-3 -8 -6 -5 -6 6 -1 11 2 17 5 13 3 -3 4 -12 1 -19z m153 -38 c0 -5 -4 -10
-10 -10 -5 0 -10 5 -10 10 0 6 5 10 10 10 6 0 10 -4 10 -10z m-270 -40 c0 -5
-4 -10 -10 -10 -5 0 -10 5 -10 10 0 6 5 10 10 10 6 0 10 -4 10 -10z m256 -16
c-4 -9 -9 -15 -11 -12 -3 3 -3 13 1 22 4 9 9 15 11 12 3 -3 3 -13 -1 -22z
m-79 0 c-3 -3 -12 -4 -19 -1 -8 3 -5 6 6 6 11 1 17 -2 13 -5z"/>
<path d="M3990 4574 c0 -8 5 -12 10 -9 6 4 8 11 5 16 -9 14 -15 11 -15 -7z"/>
<path d="M3700 4531 c0 -5 -9 -7 -20 -4 -11 3 -20 0 -20 -6 0 -14 43 -8 48 7
2 7 1 12 -2 12 -3 0 -6 -4 -6 -9z"/>
<path d="M2887 4503 c-15 -14 -6 -34 13 -31 12 2 20 7 20 12 -1 5 4 13 12 17
9 6 5 9 -13 9 -14 0 -29 -3 -32 -7z"/>
<path d="M2825 4483 c-11 -3 -24 -9 -29 -13 -4 -5 -23 -6 -40 -3 -22 3 -36 0
-45 -11 -11 -13 -10 -15 8 -11 17 3 21 -1 21 -20 0 -19 -4 -23 -17 -18 -16 6
-16 5 -4 -11 11 -13 12 -19 2 -29 -10 -9 -11 -8 -6 4 4 10 0 19 -10 23 -12 4
-15 1 -12 -12 13 -45 16 -88 7 -102 -9 -13 -10 -13 -10 0 -1 21 -58 63 -76 56
-8 -3 -20 -19 -25 -36 -13 -35 -39 -40 -39 -7 0 18 -2 19 -10 7 -8 -13 -11
-12 -23 4 -17 23 -24 9 -23 -44 1 -24 6 -35 16 -35 8 0 15 9 15 19 0 11 6 21
13 23 11 4 16 -9 13 -29 0 -5 4 -8 9 -8 6 0 10 7 10 17 0 33 37 -15 38 -49 0
-18 6 -34 12 -36 7 -3 3 -10 -9 -18 -11 -8 -18 -21 -15 -28 3 -8 1 -17 -5 -21
-6 -3 -9 0 -5 8 3 8 2 17 -3 20 -11 7 -48 -71 -39 -80 4 -4 10 -3 14 3 4 6 18
15 32 19 l25 7 -27 -21 c-34 -28 -36 -55 -4 -82 15 -13 22 -27 19 -37 -5 -11
-2 -14 10 -9 10 4 16 2 14 -5 -1 -6 14 -15 33 -19 28 -6 38 -4 54 13 15 16 20
17 27 6 6 -10 9 -10 9 0 0 6 9 12 19 12 11 0 23 5 26 10 4 7 11 7 18 2 17 -13
49 -23 43 -13 -8 12 85 13 100 0 14 -12 54 -3 54 11 0 5 12 4 26 -2 20 -9 30
-9 45 0 27 17 38 15 101 -17 32 -17 76 -32 100 -35 24 -3 64 -9 91 -14 26 -5
47 -6 47 -1 0 5 5 9 10 9 6 0 10 -7 10 -15 0 -9 9 -15 24 -15 14 0 28 -5 31
-10 4 -6 14 -9 22 -8 9 2 18 -3 20 -10 3 -7 -1 -10 -11 -6 -11 4 -16 1 -16
-10 0 -9 7 -16 15 -16 9 0 12 -6 9 -15 -4 -8 -12 -15 -20 -15 -17 0 -18 -12
-3 -27 8 -8 4 -15 -12 -27 -14 -9 -25 -12 -29 -6 -4 6 -18 6 -38 1 -24 -7 -32
-6 -32 3 0 8 -6 19 -14 25 -11 10 -20 6 -41 -16 -15 -15 -24 -22 -21 -15 10
17 -9 15 -24 -3 -7 -8 -19 -15 -27 -15 -10 0 -13 -6 -9 -16 4 -10 1 -14 -6
-12 -7 3 -13 10 -12 16 1 7 2 22 3 33 1 17 4 19 15 10 11 -9 13 -6 11 20 -2
23 -10 36 -28 46 -29 14 -46 1 -28 -21 11 -13 10 -14 -45 -17 -20 -1 -25 -6
-21 -21 4 -15 2 -18 -16 -12 -18 5 -20 4 -9 -7 39 -41 -31 -48 -76 -7 -14 13
-22 18 -18 11 11 -19 -13 -26 -30 -8 -18 18 -34 9 -38 -21 -2 -11 -10 -20 -19
-22 -11 -2 -15 1 -12 10 4 9 -5 19 -22 27 -18 8 -29 9 -31 2 -2 -5 -10 -7 -18
-4 -9 3 -12 0 -9 -9 4 -9 -2 -14 -15 -15 -12 -1 -20 4 -20 13 0 11 -6 13 -21
9 -18 -6 -20 -3 -18 22 2 15 8 34 13 41 6 9 2 20 -14 35 -12 12 -19 15 -14 7
15 -26 13 -40 -8 -51 -13 -7 -18 -17 -15 -30 4 -16 3 -18 -8 -9 -11 9 -17 5
-30 -22 -8 -18 -12 -23 -9 -9 5 17 3 21 -7 16 -9 -6 -11 -3 -6 9 4 10 7 22 7
27 0 5 5 9 11 9 6 0 18 7 26 16 14 13 14 17 2 25 -20 13 -29 11 -29 -5 0 -23
-31 -29 -37 -6 -5 21 -33 28 -33 9 0 -27 -62 -58 -83 -41 -15 12 -67 13 -67 1
0 -4 7 -12 16 -17 29 -16 29 -127 0 -116 -16 6 -16 -23 0 -54 7 -14 10 -31 7
-38 -3 -8 1 -14 10 -14 8 0 17 -7 21 -15 3 -8 15 -15 26 -15 14 0 19 4 14 12
-5 7 -3 8 6 3 24 -15 74 -13 86 3 10 13 14 12 29 -11 9 -15 15 -34 11 -42 -3
-9 0 -15 9 -15 18 0 28 17 15 25 -18 11 -11 43 10 50 12 4 27 1 35 -5 8 -7 15
-9 15 -4 0 5 4 3 9 -5 6 -10 13 -11 29 -2 17 9 23 8 31 -6 9 -17 10 -17 16 0
9 21 35 23 35 2 0 -8 7 -15 16 -15 13 0 14 3 5 14 -9 10 -8 16 4 26 12 10 16
9 21 -5 5 -11 9 -13 14 -5 4 6 22 13 41 16 29 5 40 0 74 -31 22 -21 32 -35 23
-32 -9 3 -19 0 -22 -9 -5 -12 10 -19 36 -15 3 0 5 -7 3 -17 -2 -9 -4 -20 -4
-24 -1 -5 -10 -8 -21 -8 -12 0 -24 -10 -30 -22 -7 -18 -8 -13 -6 20 4 52 -9
60 -54 37 -48 -25 -69 -46 -62 -64 5 -14 4 -14 -9 -1 -8 8 -18 23 -22 34 -5
12 -14 17 -28 13 -14 -4 -19 -2 -15 8 6 16 -21 28 -30 13 -4 -7 -11 -2 -19 11
-11 22 -12 21 -30 -13 -19 -35 -40 -51 -29 -21 3 8 3 19 0 24 -10 15 -38 1
-32 -15 3 -8 -1 -14 -10 -14 -8 0 -17 -7 -20 -15 -4 -8 -10 -12 -15 -9 -6 3
-16 1 -24 -6 -9 -7 -15 -8 -20 0 -3 5 -17 7 -31 4 -19 -5 -24 -2 -24 14 0 22
-20 34 -38 23 -6 -3 -14 -19 -17 -34 -4 -15 -10 -27 -15 -27 -4 0 -7 -20 -7
-44 -1 -24 -6 -52 -11 -62 -14 -28 -13 -166 1 -161 7 2 11 18 9 36 -2 29 -1
30 18 19 11 -7 20 -18 20 -25 0 -20 18 -15 25 6 9 29 43 37 60 14 18 -22 14
-37 -10 -42 -13 -2 -16 1 -12 13 4 10 1 16 -8 16 -18 0 -18 -1 -5 -35 9 -24 8
-25 -11 -15 -15 9 -24 8 -36 -1 -13 -12 -13 -14 1 -25 15 -10 13 -13 -12 -22
-19 -6 -35 -6 -46 0 -10 5 -20 7 -23 4 -4 -3 -1 -6 5 -6 19 0 14 -30 -5 -31
-11 0 -13 -3 -5 -6 6 -2 12 -9 12 -15 0 -6 -7 -8 -15 -4 -11 4 -15 -2 -15 -24
0 -16 5 -32 10 -35 6 -3 10 -17 10 -31 0 -14 -4 -22 -10 -19 -5 3 -10 2 -10
-3 0 -5 9 -12 20 -15 13 -3 20 0 20 9 0 8 5 14 11 14 6 0 9 7 5 15 -3 9 0 15
8 15 19 0 25 -22 12 -37 -36 -40 -36 -42 -17 -48 11 -3 21 -19 25 -36 6 -31 7
-31 52 -24 44 6 93 1 224 -26 30 -6 73 -13 95 -15 106 -13 240 -36 256 -44 10
-6 75 -10 144 -10 115 0 218 -10 650 -66 66 -8 215 -26 330 -39 116 -14 239
-30 275 -35 69 -11 82 -12 366 -28 200 -11 230 -8 257 20 18 18 17 20 -21 57
-32 32 -38 43 -34 69 3 23 -2 37 -21 56 -23 23 -43 96 -26 96 16 0 19 51 3 74
-8 14 -14 34 -12 44 2 11 -10 34 -26 53 -18 20 -25 34 -18 37 7 2 12 12 12 23
0 10 4 19 9 19 10 0 9 55 -2 66 -4 4 -7 15 -7 25 0 9 -5 19 -11 21 -5 2 -11
18 -11 35 -1 18 -5 30 -10 27 -9 -6 -28 38 -28 66 0 10 5 31 11 47 8 21 12 24
19 13 5 -8 12 -11 16 -7 4 3 1 13 -5 21 -7 8 -10 19 -7 24 3 5 6 26 8 46 1 21
6 40 11 43 11 7 -12 33 -29 33 -22 0 -16 15 15 38 28 20 29 20 24 2 -3 -12 0
-20 7 -20 9 0 11 13 8 45 -4 28 -1 46 6 48 6 2 -2 16 -18 30 -20 19 -24 27
-14 27 9 0 18 7 22 15 3 8 12 15 20 15 10 0 14 9 12 28 -2 23 -6 27 -30 25
-51 -4 -66 12 -66 67 0 36 5 52 18 59 9 6 12 11 5 11 -8 0 -8 8 2 28 17 33 22
210 8 238 -6 10 -8 25 -5 33 3 9 0 11 -8 6 -10 -6 -12 -4 -7 8 4 10 2 17 -5
17 -6 0 -4 8 6 18 15 18 15 20 -2 35 -10 10 -27 17 -37 17 -10 0 -26 9 -35 20
-10 12 -24 19 -31 18 -8 -2 -15 7 -17 20 -2 16 -8 22 -19 18 -8 -3 -17 -6 -19
-6 -3 0 -2 -4 1 -10 3 -5 -1 -10 -9 -10 -9 0 -16 5 -16 11 0 6 -6 9 -12 7 -7
-3 -21 6 -31 19 -25 31 -39 30 -27 -3 6 -14 10 -26 10 -28 0 -1 -13 -1 -30 2
-18 3 -30 0 -30 -7 0 -6 7 -11 16 -11 9 0 12 -5 8 -12 -5 -8 -2 -9 9 -5 23 9
21 2 -4 -22 l-21 -19 21 -7 c11 -3 23 -16 27 -28 10 -34 39 -58 53 -44 17 17
14 22 -29 52 -23 16 -37 32 -33 36 13 12 58 15 56 3 -1 -7 8 -9 23 -6 19 3 23
9 19 23 -6 17 -4 18 22 8 52 -20 109 -93 84 -109 -7 -4 -9 -15 -5 -25 5 -12 4
-16 -3 -12 -20 13 -24 -37 -4 -53 15 -12 17 -20 10 -39 l-10 -25 -12 25 c-11
20 -34 127 -40 188 -3 21 -26 25 -26 4 0 -10 -2 -34 -3 -53 -2 -23 1 -34 9
-33 7 2 16 -21 23 -55 6 -31 12 -65 14 -74 5 -20 -10 -24 -17 -5 -3 7 -6 5 -6
-5 -1 -12 -9 -18 -26 -18 -15 0 -25 -6 -25 -14 0 -8 -7 -16 -15 -20 -11 -4
-15 1 -15 19 0 18 -7 26 -25 31 -37 9 -41 -1 -11 -29 31 -29 33 -41 6 -32 -11
4 -20 2 -20 -4 0 -6 5 -11 10 -11 6 0 10 -5 10 -12 0 -6 -3 -8 -7 -5 -3 4 -13
1 -22 -6 -14 -10 -14 -10 -3 4 10 14 10 18 -2 22 -9 4 -12 14 -9 25 4 16 0 19
-21 17 -33 -4 -33 6 0 26 l27 16 -37 7 c-21 4 -40 14 -43 24 -4 9 -16 31 -28
47 -13 17 -21 35 -19 40 2 6 -14 20 -36 33 -36 20 -41 21 -47 6 -3 -9 0 -20 7
-24 10 -6 9 -9 -1 -16 -7 -4 -14 -3 -17 4 -2 7 -8 10 -13 6 -17 -10 1 -24 31
-24 15 0 31 6 33 13 3 6 6 0 6 -15 1 -21 6 -28 21 -28 14 0 20 -7 20 -23 0
-13 5 -28 11 -34 8 -8 7 -17 -5 -34 -12 -18 -16 -20 -16 -7 0 9 -4 19 -9 22
-15 10 -41 -5 -41 -23 0 -12 -5 -10 -21 9 -13 16 -19 19 -15 8 3 -10 1 -20 -4
-23 -9 -5 -13 8 -13 40 0 6 -21 10 -46 10 -25 -1 -58 5 -72 12 -15 7 -30 9
-34 5 -4 -4 -3 3 4 15 15 30 14 35 -9 28 -35 -11 -22 14 15 29 38 16 48 46 15
46 -11 0 -20 -6 -20 -13 0 -8 -9 -22 -20 -32 -11 -10 -20 -26 -19 -34 1 -9 1
-29 0 -46 l-2 -30 -13 30 c-10 25 -13 27 -19 11 -6 -15 -10 -16 -22 -6 -9 7
-14 22 -13 34 2 13 -3 22 -16 24 -13 3 -16 0 -11 -9 6 -8 4 -10 -4 -5 -7 5
-21 0 -32 -10 -21 -19 -27 -6 -6 15 10 11 9 13 -1 7 -7 -4 -15 -1 -18 8 -12
32 -27 16 -21 -21 5 -26 3 -33 -3 -23 -5 8 -10 22 -10 31 0 11 -8 15 -27 14
-16 -1 -40 -3 -54 -3 -24 -2 -27 -7 -33 -52 -4 -27 -12 -50 -17 -50 -12 0 -8
51 6 83 4 10 3 17 -4 17 -6 0 -11 -9 -11 -21 0 -12 -4 -17 -11 -13 -6 3 -8 15
-6 26 4 12 1 18 -6 15 -7 -2 -13 -13 -15 -25 -3 -19 -6 -20 -25 -9 -12 7 -24
13 -26 14 -2 1 4 10 14 19 16 16 16 18 -9 31 -36 19 -49 8 -43 -36 3 -20 3
-28 1 -18 -7 23 -12 22 -40 -9 -13 -14 -24 -20 -24 -13 0 6 -7 9 -15 6 -23 -9
-25 6 -4 33 13 17 19 20 19 10 1 -8 10 5 21 28 14 32 16 48 9 60 -9 14 -10 13
-8 -8 3 -22 -1 -25 -36 -28 -22 -1 -46 -8 -53 -14 -9 -7 -13 -7 -13 1 0 6 -7
11 -15 11 -8 0 -15 5 -15 10 0 6 -5 10 -11 10 -6 0 -9 -8 -7 -17 2 -10 10 -18
18 -18 8 0 15 -7 15 -15 0 -11 -11 -15 -45 -14 -68 2 -70 3 -70 19 0 8 -4 15
-10 15 -5 0 -10 -4 -10 -10 0 -5 -4 -10 -10 -10 -5 0 -10 7 -10 17 0 15 -1 15
-18 0 -23 -21 -82 -34 -82 -18 0 6 5 11 12 11 9 0 9 3 0 12 -9 9 -18 9 -36 0
-22 -10 -76 -8 -113 3 -7 3 -10 11 -7 20 4 9 13 14 21 11 7 -3 16 1 20 10 8
21 -6 32 -17 14 -6 -9 -10 -10 -10 -3 0 17 -43 12 -57 -7 -11 -13 -12 -13 -13
2 0 22 -19 33 -32 20 -8 -8 -17 -8 -30 -1 -24 13 -63 8 -64 -8 -3 -30 -4 -33
-13 -33 -4 0 -6 12 -3 28 5 27 5 27 -17 8 -23 -21 -27 -16 -11 15 9 16 7 19
-10 19 -11 0 -20 -4 -20 -10 0 -15 -30 -12 -36 4 -3 9 -12 12 -21 9 -11 -4
-14 -2 -9 5 5 8 0 12 -12 12 -11 0 -22 -7 -26 -15 -3 -8 -11 -15 -18 -15 -7 0
-26 -11 -42 -25 -28 -24 -56 -32 -69 -19 -3 3 8 30 24 60 33 61 34 67 17 62
-7 -3 -13 -11 -13 -19 0 -7 -10 -19 -23 -25 -12 -6 -30 -20 -38 -30 -11 -14
-17 -15 -20 -6 -8 17 -44 15 -44 -3 0 -8 -4 -15 -10 -15 -5 0 -10 6 -10 14 0
8 -3 16 -7 19 -5 2 -3 3 3 1 23 -5 39 16 36 47 -4 29 -2 31 22 27 14 -3 23 -1
20 4 -3 4 1 11 10 14 20 8 31 61 16 79 -10 12 -9 15 5 15 10 0 28 11 41 25 13
14 20 24 16 24 -4 -1 -16 -3 -27 -6z m-51 -104 c-3 -5 -10 -7 -15 -3 -5 3 -7
10 -3 15 3 5 10 7 15 3 5 -3 7 -10 3 -15z m-104 -153 c0 -3 -4 -8 -10 -11 -5
-3 -10 -1 -10 4 0 6 5 11 10 11 6 0 10 -2 10 -4z m560 -10 c0 -3 -4 -8 -10
-11 -5 -3 -10 -1 -10 4 0 6 5 11 10 11 6 0 10 -2 10 -4z m-550 -26 c0 -5 -7
-10 -16 -10 -8 0 -12 5 -9 10 3 6 10 10 16 10 5 0 9 -4 9 -10z m335 0 c3 -5 1
-10 -4 -10 -6 0 -11 5 -11 10 0 6 2 10 4 10 3 0 8 -4 11 -10z m187 -25 c14 2
35 6 46 9 23 8 38 -17 19 -32 -30 -23 -40 -25 -34 -9 4 11 1 17 -8 17 -8 0
-15 -5 -15 -10 0 -7 -6 -7 -20 0 -19 10 -25 4 -22 -21 2 -10 -37 2 -45 14 -4
6 0 8 10 4 12 -4 17 -1 17 12 0 21 11 35 19 22 3 -5 18 -8 33 -6z m-512 -9 c0
-3 -4 -8 -10 -11 -5 -3 -10 -1 -10 4 0 6 5 11 10 11 6 0 10 -2 10 -4z m2308
-24 c6 -18 -15 -14 -22 4 -4 10 -1 14 6 12 6 -2 14 -10 16 -16z m-2327 -22
c10 0 19 -5 19 -10 0 -6 -11 -9 -25 -7 -14 2 -25 6 -25 10 1 30 2 32 7 20 2
-7 13 -13 24 -13z m532 -31 c-9 -9 -12 -7 -10 9 1 14 5 18 11 12 7 -7 6 -14
-1 -21z m27 -19 c0 -5 -4 -10 -10 -10 -5 0 -10 5 -10 10 0 6 5 10 10 10 6 0
10 -4 10 -10z m305 -28 c-6 -36 -4 -39 32 -56 43 -21 28 -35 -17 -16 -32 13
-45 47 -30 84 14 38 23 32 15 -12z m-937 -28 c1 -14 -2 -23 -8 -19 -12 7 -14
45 -2 45 4 0 9 -11 10 -26z m2285 -64 c-3 -11 -12 -20 -19 -20 -11 0 -10 5 3
20 10 11 18 20 19 20 1 0 0 -9 -3 -20z m117 10 c0 -5 -5 -10 -11 -10 -8 0 -8
-4 0 -14 14 -16 -3 -71 -19 -61 -5 3 -7 12 -4 19 3 8 -1 20 -9 27 -13 12 -13
16 0 32 17 19 43 23 43 7z m-1560 -50 c0 -5 -5 -10 -11 -10 -5 0 -7 5 -4 10 3
6 8 10 11 10 2 0 4 -4 4 -10z m1395 -10 c3 -5 -1 -10 -9 -10 -9 0 -16 5 -16
10 0 6 4 10 9 10 6 0 13 -4 16 -10z m-69 -45 c-7 -37 -12 -41 -36 -24 -11 8
-12 12 -2 16 6 2 12 9 12 14 0 12 23 39 29 33 2 -1 0 -19 -3 -39z m-1301 25
c3 -5 1 -10 -4 -10 -6 0 -11 5 -11 10 0 6 2 10 4 10 3 0 8 -4 11 -10z m268
-41 c24 -6 37 -16 37 -27 1 -16 1 -16 11 1 13 23 23 22 50 -8 24 -25 46 -34
34 -14 -9 13 24 38 51 39 11 0 29 -9 39 -20 22 -25 35 -26 36 -2 0 9 3 12 5 5
3 -7 12 -9 20 -6 22 8 64 -6 64 -22 0 -8 5 -15 10 -15 6 0 10 7 10 15 0 19 60
21 61 3 0 -10 2 -10 6 0 8 20 30 14 38 -10 6 -22 7 -21 21 10 14 32 34 36 34
6 0 -8 3 -14 8 -15 4 0 16 -3 27 -5 11 -3 37 -5 58 -5 20 0 35 -4 32 -9 -3 -5
-1 -11 4 -14 5 -4 12 -2 16 4 11 18 35 11 47 -14 6 -14 17 -27 25 -30 10 -4
11 -1 3 14 -6 11 -6 21 -1 24 9 6 25 -9 34 -34 4 -11 6 -11 6 3 1 10 7 17 14
14 6 -2 10 -13 9 -23 -3 -14 -1 -16 8 -8 6 6 13 20 14 30 2 11 11 21 20 22 15
3 17 -3 15 -44 -3 -47 -3 -47 31 -51 18 -2 31 0 27 3 -4 4 3 12 16 19 18 10
25 8 40 -7 24 -24 47 -23 47 4 0 20 1 20 19 4 18 -16 36 -90 19 -80 -4 3 -8
-2 -8 -10 0 -9 -4 -16 -10 -16 -5 0 -10 4 -10 10 0 5 -7 7 -15 4 -8 -3 -13
-10 -12 -14 1 -5 -6 -15 -17 -23 -16 -12 -17 -17 -6 -37 12 -23 13 -23 26 -5
8 10 14 25 14 32 0 7 4 13 9 13 5 0 7 -9 4 -20 -3 -11 0 -20 6 -20 6 0 11 -5
11 -11 0 -6 -9 -8 -20 -4 -14 5 -20 2 -20 -9 0 -9 5 -16 12 -16 8 0 9 -3 2
-10 -16 -16 -41 -2 -49 27 -17 68 -55 129 -55 88 0 -17 -16 -20 -25 -5 -9 14
-63 7 -58 -7 3 -7 -2 -14 -11 -14 -9 -1 -20 -3 -26 -4 -5 -1 -14 -3 -20 -4
-19 -2 -10 -17 12 -18 12 -1 28 -9 37 -18 14 -14 14 -17 1 -25 -12 -8 -12 -10
5 -11 l20 0 -20 -9 c-16 -6 -23 -2 -34 21 -15 29 -31 39 -31 18 0 -6 -7 -8
-16 -5 -21 8 -40 -4 -23 -15 21 -12 -4 -33 -30 -24 -28 9 -26 23 5 37 15 7 24
18 22 27 -4 16 26 54 35 45 2 -3 7 4 10 15 3 11 -1 25 -8 31 -13 11 -45 4 -45
-11 0 -4 7 -6 15 -3 19 8 19 -3 1 -22 -8 -7 -16 -10 -18 -5 -2 6 -14 11 -28
13 -14 2 -35 9 -47 16 -21 12 -27 9 -24 -10 0 -5 -4 -8 -10 -8 -7 0 -9 10 -4
27 6 27 6 27 -13 10 -19 -17 -20 -17 -26 6 -6 24 -36 46 -36 27 0 -18 -29 -10
-44 12 -18 25 -33 18 -20 -9 8 -19 11 -29 13 -52 1 -10 10 -12 36 -8 32 5 35
4 35 -18 0 -18 -4 -22 -20 -18 -24 6 -85 63 -86 81 -3 36 -5 42 -13 42 -5 0
-15 -13 -23 -30 -7 -16 -16 -30 -20 -30 -5 0 -8 -9 -8 -20 0 -11 -4 -20 -10
-20 -5 0 -10 6 -10 14 0 7 -7 20 -17 27 -15 13 -15 12 -6 -6 13 -24 -1 -49
-35 -59 -12 -4 -22 -12 -22 -18 0 -7 5 -6 14 1 20 17 30 -2 31 -62 1 -39 6
-53 26 -69 l24 -20 -32 6 c-18 3 -35 1 -38 -4 -3 -6 -1 -10 5 -10 6 0 8 -5 4
-12 -6 -10 -5 -10 8 -1 13 11 17 7 26 -25 6 -20 9 -46 7 -57 -2 -11 -4 -26 -4
-32 -1 -16 -12 -16 -48 -2 -15 7 -39 13 -53 15 -55 8 -83 21 -91 41 -8 22 9
66 26 65 21 -1 42 29 37 53 -2 14 1 31 7 39 13 15 6 41 -18 70 -9 11 -11 16
-5 13 7 -4 14 -1 17 7 4 9 14 12 26 9 26 -7 54 20 57 56 4 29 -32 98 -44 86
-4 -4 -1 -10 6 -12 15 -6 16 -29 2 -38 -16 -10 -62 24 -56 41 4 10 -11 22 -52
41 -31 14 -60 30 -63 35 -4 6 -9 6 -14 -2 -5 -8 -12 -7 -26 6 -18 16 -19 16
-19 0 0 -13 -4 -15 -18 -7 -21 11 -42 -3 -42 -26 0 -11 -4 -11 -20 -1 -17 11
-22 10 -30 -2 -8 -13 -10 -12 -10 3 0 10 -3 16 -8 13 -6 -3 -9 80 -3 92 3 5
49 1 84 -9z m-150 -37 c-1 -5 4 -13 13 -16 9 -4 12 -2 8 5 -4 7 -1 10 6 7 21
-7 23 -25 4 -32 -19 -7 -69 36 -57 48 10 9 28 0 26 -12z m-323 -48 c0 -8 -4
-14 -10 -14 -5 0 -10 9 -10 21 0 11 5 17 10 14 6 -3 10 -13 10 -21z m615 -34
c18 -20 18 -21 -3 -43 -12 -12 -22 -16 -22 -9 0 7 -4 12 -10 12 -5 0 -6 -8 -3
-17 6 -16 5 -16 -10 -4 -20 16 -22 52 -5 69 17 17 32 15 53 -8z m821 -17 c-10
-10 -19 5 -10 18 6 11 8 11 12 0 2 -7 1 -15 -2 -18z m-1053 -2 c-3 -10 0 -22
6 -25 5 -4 8 -13 4 -22 -4 -11 -9 -8 -20 12 -14 28 -11 54 6 54 5 0 7 -8 4
-19z m37 -1 c0 -5 -5 -10 -11 -10 -5 0 -7 5 -4 10 3 6 8 10 11 10 2 0 4 -4 4
-10z m37 -4 c-6 -16 26 -32 43 -21 5 3 10 -1 10 -9 0 -12 -11 -16 -45 -16 -32
0 -45 -4 -45 -14 0 -8 6 -16 13 -19 8 -3 7 -10 -7 -26 -18 -19 -21 -20 -29 -6
-10 19 -1 65 13 65 6 0 10 4 10 10 0 10 31 50 38 50 2 0 2 -7 -1 -14z m-944
-9 c3 -8 -1 -14 -8 -14 -7 0 -11 6 -8 14 3 7 6 13 8 13 2 0 5 -6 8 -13z m1027
-17 c0 -5 -4 -10 -10 -10 -5 0 -10 5 -10 10 0 6 5 10 10 10 6 0 10 -4 10 -10z
m-904 -45 c-9 -7 -16 -19 -16 -28 0 -9 -5 -19 -12 -23 -8 -5 -9 -2 -5 9 4 10
2 29 -3 43 -9 24 -8 26 10 21 14 -4 23 0 28 11 6 15 7 15 10 -2 2 -11 -3 -25
-12 -31z m-105 -38 c-8 -8 -11 -6 -11 6 0 11 -5 14 -17 10 -14 -5 -12 1 7 21
l25 28 3 -27 c2 -15 -1 -32 -7 -38z m1107 51 c-2 -7 3 -12 10 -10 8 1 11 -2 7
-8 -5 -8 -11 -8 -21 1 -7 6 -11 15 -8 20 8 13 14 11 12 -3z m1022 -3 c7 -9 22
-12 39 -9 43 9 56 -15 40 -71 -14 -47 -23 -55 -33 -30 -3 9 -19 15 -41 15 -19
0 -35 5 -35 10 0 6 -7 10 -15 10 -11 0 -15 -8 -13 -26 2 -15 -2 -29 -8 -31 -7
-2 -9 7 -6 26 2 16 -1 32 -7 35 -19 12 -12 23 13 19 30 -6 46 16 17 24 -27 7
-27 17 2 31 30 14 33 14 47 -3z m-1286 -40 c-7 -16 -24 -21 -24 -6 0 8 7 13
27 20 1 1 0 -6 -3 -14z m470 -31 c3 -9 6 -17 6 -18 0 -1 -9 -2 -20 -3 -11 -1
-20 0 -20 2 0 11 13 35 20 35 4 0 11 -7 14 -16z m-234 -4 c0 -5 -8 -10 -17
-10 -15 0 -16 2 -3 10 19 12 20 12 20 0z m546 -7 c-4 -9 -2 -19 4 -23 8 -5 8
-15 0 -34 -5 -15 -14 -25 -19 -21 -5 3 -12 -3 -14 -12 -3 -10 -4 3 -2 30 2 26
-1 47 -6 47 -5 0 -9 7 -9 15 0 9 10 15 26 15 20 0 25 -4 20 -17z m218 4 c7 -7
11 -17 9 -24 -5 -14 33 -36 47 -28 6 4 9 -7 8 -27 -2 -24 1 -32 11 -30 12 3
12 1 1 -13 -11 -14 -11 -21 4 -46 10 -17 15 -33 12 -36 -3 -3 -1 -14 5 -24 7
-15 6 -19 -6 -19 -8 0 -15 -7 -15 -15 0 -8 -6 -15 -13 -15 -16 0 -10 61 7 72
8 6 7 8 -1 8 -8 0 -10 7 -6 18 6 16 6 16 -10 0 -10 -9 -16 -23 -15 -30 2 -8
-6 -12 -21 -10 -34 3 -36 7 -23 49 17 57 19 108 5 106 -7 -2 -13 1 -13 7 0 5
-10 9 -22 7 -26 -2 -29 13 -8 43 17 23 26 25 44 7z m-954 -6 c0 -5 -7 -11 -15
-15 -15 -5 -20 5 -8 17 9 10 23 9 23 -2z m1140 -1 c0 -5 -2 -10 -4 -10 -3 0
-8 5 -11 10 -3 6 -1 10 4 10 6 0 11 -4 11 -10z m-2033 -32 c-3 -8 -6 -5 -6 6
-1 11 2 17 5 13 3 -3 4 -12 1 -19z m1583 15 c0 -5 -15 -19 -33 -31 -24 -18
-27 -22 -10 -17 18 5 22 3 17 -9 -3 -9 -10 -16 -15 -16 -5 0 -9 -5 -9 -12 0
-9 3 -9 12 0 18 18 25 15 32 -13 4 -14 11 -25 17 -25 6 0 9 7 5 15 -3 8 -1 15
3 15 13 0 20 -25 12 -38 -9 -14 -51 -4 -51 13 0 7 -14 12 -31 13 -40 1 -47 9
-24 26 18 13 18 14 -3 27 -12 8 -22 17 -22 22 0 4 5 5 11 2 6 -4 17 2 25 14
14 20 64 30 64 14z m555 -13 c3 -6 -1 -7 -9 -4 -18 7 -21 14 -7 14 6 0 13 -4
16 -10z m-1263 -22 c-7 -7 -12 -8 -12 -2 0 6 3 14 7 17 3 4 9 5 12 2 2 -3 -1
-11 -7 -17z m-343 -2 c9 -8 39 -18 66 -23 41 -7 51 -13 53 -30 3 -21 34 -39
59 -35 7 2 21 -5 32 -14 11 -10 28 -19 39 -20 10 -2 32 -10 47 -18 28 -14 30
-14 40 5 6 11 14 16 19 12 4 -4 11 -1 16 7 7 11 10 8 10 -14 0 -25 3 -27 25
-22 22 6 25 3 25 -19 0 -29 7 -31 32 -8 11 10 18 12 19 5 1 -7 2 -18 3 -24 3
-17 -24 -49 -35 -42 -4 2 -6 11 -2 19 4 13 -6 18 -33 14 -4 0 -11 5 -15 13 -7
10 -9 10 -9 0 0 -10 -5 -10 -20 -2 -23 12 -54 0 -64 -25 -8 -22 -26 -18 -26 6
0 17 -5 20 -25 17 -14 -3 -25 -2 -25 3 0 4 -11 19 -24 32 -18 18 -28 21 -35
14 -8 -8 -11 -8 -11 1 0 6 -9 16 -20 22 -15 8 -18 8 -14 -3 4 -10 -3 -13 -26
-9 -17 2 -30 10 -30 18 0 8 -2 14 -4 14 -2 0 -12 3 -21 7 -14 5 -16 2 -10 -15
5 -18 2 -22 -14 -22 -12 0 -21 7 -21 15 0 20 -43 40 -67 31 -15 -6 -15 -8 -3
-16 12 -8 11 -10 -5 -10 -12 0 -26 -5 -33 -12 -9 -9 -12 -6 -12 13 0 35 -20
53 -35 32 -11 -14 -13 -12 -17 15 -2 17 -1 29 3 26 4 -2 10 5 14 16 3 11 9 20
13 21 4 0 24 2 44 3 21 1 41 5 44 9 12 11 36 8 53 -7z m442 -2 c25 5 30 3 27
-12 -3 -18 -48 -31 -48 -13 0 5 -9 13 -20 16 -11 3 -20 11 -20 17 0 6 6 6 15
-2 9 -8 27 -10 46 -6z m169 -50 c0 -1 -13 0 -30 2 -16 2 -30 -1 -30 -6 0 -5
-19 -9 -41 -8 -37 1 -40 3 -24 15 12 8 22 9 30 3 8 -7 19 -4 34 9 21 18 24 18
42 3 10 -9 19 -17 19 -18z m928 18 c6 -18 -15 -14 -22 4 -4 10 -1 14 6 12 6
-2 14 -10 16 -16z m-338 -32 c0 -5 -7 -10 -16 -10 -8 0 -12 5 -9 10 3 6 10 10
16 10 5 0 9 -4 9 -10z m-1330 -40 c0 -5 -4 -10 -10 -10 -5 0 -10 5 -10 10 0 6
5 10 10 10 6 0 10 -4 10 -10z m-380 -26 c0 -8 -4 -14 -10 -14 -5 0 -10 9 -10
21 0 11 5 17 10 14 6 -3 10 -13 10 -21z m1370 11 c-7 -9 -15 -13 -17 -11 -7 7
7 26 19 26 6 0 6 -6 -2 -15z m-45 -5 c3 -5 1 -10 -4 -10 -6 0 -11 5 -11 10 0
6 2 10 4 10 3 0 8 -4 11 -10z m105 -80 c0 -6 18 -10 39 -10 22 0 46 -3 55 -6
27 -10 18 12 -9 24 -32 15 -38 15 -30 2 3 -5 2 -10 -4 -10 -14 0 -22 16 -16
33 5 11 15 12 48 6 23 -4 47 -4 52 1 11 9 45 -11 45 -28 0 -5 -11 -13 -25 -16
-27 -7 -32 -31 -12 -58 9 -11 18 -14 27 -8 7 4 19 6 26 3 6 -2 19 6 28 19 9
12 16 18 16 13 0 -5 5 -4 12 3 8 8 15 9 25 1 20 -17 58 -3 60 22 1 11 10 27
20 34 22 17 30 1 12 -22 -12 -14 -11 -15 11 -9 23 6 23 6 8 -7 -22 -18 -23
-28 -2 -20 12 4 14 0 9 -18 -3 -13 -7 -39 -8 -57 -1 -25 -8 -34 -24 -38 -13
-4 -21 -10 -18 -14 7 -11 -24 -22 -37 -13 -7 4 -9 -2 -6 -15 6 -22 -7 -32 -14
-10 -3 7 -14 9 -31 4 -19 -4 -25 -11 -20 -23 5 -12 -4 -9 -29 10 -19 15 -41
27 -49 28 -8 0 -27 9 -44 20 -57 36 -140 73 -162 71 -24 -2 -32 21 -12 34 7 4
2 15 -15 31 -14 13 -26 33 -26 43 0 16 4 18 24 10 28 -10 36 -5 36 24 0 17 4
15 20 -12 11 -18 20 -37 20 -42z m-50 40 c0 -5 -2 -10 -4 -10 -3 0 -8 5 -11
10 -3 6 -1 10 4 10 6 0 11 -4 11 -10z m-345 -20 c4 -6 10 -8 14 -6 4 3 12 -4
19 -14 8 -14 8 -19 -1 -23 -22 -8 -57 12 -57 33 0 21 14 27 25 10z m713 -19
c3 -8 -1 -12 -9 -9 -7 2 -15 10 -17 17 -3 8 1 12 9 9 7 -2 15 -10 17 -17z
m299 -14 c-5 -15 -29 -16 -34 -2 -2 6 6 11 18 12 12 1 19 -3 16 -10z m-70 -16
c-3 -14 -1 -18 9 -14 8 3 14 0 14 -5 0 -17 -41 -26 -51 -11 -6 10 -9 3 -9 -20
0 -32 -1 -33 -30 -27 -17 3 -30 1 -30 -4 0 -6 5 -10 10 -10 14 0 50 -37 50
-51 0 -7 -7 -8 -17 -4 -10 4 -27 9 -38 10 -11 2 -22 4 -24 4 -2 1 1 7 7 14 8
10 6 16 -9 25 -16 11 -18 16 -9 28 7 7 10 23 7 33 -3 14 -1 18 9 14 8 -3 14 0
14 7 0 7 11 9 29 7 17 -3 38 1 48 9 24 18 26 17 20 -5z m-627 -11 c0 -5 -4
-10 -9 -10 -6 0 -13 5 -16 10 -3 6 1 10 9 10 9 0 16 -4 16 -10z m670 -35 c-7
-9 -15 -13 -19 -10 -3 3 1 10 9 15 21 14 24 12 10 -5z m27 -30 c-15 -14 -27
-32 -27 -40 0 -17 -16 -20 -25 -5 -9 14 18 50 37 50 10 0 18 5 18 10 0 6 6 10
12 10 7 0 0 -11 -15 -25z m-2037 -62 c0 -19 -3 -24 -10 -17 -6 6 -8 18 -4 27
9 24 14 21 14 -10z m-40 7 c0 -5 -4 -10 -10 -10 -5 0 -10 5 -10 10 0 6 5 10
10 10 6 0 10 -4 10 -10z m-60 -28 c0 -19 5 -28 18 -29 46 -3 62 -8 59 -18 -2
-5 -12 -12 -23 -14 -10 -2 -23 -9 -27 -17 -4 -8 -13 -14 -18 -14 -16 0 -41 29
-35 39 3 5 -3 11 -14 14 -11 3 -20 13 -20 24 0 15 2 16 10 3 9 -13 10 -13 10
1 0 16 19 39 32 39 4 0 8 -13 8 -28z m200 -39 c0 -9 -8 -11 -24 -7 -13 3 -27
1 -30 -5 -14 -22 -33 -11 -33 19 0 26 3 29 23 24 12 -3 25 0 29 7 6 9 12 7 22
-6 7 -11 13 -25 13 -32z m1880 37 c0 -5 -6 -9 -12 -7 -7 1 -12 -6 -12 -15 1
-10 -4 -18 -12 -18 -19 0 -18 15 2 34 18 18 34 21 34 6z m-1674 -27 c-4 -11
-2 -13 9 -9 19 7 20 -8 2 -23 -23 -19 -52 31 -31 52 11 11 26 -4 20 -20z m155
4 c-13 -13 -26 -3 -16 12 3 6 11 8 17 5 6 -4 6 -10 -1 -17z m-276 -3 c41 -17
43 -30 1 -15 -18 8 -26 7 -26 0 0 -8 -5 -7 -15 1 -17 14 -20 30 -6 30 5 0 25
-7 46 -16z m474 -6 c19 -5 47 -7 62 -4 27 5 43 -6 44 -28 0 -5 6 -11 13 -13 6
-3 12 0 12 6 0 6 7 11 15 11 17 0 34 -29 28 -47 -3 -7 0 -13 5 -13 6 0 13 13
17 29 6 27 8 28 41 21 19 -4 42 -14 50 -21 14 -11 15 -10 12 11 -2 21 1 25 25
25 15 1 27 -4 27 -11 0 -23 21 -26 27 -5 6 23 14 26 29 12 13 -13 94 -22 94
-11 0 6 5 10 11 10 7 0 9 -10 5 -26 -5 -19 -3 -25 6 -22 7 3 14 14 16 26 5 33
22 26 22 -8 0 -23 4 -28 16 -23 9 3 20 0 25 -8 8 -12 12 -11 24 5 8 11 15 16
15 11 0 -5 7 1 16 13 20 29 27 28 43 -9 16 -37 8 -48 -19 -24 -30 27 -24 4 6
-25 18 -16 22 -26 13 -29 -7 -2 -18 4 -26 15 -13 17 -14 17 -17 -8 -1 -15 -26
-23 -26 -8 0 6 6 8 13 4 6 -3 -1 5 -18 20 -32 27 -45 32 -45 17 0 -5 10 -13
22 -17 l23 -7 -23 -8 c-12 -5 -22 -13 -22 -18 0 -6 -7 -8 -15 -5 -8 4 -15 1
-15 -7 0 -7 -3 -10 -6 -7 -3 4 -1 15 5 26 9 17 7 19 -17 16 -63 -7 -90 17 -56
51 26 26 8 29 -21 3 -31 -26 -64 -30 -83 -8 -12 13 -13 12 -9 -7 3 -13 1 -23
-4 -23 -5 0 -9 5 -9 10 0 17 -28 11 -32 -7 -3 -16 -4 -16 -20 0 -9 9 -24 17
-32 17 -9 0 -16 4 -16 9 0 10 -34 8 -62 -4 -10 -4 -18 -11 -18 -16 0 -5 -4 -9
-9 -9 -6 0 -9 12 -8 28 2 23 -2 28 -25 30 -22 3 -27 0 -22 -12 4 -11 0 -16
-12 -17 -11 0 -34 -2 -51 -5 -18 -2 -33 0 -33 4 0 5 -12 14 -26 20 -14 7 -22
17 -19 22 3 6 1 10 -4 10 -6 0 -11 -10 -11 -22 0 -16 -3 -19 -11 -11 -6 6 -18
9 -25 6 -8 -3 -14 1 -14 11 0 9 -5 16 -11 16 -6 0 -9 -6 -6 -14 4 -9 -3 -16
-19 -19 -13 -2 -24 -1 -24 4 0 4 -12 6 -26 3 -19 -3 -34 2 -51 18 -21 20 -27
21 -55 10 -18 -6 -34 -9 -37 -5 -3 3 0 8 7 10 6 3 12 11 12 19 0 9 4 13 9 9 5
-3 12 -1 16 5 8 13 55 13 55 0 0 -5 9 -10 19 -10 11 0 23 5 26 10 10 16 55 12
55 -5 0 -12 6 -11 33 4 17 11 39 17 47 14 8 -3 30 -10 49 -15z m-404 -8 c3 -5
-1 -10 -10 -10 -9 0 -13 5 -10 10 3 6 8 10 10 10 2 0 7 -4 10 -10z m150 -41
c11 -17 -1 -21 -15 -4 -8 9 -8 15 -2 15 6 0 14 -5 17 -11z m249 -44 c3 -9 0
-15 -8 -15 -8 0 -16 7 -20 15 -3 9 0 15 8 15 8 0 16 -7 20 -15z m259 -41 c-8
-21 -18 -17 -31 11 -17 36 -15 38 12 19 15 -9 22 -21 19 -30z m515 22 c26 -9
43 -11 49 -5 12 12 63 1 63 -13 0 -6 -7 -8 -14 -5 -10 4 -13 1 -10 -7 3 -8 -4
-16 -15 -19 -12 -3 -21 -1 -21 5 0 6 -9 8 -20 5 -12 -3 -18 -1 -14 5 4 5 -4 9
-17 8 -13 -1 -34 1 -47 5 -18 6 -20 10 -11 21 14 17 8 17 57 0z m176 -8 c4
-16 8 -19 14 -11 10 15 128 12 156 -4 10 -6 27 -8 37 -6 13 4 19 0 19 -11 0
-10 6 -13 15 -10 9 4 15 0 15 -10 0 -9 12 -18 28 -22 15 -3 36 -9 47 -13 16
-6 13 -8 -13 -9 -17 0 -34 4 -38 9 -3 5 -10 7 -15 4 -5 -4 -9 -1 -9 4 0 6 -5
11 -11 11 -6 0 -9 -6 -6 -13 3 -8 -3 -13 -14 -13 -11 0 -18 6 -16 16 2 16 -1
16 -46 5 -21 -6 -27 -4 -27 9 0 9 -5 16 -11 16 -6 0 -9 -7 -6 -14 4 -11 1 -13
-11 -9 -24 10 -52 35 -47 44 3 4 -2 9 -10 13 -11 4 -15 -1 -15 -19 0 -18 -7
-26 -26 -31 -16 -4 -23 -11 -20 -20 4 -11 0 -10 -19 2 -20 13 -23 20 -15 34 6
10 10 25 9 32 0 7 -4 4 -9 -7 -8 -18 -9 -17 -9 7 -1 24 6 31 40 37 4 0 9 -9
13 -21z m-464 -28 c13 -9 13 -12 -2 -24 -10 -7 -18 -17 -18 -22 0 -5 -11 -9
-25 -9 -23 0 -25 3 -20 25 10 38 35 49 65 30z m920 -3 c0 -21 -12 -28 -27 -16
-19 16 -16 29 7 29 11 0 20 -6 20 -13z m-132 -25 c3 -9 -2 -13 -14 -10 -9 1
-19 9 -22 16 -3 9 2 13 14 10 9 -1 19 -9 22 -16z m-782 -54 c5 -7 2 -9 -9 -5
-9 3 -18 -1 -21 -10 -4 -9 -9 -13 -13 -10 -7 7 15 37 28 37 4 0 11 -5 15 -12z
m1124 -308 c0 -5 -4 -10 -10 -10 -5 0 -10 5 -10 10 0 6 5 10 10 10 6 0 10 -4
10 -10z"/>
<path d="M3690 3778 c0 -9 5 -20 11 -23 17 -11 18 -2 3 19 -12 17 -14 17 -14
4z"/>
<path d="M4085 3727 c-5 -11 -1 -24 9 -36 9 -10 16 -23 16 -29 0 -6 5 -14 10
-17 14 -9 8 38 -7 56 -5 8 -13 21 -15 29 -5 12 -7 12 -13 -3z"/>
<path d="M4350 3690 c0 -5 5 -10 11 -10 5 0 7 5 4 10 -3 6 -8 10 -11 10 -2 0
-4 -4 -4 -10z"/>
<path d="M4060 3660 c-8 -5 -12 -12 -8 -15 9 -9 48 4 48 16 0 12 -21 11 -40
-1z"/>
<path d="M4548 3593 c7 -3 16 -2 19 1 4 3 -2 6 -13 5 -11 0 -14 -3 -6 -6z"/>
<path d="M3995 3470 c-3 -5 -2 -10 4 -10 5 0 13 5 16 10 3 6 2 10 -4 10 -5 0
-13 -4 -16 -10z"/>
<path d="M4006 3403 c-4 -9 -3 -20 1 -24 4 -4 9 3 9 17 2 28 -1 31 -10 7z"/>
<path d="M3990 3356 c0 -9 5 -16 10 -16 6 0 10 4 10 9 0 6 -4 13 -10 16 -5 3
-10 -1 -10 -9z"/>
<path d="M4943 3576 c-29 -14 -29 -23 0 -28 18 -4 23 0 25 19 1 13 1 22 -1 22
-1 -1 -12 -6 -24 -13z"/>
<path d="M4650 3410 c0 -5 5 -10 11 -10 5 0 7 5 4 10 -3 6 -8 10 -11 10 -2 0
-4 -4 -4 -10z"/>
<path d="M4424 3140 c2 -37 12 -46 25 -23 8 15 6 23 -8 35 -17 15 -18 14 -17
-12z"/>
<path d="M4517 3144 c-4 -4 -7 -14 -7 -23 0 -11 3 -12 11 -4 6 6 10 16 7 23
-2 6 -7 8 -11 4z"/>
<path d="M4420 2900 c0 -5 5 -10 10 -10 6 0 10 5 10 10 0 6 -4 10 -10 10 -5 0
-10 -4 -10 -10z"/>
<path d="M3745 4481 c-3 -5 -1 -12 5 -16 5 -3 10 1 10 9 0 18 -6 21 -15 7z"/>
<path d="M3827 4483 c-4 -3 -7 -11 -7 -17 0 -6 5 -5 12 2 6 6 9 14 7 17 -3 3
-9 2 -12 -2z"/>
<path d="M3640 4463 c0 -7 6 -13 13 -13 12 0 46 19 37 21 -33 6 -50 4 -50 -8z"/>
<path d="M4530 4438 c0 -10 -7 -18 -16 -18 -9 0 -12 5 -8 13 4 7 3 9 -2 4 -5
-5 -10 -13 -10 -18 -1 -5 -2 -13 -3 -19 0 -5 -7 -10 -15 -10 -8 0 -17 -7 -20
-16 -9 -24 -8 -26 13 -19 11 3 22 1 26 -5 5 -8 11 -8 20 0 7 6 20 8 29 4 21
-8 22 -54 1 -54 -12 0 -13 -3 -3 -19 12 -20 31 -18 61 8 10 8 18 11 17 6 -5
-21 1 -29 10 -15 8 12 10 12 10 -5 0 -18 2 -17 25 7 14 15 25 32 25 38 0 14
-41 3 -53 -14 -6 -7 -7 -4 -3 7 3 10 6 21 6 23 0 2 6 4 14 4 39 0 23 55 -19
66 -13 3 -26 11 -28 18 -3 7 -18 12 -33 11 -16 0 -32 4 -36 10 -5 6 -8 3 -8
-7z m130 -73 c0 -8 -7 -15 -15 -15 -16 0 -20 12 -8 23 11 12 23 8 23 -8z m-40
-13 c0 -6 -32 -31 -40 -32 -3 0 -6 8 -7 19 -1 13 5 19 23 19 13 0 24 -3 24 -6z"/>
<path d="M3419 4416 c6 -8 10 -20 9 -27 -4 -18 24 -18 30 0 3 8 0 11 -7 7 -7
-5 -11 1 -11 13 0 13 -7 21 -16 21 -13 0 -14 -3 -5 -14z"/>
<path d="M2817 4403 c-4 -3 -7 -11 -7 -17 0 -6 5 -5 12 2 6 6 9 14 7 17 -3 3
-9 2 -12 -2z"/>
<path d="M3400 4366 c0 -28 -26 -52 -51 -48 -13 2 -17 -1 -14 -10 6 -15 85
-22 85 -8 0 5 6 7 13 5 6 -3 18 -1 25 4 11 6 6 17 -22 44 -34 35 -36 35 -36
13z"/>
<path d="M3678 4383 c7 -3 16 -2 19 1 4 3 -2 6 -13 5 -11 0 -14 -3 -6 -6z"/>
<path d="M3730 4370 c0 -5 5 -10 11 -10 5 0 7 5 4 10 -3 6 -8 10 -11 10 -2 0
-4 -4 -4 -10z"/>
<path d="M3640 4360 c0 -5 7 -10 15 -10 8 0 15 5 15 10 0 6 -7 10 -15 10 -8 0
-15 -4 -15 -10z"/>
<path d="M4697 4363 c-4 -3 -7 -11 -7 -17 0 -6 5 -5 12 2 6 6 9 14 7 17 -3 3
-9 2 -12 -2z"/>
<path d="M2472 4329 c-1 -33 8 -37 25 -11 9 15 8 21 -7 29 -15 10 -17 7 -18
-18z"/>
<path d="M3590 4329 c-14 -14 -31 -24 -38 -21 -7 2 -12 -5 -12 -15 0 -15 2
-16 10 -3 7 11 10 12 10 2 0 -10 4 -10 16 2 10 11 21 13 32 7 9 -5 41 -7 69
-6 29 2 51 -1 48 -5 -5 -9 25 -23 33 -16 13 14 -10 36 -37 36 -16 0 -32 4 -35
8 -3 5 -18 7 -35 4 -22 -3 -30 0 -33 14 -3 16 -6 15 -28 -7z"/>
<path d="M4110 4333 c0 -13 5 -23 10 -23 13 0 13 11 0 30 -8 12 -10 11 -10 -7z"/>
<path d="M4420 4344 c0 -13 18 -39 24 -34 2 3 -2 14 -10 24 -8 11 -14 16 -14
10z"/>
<path d="M4026 4332 c-3 -5 1 -9 9 -9 8 0 12 4 9 9 -3 4 -7 8 -9 8 -2 0 -6 -4
-9 -8z"/>
<path d="M4302 4305 c-2 -38 11 -45 44 -20 25 19 44 19 44 0 0 -8 7 -15 15
-15 21 0 19 23 -4 51 -18 22 -22 23 -52 12 -22 -9 -35 -9 -39 -2 -4 5 -7 -6
-8 -26z"/>
<path d="M4460 4328 c0 -9 5 -20 10 -23 13 -8 13 5 0 25 -8 13 -10 13 -10 -2z"/>
<path d="M3817 4308 c8 -32 24 -50 39 -44 18 7 26 -5 13 -20 -8 -9 -4 -16 12
-25 17 -9 24 -9 27 0 6 19 20 12 26 -14 8 -32 43 -35 42 -3 -1 15 6 24 19 26
11 2 24 7 28 12 13 12 -26 6 -50 -8 -19 -10 -23 -10 -23 1 0 15 -64 79 -82 83
-7 2 -23 6 -35 9 -19 6 -21 4 -16 -17z"/>
<path d="M2910 4306 c0 -9 5 -16 10 -16 6 0 10 4 10 9 0 6 -4 13 -10 16 -5 3
-10 -1 -10 -9z"/>
<path d="M3000 4305 c0 -8 5 -15 10 -15 6 0 10 7 10 15 0 8 -4 15 -10 15 -5 0
-10 -7 -10 -15z"/>
<path d="M4200 4310 c0 -6 7 -10 15 -10 8 0 15 2 15 4 0 2 -7 6 -15 10 -8 3
-15 1 -15 -4z"/>
<path d="M3770 4301 c0 -17 18 -21 24 -6 3 9 0 15 -9 15 -8 0 -15 -4 -15 -9z"/>
<path d="M4435 4280 c-3 -5 1 -10 9 -10 9 0 16 5 16 10 0 6 -4 10 -9 10 -6 0
-13 -4 -16 -10z"/>
<path d="M3800 4260 c0 -11 5 -20 10 -20 6 0 10 9 10 20 0 11 -4 20 -10 20 -5
0 -10 -9 -10 -20z"/>
<path d="M4482 4273 c-21 -8 -2 -23 31 -23 29 0 30 1 11 15 -21 16 -23 16 -42
8z"/>
<path d="M4675 4270 c-4 -6 3 -10 14 -10 25 0 27 6 6 13 -8 4 -17 2 -20 -3z"/>
<path d="M3210 4260 c0 -5 5 -10 11 -10 5 0 7 5 4 10 -3 6 -8 10 -11 10 -2 0
-4 -4 -4 -10z"/>
<path d="M3601 4229 c-7 -12 -10 -23 -8 -26 3 -3 11 5 17 17 6 12 10 23 8 25
-2 2 -10 -5 -17 -16z"/>
<path d="M4215 4239 c-10 -15 3 -25 16 -12 7 7 7 13 1 17 -6 3 -14 1 -17 -5z"/>
<path d="M3530 4231 c0 -6 5 -13 10 -16 6 -3 10 1 10 9 0 9 -4 16 -10 16 -5 0
-10 -4 -10 -9z"/>
<path d="M4140 4233 c0 -7 -7 -13 -16 -13 -8 0 -12 -5 -8 -11 4 -8 -1 -9 -17
-4 -13 3 -19 3 -13 -2 7 -4 13 -17 15 -28 5 -26 66 -39 78 -17 8 15 44 10 39
-5 -1 -4 10 -21 25 -37 25 -27 27 -28 27 -7 0 14 6 21 20 21 46 0 3 41 -50 47
-65 9 -85 8 -82 -4 1 -8 -8 -13 -23 -13 -14 0 -25 5 -25 10 0 6 7 10 15 10 20
0 36 32 24 51 -6 10 -9 10 -9 2z"/>
<path d="M4496 4221 c-11 -12 -16 -24 -12 -28 9 -9 39 22 34 37 -2 7 -10 4
-22 -9z"/>
<path d="M4646 4216 c3 -9 16 -16 28 -15 14 0 16 2 6 6 -8 3 -21 10 -28 16 -9
7 -11 6 -6 -7z"/>
<path d="M3440 4205 c0 -19 12 -25 27 -14 19 16 16 28 -7 26 -11 -1 -20 -6
-20 -12z"/>
<path d="M4290 4210 c0 -5 5 -10 10 -10 6 0 10 5 10 10 0 6 -4 10 -10 10 -5 0
-10 -4 -10 -10z"/>
<path d="M3772 4198 c-14 -14 -16 -28 -3 -28 9 0 24 30 18 36 -2 2 -9 -2 -15
-8z"/>
<path d="M3645 4189 c-4 -6 -5 -12 -2 -15 2 -3 7 2 10 11 7 17 1 20 -8 4z"/>
<path d="M3466 4181 c-4 -7 -5 -15 -2 -18 9 -9 19 4 14 18 -4 11 -6 11 -12 0z"/>
<path d="M4056 4175 c4 -8 8 -15 10 -15 2 0 4 7 4 15 0 8 -4 15 -10 15 -5 0
-7 -7 -4 -15z"/>
<path d="M3344 4168 c-5 -8 -2 -9 9 -5 10 3 17 2 17 -3 0 -6 8 -10 18 -10 15
1 15 2 -2 15 -24 18 -33 19 -42 3z"/>
<path d="M3986 4172 c-2 -4 -1 -14 5 -22 5 -9 9 -10 9 -3 0 6 9 9 20 6 12 -3
20 0 20 6 0 7 -4 10 -9 6 -5 -3 -12 -1 -16 5 -7 12 -22 13 -29 2z"/>
<path d="M4400 4171 c0 -14 32 -43 39 -35 3 4 0 9 -6 11 -7 3 -13 11 -13 19 0
8 -4 14 -10 14 -5 0 -10 -4 -10 -9z"/>
<path d="M3832 4130 c0 -14 2 -19 5 -12 2 6 2 18 0 25 -3 6 -5 1 -5 -13z"/>
<path d="M4665 4139 c-4 -6 -5 -13 -2 -16 7 -7 27 6 27 18 0 12 -17 12 -25 -2z"/>
<path d="M2495 4064 c2 -20 6 -38 8 -41 8 -7 19 56 12 67 -13 21 -23 9 -20
-26z"/>
<path d="M4685 4090 c-3 -5 -2 -10 4 -10 5 0 18 -3 28 -7 16 -6 16 -5 4 10
-15 19 -27 22 -36 7z"/>
<path d="M4585 4030 c-3 -5 1 -10 10 -10 9 0 13 5 10 10 -3 6 -8 10 -10 10 -2
0 -7 -4 -10 -10z"/>
<path d="M2695 3870 c-10 -16 7 -31 23 -21 10 6 10 10 -2 20 -10 9 -16 9 -21
1z"/>
<path d="M2630 3855 c0 -8 4 -15 10 -15 5 0 7 7 4 15 -4 8 -8 15 -10 15 -2 0
-4 -7 -4 -15z"/>
<path d="M2795 3841 c-3 -5 -1 -12 5 -16 5 -3 10 1 10 9 0 18 -6 21 -15 7z"/>
<path d="M2510 3821 c0 -6 4 -13 10 -16 6 -3 7 1 4 9 -7 18 -14 21 -14 7z"/>
<path d="M2700 3820 c0 -13 11 -13 30 0 12 8 11 10 -7 10 -13 0 -23 -4 -23
-10z"/>
<path d="M2540 3801 c0 -6 4 -13 10 -16 6 -3 7 1 4 9 -7 18 -14 21 -14 7z"/>
<path d="M2477 3780 c-6 -21 -9 -22 -17 -10 -9 13 -11 13 -20 0 -14 -22 -12
-27 11 -33 15 -4 23 1 30 20 5 14 8 31 6 37 -2 6 -7 -1 -10 -14z"/>
<path d="M2827 3783 c-3 -5 -2 -15 2 -22 5 -7 11 -9 14 -4 3 5 2 15 -2 22 -5
7 -11 9 -14 4z"/>
<path d="M3342 3770 c0 -14 2 -19 5 -12 2 6 2 18 0 25 -3 6 -5 1 -5 -13z"/>
<path d="M3090 3753 c0 -13 -3 -14 -12 -5 -18 18 -30 14 -26 -10 2 -15 10 -22
29 -22 18 -1 25 3 22 11 -3 7 2 13 11 13 9 0 16 -6 16 -12 0 -9 4 -8 10 2 7
11 5 19 -7 28 -24 17 -43 15 -43 -5z"/>
<path d="M3370 3765 c0 -10 29 -24 34 -17 3 6 -3 12 -14 15 -11 3 -20 4 -20 2z"/>
<path d="M2806 3732 c6 -4 15 -17 19 -30 6 -22 7 -22 21 -5 21 28 17 38 -19
40 -17 1 -27 -1 -21 -5z"/>
<path d="M2961 3723 c-9 -16 -12 -16 -21 -3 -8 12 -10 11 -10 -7 0 -13 6 -23
13 -23 14 1 52 50 38 50 -6 0 -15 -8 -20 -17z"/>
<path d="M2610 3396 c0 -2 7 -6 15 -10 8 -3 15 -1 15 4 0 6 -7 10 -15 10 -8 0
-15 -2 -15 -4z"/>
<path d="M1510 3127 c0 -6 283 -220 421 -320 92 -65 300 -190 350 -209 12 -5
16 -2 12 10 -2 10 -39 35 -81 57 -77 39 -417 263 -587 386 -102 73 -115 82
-115 76z"/>
<path d="M1520 3037 c0 -15 393 -308 504 -376 158 -97 213 -120 199 -84 -5 13
-3 15 13 8 53 -22 61 -12 9 13 -33 16 -79 41 -103 56 -68 42 -114 67 -118 63
-2 -2 8 -10 24 -18 28 -14 58 -39 48 -39 -4 0 -36 18 -72 40 -36 22 -68 40
-70 40 -11 0 -338 227 -421 293 -7 5 -13 7 -13 4z"/>
<path d="M2465 3031 c-3 -5 -1 -12 5 -16 5 -3 10 1 10 9 0 18 -6 21 -15 7z"/>
<path d="M2520 3028 c0 -9 -6 -19 -12 -21 -10 -4 -10 -6 0 -6 14 -1 28 26 18
36 -3 4 -6 -1 -6 -9z"/>
<path d="M1490 2977 c0 -3 17 -17 37 -33 20 -15 33 -23 29 -16 -8 13 -66 56
-66 49z"/>
<path d="M1573 2913 c24 -38 375 -300 415 -309 15 -4 33 -14 41 -23 9 -10 15
-12 18 -5 4 13 43 7 43 -7 0 -5 -7 -6 -15 -3 -27 11 -16 -4 20 -26 21 -13 43
-19 52 -15 15 5 15 7 3 16 -15 10 -6 9 50 -7 40 -11 18 7 -42 34 -35 16 -85
43 -112 60 -52 33 -72 40 -60 20 4 -7 3 -8 -5 -4 -6 4 -9 11 -6 16 3 5 -9 16
-27 25 -29 14 -30 14 -14 0 31 -24 7 -18 -43 12 -52 30 -166 107 -196 133 -41
34 -129 94 -122 83z"/>
<path d="M1550 2831 c0 -21 262 -218 350 -263 33 -17 63 -34 66 -39 3 -5 13
-9 23 -9 10 0 26 -9 36 -20 19 -21 75 -28 75 -10 0 6 8 10 18 10 9 1 -8 13
-38 28 -30 15 -80 44 -110 63 -30 20 -66 41 -80 48 l-25 12 24 -20 c64 -57
-65 17 -199 113 -137 98 -140 100 -140 87z m425 -281 c3 -5 1 -10 -4 -10 -6 0
-11 5 -11 10 0 6 2 10 4 10 3 0 8 -4 11 -10z"/>
<path d="M2808 2673 c7 -3 16 -2 19 1 4 3 -2 6 -13 5 -11 0 -14 -3 -6 -6z"/>
<path d="M2915 2593 c-49 -1 -157 -7 -240 -13 -97 -7 -167 -8 -197 -2 -27 5
-48 6 -48 1 0 -12 42 -39 62 -39 11 0 18 -7 18 -19 0 -39 82 -35 280 13 132
33 213 47 322 56 l93 7 -100 0 c-55 -1 -140 -2 -190 -4z"/>
<path d="M3298 2593 c18 -2 45 -2 60 0 15 2 0 4 -33 4 -33 0 -45 -2 -27 -4z"/>
<path d="M3405 2584 c11 -2 106 -15 210 -29 605 -78 949 -127 1195 -170 168
-29 230 -37 385 -49 64 -5 61 -4 -33 13 -63 11 -107 24 -115 34 -12 15 -131
33 -547 81 -237 28 -629 75 -840 101 -113 14 -221 24 -240 24 -19 -1 -26 -3
-15 -5z"/>
<path d="M3728 2513 c7 -3 16 -2 19 1 4 3 -2 6 -13 5 -11 0 -14 -3 -6 -6z"/>
<path d="M3861 2496 c2 -2 24 -6 48 -9 29 -4 40 -2 30 4 -13 8 -88 14 -78 5z"/>
<path d="M2650 2459 c-168 -41 -314 -62 -395 -57 l-70 5 75 -20 c105 -28 366
-30 495 -3 115 24 151 39 133 53 -12 10 -116 55 -121 52 -1 -1 -54 -14 -117
-30z"/>
<path d="M4098 2463 c6 -2 18 -2 25 0 6 3 1 5 -13 5 -14 0 -19 -2 -12 -5z"/>
<path d="M4185 2449 c22 -4 78 -13 125 -19 125 -17 297 -45 455 -75 207 -39
360 -63 450 -69 72 -5 64 -3 -88 29 -93 19 -203 39 -245 45 -90 11 -359 50
-552 79 -135 21 -226 27 -145 10z"/>
<path d="M6315 2419 c-149 -87 -342 -176 -490 -224 -146 -48 -383 -113 -450
-125 -85 -13 -124 -33 -50 -24 28 3 64 10 81 15 16 5 68 16 115 25 46 9 104
20 129 24 25 5 76 9 114 9 57 1 67 3 62 16 -4 12 7 21 40 36 69 29 164 59 189
59 12 0 44 7 73 15 48 15 73 30 129 83 13 12 30 22 37 22 24 0 109 72 96 80
-7 4 -9 13 -6 19 10 16 7 15 -69 -30z"/>
<path d="M5320 2271 c21 -12 149 -23 130 -12 -8 4 -44 11 -80 14 -36 3 -58 2
-50 -2z"/>
<path d="M5554 2271 c8 -12 44 -18 139 -24 70 -5 90 6 35 17 -63 14 -181 18
-174 7z"/>
<path d="M4403 1943 c9 -2 23 -2 30 0 6 3 -1 5 -18 5 -16 0 -22 -2 -12 -5z"/>
</g>
</svg>
