<?xml version="1.0" standalone="no"?>
<!DOCTYPE svg PUBLIC "-//W3C//DTD SVG 20010904//EN"
 "http://www.w3.org/TR/2001/REC-SVG-20010904/DTD/svg10.dtd">
<svg version="1.0" xmlns="http://www.w3.org/2000/svg"
 width="2071.000000pt" height="1381.000000pt" viewBox="0 0 2071.000000 1381.000000"
 preserveAspectRatio="xMidYMid meet">

<g transform="translate(0.000000,1381.000000) scale(0.100000,-0.100000)"
fill="#000000" stroke="none">
<path d="M5760 12699 c-174 -46 -276 -87 -399 -159 -29 -17 -50 -27 -47 -22 9
15 156 100 201 115 43 16 125 57 125 63 0 8 -97 -10 -122 -23 -16 -7 -28 -11
-28 -8 0 4 -12 0 -27 -8 -16 -8 -48 -23 -73 -32 -113 -44 -199 -95 -252 -147
-15 -16 -30 -28 -33 -28 -12 0 -115 -108 -138 -146 -14 -22 -32 -47 -39 -55
-8 -8 -27 -40 -44 -73 -16 -32 -37 -72 -46 -90 -9 -17 -17 -39 -18 -48 0 -16
2 -16 19 1 11 11 27 33 35 49 8 16 35 51 60 78 44 48 44 46 -20 -51 -156 -239
-206 -413 -180 -630 5 -48 15 -75 26 -75 5 0 7 -13 5 -30 -2 -16 1 -30 6 -30
6 0 7 -4 4 -10 -19 -31 -74 31 -95 109 -13 48 -24 55 -18 11 3 -16 2 -30 -2
-30 -14 0 -32 151 -27 224 3 42 2 74 -3 71 -4 -3 -10 0 -12 7 -3 8 -16 5 -41
-11 -33 -20 -41 -20 -39 -1 1 10 -42 5 -62 -6 -10 -6 -28 -9 -40 -7 -15 3 -17
2 -8 -4 9 -7 1 -13 -28 -23 -23 -8 -52 -28 -67 -47 -15 -18 -32 -33 -39 -33
-8 0 -18 -8 -23 -17 -5 -10 -37 -38 -71 -63 -34 -25 -81 -62 -103 -83 -23 -21
-54 -45 -69 -53 -16 -8 -28 -19 -28 -25 0 -6 -16 -26 -35 -45 -19 -18 -35 -38
-35 -43 0 -5 -9 -12 -20 -16 -10 -3 -41 -29 -67 -56 -26 -27 -60 -57 -75 -65
-16 -8 -28 -21 -28 -29 0 -8 -6 -15 -13 -15 -12 0 -97 -85 -164 -163 -17 -20
-35 -37 -40 -37 -5 0 -16 -11 -23 -25 -7 -14 -19 -25 -27 -25 -7 0 -13 -7 -13
-15 0 -8 -7 -15 -15 -15 -8 0 -15 -4 -15 -9 0 -5 -14 -22 -30 -38 -17 -15 -50
-53 -73 -83 -23 -30 -63 -77 -89 -104 -27 -26 -48 -52 -48 -58 0 -5 -3 -7 -7
-5 -8 5 -39 -23 -37 -33 0 -3 -3 -9 -8 -15 -17 -23 -118 -140 -155 -181 -103
-115 -251 -308 -259 -339 -3 -11 -22 -33 -43 -49 -22 -15 -44 -39 -50 -52 -6
-13 -17 -36 -23 -51 -7 -16 -23 -36 -35 -46 -12 -9 -32 -34 -44 -55 -13 -20
-29 -41 -36 -45 -7 -4 -13 -13 -13 -18 0 -6 -16 -34 -35 -63 -19 -29 -35 -58
-35 -64 0 -6 -9 -17 -20 -25 -10 -7 -24 -25 -29 -40 -6 -15 -17 -27 -26 -27
-8 0 -15 -5 -15 -11 0 -10 -87 -149 -110 -176 -5 -7 -10 -19 -10 -27 0 -8 -5
-18 -10 -21 -6 -4 -17 -21 -25 -38 -9 -18 -37 -67 -63 -109 -66 -107 -182
-307 -182 -314 0 -3 -16 -29 -35 -59 -19 -30 -46 -78 -61 -107 -15 -29 -29
-55 -33 -58 -3 -3 -25 -43 -49 -90 -23 -47 -61 -118 -82 -159 -22 -41 -40 -82
-40 -93 0 -10 -4 -18 -8 -18 -5 0 -15 -18 -22 -40 -7 -22 -16 -40 -20 -40 -4
0 -13 -18 -20 -40 -7 -22 -17 -40 -22 -40 -4 0 -8 -9 -8 -20 0 -11 -11 -37
-23 -58 -13 -20 -30 -55 -37 -77 -7 -22 -24 -59 -37 -83 -14 -24 -22 -50 -19
-58 3 -7 -2 -20 -10 -29 -9 -8 -12 -15 -8 -15 4 0 0 -8 -10 -18 -15 -18 -15
-20 9 -46 30 -33 45 -31 147 22 85 43 269 97 361 105 31 3 57 4 57 2 0 -9
-116 -78 -130 -78 -8 0 -17 -4 -20 -8 -3 -4 -30 -15 -60 -23 -30 -8 -90 -33
-134 -55 -43 -23 -87 -41 -97 -41 -10 0 -21 -5 -24 -10 -4 -6 -11 -8 -16 -5
-5 4 -9 2 -9 -2 0 -5 -15 -17 -32 -28 -44 -25 -150 -127 -184 -176 -15 -22
-29 -37 -32 -34 -9 9 87 144 155 216 96 102 45 69 -74 -48 -98 -97 -179 -206
-242 -328 -17 -33 -40 -66 -51 -73 -11 -7 -20 -21 -20 -31 0 -23 -16 -37 -22
-19 -3 7 -11 -2 -18 -19 -8 -17 -19 -29 -24 -26 -5 4 -7 -1 -3 -10 3 -9 -1
-18 -10 -21 -9 -4 -13 -9 -10 -12 3 -3 -4 -17 -16 -30 -38 -40 -44 -49 -40
-61 2 -6 -2 -17 -9 -24 -7 -8 -14 -21 -15 -29 -2 -19 -32 -98 -33 -86 0 5 -7
3 -15 -4 -10 -8 -12 -17 -6 -29 9 -17 10 -71 1 -71 -3 0 -5 -31 -5 -70 0 -38
-4 -71 -9 -73 -6 -2 -6 -12 -2 -23 5 -10 10 -37 12 -59 4 -59 12 -88 25 -96 7
-4 9 -14 6 -23 -3 -8 6 -39 22 -68 15 -30 26 -59 23 -66 -2 -6 1 -12 6 -12 10
0 25 -37 23 -57 -1 -7 3 -13 9 -13 5 0 10 -5 10 -11 0 -6 9 -24 21 -40 11 -16
17 -29 13 -29 -4 0 2 -9 14 -20 12 -12 22 -24 22 -29 0 -4 10 -19 23 -33 12
-14 42 -49 67 -79 25 -30 67 -79 95 -109 27 -30 60 -67 74 -82 13 -15 22 -30
19 -33 -3 -3 -24 2 -48 10 -23 8 -46 13 -50 10 -9 -5 -37 -107 -42 -150 -2
-24 1 -30 21 -35 21 -5 25 -12 27 -55 2 -28 6 -70 10 -95 4 -25 7 -48 6 -53
-3 -13 39 -208 65 -302 29 -104 99 -277 157 -385 22 -41 52 -100 68 -129 15
-30 32 -57 36 -60 4 -4 34 -44 65 -91 61 -90 175 -236 242 -310 22 -24 74 -80
115 -125 41 -45 143 -158 227 -251 83 -93 210 -226 281 -294 107 -105 164
-158 326 -305 6 -6 29 -22 51 -36 22 -14 60 -45 85 -68 39 -36 231 -171 244
-171 3 0 44 -25 92 -55 49 -30 93 -55 100 -55 7 0 14 -3 16 -8 3 -6 195 -92
223 -99 256 -66 241 -63 460 -68 254 -4 334 4 580 61 131 30 185 46 460 135
140 45 265 78 375 99 265 49 321 60 391 76 36 8 73 16 82 18 9 1 20 5 23 9 4
4 19 7 33 7 46 1 251 60 501 145 229 78 568 205 655 245 22 10 85 37 140 60
55 24 123 53 152 66 28 13 55 24 58 24 6 0 143 62 344 156 51 24 95 44 98 44
3 0 107 50 231 111 667 328 980 484 1097 549 72 40 155 86 185 103 87 48 234
142 445 285 361 243 642 355 995 397 234 28 436 18 660 -31 301 -67 525 -173
950 -448 140 -90 433 -277 457 -291 10 -6 46 -29 79 -52 74 -51 177 -113 354
-213 36 -20 83 -47 105 -60 22 -13 58 -32 80 -43 22 -11 51 -27 65 -37 49 -33
376 -197 485 -242 219 -92 451 -155 669 -183 183 -24 559 -11 739 24 29 6 72
12 97 15 90 10 242 44 251 58 3 4 17 9 32 10 15 1 27 6 27 11 0 4 4 6 10 2 5
-3 16 7 25 22 12 21 14 22 10 6 -5 -18 -3 -21 17 -16 13 3 35 14 50 25 14 10
38 18 53 18 24 0 26 3 21 25 -6 24 4 31 37 26 4 0 7 4 7 9 0 6 8 10 17 10 15
0 14 -2 -2 -14 -11 -8 -23 -12 -27 -10 -4 2 -9 0 -13 -6 -11 -18 97 0 157 27
74 33 88 27 88 -35 0 -67 18 -158 43 -217 26 -64 76 -121 101 -117 10 2 23 -2
30 -9 8 -9 8 -10 0 -6 -7 4 -15 0 -18 -9 -5 -12 -1 -14 15 -9 15 5 19 4 15 -4
-10 -15 7 -14 22 1 8 8 12 8 12 1 0 -10 50 -23 98 -24 12 -1 22 -5 22 -10 0
-4 7 -5 17 -2 11 5 14 3 8 -6 -6 -10 -3 -11 15 -1 15 8 20 8 16 1 -4 -6 -1
-11 8 -11 8 0 17 4 21 10 4 6 15 6 31 0 36 -14 115 -12 219 5 234 38 455 174
652 400 172 198 325 521 394 830 31 144 36 474 9 660 -40 273 -92 447 -279
935 -142 370 -226 680 -260 957 l-8 64 97 112 c207 239 512 493 803 670 125
77 420 223 512 254 222 76 405 124 520 139 22 2 67 10 100 16 33 6 157 12 280
12 175 0 266 -5 445 -26 124 -15 269 -30 323 -34 l97 -7 0 117 c0 64 -3 116
-7 116 -5 0 -46 5 -93 10 -47 6 -125 13 -175 16 -49 3 -117 9 -150 14 -179 23
-552 18 -723 -10 -167 -28 -394 -85 -573 -144 -75 -25 -238 -89 -268 -107 -9
-5 -47 -23 -85 -39 -199 -87 -584 -336 -762 -493 -27 -23 -76 -65 -109 -92
-33 -27 -113 -103 -178 -168 -66 -65 -120 -117 -122 -115 -1 2 -19 59 -40 128
-45 151 -90 296 -117 370 -10 30 -30 89 -43 130 -13 41 -47 131 -76 200 l-51
125 6 95 c5 91 40 323 51 340 9 14 33 245 41 380 16 295 -65 571 -203 695
-129 115 -313 126 -436 24 -59 -49 -114 -138 -138 -226 -20 -68 -22 -103 -23
-273 0 -143 4 -216 17 -275 16 -82 84 -265 117 -320 10 -16 21 -41 25 -55 4
-14 27 -59 50 -100 23 -41 69 -127 102 -190 33 -63 94 -179 137 -257 72 -134
78 -151 101 -272 14 -70 53 -222 86 -337 80 -278 83 -292 109 -415 l23 -107
-36 -58 c-83 -138 -191 -354 -242 -484 -79 -200 -112 -304 -195 -610 -23 -85
-66 -240 -95 -345 -29 -104 -67 -244 -84 -310 -18 -66 -43 -160 -56 -210 -50
-184 -97 -426 -110 -565 -3 -36 -10 -92 -15 -125 -6 -33 -11 -97 -13 -142 -5
-101 -7 -104 -136 -177 -217 -122 -520 -220 -750 -242 -25 -3 -80 -10 -121
-15 -124 -18 -449 -15 -560 5 -356 65 -619 169 -1044 410 -93 53 -170 96 -172
96 -2 0 -34 20 -71 44 -37 24 -86 53 -108 65 -22 12 -56 31 -76 44 -19 12 -57
35 -85 52 -27 16 -123 76 -214 134 -419 265 -731 451 -835 501 -298 141 -452
189 -730 226 -120 16 -376 22 -470 11 -216 -26 -431 -74 -595 -132 -108 -39
-320 -142 -427 -209 -51 -31 -188 -121 -305 -200 -185 -124 -308 -198 -513
-310 -27 -14 -124 -63 -215 -108 -91 -45 -176 -87 -190 -95 -59 -33 -798 -396
-900 -442 -119 -53 -288 -130 -378 -172 -46 -22 -85 -39 -88 -39 -2 0 -50 -21
-106 -46 -57 -25 -123 -55 -148 -66 -25 -10 -54 -23 -65 -28 -63 -29 -154 -67
-255 -107 -63 -25 -128 -51 -145 -59 -71 -32 -371 -130 -560 -182 -180 -50
-463 -111 -770 -167 -109 -19 -252 -57 -360 -96 -148 -52 -380 -117 -546 -153
-189 -41 -444 -43 -656 -6 -102 17 -330 101 -353 129 -3 3 -27 17 -55 31 -62
30 -286 176 -341 221 -22 19 -60 50 -84 69 -153 123 -372 326 -509 473 -57 62
-152 164 -211 227 -333 357 -525 616 -663 895 -85 171 -143 333 -152 420 -3
33 -9 95 -13 138 -8 78 -2 100 24 90 8 -3 18 6 26 21 10 24 46 34 39 12 -2 -5
3 -12 11 -17 12 -7 49 -200 50 -256 0 -13 4 -20 9 -17 5 3 9 0 9 -6 0 -6 5 -8
11 -4 7 4 9 0 5 -13 -10 -32 29 -70 113 -112 121 -61 267 -90 231 -46 -10 12
-10 15 1 15 10 1 8 4 -4 11 -11 7 -15 17 -12 32 4 16 -3 32 -24 56 -17 19 -28
37 -26 41 2 4 -2 28 -10 55 -8 26 -15 63 -15 82 0 23 -4 32 -12 27 -7 -5 -8
-3 -3 5 5 9 20 11 44 7 20 -3 -16 13 -79 37 -158 59 -153 57 -148 63 3 3 57
-9 119 -25 63 -17 134 -31 159 -33 25 -1 72 -14 105 -30 33 -15 66 -28 73 -28
7 0 15 -7 19 -15 3 -9 21 -22 40 -30 45 -19 66 -19 33 0 -23 14 -19 14 45 7
39 -4 89 -7 112 -7 22 0 39 -3 36 -7 -2 -5 -27 -8 -54 -8 -28 0 -48 -4 -45 -9
4 -5 0 -12 -6 -15 -7 -3 2 -3 21 0 23 4 36 2 42 -7 6 -11 11 -11 21 -1 17 17
28 15 28 -4 0 -10 6 -14 15 -11 8 4 17 3 19 -2 3 -4 20 -6 38 -4 22 3 29 1 20
-5 -11 -7 -10 -10 3 -16 22 -8 27 -8 21 3 -10 16 23 21 128 21 97 0 105 2 142
29 86 62 236 245 308 374 54 96 131 282 166 401 18 59 30 109 28 112 -3 2 -12
-22 -22 -54 -30 -98 -131 -293 -196 -382 -180 -243 -429 -390 -659 -390 -103
0 -106 16 -4 22 101 6 190 31 228 64 15 13 33 20 40 18 7 -3 16 3 20 15 3 11
16 23 28 27 12 3 38 24 58 46 20 22 49 48 64 58 99 65 237 237 313 390 9 19
20 37 23 40 21 17 99 286 114 395 4 28 9 59 11 70 7 35 6 299 -1 350 -27 200
-67 337 -138 483 -83 166 -226 346 -334 417 -24 15 -43 32 -43 36 0 5 -6 9
-14 9 -7 0 -21 11 -30 25 -9 14 -20 25 -25 25 -4 0 -27 18 -51 40 -23 22 -47
37 -51 34 -5 -3 -16 2 -25 10 -8 9 -23 16 -32 17 -9 0 -2 5 17 11 39 11 33 21
-24 41 -21 8 -40 18 -42 23 -3 9 31 49 282 329 510 570 999 1264 1463 2080
227 398 269 457 360 497 39 18 58 20 132 14 47 -3 102 -11 124 -17 51 -14 115
-18 122 -8 3 5 -10 35 -27 67 l-33 58 -80 -3 c-169 -7 -202 -13 -250 -43 -64
-41 -120 -123 -280 -407 -251 -447 -509 -866 -710 -1153 -236 -338 -584 -772
-826 -1030 -64 -69 -165 -179 -224 -245 -102 -115 -126 -137 -126 -118 0 8
150 175 390 434 63 69 169 192 235 273 66 82 144 179 174 215 306 377 756
1057 997 1506 167 312 253 444 339 523 54 49 55 52 38 69 -29 30 -75 94 -71
99 2 2 76 5 163 6 l158 3 23 -43 c12 -23 33 -55 46 -70 13 -15 43 -61 68 -102
25 -41 74 -105 109 -142 35 -38 58 -68 52 -68 -6 0 -11 5 -11 10 0 6 -5 10
-11 10 -8 0 -9 -4 0 -13 6 -8 8 -17 4 -21 -4 -4 0 -4 9 -1 19 7 36 -14 20 -24
-8 -4 -3 -16 14 -34 14 -15 30 -24 36 -21 6 4 8 3 4 -4 -3 -6 -2 -13 4 -17 6
-4 8 -10 5 -15 -5 -8 23 -25 37 -22 4 1 5 -5 2 -13 -5 -11 -2 -13 12 -8 13 5
16 3 11 -10 -4 -10 0 -18 13 -22 10 -3 21 -13 24 -21 4 -10 13 -13 25 -9 11 3
21 0 24 -8 5 -12 92 -36 202 -54 54 -9 182 -2 283 16 165 30 415 138 605 263
382 251 647 612 670 913 3 39 3 61 0 50 -20 -78 -62 -186 -108 -280 -191 -385
-564 -687 -983 -797 -106 -28 -132 -31 -282 -32 -143 -1 -176 2 -249 22 -200
55 -349 153 -452 300 -27 38 -45 82 -34 82 2 0 15 -15 27 -33 80 -117 159
-184 291 -246 94 -45 261 -84 291 -69 13 7 16 7 12 -1 -4 -6 -2 -11 3 -11 6 0
11 5 11 11 0 5 4 8 9 5 12 -8 69 -8 146 -2 66 5 97 14 90 26 -5 8 55 24 93 24
12 0 22 4 22 8 0 4 9 8 20 8 37 0 205 59 290 103 152 77 230 135 363 269 70
71 127 135 127 142 0 7 10 23 22 36 30 32 108 171 108 192 0 10 5 18 12 18 6
0 9 3 5 6 -9 10 17 55 57 99 20 21 35 44 35 49 -3 20 13 76 21 76 4 0 8 10 8
23 0 12 7 53 15 91 24 113 13 303 -23 391 -4 11 -15 41 -25 67 -21 61 -83 156
-142 219 -75 81 -40 69 40 -13 52 -54 86 -100 116 -159 49 -97 45 -69 -4 36
-42 87 -126 189 -208 251 -117 89 -248 138 -464 174 -66 11 -71 13 -67 34 3
18 -4 27 -31 42 -19 10 -35 22 -35 26 0 5 -11 8 -24 8 -14 0 -27 4 -31 9 -3 5
-20 13 -37 17 -18 3 -42 12 -53 19 -47 30 -256 45 -335 24z m-198 -469 c-29
-24 -72 -35 -72 -18 0 11 33 26 48 21 6 -3 12 2 12 11 0 9 8 14 21 13 20 -1
19 -4 -9 -27z m158 -19 c0 -11 -93 -90 -150 -127 -25 -16 -69 -46 -98 -68 -29
-21 -55 -36 -58 -33 -21 21 115 145 216 197 80 42 90 45 90 31z m-243 -30 c1
-11 -5 -22 -13 -25 -8 -3 -13 -2 -11 2 2 4 7 15 10 25 8 22 12 22 14 -2z
m-1359 -1101 c-2 -6 -28 -40 -58 -75 -80 -92 -109 -101 -69 -19 26 51 83 104
112 104 10 0 17 -5 15 -10z m-158 -175 c0 -14 -78 -90 -85 -83 -9 9 55 95 71
95 8 0 14 -5 14 -12z m-179 -208 c-13 -13 -26 -3 -16 12 3 6 11 8 17 5 6 -4 6
-10 -1 -17z m-39 -60 c-12 -12 -35 -38 -52 -57 l-32 -35 29 53 c15 30 37 57
48 62 29 11 32 3 7 -23z m-112 -137 c0 -6 -11 -22 -25 -36 -14 -14 -25 -29
-25 -33 0 -7 -23 -39 -73 -101 -7 -8 -132 -175 -280 -370 -147 -195 -297 -393
-332 -440 -36 -47 -68 -90 -72 -95 -5 -6 -26 -33 -49 -60 -62 -77 -238 -325
-330 -466 -75 -114 -104 -152 -104 -134 0 26 300 482 445 675 39 52 140 190
225 305 85 116 181 244 214 286 128 160 260 324 266 329 3 3 23 28 45 55 67
85 95 110 95 85z m13084 -1035 c11 -8 28 -15 38 -15 10 0 18 -4 18 -9 0 -4 27
-18 60 -30 75 -28 114 -60 146 -123 39 -76 66 -217 59 -302 -9 -111 -35 -326
-46 -379 -5 -27 -9 -59 -9 -73 0 -51 -33 -18 -93 97 -18 35 -41 78 -50 94 -36
66 -126 263 -133 291 -4 16 -18 54 -32 84 -32 73 -37 246 -9 328 20 57 23 58
51 37z m-14820 -1422 c-10 -16 -17 -42 -16 -59 3 -37 -24 -67 -38 -44 -19 31
25 130 58 130 11 0 11 -5 -4 -27z m803 -1135 c-3 -7 -5 -2 -5 12 0 14 2 19 5
13 2 -7 2 -19 0 -25z m-1114 -107 c-2 -6 1 -11 7 -11 6 0 6 -9 1 -23 -5 -13
-6 -29 -2 -36 4 -6 6 -33 4 -59 -7 -91 -4 -80 -62 -202 -11 -25 -21 -51 -21
-57 0 -7 -4 -13 -9 -13 -21 0 -16 139 9 277 12 70 46 146 62 140 7 -2 12 -10
11 -16z m-167 -127 c-3 -9 -6 -20 -6 -25 0 -5 -4 -9 -9 -9 -4 0 -6 11 -3 25 2
14 9 25 14 25 6 0 7 -7 4 -16z m-6 -69 c0 -8 -4 -15 -10 -15 -5 0 -10 7 -10
15 0 8 5 15 10 15 6 0 10 -7 10 -15z m15788 -217 c-1 -13 2 -24 7 -26 6 -2 13
-11 16 -20 8 -24 -16 -282 -42 -442 -12 -74 -25 -162 -29 -195 -4 -33 -12 -85
-19 -115 -6 -30 -20 -113 -32 -185 -58 -368 -120 -626 -176 -735 -7 -14 -13
-28 -13 -32 0 -13 -74 -165 -99 -203 -15 -22 -32 -51 -39 -65 -20 -39 -172
-230 -183 -230 -6 0 -8 12 -5 28 3 15 8 52 11 82 14 134 62 381 100 520 8 30
51 197 96 370 110 429 220 819 273 972 74 210 145 356 134 276z m263 -143 c19
-84 147 -449 244 -695 93 -239 146 -418 169 -575 23 -158 29 -310 17 -420 -15
-129 -81 -384 -128 -494 -153 -357 -400 -616 -684 -718 -60 -21 -92 -26 -174
-27 -93 -1 -104 1 -148 27 -118 70 -197 250 -189 433 2 38 9 49 83 120 143
139 312 367 390 526 103 209 153 389 240 858 12 65 32 189 58 360 44 285 60
401 71 505 19 198 25 210 51 100z m-14381 -56 c0 -24 -23 -21 -28 4 -2 10 3
17 12 17 10 0 16 -9 16 -21z m-1460 -906 c48 -16 74 -33 50 -33 -24 0 -106 27
-137 45 l-28 16 35 -7 c19 -3 55 -13 80 -21z m14275 -1833 c-3 -5 -12 -10 -18
-10 -7 0 -6 4 3 10 19 12 23 12 15 0z"/>
<path d="M7091 11954 c0 -11 3 -14 6 -6 3 7 2 16 -1 19 -3 4 -6 -2 -5 -13z"/>
<path d="M5075 10520 c3 -5 8 -10 11 -10 2 0 4 5 4 10 0 6 -5 10 -11 10 -5 0
-7 -4 -4 -10z"/>
<path d="M1363 7561 c1 -14 9 -26 17 -28 10 -3 11 -2 4 4 -7 4 -14 17 -17 28
-5 16 -5 15 -4 -4z"/>
<path d="M1930 5113 c0 -5 14 -8 31 -9 20 -1 26 2 17 7 -16 11 -48 12 -48 2z"/>
<path d="M2010 5100 c0 -5 5 -10 11 -10 5 0 7 5 4 10 -3 6 -8 10 -11 10 -2 0
-4 -4 -4 -10z"/>
<path d="M2048 5093 c6 -2 9 -10 5 -16 -4 -7 0 -8 11 -4 10 4 20 7 22 7 3 0 2
5 -1 10 -3 6 -16 10 -28 9 -12 0 -16 -3 -9 -6z"/>
<path d="M2226 5054 c-8 -21 -8 -24 3 -24 12 0 22 28 12 35 -5 3 -12 -2 -15
-11z"/>
</g>
</svg>
