<?xml version="1.0" standalone="no"?>
<!DOCTYPE svg PUBLIC "-//W3C//DTD SVG 20010904//EN"
 "http://www.w3.org/TR/2001/REC-SVG-20010904/DTD/svg10.dtd">
<svg version="1.0" xmlns="http://www.w3.org/2000/svg"
 width="1170.000000pt" height="780.000000pt" viewBox="0 0 1170.000000 780.000000"
 preserveAspectRatio="xMidYMid meet">

<g transform="translate(0.000000,780.000000) scale(0.100000,-0.100000)"
fill="#000000" stroke="none">
<path d="M914 6268 c-212 -226 -446 -624 -539 -918 -10 -30 -20 -58 -24 -62
-3 -4 -33 -1 -66 7 -33 9 -111 18 -173 22 l-112 6 0 -727 0 -726 78 0 c77 1
184 12 233 25 25 6 27 3 58 -87 99 -285 371 -720 575 -917 72 -71 65 -40 -12
51 -114 135 -263 338 -332 454 -125 211 -245 511 -284 716 -22 110 -19 140 14
149 32 9 289 11 367 3 l60 -7 13 -56 c21 -95 69 -221 125 -329 278 -534 869
-858 1468 -804 541 49 991 354 1223 827 152 311 189 636 112 970 -63 272 -191
499 -403 711 -218 219 -457 347 -775 415 -138 30 -425 33 -567 6 -314 -58
-612 -219 -825 -446 -150 -159 -261 -346 -328 -548 l-33 -102 -181 5 c-223 6
-265 11 -273 31 -9 24 32 216 77 357 111 345 287 658 534 949 31 37 56 69 56
72 0 15 -22 -1 -66 -47z"/>
<path d="M5495 6098 c-376 -42 -735 -216 -1005 -487 -133 -133 -216 -244 -307
-404 -31 -54 -58 -96 -60 -93 -3 2 1 14 7 26 23 42 2 30 -54 -32 -130 -143
-194 -250 -226 -374 -18 -67 -19 -89 -11 -144 24 -154 93 -291 223 -443 32
-38 58 -73 58 -79 0 -20 127 -201 197 -283 215 -247 541 -437 868 -506 143
-29 316 -40 469 -29 387 27 1225 189 2386 460 1036 242 1458 334 1814 395 526
90 1137 153 1367 142 90 -5 122 -3 143 9 28 14 28 14 22 -12 -12 -46 -55 -104
-77 -104 -25 0 -89 61 -89 84 0 9 -7 16 -16 16 -17 0 -16 -7 17 -96 41 -111
74 -124 304 -124 l175 0 0 579 0 579 -83 7 c-46 4 -127 5 -181 4 -90 -4 -99
-6 -117 -29 -11 -14 -28 -34 -37 -45 -25 -30 -72 -125 -72 -146 0 -24 -10 -24
-235 1 -772 88 -1605 265 -3105 661 -1603 424 -1865 481 -2175 478 -66 -1
-156 -6 -200 -11z m525 -63 c221 -37 752 -166 1465 -355 1516 -403 1957 -507
2517 -596 131 -21 235 -40 233 -42 -6 -7 -159 16 -455 69 -365 64 -703 132
-1485 299 -1448 309 -2168 446 -2473 471 -471 39 -917 -98 -1266 -390 -90 -75
-267 -283 -326 -382 -47 -80 -93 -190 -122 -297 -18 -64 -22 -104 -22 -237 1
-145 3 -168 27 -248 32 -103 88 -220 126 -261 26 -28 26 -29 2 -16 -33 17
-185 169 -201 200 -9 18 0 13 34 -20 l47 -45 -20 56 c-28 82 -41 182 -41 316
0 205 44 383 141 578 250 502 736 844 1301 915 104 13 406 4 518 -15z m-45
-221 c168 -23 614 -105 1080 -199 413 -82 565 -114 1595 -334 283 -60 634
-133 779 -162 146 -29 259 -55 252 -57 -7 -2 -48 1 -90 7 -176 28 -867 144
-1130 191 -1329 235 -2402 384 -2857 397 -315 9 -547 -22 -805 -107 -98 -32
-132 -49 -179 -87 -33 -26 -58 -49 -56 -50 2 -2 32 10 67 26 322 146 725 204
1149 167 630 -56 1614 -204 2980 -450 168 -30 472 -82 675 -115 561 -92 609
-101 535 -95 -90 7 -791 109 -1365 198 -1091 170 -1787 264 -2375 323 -239 23
-621 23 -785 -1 -337 -49 -575 -137 -794 -295 -151 -109 -240 -214 -287 -336
-27 -74 -32 -108 -7 -55 16 34 17 34 21 10 4 -24 4 -23 18 9 8 18 14 40 14 48
0 44 195 244 309 318 278 180 633 267 1086 267 436 0 1270 -103 2885 -356 479
-75 603 -94 920 -141 290 -42 654 -89 895 -116 61 -6 133 -15 160 -19 l50 -8
-50 -1 c-180 -3 -1311 98 -2500 224 -432 46 -1505 155 -1745 177 -198 18 -644
15 -809 -6 -267 -33 -514 -94 -659 -163 -41 -19 -72 -36 -70 -38 2 -2 62 14
133 36 264 81 496 121 808 139 226 14 455 3 885 -40 540 -54 696 -70 782 -80
47 -5 240 -26 430 -45 190 -20 469 -49 620 -65 151 -16 322 -34 380 -40 58 -6
256 -26 440 -45 546 -56 1011 -94 1500 -125 257 -15 290 -20 290 -36 0 -19
-49 -18 -474 6 -574 33 -643 38 -1696 130 -945 82 -1432 120 -2205 172 -444
30 -1171 33 -1395 5 -357 -44 -600 -102 -804 -195 -55 -25 -136 -93 -136 -114
0 -9 72 37 123 79 16 13 39 23 52 23 14 0 48 9 76 20 149 59 542 125 891 150
185 13 564 13 818 0 559 -28 1593 -106 2469 -185 770 -69 1043 -93 1346 -115
306 -22 737 -49 800 -51 34 -1 36 -2 15 -8 -14 -4 -108 -11 -210 -15 -397 -14
-1334 -62 -1585 -81 -38 -2 -182 -12 -320 -20 -137 -9 -488 -31 -780 -50 -530
-35 -928 -59 -1510 -92 -199 -11 -457 -17 -720 -17 -427 0 -544 7 -889 55 -81
11 -153 18 -160 16 -26 -10 162 -50 354 -77 429 -60 886 -54 2275 30 182 11
409 24 505 30 96 5 238 14 315 20 750 53 2203 126 2630 132 l210 3 3 -27 c3
-22 -1 -28 -16 -28 -11 0 -158 -11 -328 -25 -532 -43 -1092 -104 -2225 -240
-990 -119 -1676 -190 -2084 -216 -632 -41 -1271 82 -1655 318 -41 25 -84 55
-96 65 -11 10 -32 21 -45 23 -25 5 -62 42 -54 55 5 8 -65 93 -72 86 -3 -2 8
-26 23 -52 85 -145 307 -290 596 -390 285 -98 572 -148 920 -161 98 -3 175 -9
173 -13 -11 -17 -306 -33 -514 -27 -238 6 -418 31 -631 88 -185 49 -388 136
-529 226 -74 47 -59 19 23 -43 127 -97 324 -180 561 -239 356 -88 686 -100
1200 -45 565 61 939 106 2155 260 969 123 1844 207 2380 229 123 5 219 5 224
0 15 -14 -4 -16 -284 -39 -549 -44 -938 -94 -2055 -265 -1031 -158 -1763 -261
-2405 -339 -597 -73 -665 -79 -900 -80 -301 -1 -480 24 -720 100 -185 58 -441
188 -457 232 -4 9 -19 36 -35 59 -47 70 -116 223 -137 304 -60 236 -23 484
105 712 147 261 355 456 629 592 330 164 676 215 1080 159z m-1904 -850 c-47
-140 -64 -245 -65 -389 -1 -71 3 -160 7 -197 5 -41 5 -68 -1 -68 -5 0 -22 24
-37 53 -16 28 -37 63 -47 77 -10 14 -27 61 -39 105 -35 137 -13 230 87 374 47
67 115 144 121 137 2 -2 -10 -43 -26 -92z m7314 70 c17 -27 45 -108 45 -134 0
-8 -9 -1 -19 16 -22 37 -74 59 -101 44 -27 -15 -70 -12 -70 4 0 14 35 63 60
83 26 21 66 15 85 -13z m-1082 -1 c-7 -2 -21 -2 -30 0 -10 3 -4 5 12 5 17 0
24 -2 18 -5z m222 -25 c50 -6 84 -13 78 -15 -15 -5 -276 27 -283 34 -5 6 50 1
205 -19z m-6036 -35 c-40 -47 -42 -49 -34 -33 10 19 47 60 53 60 3 0 -5 -12
-19 -27z m6310 1 c8 -7 -73 -3 -119 6 -34 6 -25 7 35 3 44 -3 82 -7 84 -9z
m246 -24 c49 -7 42 -8 -35 -4 -52 3 -120 9 -150 14 -44 7 -37 8 35 3 50 -3
117 -9 150 -13z m-947 -17 c-10 -2 -26 -2 -35 0 -10 3 -2 5 17 5 19 0 27 -2
18 -5z m1105 0 c-7 -2 -19 -2 -25 0 -7 3 -2 5 12 5 14 0 19 -2 13 -5z m-1030
-10 c-7 -2 -21 -2 -30 0 -10 3 -4 5 12 5 17 0 24 -2 18 -5z m1022 -232 c3 -5
1 -12 -5 -16 -5 -3 -10 1 -10 9 0 18 6 21 15 7z m-5 -181 c0 -11 -4 -20 -10
-20 -5 0 -10 9 -10 20 0 11 5 20 10 20 6 0 10 -9 10 -20z m-340 -241 c-200
-18 -338 -24 -200 -8 133 16 263 26 330 26 36 1 -23 -8 -130 -18z m-297 -26
c-13 -2 -35 -2 -50 0 -16 2 -5 4 22 4 28 0 40 -2 28 -4z m-110 -10 c-7 -2 -19
-2 -25 0 -7 3 -2 5 12 5 14 0 19 -2 13 -5z m-618 -74 c-75 -17 -589 -119 -599
-119 -33 0 30 15 269 64 149 30 284 57 300 59 54 7 71 5 30 -4z m-5605 -159
c30 -26 76 -60 101 -78 25 -17 58 -47 73 -66 15 -20 64 -67 109 -105 345 -289
800 -433 1265 -400 232 16 758 116 1812 344 245 53 576 123 735 156 160 33
361 75 449 95 87 19 164 33 170 31 6 -2 -5 -7 -24 -12 -19 -4 -217 -50 -440
-102 -1456 -340 -2002 -454 -2585 -538 -336 -49 -610 -33 -862 50 -122 40
-329 147 -428 222 -109 82 -245 215 -309 302 -26 36 -60 74 -76 86 -32 24 -84
84 -60 70 8 -4 40 -29 70 -55z m4970 30 c-34 -11 -60 -11 -35 0 11 5 29 8 40
8 16 0 15 -2 -5 -8z m-461 -34 c-2 -2 -229 -52 -504 -111 -275 -58 -633 -135
-795 -170 -734 -159 -1368 -283 -1561 -305 -155 -18 -455 -8 -584 20 -265 57
-560 194 -720 334 l-40 35 135 -51 c281 -105 501 -143 840 -143 228 0 263 3
720 56 516 60 1553 201 2255 308 178 27 264 36 254 27z"/>
<path d="M4355 5341 c-22 -16 -51 -48 -64 -71 l-23 -42 23 15 c29 19 122 129
107 127 -2 -1 -21 -14 -43 -29z"/>
<path d="M4331 4724 c0 -11 3 -14 6 -6 3 7 2 16 -1 19 -3 4 -6 -2 -5 -13z"/>
<path d="M4490 4305 c13 -14 26 -25 28 -25 3 0 -5 11 -18 25 -13 14 -26 25
-28 25 -3 0 5 -11 18 -25z"/>
<path d="M9740 2860 c-697 -12 -1994 -27 -3680 -45 -784 -8 -1501 -19 -1593
-24 -161 -8 -171 -10 -235 -42 -111 -54 -214 -176 -293 -343 -20 -44 -43 -102
-49 -128 -9 -35 -22 -54 -53 -80 l-42 -33 -225 -7 c-124 -4 -355 -14 -515 -23
-159 -8 -339 -18 -400 -21 -60 -3 -184 -9 -275 -14 -90 -5 -166 -7 -170 -5 -3
1 -41 6 -85 10 -44 3 -84 11 -90 16 -5 6 -13 51 -16 102 -7 98 -43 223 -76
259 -10 11 -45 34 -78 50 -59 30 -61 31 -175 24 -240 -13 -570 -26 -1005 -41
-247 -8 -503 -17 -567 -21 l-118 -6 0 -525 c0 -495 1 -524 18 -519 9 2 382 7
827 10 701 6 969 13 1062 32 35 7 78 96 103 214 30 140 42 168 77 175 15 4 35
10 45 15 9 5 162 16 340 24 177 9 348 18 378 21 167 16 620 36 778 34 220 -2
226 -5 236 -98 29 -252 200 -536 368 -611 96 -42 243 -48 853 -30 413 11 1215
27 2100 40 696 10 973 15 1720 30 253 5 737 14 1075 20 683 11 706 12 747 33
158 82 317 338 364 585 17 90 6 316 -20 414 -39 150 -141 329 -235 416 -26 24
-73 56 -104 70 -56 26 -62 27 -272 28 -118 1 -442 -2 -720 -6z"/>
</g>
</svg>
