<?xml version="1.0" standalone="no"?>
<!DOCTYPE svg PUBLIC "-//W3C//DTD SVG 20010904//EN"
 "http://www.w3.org/TR/2001/REC-SVG-20010904/DTD/svg10.dtd">
<svg version="1.0" xmlns="http://www.w3.org/2000/svg"
 width="1536.000000pt" height="1024.000000pt" viewBox="0 0 1536.000000 1024.000000"
 preserveAspectRatio="xMidYMid meet">

<g transform="translate(0.000000,1024.000000) scale(0.100000,-0.100000)"
fill="#000000" stroke="none">
<path d="M7543 8335 c-146 -26 -263 -85 -348 -176 l-47 -51 -44 11 c-54 14
-174 14 -245 1 -127 -24 -276 -133 -337 -248 -106 -199 -72 -436 85 -582 60
-56 188 -130 227 -130 14 0 16 -23 16 -222 0 -192 2 -228 18 -258 50 -100 220
-137 682 -147 393 -8 696 16 833 67 29 11 69 36 88 56 l34 35 3 235 c3 230 3
234 24 234 11 0 54 16 94 35 162 78 270 229 281 392 7 97 -7 163 -54 256 -96
193 -332 314 -570 293 l-73 -7 -67 56 c-162 134 -381 188 -600 150z m301 -105
c88 -22 176 -66 236 -117 46 -40 48 -46 18 -60 -33 -15 -136 -101 -148 -123
-7 -14 4 -10 48 16 31 19 91 45 132 58 309 97 599 -31 666 -294 32 -127 -7
-251 -107 -344 -88 -82 -144 -101 -299 -100 -112 0 -134 3 -210 29 l-85 30 -3
48 c-2 26 -5 47 -7 47 -2 0 -27 -16 -57 -35 -60 -40 -185 -91 -247 -101 -56
-9 -52 -24 7 -24 65 0 291 -27 382 -45 41 -9 109 -26 150 -39 l75 -24 2 -201
c1 -111 0 -201 -1 -201 -2 0 -32 9 -67 20 -196 60 -361 80 -651 80 -263 0
-510 -32 -657 -84 -24 -9 -45 -16 -47 -16 -2 0 -4 90 -4 199 l0 199 73 26
c109 39 358 82 506 87 9 0 -22 11 -69 25 -47 13 -130 47 -184 74 -55 28 -101
48 -104 45 -3 -2 0 -24 6 -47 6 -24 8 -46 4 -50 -5 -5 -46 -18 -92 -29 -226
-57 -424 20 -512 199 -30 60 -33 75 -33 157 0 80 4 97 32 157 43 91 110 161
192 200 56 27 80 33 158 36 51 2 108 1 126 -2 l35 -6 -5 -64 c-3 -35 -2 -86 2
-112 l8 -49 14 60 c28 122 140 263 260 328 122 66 309 85 457 47z"/>
<path d="M6205 7313 c-43 -22 -73 -52 -98 -95 -19 -36 -37 -49 -37 -29 0 5
-21 19 -46 31 -37 18 -56 22 -101 17 -69 -7 -95 -24 -122 -80 -28 -58 -26
-103 7 -168 34 -68 85 -103 229 -159 60 -23 127 -53 151 -67 24 -14 45 -23 47
-21 2 1 36 53 76 113 85 129 126 212 135 272 20 133 -127 246 -241 186z"/>
<path d="M4608 7250 c-64 -16 -151 -66 -194 -112 -89 -94 -119 -179 -118 -333
0 -96 4 -121 31 -198 42 -120 85 -189 173 -278 65 -66 91 -84 191 -133 64 -31
120 -56 125 -56 8 0 57 -74 91 -139 19 -34 9 -41 -56 -41 -32 0 -65 -6 -76
-14 -20 -14 -21 -30 -48 -611 l-12 -260 -29 55 c-33 63 -287 469 -418 669 -86
132 -100 161 -76 161 24 0 115 63 132 90 9 16 16 40 16 54 0 31 -33 121 -89
241 -189 405 -206 437 -235 461 -40 35 -68 29 -236 -47 -380 -172 -430 -204
-430 -273 0 -31 63 -162 242 -502 56 -108 86 -155 104 -163 40 -18 107 -13
194 15 45 14 88 24 97 22 8 -2 52 -64 97 -138 108 -176 245 -396 337 -542 41
-64 122 -196 181 -292 l107 -177 -5 -112 c-7 -145 -6 -141 -47 -117 -19 11
-74 34 -123 51 -178 62 -366 49 -539 -36 -86 -43 -191 -112 -183 -121 2 -2 20
1 39 6 127 37 422 52 569 30 84 -13 260 -68 260 -81 0 -5 -11 -4 -24 1 -13 5
-70 14 -126 20 -103 13 -193 8 -252 -12 -29 -10 -188 -96 -188 -102 0 -1 37 4
83 10 104 16 339 16 437 1 71 -12 75 -14 74 -37 -1 -14 -5 -136 -9 -271 -7
-226 -6 -248 10 -273 38 -58 92 -66 345 -46 582 46 1358 80 1815 80 l310 0 27
-34 c35 -43 142 -89 263 -111 119 -23 457 -16 549 10 86 24 149 58 187 102
l34 39 460 -7 c478 -7 772 -19 1155 -44 302 -21 616 -43 721 -51 135 -11 197
21 206 108 4 37 -14 287 -33 469 l-6 55 78 12 c93 14 273 15 364 2 35 -5 66
-7 68 -5 9 9 -126 68 -196 86 -88 22 -174 24 -255 5 -62 -15 -68 -4 -9 21 114
48 480 79 637 55 38 -6 71 -9 73 -7 7 6 -127 70 -208 100 -54 19 -102 28 -171
32 -137 8 -221 -10 -385 -83 -14 -6 -17 17 -59 616 -19 272 -37 516 -41 543
-3 26 -3 47 1 47 4 0 140 -33 303 -74 267 -67 380 -97 757 -197 165 -44 235
-38 305 26 17 16 47 26 95 34 73 11 95 26 95 67 0 31 -23 52 -73 64 -23 6 -48
13 -54 15 -8 3 -13 24 -13 59 0 312 -169 582 -436 697 -45 19 -46 20 -31 42 9
14 27 23 48 25 44 5 59 18 59 52 0 41 -28 67 -97 89 -74 25 -93 26 -138 7 -48
-20 -55 -55 -21 -104 14 -21 26 -42 26 -46 0 -5 -37 -6 -83 -2 -69 6 -94 3
-150 -14 -57 -18 -72 -28 -97 -62 -17 -23 -28 -43 -26 -45 2 -3 26 4 53 13 69
26 264 26 313 0 19 -10 52 -27 73 -38 104 -52 167 -148 175 -264 6 -96 -10
-102 -43 -15 -28 74 -71 146 -106 177 l-22 19 16 -25 c39 -61 59 -209 34 -244
-13 -17 -16 -17 -93 -1 -138 31 -184 62 -204 136 -24 89 38 196 125 219 33 8
26 9 -45 5 -141 -8 -244 -51 -370 -155 -71 -59 -140 -124 -140 -133 0 -2 6 -4
13 -4 15 -1 587 -148 737 -189 90 -25 273 -85 292 -95 17 -9 26 -68 12 -81 -3
-3 -24 0 -47 8 -448 141 -959 274 -1054 274 -46 0 -89 -25 -154 -90 l-49 -49
0 73 c0 88 -3 84 135 192 150 117 235 216 290 335 98 215 61 510 -85 681 -158
185 -482 163 -665 -45 -55 -62 -108 -167 -132 -257 -21 -85 -22 -334 -1 -437
l15 -73 -26 0 c-20 0 -27 5 -28 22 -4 42 -42 67 -125 80 l-78 12 0 40 c0 53
-19 90 -48 94 -23 4 -23 5 -18 115 l5 112 62 6 c48 5 67 11 81 29 42 52 10 94
-81 104 -61 7 -61 7 -61 40 0 39 -36 77 -95 100 -58 22 -183 53 -248 61 -46 6
-57 11 -57 26 0 30 -46 53 -107 53 -50 1 -58 -2 -82 -30 -25 -31 -29 -32 -146
-42 -181 -16 -295 -60 -295 -113 0 -14 -11 -19 -47 -24 -69 -10 -93 -28 -93
-70 0 -45 19 -62 80 -70 l50 -7 2 -99 c0 -54 1 -105 2 -111 1 -9 -32 -16 -100
-24 -424 -50 -767 -171 -1005 -353 l-26 -20 -59 44 c-101 77 -276 160 -464
221 -229 75 -600 124 -940 124 -247 0 -650 -34 -726 -62 -34 -12 -44 -39 -44
-120 0 -37 -1 -38 -37 -38 -80 0 -142 -30 -143 -70 -1 -48 -37 -48 -58 0 -12
27 -11 38 17 108 55 144 63 267 26 407 -53 198 -213 383 -395 455 -62 25 -184
35 -242 20z m247 -105 c82 -40 199 -159 247 -250 96 -184 100 -346 14 -519
l-45 -88 20 -50 c10 -27 19 -54 19 -61 0 -7 -26 -26 -57 -42 -32 -16 -60 -31
-63 -32 -3 -2 -25 28 -49 66 -39 63 -47 70 -83 76 -76 13 -196 83 -274 160
-246 242 -241 668 9 759 27 10 70 15 122 13 66 -2 91 -7 140 -32z m5704 -58
c-2 -1 -23 -16 -47 -31 -57 -39 -131 -152 -171 -262 -47 -128 -70 -258 -78
-432 -3 -84 -9 -149 -13 -145 -11 12 -40 249 -40 323 0 87 31 233 65 306 35
73 148 188 224 226 30 15 57 26 59 23 3 -3 3 -6 1 -8z m138 -59 c-37 -46 -137
-227 -161 -293 -72 -200 -91 -258 -126 -382 -22 -78 -40 -151 -40 -163 0 -11
-4 -20 -10 -20 -14 0 -13 237 1 335 26 191 101 378 185 462 38 37 150 103 177
103 5 0 -7 -19 -26 -42z m95 -178 c-15 -108 -45 -191 -130 -364 -82 -169 -202
-377 -213 -370 -21 13 110 439 201 649 11 28 47 96 78 153 l57 103 9 -47 c5
-29 5 -75 -2 -124z m115 73 c71 -154 28 -332 -140 -583 -52 -78 -187 -234
-195 -226 -2 3 32 69 76 148 87 153 161 304 186 379 29 90 49 211 43 276 -2
34 -3 63 0 63 2 0 16 -26 30 -57z m-1327 -7 c89 -20 142 -39 142 -51 -1 -38
-298 -56 -502 -31 -125 16 -264 42 -283 53 -19 11 14 24 99 38 113 18 447 13
544 -9z m-551 -166 c28 -5 77 -17 107 -26 71 -20 61 -33 -44 -55 l-77 -15 -3
-47 c-3 -46 -4 -47 -38 -47 l-34 0 0 69 c0 38 -3 83 -6 100 -6 28 -4 31 18 31
14 0 48 -4 77 -10z m-5081 -147 c28 -41 206 -412 200 -418 -2 -3 -18 -7 -34
-11 l-29 -5 -110 221 c-92 184 -108 222 -95 230 26 17 48 11 68 -17z m7038
-97 c-9 -39 -27 -95 -41 -124 -43 -92 -152 -217 -250 -288 l-40 -28 31 35
c140 155 265 358 295 479 21 83 25 18 5 -74z m-7115 -177 c74 -148 105 -221
97 -224 -50 -17 -49 -18 -160 204 -60 117 -108 218 -108 223 0 11 42 27 53 21
4 -3 57 -103 118 -224z m-171 -79 l110 -220 -27 -11 c-20 -7 -30 -7 -39 3 -7
7 -58 105 -115 217 -97 193 -101 204 -84 217 10 8 25 14 32 14 7 0 62 -99 123
-220z m5855 156 c66 -9 141 -21 166 -26 l46 -11 12 -227 c6 -125 23 -447 36
-717 14 -269 32 -608 40 -752 8 -145 15 -276 15 -291 l0 -29 -86 23 c-79 21
-223 46 -334 59 -25 2 -135 8 -245 11 -474 16 -875 -55 -1185 -211 -95 -48
-257 -143 -265 -155 -4 -6 -11 -10 -16 -10 -6 0 -9 355 -7 986 l3 986 54 50
c56 51 254 155 376 197 177 60 402 107 605 127 177 17 622 11 785 -10z m-2890
-6 c121 -17 319 -58 420 -87 183 -53 406 -162 502 -246 l33 -29 0 -979 c0
-538 -3 -979 -7 -979 -5 0 -34 18 -67 40 -32 22 -63 40 -68 40 -5 0 -44 20
-86 44 -256 147 -597 230 -992 243 -287 9 -606 -21 -820 -76 -41 -10 -76 -18
-78 -16 -2 2 4 151 12 332 23 459 54 1207 62 1465 l7 217 45 7 c222 33 388 43
667 39 160 -2 326 -9 370 -15z m-1185 -208 c4 -4 1 -140 -6 -302 -36 -838 -47
-1076 -70 -1532 l-6 -126 83 28 c101 33 336 84 474 101 58 7 204 12 345 12
219 -1 262 -3 405 -28 278 -47 483 -118 650 -223 77 -49 155 -109 155 -121 0
-3 -15 -15 -32 -25 -18 -11 -49 -32 -69 -48 -20 -15 -42 -28 -49 -28 -6 0 -48
16 -93 36 -113 50 -286 98 -452 125 -128 22 -169 24 -495 24 -284 0 -385 -4
-505 -18 -165 -21 -359 -56 -475 -86 -41 -11 -76 -18 -79 -15 -5 5 20 795 39
1234 5 118 17 386 25 595 9 209 18 385 20 392 7 21 119 25 135 5z m4524 -4 c3
-13 7 -61 10 -108 3 -47 15 -220 26 -385 23 -353 52 -806 80 -1245 10 -173 22
-355 25 -403 l7 -88 -24 6 c-13 3 -70 16 -128 30 -140 34 -408 72 -599 86
-209 15 -690 6 -831 -16 -157 -25 -360 -80 -478 -130 l-104 -44 -69 56 c-56
45 -67 58 -58 70 20 23 188 132 263 170 209 105 459 164 779 184 189 11 467 1
619 -22 118 -18 318 -66 391 -93 79 -30 72 -50 57 157 -24 350 -100 1676 -100
1752 0 37 -5 34 107 43 16 1 24 -5 27 -20z m1697 -15 c13 -16 12 -17 -3 -4
-17 13 -22 21 -14 21 2 0 10 -8 17 -17z m60 -60 c13 -16 12 -17 -3 -4 -10 7
-18 15 -18 17 0 8 8 3 21 -13z m-6539 -108 c-2 -44 -18 -440 -37 -880 -18
-440 -37 -880 -40 -978 -5 -120 -11 -180 -19 -182 -6 -2 -26 -6 -45 -9 l-34
-6 6 407 c6 369 25 1050 43 1515 4 97 10 182 14 188 8 13 65 29 95 27 18 -2
20 -8 17 -82z m5011 66 c4 -4 16 -153 27 -332 11 -178 29 -454 40 -614 49
-728 59 -879 66 -1012 l7 -143 -39 0 c-21 0 -44 4 -50 8 -14 10 -50 447 -104
1257 -31 469 -46 694 -55 798 l-5 59 53 -7 c28 -4 55 -10 60 -14z m1567 -12
c15 -28 5 -23 -15 7 -9 15 -12 23 -6 20 6 -4 16 -16 21 -27z m66 -143 c13 -43
27 -106 29 -140 l4 -61 -9 60 c-11 67 -45 185 -67 230 -13 28 -13 28 2 10 8
-11 27 -55 41 -99z m-769 -152 c-3 -3 -12 -4 -19 -1 -8 3 -5 6 6 6 11 1 17 -2
13 -5z m178 -44 c156 -40 448 -134 475 -152 18 -12 36 -17 -192 57 -95 31
-234 72 -308 92 -125 32 -158 43 -134 43 5 0 77 -18 159 -40z m-70 -30 c121
-41 393 -126 495 -154 41 -12 45 -14 16 -10 -70 10 -672 201 -641 203 6 1 65
-17 130 -39z m595 -166 c0 -8 -9 -14 -22 -14 -21 1 -21 2 -5 11 9 6 14 15 11
21 -4 7 -2 8 4 4 7 -4 12 -14 12 -22z"/>
<path d="M4618 7077 c-57 -17 -74 -30 -99 -80 -31 -60 -34 -120 -10 -222 23
-96 93 -251 136 -300 l27 -30 -21 36 c-12 20 -19 43 -16 51 3 8 -10 69 -30
137 -19 67 -38 147 -41 177 -7 54 -6 56 27 84 19 16 39 29 46 30 10 0 43 -90
43 -117 0 -21 101 -323 110 -328 23 -14 26 9 10 67 -10 35 -32 108 -50 163
-35 114 -60 222 -52 230 11 11 93 5 96 -7 2 -7 9 -42 15 -77 24 -127 118 -381
142 -381 5 0 9 10 9 23 0 36 -108 359 -130 389 -11 15 -20 30 -20 34 0 14 77
-9 106 -31 51 -39 119 -200 138 -324 7 -50 30 -60 34 -14 5 56 -26 176 -65
256 -43 84 -135 182 -203 215 -58 28 -142 35 -202 19z"/>
<path d="M7874 5650 c0 -184 2 -260 3 -167 2 92 2 242 0 335 -1 92 -3 16 -3
-168z"/>
<path d="M9084 5949 c-34 -10 -68 -43 -79 -76 -8 -28 4 -29 47 -3 88 53 146
-11 103 -113 -8 -20 -15 -38 -15 -41 0 -2 21 -4 48 -3 l47 2 3 -39 c6 -76 -34
-113 -128 -117 -30 -1 -63 -6 -72 -11 -11 -5 -18 -5 -18 1 0 5 17 15 38 22 66
21 84 49 31 49 -44 0 -69 17 -69 45 0 14 5 25 10 25 6 0 10 7 10 15 0 8 -4 15
-8 15 -5 0 -17 18 -27 40 -16 34 -22 40 -50 40 -64 0 -100 -77 -75 -165 7 -25
10 -48 7 -51 -3 -3 -19 -3 -35 1 -28 6 -29 8 -36 81 -6 79 -1 100 36 141 13
13 18 28 14 41 -10 31 -56 72 -82 72 -28 0 -84 -46 -84 -68 0 -14 -4 -13 -18
5 -23 28 -82 63 -108 63 -39 0 -73 -36 -76 -82 l-3 -42 -47 2 c-71 5 -132 -34
-143 -92 -12 -57 -16 -66 -35 -66 -25 0 -50 -27 -50 -54 0 -18 -14 -28 -79
-54 -117 -48 -198 -113 -238 -190 -41 -79 -42 -124 -6 -200 75 -159 306 -285
618 -339 141 -24 513 -24 641 0 185 34 344 104 444 194 75 68 111 135 118 219
13 161 -97 271 -340 339 l-58 16 7 74 c6 81 -7 118 -50 134 -12 5 -22 17 -23
27 0 10 -1 32 -2 48 -1 18 -16 42 -41 67 -41 41 -65 46 -127 28z m-586 -228
c42 -22 80 -60 111 -111 29 -49 27 -52 -21 -25 -31 18 -59 25 -98 25 l-55 1
-24 49 c-20 41 -22 52 -11 65 17 20 53 19 98 -4z m452 -66 c-10 -27 -11 -27
-24 -9 -12 16 -11 24 7 59 l22 40 3 -31 c2 -16 -2 -43 -8 -59z m-225 -11 c27
-37 24 -53 -18 -94 -36 -37 -42 -39 -55 -26 -18 18 -18 126 0 137 19 12 58 2
73 -17z m293 -26 c-2 -6 -10 -14 -16 -16 -7 -2 -10 2 -6 12 7 18 28 22 22 4z
m-481 -66 c6 -4 -28 -7 -75 -7 -70 0 -95 -5 -127 -22 -22 -12 -34 -22 -27 -23
10 0 10 -5 2 -20 -6 -11 -16 -19 -23 -17 -7 1 -11 -4 -9 -12 2 -9 -3 -11 -13
-7 -25 9 -30 -20 -16 -102 10 -58 19 -80 39 -99 l27 -25 -35 21 c-115 67 -84
239 54 302 42 19 178 27 203 11z m-101 -19 c-10 -11 -36 -12 -36 -2 0 5 10 9
22 9 12 0 18 -3 14 -7z m149 -13 c10 -11 16 -20 13 -20 -3 0 -13 9 -23 20 -10
11 -16 20 -13 20 3 0 13 -9 23 -20z m359 -11 c61 -22 148 -94 173 -142 23 -45
21 -121 -4 -155 -25 -34 -90 -72 -123 -72 -18 0 -21 3 -11 9 7 5 11 13 7 19
-3 6 -1 12 6 14 13 5 -152 178 -169 178 -20 0 -2 -35 26 -51 26 -15 101 -115
101 -135 0 -4 -20 20 -45 54 -31 43 -60 69 -93 86 -89 45 -87 114 6 176 l45
30 -34 0 c-50 -1 -111 -32 -148 -76 -18 -22 -28 -30 -23 -19 15 29 73 82 102
94 42 17 126 12 184 -10z m395 1 c241 -67 340 -199 267 -356 -61 -131 -285
-234 -577 -265 -153 -16 -425 -6 -554 20 -323 66 -515 197 -515 350 0 24 7 58
16 77 22 47 94 108 171 146 65 32 94 34 47 4 -30 -21 -64 -88 -64 -131 0 -76
63 -151 165 -200 112 -53 233 -76 421 -82 332 -11 581 46 688 156 32 32 40 49
43 88 7 69 -22 108 -114 153 -39 19 -72 41 -72 48 -1 15 -9 16 78 -8z m-916
-16 c12 -5 16 -13 11 -26 -5 -17 -3 -18 14 -9 11 6 22 16 24 22 3 8 14 10 31
5 39 -9 36 -52 -5 -104 -38 -47 -105 -102 -124 -102 -7 0 -22 -10 -34 -22
l-20 -22 0 22 c0 13 6 22 16 22 10 0 7 7 -12 24 -24 20 -28 31 -28 75 0 36 6
59 21 79 22 30 63 54 78 47 6 -3 18 -8 28 -11z m721 -11 c27 -13 33 -20 25
-29 -12 -14 -40 -4 -84 30 -20 15 -20 15 2 16 12 0 38 -8 57 -17z m170 -58
c11 -8 14 -15 8 -15 -15 0 -16 -47 -2 -52 10 -3 15 -34 11 -65 -1 -17 -39 -16
-56 1 -8 7 -12 16 -9 19 3 3 -9 8 -26 12 -17 4 -34 4 -38 1 -4 -5 -42 77 -42
91 0 1 15 7 33 12 48 14 100 12 121 -4z m-543 -136 c83 -50 117 -96 97 -132
-10 -19 -17 -20 -175 -13 -91 3 -174 11 -184 17 -11 5 -19 19 -19 30 0 31 36
94 72 124 48 41 111 33 209 -26z m436 -11 c-3 -8 -6 -5 -6 6 -1 11 2 17 5 13
3 -3 4 -12 1 -19z"/>
<path d="M8940 5357 c0 -33 36 -65 57 -51 26 16 26 31 -1 38 -13 3 -32 13 -40
22 -15 14 -16 13 -16 -9z"/>
<path d="M8438 5373 c7 -3 16 -2 19 1 4 3 -2 6 -13 5 -11 0 -14 -3 -6 -6z"/>
<path d="M8359 5365 c-3 -2 -4 -18 -1 -35 6 -39 42 -43 42 -5 0 14 1 28 3 33
2 8 -36 15 -44 7z"/>
<path d="M9200 5350 c0 -5 7 -7 15 -4 8 4 15 8 15 10 0 2 -7 4 -15 4 -8 0 -15
-4 -15 -10z"/>
<path d="M8545 5210 c11 -4 35 -14 53 -20 18 -7 31 -15 28 -17 -2 -3 -13 0
-23 5 -12 7 -25 7 -34 1 -11 -7 -8 -9 11 -10 14 -1 40 -3 58 -5 17 -1 32 0 32
2 0 8 -77 41 -110 47 -24 4 -29 3 -15 -3z"/>
<path d="M7875 4750 c0 -234 1 -329 2 -213 2 117 2 309 0 425 -1 117 -2 22 -2
-212z"/>
<path d="M9626 4933 c-25 -33 -124 -96 -138 -87 -6 4 -8 3 -5 -3 12 -19 -168
-89 -275 -107 -18 -3 -60 -10 -93 -16 -33 -5 -163 -11 -290 -12 -210 -1 -221
-2 -130 -10 55 -5 163 -7 240 -4 247 10 417 50 560 131 74 42 165 118 155 129
-3 2 -13 -7 -24 -21z"/>
<path d="M9549 4933 c-13 -16 -12 -17 4 -4 9 7 17 15 17 17 0 8 -8 3 -21 -13z"/>
<path d="M8067 4893 c23 -22 68 -54 101 -71 69 -37 281 -98 368 -106 l59 -5
-60 13 c-262 59 -380 103 -467 173 l-43 35 42 -39z"/>
<path d="M9450 4880 c-30 -16 -51 -29 -47 -30 10 0 107 49 107 55 0 7 1 7 -60
-25z"/>
<path d="M8270 4840 c8 -5 22 -9 30 -9 10 0 8 3 -5 9 -27 12 -43 12 -25 0z"/>
<path d="M9313 4827 l-32 -12 24 -12 c16 -7 25 -8 25 -1 0 7 5 7 13 -1 10 -8
14 -7 14 4 0 8 -4 12 -9 9 -4 -3 -8 -1 -8 5 0 5 6 12 13 14 25 11 -9 5 -40 -6z"/>
<path d="M8283 4813 c9 -2 23 -2 30 0 6 3 -1 5 -18 5 -16 0 -22 -2 -12 -5z"/>
<path d="M8358 4813 c7 -3 16 -2 19 1 4 3 -2 6 -13 5 -11 0 -14 -3 -6 -6z"/>
<path d="M8380 4794 c-25 -15 -25 -15 -1 -8 16 4 21 3 17 -5 -4 -6 -3 -11 3
-11 5 0 11 6 14 13 3 9 9 9 24 0 12 -6 25 -8 34 -3 11 8 11 10 -1 14 -43 13
-67 13 -90 0z"/>
<path d="M9248 4803 c7 -3 16 -2 19 1 4 3 -2 6 -13 5 -11 0 -14 -3 -6 -6z"/>
<path d="M9280 4791 c0 -6 4 -13 10 -16 6 -3 7 1 4 9 -7 18 -14 21 -14 7z"/>
<path d="M9148 4783 c7 -3 16 -2 19 1 4 3 -2 6 -13 5 -11 0 -14 -3 -6 -6z"/>
<path d="M8573 4773 c9 -2 23 -2 30 0 6 3 -1 5 -18 5 -16 0 -22 -2 -12 -5z"/>
<path d="M9066 4772 c-2 -4 11 -6 30 -4 19 2 34 6 34 8 0 8 -59 4 -64 -4z"/>
<path d="M8645 4765 c20 -8 155 -10 155 -3 0 5 -37 8 -82 7 -46 0 -78 -2 -73
-4z"/>
<path d="M8938 4763 c23 -2 59 -2 80 0 20 2 1 4 -43 4 -44 0 -61 -2 -37 -4z"/>
<path d="M9008 4738 c-9 -5 -6 -7 9 -5 12 2 25 6 28 8 8 9 -23 6 -37 -3z"/>
<path d="M8918 4593 c6 -2 18 -2 25 0 6 3 1 5 -13 5 -14 0 -19 -2 -12 -5z"/>
<path d="M6624 6096 c-43 -19 -102 -81 -110 -114 -11 -49 -13 -52 -46 -52 -47
-1 -108 -31 -145 -74 -40 -45 -47 -72 -40 -144 l6 -57 -57 -24 c-87 -36 -270
-138 -330 -183 -71 -53 -92 -89 -92 -160 0 -51 3 -59 30 -80 l30 -24 -7 -194
c-5 -128 -5 -201 2 -214 14 -28 84 -31 305 -16 611 40 961 89 1082 151 l38 19
0 233 c1 188 3 236 15 251 18 23 19 90 4 135 -7 19 -29 44 -54 61 -51 35 -308
136 -452 179 -12 3 -36 26 -55 50 -37 50 -85 78 -149 89 -61 10 -62 32 -5 89
44 44 47 45 96 41 44 -4 49 -3 47 13 -4 24 -6 25 -47 32 -21 4 -48 1 -66 -7z
m-116 -260 c4 -35 -27 -71 -74 -86 -38 -13 -52 -8 -63 23 -16 43 46 99 104 94
25 -2 31 -7 33 -31z m-151 -78 c-3 -8 -6 -5 -6 6 -1 11 2 17 5 13 3 -3 4 -12
1 -19z m466 -39 c27 -14 87 -70 87 -81 0 -4 -32 -8 -71 -8 -69 0 -71 1 -64 23
4 12 9 34 12 50 6 31 6 31 36 16z m-449 -45 c3 -8 2 -12 -4 -9 -6 3 -10 10
-10 16 0 14 7 11 14 -7z m-73 -96 c-4 -13 -20 -29 -35 -36 -30 -15 -126 -32
-126 -23 0 9 133 79 152 80 14 1 16 -4 9 -21z m652 -238 c85 -52 110 -51 158
1 23 25 44 39 56 37 16 -3 18 -16 21 -114 l3 -111 -68 -8 c-37 -5 -113 -9
-168 -10 -55 -1 -111 -6 -125 -12 -14 -5 -54 -11 -90 -12 -35 -2 -67 -4 -70
-6 -4 -3 -174 -18 -615 -54 -60 -5 -113 -7 -117 -5 -4 3 -8 34 -8 70 l0 64
-26 -6 c-19 -5 -25 -4 -20 5 4 6 13 11 21 11 7 0 28 12 45 27 18 14 55 32 83
40 55 14 47 16 150 -40 46 -25 51 -26 79 -11 16 8 43 35 61 60 22 31 42 48 69
56 34 10 43 8 114 -27 51 -26 96 -40 132 -43 53 -5 53 -5 100 46 45 48 98 81
133 82 8 0 45 -18 82 -40z"/>
<path d="M7482 5940 c0 -14 2 -19 5 -12 2 6 2 18 0 25 -3 6 -5 1 -5 -13z"/>
<path d="M7481 5784 c0 -11 3 -14 6 -6 3 7 2 16 -1 19 -3 4 -6 -2 -5 -13z"/>
<path d="M7472 5215 c0 -16 2 -22 5 -12 2 9 2 23 0 30 -3 6 -5 -1 -5 -18z"/>
<path d="M7472 5150 c0 -19 2 -27 5 -17 2 9 2 25 0 35 -3 9 -5 1 -5 -18z"/>
<path d="M7473 4945 c0 -38 2 -53 4 -32 2 20 2 52 0 70 -2 17 -4 1 -4 -38z"/>
<path d="M7350 4964 c0 -3 10 -14 22 -24 21 -17 21 -18 5 -43 -9 -15 -17 -30
-17 -34 0 -4 10 7 21 25 20 30 20 34 5 57 -15 23 -36 34 -36 19z"/>
<path d="M7265 4900 c-3 -6 1 -7 9 -4 18 7 21 14 7 14 -6 0 -13 -4 -16 -10z"/>
<path d="M7135 4855 c-39 -14 -40 -14 -5 -8 41 7 82 22 60 22 -8 0 -33 -7 -55
-14z"/>
<path d="M7305 4835 c-16 -8 -23 -14 -14 -15 8 0 24 7 35 15 23 18 18 18 -21
0z"/>
<path d="M5789 4817 c-42 -21 -62 -54 -51 -84 9 -25 22 -12 22 21 0 26 5 36
21 41 12 4 26 2 33 -5 8 -10 8 -11 -1 -6 -8 5 -13 1 -13 -10 0 -14 -2 -15 -17
-3 -16 13 -17 12 -5 -3 10 -13 10 -17 0 -21 -7 -3 -3 -4 9 -4 12 1 19 5 16 11
-4 5 3 7 15 4 12 -4 20 -3 17 2 -2 4 0 21 5 38 4 18 5 34 1 37 -5 2 -28 -6
-52 -18z"/>
<path d="M7058 4833 c6 -2 18 -2 25 0 6 3 1 5 -13 5 -14 0 -19 -2 -12 -5z"/>
<path d="M6998 4823 c7 -3 16 -2 19 1 4 3 -2 6 -13 5 -11 0 -14 -3 -6 -6z"/>
<path d="M6920 4811 c0 -5 9 -7 20 -4 11 3 20 7 20 9 0 2 -9 4 -20 4 -11 0
-20 -4 -20 -9z"/>
<path d="M7230 4813 c-14 -2 -57 -13 -95 -23 -117 -33 -168 -40 -184 -27 -12
9 -13 9 -7 0 5 -9 -1 -13 -21 -14 -15 0 -37 -2 -48 -4 -11 -3 -48 -6 -82 -9
-59 -4 -130 -13 -183 -22 -14 -2 -67 -7 -117 -11 -73 -4 -93 -3 -93 7 0 9 -6
8 -20 -5 -12 -11 -26 -15 -37 -11 -15 6 -15 9 -3 17 13 9 13 10 0 6 -8 -2 -14
-9 -13 -15 3 -14 -237 -26 -404 -20 -73 3 -132 4 -131 3 28 -27 574 -16 833
16 44 5 121 14 170 20 188 20 452 72 472 93 7 6 5 6 -37 -1z"/>
<path d="M6839 4806 c-2 -3 -62 -10 -134 -17 -71 -7 -123 -15 -116 -17 7 -2
65 1 129 8 64 7 132 13 149 14 45 3 54 16 11 16 -19 0 -37 -2 -39 -4z"/>
<path d="M6805 4770 c-3 -6 1 -7 9 -4 18 7 21 14 7 14 -6 0 -13 -4 -16 -10z"/>
<path d="M6493 4763 c9 -2 25 -2 35 0 9 3 1 5 -18 5 -19 0 -27 -2 -17 -5z"/>
<path d="M6347 4753 c18 -2 50 -2 70 0 21 2 7 4 -32 4 -38 0 -55 -2 -38 -4z"/>
<path d="M6186 4742 c-2 -4 12 -6 32 -4 62 6 69 10 20 11 -26 0 -49 -3 -52 -7z"/>
<path d="M5905 4720 c3 -5 12 -7 20 -4 7 3 23 0 35 -6 18 -10 21 -9 15 1 -6 9
-3 11 8 6 10 -3 17 -2 17 3 0 6 -23 10 -51 10 -29 0 -48 -4 -44 -10z"/>
<path d="M7471 4704 c0 -11 3 -14 6 -6 3 7 2 16 -1 19 -3 4 -6 -2 -5 -13z"/>
<path d="M7473 4645 c0 -22 2 -30 4 -17 2 12 2 30 0 40 -3 9 -5 -1 -4 -23z"/>
<path d="M7472 4570 c0 -19 2 -27 5 -17 2 9 2 25 0 35 -3 9 -5 1 -5 -18z"/>
<path d="M7473 4460 c0 -41 2 -58 4 -37 2 20 2 54 0 75 -2 20 -4 3 -4 -38z"/>
<path d="M6128 4273 c18 -2 45 -2 60 0 15 2 0 4 -33 4 -33 0 -45 -2 -27 -4z"/>
<path d="M6503 4273 c15 -2 39 -2 55 0 15 2 2 4 -28 4 -30 0 -43 -2 -27 -4z"/>
<path d="M5998 4263 c12 -2 30 -2 40 0 9 3 -1 5 -23 4 -22 0 -30 -2 -17 -4z"/>
<path d="M6623 4263 c9 -2 25 -2 35 0 9 3 1 5 -18 5 -19 0 -27 -2 -17 -5z"/>
<path d="M5913 4253 c9 -2 25 -2 35 0 9 3 1 5 -18 5 -19 0 -27 -2 -17 -5z"/>
<path d="M6708 4253 c6 -2 18 -2 25 0 6 3 1 5 -13 5 -14 0 -19 -2 -12 -5z"/>
<path d="M5843 4243 c9 -2 23 -2 30 0 6 3 -1 5 -18 5 -16 0 -22 -2 -12 -5z"/>
<path d="M6768 4243 c6 -2 18 -2 25 0 6 3 1 5 -13 5 -14 0 -19 -2 -12 -5z"/>
<path d="M5738 4223 c6 -2 18 -2 25 0 6 3 1 5 -13 5 -14 0 -19 -2 -12 -5z"/>
<path d="M5698 4213 c7 -3 16 -2 19 1 4 3 -2 6 -13 5 -11 0 -14 -3 -6 -6z"/>
<path d="M5658 4203 c7 -3 16 -2 19 1 4 3 -2 6 -13 5 -11 0 -14 -3 -6 -6z"/>
<path d="M5618 4193 c7 -3 16 -2 19 1 4 3 -2 6 -13 5 -11 0 -14 -3 -6 -6z"/>
<path d="M5548 4173 c7 -3 16 -2 19 1 4 3 -2 6 -13 5 -11 0 -14 -3 -6 -6z"/>
<path d="M5360 4110 c-8 -5 -10 -10 -5 -10 6 0 17 5 25 10 8 5 11 10 5 10 -5
0 -17 -5 -25 -10z"/>
<path d="M5304 4084 c-18 -14 -18 -14 6 -3 31 14 36 19 24 19 -6 0 -19 -7 -30
-16z"/>
<path d="M8833 4273 c15 -2 37 -2 50 0 12 2 0 4 -28 4 -27 0 -38 -2 -22 -4z"/>
<path d="M9207 4273 c18 -2 50 -2 70 0 21 2 7 4 -32 4 -38 0 -55 -2 -38 -4z"/>
<path d="M8703 4263 c9 -2 25 -2 35 0 9 3 1 5 -18 5 -19 0 -27 -2 -17 -5z"/>
<path d="M9353 4263 c9 -2 25 -2 35 0 9 3 1 5 -18 5 -19 0 -27 -2 -17 -5z"/>
<path d="M8633 4253 c9 -2 23 -2 30 0 6 3 -1 5 -18 5 -16 0 -22 -2 -12 -5z"/>
<path d="M9443 4253 c9 -2 25 -2 35 0 9 3 1 5 -18 5 -19 0 -27 -2 -17 -5z"/>
<path d="M8573 4243 c9 -2 23 -2 30 0 6 3 -1 5 -18 5 -16 0 -22 -2 -12 -5z"/>
<path d="M9528 4243 c7 -3 16 -2 19 1 4 3 -2 6 -13 5 -11 0 -14 -3 -6 -6z"/>
<path d="M8518 4233 c7 -3 16 -2 19 1 4 3 -2 6 -13 5 -11 0 -14 -3 -6 -6z"/>
<path d="M9578 4233 c7 -3 16 -2 19 1 4 3 -2 6 -13 5 -11 0 -14 -3 -6 -6z"/>
<path d="M8468 4223 c7 -3 16 -2 19 1 4 3 -2 6 -13 5 -11 0 -14 -3 -6 -6z"/>
<path d="M8418 4213 c7 -3 16 -2 19 1 4 3 -2 6 -13 5 -11 0 -14 -3 -6 -6z"/>
<path d="M9708 4203 c7 -3 16 -2 19 1 4 3 -2 6 -13 5 -11 0 -14 -3 -6 -6z"/>
</g>
</svg>
