<?xml version="1.0" standalone="no"?>
<!DOCTYPE svg PUBLIC "-//W3C//DTD SVG 20010904//EN"
 "http://www.w3.org/TR/2001/REC-SVG-20010904/DTD/svg10.dtd">
<svg version="1.0" xmlns="http://www.w3.org/2000/svg"
 width="764.000000pt" height="955.000000pt" viewBox="0 0 764.000000 955.000000"
 preserveAspectRatio="xMidYMid meet">

<g transform="translate(0.000000,955.000000) scale(0.100000,-0.100000)"
fill="#000000" stroke="none">
<path d="M3899 9483 c-3 -251 -37 -489 -91 -637 -49 -134 -58 -146 -173 -221
-91 -59 -103 -71 -138 -138 -29 -55 -41 -50 -22 8 13 37 12 66 -1 31 -3 -9
-12 -16 -20 -16 -8 0 -14 -6 -14 -13 0 -15 -54 -67 -69 -67 -7 0 -31 -18 -53
-40 -23 -22 -45 -40 -48 -40 -7 0 -50 -73 -50 -84 0 -13 24 -5 52 19 16 14 24
25 18 25 -6 0 -8 5 -5 10 4 6 11 8 16 5 13 -8 11 -55 -2 -55 -5 0 -8 -4 -5 -8
3 -4 0 -28 -6 -53 -6 -24 -10 -52 -10 -61 0 -10 -3 -18 -7 -18 -5 0 -9 -10 -9
-22 0 -13 -7 -43 -16 -68 -42 -114 -54 -190 -70 -450 -2 -47 -2 -73 0 -58 4
18 14 30 36 37 17 6 33 11 34 11 10 0 2 -25 -17 -51 -11 -16 -16 -29 -11 -29
6 0 12 5 14 12 3 7 12 9 22 5 16 -6 16 -9 -6 -36 -26 -34 -41 -40 -31 -13 6
15 5 16 -12 2 -17 -14 -18 -13 -13 8 4 14 2 20 -4 16 -6 -4 -8 -23 -3 -48 3
-22 7 -49 8 -58 1 -10 4 -18 8 -18 3 0 12 -21 18 -47 7 -27 17 -56 22 -65 5
-10 5 -18 0 -18 -4 0 -6 -11 -4 -24 3 -13 0 -27 -7 -31 -8 -5 -8 -10 1 -21 8
-9 8 -18 2 -26 -16 -20 -14 -148 1 -163 13 -13 13 -20 -9 -142 -12 -66 2 -51
16 17 6 33 15 60 20 60 4 0 25 -12 46 -26 l38 -25 9 28 c5 15 16 37 26 48 10
12 20 44 23 78 6 57 28 107 47 107 6 0 10 -10 10 -21 0 -12 18 -38 43 -60 32
-29 37 -38 24 -39 -11 0 -27 -10 -37 -22 -16 -21 -17 -26 -3 -72 11 -37 12
-55 4 -73 -7 -16 -7 -23 0 -23 6 0 8 -4 5 -8 -3 -5 1 -20 9 -35 35 -68 43
-297 10 -297 -19 0 -75 30 -75 41 0 14 -17 11 -23 -5 -4 -10 -1 -13 9 -9 8 3
14 -1 14 -11 0 -9 -7 -16 -16 -16 -11 0 -15 -8 -13 -27 1 -16 -1 -35 -4 -43
-3 -8 -8 -28 -10 -45 -1 -16 -8 -40 -15 -51 -6 -12 -14 -40 -17 -62 -4 -38
-12 -59 -66 -178 -11 -23 -19 -49 -19 -58 0 -9 -4 -16 -10 -16 -5 0 -10 -11
-10 -25 0 -28 -32 -65 -55 -65 -17 0 -18 -4 -6 -28 15 -31 29 -82 23 -82 -4 0
-8 -12 -9 -28 -2 -28 13 -67 34 -90 7 -7 17 -30 23 -51 6 -25 17 -41 30 -44
18 -5 19 -13 17 -120 -1 -63 -1 -114 1 -112 1 1 18 28 37 60 37 61 42 86 24
132 -6 15 -12 48 -15 73 -2 24 -8 48 -13 53 -13 13 -31 -1 -24 -18 3 -8 1 -15
-5 -15 -15 0 -24 48 -12 70 8 15 5 41 -10 104 -22 93 -26 141 -9 131 6 -4 8
-13 5 -20 -8 -22 9 -68 27 -71 9 -1 17 2 17 7 0 5 7 9 16 9 8 0 12 -4 9 -10
-3 -5 1 -10 10 -10 11 0 15 -5 12 -15 -4 -8 -2 -17 2 -19 4 -3 11 -37 14 -76
3 -38 9 -76 14 -83 10 -17 13 -31 16 -117 2 -41 6 -82 9 -90 3 -8 18 -53 33
-100 15 -47 34 -97 41 -111 7 -15 10 -29 7 -33 -4 -3 -1 -6 5 -6 7 0 12 -12
12 -26 0 -15 8 -33 18 -40 10 -8 12 -13 5 -14 -7 0 -13 -7 -13 -16 0 -10 6
-14 14 -11 19 7 25 -18 32 -128 4 -60 1 -112 -8 -156 -9 -41 -11 -76 -6 -90 5
-12 4 -36 -1 -53 -19 -65 -21 -97 -6 -102 12 -5 10 -10 -8 -25 -12 -11 -17
-19 -12 -18 30 4 45 -3 45 -21 0 -11 -4 -20 -10 -20 -5 0 -10 -7 -10 -15 0
-17 30 -34 48 -28 7 3 12 1 11 -4 -1 -4 -1 -14 0 -21 1 -17 21 2 40 37 8 14
16 20 22 14 10 -10 -10 -80 -42 -146 -10 -21 -14 -35 -8 -31 8 4 9 -1 4 -16
-4 -13 -3 -20 2 -17 17 11 63 16 68 8 2 -5 7 -23 9 -42 7 -43 25 -119 33 -139
3 -8 6 -18 5 -22 -1 -4 4 -21 12 -38 7 -18 11 -43 8 -57 -4 -20 -9 -24 -28
-20 -21 4 -23 1 -22 -30 2 -42 12 -49 42 -30 21 14 24 14 39 -4 10 -11 17 -21
17 -23 0 -2 11 -29 25 -60 14 -31 25 -59 24 -62 0 -3 7 -11 16 -18 10 -7 18
-29 20 -50 1 -21 7 -41 13 -45 6 -3 20 -31 32 -61 28 -71 37 -81 66 -74 17 4
26 1 31 -12 4 -10 2 -19 -5 -22 -16 -5 -15 -29 1 -35 6 -2 9 -8 5 -12 -4 -4
-19 5 -33 19 -32 32 -45 33 -44 4 0 -13 3 -17 6 -10 10 25 21 10 27 -39 5 -35
3 -56 -6 -67 -10 -12 -10 -14 -1 -8 8 4 17 -2 25 -19 10 -22 9 -28 -3 -36 -13
-8 -6 -13 14 -10 4 0 7 -4 7 -10 0 -6 7 -9 15 -6 8 4 17 2 20 -3 3 -5 -4 -11
-15 -15 -11 -3 -20 -11 -20 -17 0 -6 -9 -3 -20 7 -12 10 -19 24 -16 30 2 7 0
18 -4 26 -5 8 -4 19 3 28 10 12 9 13 -1 7 -9 -5 -22 2 -39 23 -22 26 -27 28
-40 16 -18 -18 -34 -19 -32 -3 3 24 -1 41 -8 35 -7 -7 -32 22 -33 38 0 6 5 3
10 -5 8 -12 10 -12 9 5 0 36 -28 138 -39 145 -6 4 -8 15 -4 25 5 13 4 16 -5
11 -8 -5 -14 -1 -18 13 -3 12 -12 21 -20 21 -10 0 -13 6 -9 16 3 9 6 18 6 20
0 2 7 4 15 4 9 0 12 6 8 17 -5 14 -10 12 -28 -11 -24 -30 -37 -24 -30 12 2 12
0 24 -6 27 -5 4 -9 -1 -9 -9 0 -9 -4 -16 -10 -16 -5 0 -10 -5 -10 -11 0 -5 5
-7 10 -4 6 3 10 1 10 -4 0 -6 -9 -11 -20 -11 -23 0 -25 -15 -7 -47 9 -16 16
-20 27 -13 13 8 12 10 -2 10 -22 0 -23 13 -3 30 12 10 18 9 31 -4 9 -9 14 -23
11 -30 -3 -8 5 -18 19 -25 16 -7 24 -20 26 -38 2 -46 3 -51 11 -59 4 -4 7 -18
7 -31 0 -16 -6 -23 -20 -23 -25 0 -26 -27 -2 -71 24 -46 33 -54 67 -57 17 -2
34 -8 39 -13 6 -5 20 -9 33 -9 13 0 23 -4 23 -10 0 -13 -10 -13 -60 5 -53 19
-55 19 -40 0 7 -8 8 -15 4 -15 -5 0 -15 9 -22 21 -10 15 -21 19 -45 17 -34 -3
-42 -21 -12 -27 10 -1 27 -11 37 -21 18 -17 18 -19 3 -27 -15 -9 -14 -11 7
-25 13 -8 32 -18 44 -22 12 -3 25 -15 30 -26 5 -11 43 -62 84 -114 55 -70 81
-96 98 -96 12 0 22 -5 22 -11 0 -6 -5 -9 -12 -7 -6 2 -20 -4 -31 -15 -17 -17
-18 -21 -4 -34 19 -19 52 -9 43 12 -7 20 0 19 35 -6 20 -14 27 -16 23 -5 -4
11 7 16 53 20 32 4 90 14 130 22 56 13 70 19 66 31 -5 13 -2 13 15 4 13 -7 23
-25 27 -51 4 -22 11 -42 16 -46 5 -3 9 -10 9 -16 0 -6 -7 -5 -17 4 -27 24 -63
32 -63 15 0 -11 -11 -13 -42 -11 -53 4 -138 -6 -138 -16 0 -19 66 -81 98 -91
28 -9 32 -13 19 -21 -9 -5 -33 -7 -54 -5 -29 3 -41 10 -51 30 -13 26 -13 26
-32 7 -11 -11 -26 -20 -32 -19 -10 0 -10 2 0 6 6 2 12 9 12 15 0 6 -12 3 -26
-7 -15 -9 -29 -13 -33 -8 -3 5 -23 22 -44 38 l-38 28 -58 -16 c-83 -23 -227
-39 -296 -32 -133 13 -145 16 -179 51 -41 43 -88 54 -117 28 -12 -11 -23 -14
-27 -9 -11 15 -47 41 -39 29 9 -16 -15 -35 -32 -25 -9 6 -10 14 -3 27 10 20 6
44 -8 44 -5 0 -16 -7 -25 -17 -14 -14 -18 -14 -26 -2 -14 23 -10 31 11 24 15
-5 19 -3 14 10 -4 9 -12 14 -20 11 -7 -3 -24 4 -38 15 -13 10 -39 22 -57 26
-30 6 -32 5 -25 -20 3 -14 1 -29 -4 -32 -6 -4 -7 -12 -3 -18 13 -20 12 -41 -1
-57 -7 -8 -13 -24 -13 -35 -1 -11 -33 -91 -72 -179 -38 -87 -73 -171 -76 -187
-4 -16 -11 -31 -16 -34 -5 -4 -9 -15 -9 -26 0 -17 -6 -19 -45 -15 -25 3 -45 0
-45 -5 0 -5 -7 -9 -15 -9 -8 0 -15 -4 -15 -9 0 -13 23 -20 53 -14 17 3 27 1
27 -7 0 -7 8 -9 20 -5 15 5 18 3 14 -8 -3 -9 7 -24 28 -38 50 -36 170 -31 378
18 89 20 79 18 230 48 74 15 138 30 142 34 8 7 -77 134 -93 139 -5 2 -7 8 -3
13 3 5 0 9 -7 9 -6 0 -18 8 -25 18 -12 15 -12 14 -7 -8 5 -20 3 -23 -7 -13
-10 9 -10 18 -1 42 11 25 10 33 -6 57 -10 16 -12 25 -5 21 8 -6 12 -1 12 16 0
13 3 26 6 30 9 8 75 -54 68 -64 -3 -5 0 -9 6 -9 6 0 26 -15 43 -33 18 -19 40
-36 49 -40 10 -3 15 -12 12 -20 -5 -15 23 -50 34 -43 11 7 11 -77 0 -91 -14
-17 4 -23 46 -13 43 9 59 21 62 47 2 10 5 35 8 56 5 27 0 51 -15 85 -12 26
-23 70 -25 99 -2 44 0 53 16 58 11 4 24 3 30 0 5 -3 10 0 11 7 1 21 29 -75 29
-101 0 -13 7 -29 15 -35 8 -6 16 -29 18 -51 2 -35 -1 -40 -22 -43 -22 -3 -23
-7 -17 -50 8 -56 10 -58 42 -44 19 9 24 9 18 1 -4 -7 -3 -10 2 -7 5 4 32 9 59
12 28 3 73 12 102 20 45 12 54 12 64 0 6 -8 16 -11 22 -7 7 4 8 0 4 -11 -4
-10 -7 -26 -7 -37 0 -11 -7 -19 -16 -19 -8 0 -13 -3 -10 -8 2 -4 -22 -8 -54
-9 -32 -1 -71 -8 -87 -16 -15 -8 -49 -13 -75 -12 -27 1 -48 -1 -48 -5 0 -6
-82 -5 -145 1 -22 2 -96 -9 -102 -15 -3 -3 -13 -6 -21 -6 -8 0 -23 -11 -34
-25 -11 -14 -28 -25 -38 -25 -10 0 -22 -4 -25 -10 -3 -6 -28 -10 -56 -10 -27
0 -49 -4 -49 -9 0 -6 -21 -13 -47 -16 -27 -4 -78 -16 -116 -26 -37 -11 -72
-17 -77 -14 -15 9 -133 -15 -151 -31 -15 -13 -17 -13 -22 1 -5 11 -21 15 -66
15 -33 0 -62 4 -66 10 -3 5 -12 7 -20 3 -9 -3 -23 1 -32 8 -13 11 -17 11 -20
1 -3 -6 -9 -9 -15 -6 -6 4 -5 9 3 14 20 13 -5 35 -38 34 -45 -2 -143 -36 -143
-51 0 -7 -7 -13 -15 -13 -25 0 -65 -23 -65 -37 0 -7 -6 -13 -14 -13 -8 0 -34
-26 -58 -57 -24 -32 -54 -63 -66 -69 -14 -7 -18 -14 -11 -21 15 -15 -7 -63
-30 -63 -27 0 -30 18 -10 59 16 33 16 36 1 47 -9 7 -21 10 -26 7 -5 -3 -6 0
-4 8 3 9 18 13 37 12 27 -1 35 4 48 33 9 19 20 34 25 34 4 0 8 6 8 13 0 16 55
75 105 112 22 16 42 33 45 37 3 4 19 6 35 4 17 -2 32 0 35 5 3 4 28 14 55 21
49 12 68 25 59 39 -2 4 -13 5 -24 2 -23 -6 -24 -4 -10 31 5 15 17 26 28 26 15
0 22 11 29 51 10 51 4 70 -28 81 -7 2 -8 14 -2 38 l10 35 22 -45 c18 -36 21
-39 16 -15 -9 44 -32 201 -39 266 -4 44 -2 60 9 69 22 18 42 6 50 -30 6 -29 8
-30 20 -13 13 17 14 16 24 -10 15 -38 14 -39 -8 -32 -27 8 -35 -10 -19 -45 13
-30 32 -35 34 -9 3 31 6 33 13 9 7 -24 8 -24 36 20 15 25 46 72 67 104 38 60
48 96 26 96 -23 0 -35 -14 -42 -47 -11 -50 -31 -60 -59 -29 -15 16 -31 24 -40
20 -9 -3 -21 -3 -27 1 -19 12 11 37 35 31 20 -5 24 1 39 47 9 30 14 61 11 69
-4 9 0 29 9 46 17 32 12 64 -16 104 -10 14 -18 33 -18 41 0 8 -7 17 -15 21 -8
3 -15 12 -15 21 0 8 -4 15 -10 15 -5 0 -10 5 -10 12 0 6 -7 19 -16 29 -9 10
-16 30 -16 46 -1 67 -3 69 -65 68 -32 -1 -69 -8 -81 -16 -21 -12 -72 -106 -72
-131 0 -5 -11 -24 -24 -41 -13 -18 -28 -48 -35 -66 -9 -29 -9 -38 4 -50 14
-14 16 -14 13 -1 -2 10 5 15 21 15 31 0 39 -21 12 -30 -36 -11 -23 -25 24 -25
25 0 45 -4 45 -8 0 -4 -18 -25 -39 -46 -30 -29 -45 -37 -62 -33 -14 4 -38 -3
-65 -19 -43 -25 -104 -47 -104 -37 0 19 35 72 55 83 14 7 25 17 25 21 0 12
-59 -11 -98 -38 -19 -13 -40 -23 -47 -23 -19 0 -38 -27 -25 -35 11 -7 -68 -95
-86 -95 -21 0 -66 -71 -71 -110 -7 -53 -45 -77 -261 -171 -36 -15 -48 -25 -40
-31 8 -5 -6 -6 -32 -3 -32 3 -36 2 -15 -3 24 -6 27 -9 15 -17 -8 -5 -23 -11
-32 -12 -10 -2 -21 -3 -25 -4 -4 -1 -24 -1 -43 0 l-35 2 25 15 c30 18 9 14
-55 -10 -22 -8 -54 -15 -71 -16 -23 0 -34 -6 -42 -25 -6 -13 -29 -36 -51 -49
-53 -34 -167 -172 -225 -273 -47 -82 -56 -114 -72 -253 -8 -73 20 -140 86
-204 27 -26 63 -69 79 -94 52 -81 74 -103 135 -134 82 -41 101 -64 114 -128
20 -105 14 -99 219 -202 103 -53 199 -99 213 -103 24 -6 24 -6 -4 18 -22 18
-26 26 -16 32 9 5 11 4 6 -3 -9 -15 26 -16 41 -1 16 16 51 1 67 -29 12 -23 12
-28 -2 -38 -20 -15 79 -56 298 -123 268 -81 429 -117 673 -151 126 -18 219
-25 176 -13 -9 2 -24 21 -34 43 -14 31 -16 52 -10 106 4 37 13 84 21 105 7 22
10 39 6 39 -4 0 1 7 12 15 10 8 15 19 11 26 -5 7 -3 10 6 7 8 -3 12 -12 10
-19 -17 -63 -14 -201 5 -212 8 -5 12 -12 9 -18 -4 -5 1 -9 9 -9 9 0 13 -7 11
-19 -2 -11 6 -27 17 -38 15 -12 19 -13 14 -3 -5 8 3 2 17 -15 25 -29 26 -30
158 -36 140 -6 152 -4 202 37 31 26 75 37 132 32 l40 -3 -37 -37 -36 -38 61 1
c34 1 109 5 167 10 58 4 159 11 225 13 103 4 225 22 173 25 -30 2 -20 21 11
21 16 0 31 6 34 14 9 23 105 47 129 33 15 -10 21 -9 28 3 8 12 10 12 10 -5 0
-15 2 -17 9 -6 6 8 16 11 31 6 15 -5 25 -2 31 6 7 11 9 11 9 1 0 -10 8 -8 28
6 15 10 40 22 56 26 17 4 45 21 64 37 19 17 40 28 48 25 15 -6 71 55 79 87 6
24 61 61 76 51 14 -8 51 81 44 108 -11 43 20 94 72 119 26 13 50 24 53 24 3 0
15 8 28 17 25 17 22 22 -20 32 -16 3 -28 11 -28 16 0 16 19 21 39 10 19 -9 57
-16 108 -19 12 0 28 -7 36 -15 13 -14 50 -19 111 -17 23 1 26 4 17 15 -6 7
-25 16 -41 20 -18 3 -30 12 -30 21 0 9 6 15 13 13 6 -2 61 22 120 52 86 44
113 62 134 95 14 22 35 53 46 69 25 36 14 63 -43 102 -23 16 -70 52 -104 80
-34 28 -85 66 -114 84 -28 17 -52 38 -52 45 0 8 13 24 29 37 23 19 31 37 43
100 11 51 25 88 43 112 l28 37 24 -23 c14 -13 39 -45 56 -71 27 -42 35 -48 61
-45 25 2 32 8 34 28 2 19 -11 39 -51 80 -58 60 -186 171 -265 229 -49 36 -76
78 -88 138 -5 23 -10 30 -22 26 -8 -4 -13 -2 -10 3 7 12 -11 28 -37 32 -37 7
-53 30 -45 65 9 40 3 57 -19 57 -23 0 -53 33 -84 93 -14 26 -48 73 -76 105
-54 61 -60 77 -36 108 8 10 14 26 15 34 0 12 -2 13 -9 1 -7 -11 -13 -9 -30 8
-11 11 -30 21 -41 21 -11 0 -20 7 -20 15 0 8 -21 28 -47 46 -27 18 -58 41 -70
52 -17 15 -30 18 -60 12 -31 -5 -44 -2 -65 14 -14 12 -39 21 -55 21 -40 0 -53
17 -53 67 0 57 -26 83 -80 81 -25 -1 -47 5 -59 16 -18 16 -19 15 -24 -13 -4
-17 -17 -37 -31 -46 -22 -15 -27 -15 -54 -1 -36 19 -72 62 -72 86 0 10 -7 23
-15 30 -11 9 -22 6 -57 -17 -24 -16 -44 -38 -46 -49 -3 -19 -17 -27 -91 -52
-28 -10 -39 -9 -57 3 -29 19 -40 68 -21 95 11 15 11 30 3 70 -9 44 -7 56 12
95 23 48 28 90 12 100 -5 3 -10 1 -10 -5 0 -6 -5 -8 -10 -5 -6 4 -7 11 -3 18
3 6 6 40 5 76 -2 75 10 76 18 1 3 -23 29 93 50 217 12 76 25 121 38 138 12 14
23 40 27 58 10 51 26 85 42 91 9 4 13 13 9 22 -5 14 -4 15 8 5 17 -14 46 10
46 38 0 27 39 111 51 111 6 0 17 -7 25 -15 23 -23 69 -19 87 8 14 19 16 20 16
4 1 -20 25 -18 100 7 58 19 71 76 17 76 -14 0 -41 13 -59 30 -19 16 -43 30
-54 30 -22 0 -53 -29 -53 -51 0 -8 -9 -1 -19 15 -15 23 -17 34 -10 49 6 10 21
60 34 110 35 140 43 154 118 200 21 14 27 25 27 53 0 19 6 45 14 57 28 45 49
239 43 387 l-7 138 31 57 c17 31 28 63 25 71 -3 8 1 14 8 14 17 0 42 61 51
125 4 28 11 67 16 87 8 31 5 52 -21 127 -16 49 -30 102 -30 116 0 14 -7 49
-16 76 -14 42 -15 55 -4 77 33 70 71 242 61 277 -1 6 1 7 5 3 16 -17 31 25 22
61 -5 20 -12 47 -15 61 -3 14 -9 30 -13 35 -4 6 -10 22 -14 38 -3 15 -11 27
-17 27 -6 0 -8 9 -4 19 3 11 1 22 -5 26 -5 3 -10 15 -10 25 0 10 -4 20 -10 22
-5 2 -6 17 -1 39 4 20 4 64 0 98 -6 39 -5 69 1 81 17 31 11 67 -14 97 -20 24
-24 39 -24 103 0 57 -5 85 -20 115 -57 109 -72 142 -72 160 0 11 -5 27 -10 35
-8 11 -9 7 -5 -15 l6 -30 -19 35 c-13 23 -18 46 -15 66 3 18 0 34 -6 38 -6 4
-11 2 -11 -4 0 -6 -8 -10 -17 -8 -9 2 -15 6 -12 9 2 3 -2 13 -10 22 -10 13
-11 17 -1 17 9 0 7 7 -5 20 -10 11 -24 20 -31 20 -7 0 -16 5 -20 12 -5 8 0 9
16 5 16 -4 23 -1 27 13 3 10 10 17 17 14 7 -3 20 4 30 15 17 19 17 19 -1 16
-10 -1 -17 -8 -15 -14 4 -20 -16 -12 -36 14 -12 15 -18 34 -15 46 7 24 48 54
62 45 17 -11 -8 57 -29 78 -26 27 -45 9 -44 -43 1 -36 0 -38 -42 -49 -24 -7
-44 -16 -44 -22 0 -23 -29 -8 -39 21 -9 26 -8 35 10 57 18 24 20 35 13 117 -7
97 -20 132 -58 162 -32 25 -36 84 -12 184 15 65 16 86 6 140 -9 51 -42 129
-54 129 -1 0 -3 -21 -3 -47 -1 -27 -10 -68 -21 -93 -25 -58 -78 -125 -85 -108
-3 7 -6 2 -6 -11 -1 -16 -5 -21 -16 -17 -8 3 -15 1 -15 -4 0 -5 -16 -17 -35
-26 -19 -9 -35 -20 -35 -25 0 -5 -11 -9 -25 -9 -14 0 -25 5 -25 11 0 6 -9 4
-21 -5 -17 -11 -24 -12 -34 -3 -16 14 -1 37 24 37 14 0 14 2 1 10 -12 8 -10
10 10 11 71 3 75 4 74 21 -1 10 7 20 17 23 11 4 20 14 20 23 4 45 8 60 27 102
23 51 40 125 23 100 -9 -13 -11 -13 -11 3 0 9 6 17 13 17 6 0 13 14 14 31 2
24 -2 32 -17 36 -11 3 -20 9 -20 14 0 5 -8 9 -19 9 -32 0 -37 84 -15 229 5 29
3 33 -8 23 -10 -7 -18 -8 -24 -2 -11 11 -54 -22 -54 -40 0 -6 -16 -10 -36 -10
-31 0 -36 3 -31 20 3 11 1 20 -3 20 -16 0 -16 35 0 47 12 11 13 14 1 22 -16
10 -19 174 -6 324 6 76 5 87 -9 87 -13 0 -16 -13 -17 -67z m163 -606 c3 -78 2
-93 -8 -76 -6 12 -9 30 -6 41 2 10 -1 25 -7 32 -13 15 -71 19 -71 5 0 -4 -12
-4 -27 0 -16 4 -40 4 -55 0 -30 -8 -39 6 -10 15 18 6 52 58 52 81 0 9 17 13
56 14 31 0 59 3 63 7 8 8 9 -4 13 -119z m-282 -197 c0 -5 -5 -10 -11 -10 -5 0
-7 5 -4 10 3 6 8 10 11 10 2 0 4 -4 4 -10z m-36 -30 c-24 -9 -37 -53 -21 -69
6 -6 19 -11 28 -11 25 0 32 -15 14 -30 -8 -7 -13 -16 -10 -20 2 -4 -2 -16 -10
-26 -8 -10 -15 -14 -15 -7 0 6 5 15 10 18 6 4 8 11 4 16 -3 5 -10 7 -15 4 -13
-9 -11 9 4 24 10 11 9 12 -2 6 -18 -10 -31 12 -31 52 0 32 20 53 50 52 9 0 6
-4 -6 -9z m6 -40 c0 -5 -4 -10 -10 -10 -5 0 -10 5 -10 10 0 6 5 10 10 10 6 0
10 -4 10 -10z m227 -54 c-16 -12 -16 -17 -5 -35 7 -12 20 -21 28 -21 13 0 13
-2 1 -9 -8 -5 -20 -7 -28 -4 -7 3 -13 -2 -13 -11 0 -16 -12 -21 -23 -9 -4 3 0
15 9 25 13 14 14 21 5 32 -10 12 -10 18 1 30 7 8 20 15 28 15 12 0 11 -3 -3
-13z m53 7 c-1 -20 -19 -35 -35 -29 -14 5 -15 9 -5 21 13 16 40 21 40 8z
m-486 -112 c-11 -18 -27 -31 -38 -31 -17 0 -15 5 14 35 39 41 49 39 24 -4z
m280 14 c15 -12 17 -18 8 -27 -9 -9 -16 -7 -32 7 -32 29 -11 47 24 20z m-87
-61 c-9 -10 -38 16 -31 28 4 6 13 4 22 -6 9 -8 13 -19 9 -22z m-32 -26 c18 -2
35 3 43 12 10 13 14 12 32 -8 14 -17 31 -24 62 -25 35 -2 44 -6 46 -22 3 -21
-41 -55 -72 -55 -9 0 -16 -5 -16 -11 0 -6 -9 -8 -21 -4 -15 5 -19 4 -15 -4 5
-7 -2 -11 -18 -11 -14 0 -28 -5 -32 -11 -3 -6 -14 -9 -23 -6 -9 2 -22 -2 -29
-10 -7 -7 -21 -13 -31 -13 -11 0 -21 -7 -25 -15 -3 -10 1 -15 14 -15 10 0 22
-5 26 -11 4 -8 0 -9 -15 -4 -22 7 -30 -10 -8 -18 6 -3 2 -6 -11 -6 -13 -1 -31
3 -40 7 -11 6 -26 3 -42 -5 l-25 -15 28 6 c17 4 27 2 27 -5 0 -7 3 -10 6 -6 8
7 65 -13 60 -21 -2 -4 15 -5 39 -4 32 3 45 9 52 25 l10 21 5 -22 c4 -15 2 -22
-8 -22 -16 0 -19 -26 -5 -35 6 -3 27 -1 49 3 23 6 46 6 56 0 12 -7 16 -5 16 7
0 17 18 19 40 4 13 -9 12 -10 -2 -5 -22 7 -23 -7 -4 -23 12 -10 19 -8 36 9 11
11 25 18 30 15 6 -3 7 1 4 9 -4 11 0 16 14 16 35 0 34 -18 -3 -46 -22 -17 -32
-30 -25 -34 7 -5 6 -11 -5 -20 -15 -12 -18 -12 -26 3 -6 9 -19 17 -30 17 -11
0 -17 5 -14 10 9 15 -3 12 -36 -7 -27 -16 -29 -16 -43 2 -12 17 -25 19 -82 18
-39 -1 -70 -7 -72 -13 -3 -8 -8 -8 -17 0 -8 7 -21 7 -36 1 -26 -10 -61 -22
-69 -23 -3 0 -14 -4 -26 -8 -37 -14 -154 52 -154 87 0 17 41 33 84 33 22 0 33
5 33 15 0 8 -7 15 -16 15 -11 0 -10 3 5 15 16 12 17 16 4 24 -12 8 -9 12 12
20 14 5 29 14 32 20 4 6 33 27 64 48 66 43 82 58 82 72 0 17 20 23 35 11 9 -8
15 -8 15 -2 0 6 -5 12 -12 14 -7 3 -8 10 -4 17 6 8 11 9 15 3 3 -6 20 -12 36
-14z m428 -356 c-7 -27 -19 -28 -33 -2 -7 14 -7 20 0 20 5 0 10 -6 10 -12 0
-7 5 -5 11 5 14 23 20 18 12 -11z m142 6 c14 -6 25 -16 25 -21 0 -5 -6 -4 -14
2 -8 6 -19 10 -26 9 -7 -2 -15 3 -17 10 -6 15 -1 15 32 0z m-407 -36 c2 -7 -2
-10 -12 -6 -9 3 -16 11 -16 16 0 13 23 5 28 -10z m222 8 c0 -5 -4 -10 -10 -10
-5 0 -10 5 -10 10 0 6 5 10 10 10 6 0 10 -4 10 -10z m433 3 c-7 -2 -19 -2 -25
0 -7 3 -2 5 12 5 14 0 19 -2 13 -5z m-733 -48 c75 -15 175 -65 130 -65 -5 0
-10 -10 -10 -22 0 -22 -4 -23 -73 -22 -78 1 -173 18 -192 34 -6 5 -14 8 -17 5
-7 -8 -70 16 -97 37 -17 13 -27 15 -31 7 -5 -7 -10 -5 -14 7 -4 9 -3 21 2 26
26 26 157 23 302 -7z m124 -16 c-6 -11 -31 -12 -37 -1 -3 4 6 8 19 8 13 1 21
-2 18 -7z m132 -86 c-4 -4 -11 -1 -16 7 -16 25 -11 35 7 17 9 -9 13 -20 9 -24z
m-651 -57 c22 -10 61 -31 87 -48 26 -16 52 -27 58 -23 5 3 10 -1 10 -9 0 -9 5
-16 10 -16 6 0 10 6 10 14 0 10 11 12 48 8 26 -2 48 -6 49 -7 2 -1 -4 -10 -12
-21 -10 -13 -17 -15 -22 -8 -11 15 -53 28 -53 16 0 -6 43 -31 96 -57 77 -38
100 -45 117 -38 21 10 21 11 -11 27 -17 9 -32 13 -32 9 0 -4 -5 -2 -12 5 -9 9
-8 15 7 26 22 16 67 5 101 -25 11 -11 25 -19 31 -19 7 0 20 -11 31 -24 14 -19
22 -22 31 -13 8 8 11 8 11 0 0 -7 -4 -14 -8 -17 -5 -3 -8 -15 -6 -28 1 -13 3
-29 3 -37 1 -11 4 -11 16 -1 12 10 15 10 15 0 0 -9 10 -10 35 -6 27 5 37 3 41
-9 3 -8 12 -15 20 -15 23 0 16 -14 -19 -38 -31 -21 -36 -21 -78 -9 -38 12 -47
12 -58 0 -10 -11 -16 -12 -25 -3 -8 8 -7 13 4 21 12 8 11 10 -5 8 -24 -3 -73
8 -97 21 -9 5 -48 17 -87 25 -38 9 -94 31 -125 50 -31 19 -65 36 -75 40 -11 3
-36 19 -57 36 -21 16 -44 27 -51 24 -8 -3 -11 0 -7 6 3 6 -8 23 -25 38 -40 36
-68 100 -49 112 7 5 9 9 5 9 -5 0 -5 5 -2 11 5 7 12 6 23 -3 10 -8 35 -22 57
-32z m730 4 c-3 -5 -11 -10 -16 -10 -6 0 -7 5 -4 10 3 6 11 10 16 10 6 0 7 -4
4 -10z m-59 -55 c-15 -32 -25 -19 -19 24 5 30 7 32 18 17 10 -13 10 -22 1 -41z
m-804 10 c4 -5 8 -17 8 -25 -1 -11 -4 -10 -15 4 -13 17 -15 17 -15 4 0 -9 9
-20 20 -23 15 -5 19 -12 15 -26 -4 -13 -2 -19 9 -19 10 0 16 -9 16 -25 0 -14
-5 -25 -11 -25 -18 0 12 -31 40 -41 16 -7 27 -6 31 1 7 11 73 -46 98 -85 7
-11 10 -13 7 -5 -4 8 3 4 14 -9 12 -12 18 -27 15 -32 -3 -5 2 -6 10 -3 10 4
16 1 16 -8 0 -8 9 -23 20 -33 11 -10 20 -24 20 -32 0 -7 5 -13 10 -13 12 0 5
-53 -11 -81 -5 -11 -16 -19 -25 -19 -8 0 -26 -7 -39 -16 -17 -11 -25 -13 -25
-4 0 6 8 14 19 17 10 2 24 16 30 29 13 29 1 32 -17 4 -7 -11 -17 -20 -23 -20
-6 0 -8 9 -4 20 3 11 2 20 -3 20 -12 0 -142 154 -142 168 0 6 -13 24 -29 40
-20 20 -27 33 -21 43 6 9 2 20 -11 32 -16 15 -18 22 -8 33 10 12 9 13 -4 8
-12 -4 -20 2 -28 22 -12 30 -20 113 -12 127 5 8 31 -8 45 -28z m1156 -50 l31
-16 -39 -39 c-22 -22 -42 -40 -44 -40 -4 0 3 77 10 98 4 15 5 15 42 -3z m-705
-26 c-6 -6 -17 -8 -24 -3 -9 5 -8 9 7 14 23 9 31 3 17 -11z m-373 -9 c0 -13
-5 -18 -15 -14 -16 7 -19 17 -8 27 12 13 23 7 23 -13z m646 1 c21 -11 42 -17
47 -14 4 2 14 -1 22 -7 8 -7 15 -9 15 -4 0 5 7 -2 16 -14 9 -13 33 -34 55 -47
26 -17 37 -30 32 -41 -3 -8 -12 -13 -21 -9 -8 3 -21 0 -28 -6 -16 -13 -19 -33
-4 -24 14 9 13 -8 -2 -23 -13 -13 5 -42 26 -42 7 0 6 3 -2 9 -10 6 -10 10 2
20 22 18 29 -4 8 -29 -11 -13 -23 -19 -34 -15 -21 8 -30 45 -16 62 7 9 7 13
-1 13 -7 0 -8 8 -1 26 9 21 8 25 -4 21 -8 -3 -16 -3 -18 1 -6 14 -66 52 -71
45 -2 -5 -3 -3 -1 3 2 12 -34 48 -58 57 -18 6 -26 37 -10 37 5 0 26 -9 48 -19z
m-656 -61 c0 -5 -2 -10 -4 -10 -3 0 -8 5 -11 10 -3 6 -1 10 4 10 6 0 11 -4 11
-10z m1141 -42 c10 -13 18 -30 19 -39 1 -48 -80 -165 -106 -155 -8 3 -15 1
-15 -4 -1 -6 -2 -14 -3 -19 -2 -16 -14 -23 -48 -26 -55 -6 -92 -17 -117 -36
-31 -24 -46 -24 -48 1 -1 11 2 20 8 20 5 0 9 -4 9 -10 0 -5 7 -10 16 -10 14 0
14 3 4 16 -22 26 -50 37 -64 25 -7 -6 -16 -8 -20 -4 -4 4 -4 -1 0 -11 5 -14 4
-17 -5 -11 -8 4 -16 3 -20 -4 -12 -19 -144 -29 -165 -12 -6 5 -25 9 -43 9 -17
0 -41 5 -52 11 -11 6 -56 11 -100 11 -64 0 -81 3 -81 14 0 15 18 24 67 32 16
3 35 7 44 10 9 2 57 7 105 9 49 2 105 7 125 10 43 7 60 -9 33 -30 -27 -21 -10
-18 30 4 19 11 37 17 41 13 4 -4 4 3 1 16 -10 30 2 28 30 -5 22 -26 24 -26 42
-10 11 10 26 15 36 11 9 -3 16 -2 16 4 0 6 -6 12 -12 15 -7 2 -10 8 -6 12 4 4
14 2 23 -5 12 -10 15 -10 15 4 0 9 -5 16 -12 16 -6 0 -9 2 -6 5 8 9 38 -6 32
-16 -3 -5 -2 -9 3 -9 13 0 100 83 112 108 7 12 18 22 25 22 8 0 16 9 19 20 7
27 44 26 68 -2z m-881 -58 c0 -5 -2 -10 -4 -10 -3 0 -8 5 -11 10 -3 6 -1 10 4
10 6 0 11 -4 11 -10z m1025 -101 c-4 -12 0 -16 15 -15 25 1 68 -58 50 -69 -7
-4 -14 2 -17 14 -3 11 -9 19 -13 16 -4 -3 -19 4 -33 15 -14 11 -29 20 -34 20
-5 0 -8 13 -5 29 4 26 6 28 23 18 11 -7 17 -19 14 -28z m-1252 -43 c9 -7 17
-19 17 -25 0 -7 5 -9 10 -6 6 3 10 -3 10 -14 0 -20 -19 -20 -46 0 -6 5 -14 6
-18 2 -13 -13 -25 20 -15 39 11 21 18 22 42 4z m67 -70 c0 -3 -4 -8 -10 -11
-5 -3 -10 -1 -10 4 0 6 5 11 10 11 6 0 10 -2 10 -4z m710 0 c0 -3 -4 -8 -10
-11 -5 -3 -10 -1 -10 4 0 6 5 11 10 11 6 0 10 -2 10 -4z m-696 -23 c-6 -2 -8
-17 -6 -33 3 -23 0 -30 -12 -30 -19 0 -21 21 -4 38 7 7 8 12 4 12 -5 0 -3 7 4
15 7 9 16 13 19 9 3 -4 1 -8 -5 -11z m179 -8 c-5 -13 -23 -22 -23 -11 0 15 14
35 21 31 4 -3 6 -12 2 -20z m630 10 c-3 -9 -8 -14 -10 -11 -3 3 -2 9 2 15 9
16 15 13 8 -4z m-456 -15 c1 -11 -2 -20 -8 -20 -10 0 -12 23 -2 33 9 9 9 10
10 -13z m-451 -4 c3 -8 16 -17 30 -20 29 -8 31 -22 4 -29 -11 -3 -18 -1 -14 4
3 5 -6 9 -20 9 -21 0 -26 5 -26 25 0 27 17 34 26 11z m454 -30 c0 -3 -4 -8
-10 -11 -5 -3 -10 -1 -10 4 0 6 5 11 10 11 6 0 10 -2 10 -4z m-170 -21 c-7 -8
-17 -12 -23 -8 -6 4 -3 9 9 14 27 11 28 11 14 -6z m920 5 c0 -5 -5 -10 -11
-10 -5 0 -7 5 -4 10 3 6 8 10 11 10 2 0 4 -4 4 -10z m-868 -30 c21 -20 31 -67
16 -76 -5 -3 2 -14 14 -25 18 -14 20 -20 10 -27 -11 -8 -11 -12 0 -23 19 -18
30 -49 18 -49 -5 0 -12 5 -15 10 -3 6 -11 10 -17 10 -7 0 -6 -6 2 -15 13 -15
5 -20 -26 -16 -8 1 -8 -13 -1 -49 6 -34 14 -49 22 -46 8 3 11 -2 8 -14 -6 -21
30 -45 53 -36 11 4 12 2 2 -14 -15 -24 4 -50 38 -50 13 0 24 -4 24 -10 0 -5
-5 -10 -11 -10 -5 0 -8 -4 -4 -9 3 -6 -2 -14 -11 -19 -11 -6 -13 -11 -5 -16 6
-4 11 -12 11 -19 0 -8 -3 -8 -12 1 -18 18 -28 15 -28 -8 0 -11 -6 -20 -14 -20
-10 0 -17 16 -22 46 -3 25 -13 48 -21 51 -8 3 -12 11 -10 18 7 17 -18 105 -47
167 -14 30 -26 61 -26 69 0 8 -7 23 -15 33 -8 11 -15 29 -15 41 0 12 -4 25 -9
31 -14 14 36 67 56 60 12 -5 14 -2 10 14 -6 25 -2 25 25 0z m938 -34 c0 -5 -9
-1 -20 9 -11 10 -20 22 -20 26 0 5 9 1 20 -8 11 -10 20 -22 20 -27z m-883 28
c-3 -3 -12 -4 -19 -1 -8 3 -5 6 6 6 11 1 17 -2 13 -5z m936 -106 c12 -34 -19
-8 -36 29 l-16 37 22 -24 c13 -14 26 -33 30 -42z m-1173 38 c0 -3 -4 -8 -10
-11 -5 -3 -10 -1 -10 4 0 6 5 11 10 11 6 0 10 -2 10 -4z m50 -20 c0 -9 -30
-14 -35 -6 -4 6 3 10 14 10 12 0 21 -2 21 -4z m410 -6 c0 -5 -4 -10 -10 -10
-5 0 -10 5 -10 10 0 6 5 10 10 10 6 0 10 -4 10 -10z m330 -58 c0 -10 -8 -7
-26 11 -14 14 -23 31 -19 37 8 13 45 -26 45 -48z m-310 17 c7 -11 9 -23 6 -26
-8 -9 -36 17 -36 33 0 21 18 17 30 -7z m-600 -33 c0 -8 -4 -17 -9 -21 -12 -7
-24 12 -16 25 9 15 25 12 25 -4z m610 -26 c0 -13 7 -20 20 -20 21 0 27 -24 9
-35 -6 -4 -8 -14 -5 -22 3 -8 1 -11 -5 -8 -21 13 -47 105 -30 105 6 0 11 -9
11 -20z m385 -10 c16 -18 16 -20 2 -20 -10 0 -17 5 -17 10 0 6 -7 10 -15 10
-8 0 -15 5 -15 10 0 17 26 11 45 -10z m-562 -51 c4 -3 -2 -17 -13 -30 l-21
-24 5 31 c3 17 0 36 -6 42 -5 5 -7 16 -2 23 5 9 10 6 18 -12 6 -13 14 -27 19
-30z m-193 12 c0 -24 -4 -28 -27 -28 -16 0 -22 2 -15 4 6 3 12 10 12 17 0 11
19 36 27 36 2 0 3 -13 3 -29z m97 -13 c-3 -8 -6 -5 -6 6 -1 11 2 17 5 13 3 -3
4 -12 1 -19z m683 18 c0 -2 -7 -7 -16 -10 -8 -3 -12 -2 -9 4 6 10 25 14 25 6z
m48 -48 c-3 -15 -3 -28 -2 -28 1 0 9 -3 18 -6 13 -5 14 -1 6 25 -5 19 -5 31 1
31 5 0 10 -4 10 -10 1 -5 2 -14 3 -20 0 -5 11 -17 24 -25 22 -16 30 -45 12
-45 -5 0 -14 8 -19 18 -6 9 -11 12 -11 6 0 -7 -11 -9 -25 -6 -14 2 -23 8 -20
12 3 5 -3 11 -14 15 -22 7 -37 35 -18 35 8 0 6 4 -3 10 -10 6 -11 10 -2 10 6
0 12 7 12 16 0 14 2 14 16 3 10 -8 14 -23 12 -41z m-218 -49 c10 -36 9 -43 -7
-55 -16 -12 -20 -11 -35 7 -10 12 -15 25 -12 30 3 5 0 9 -5 9 -6 0 -11 11 -11
25 0 21 5 25 30 25 26 0 30 -5 40 -41z m-143 10 c1 -12 1 -20 0 -18 -2 2 -9
12 -16 22 -11 14 -11 17 1 17 7 0 14 -10 15 -21z m13 -31 c0 7 5 10 10 7 7 -4
7 -13 0 -24 -7 -13 -5 -23 8 -37 20 -22 45 -72 48 -95 3 -39 15 -69 24 -64 6
3 10 -5 10 -19 0 -13 -6 -27 -12 -29 -9 -4 -7 -6 3 -6 19 -1 21 -31 2 -31 -7
0 -13 -4 -13 -10 0 -5 6 -10 14 -10 17 0 26 -34 20 -75 -15 -105 -15 -138 0
-132 25 10 19 -17 -9 -43 -13 -12 -22 -26 -20 -31 3 -4 -1 -9 -7 -12 -9 -3 -5
-11 11 -26 13 -11 28 -21 33 -21 4 0 8 -7 8 -15 0 -8 -5 -15 -11 -15 -5 0 -7
-5 -4 -11 5 -7 15 -3 30 11 21 19 23 20 36 3 12 -15 12 -16 -3 -10 -14 5 -18
1 -18 -18 0 -14 -5 -25 -10 -25 -6 0 -15 -10 -20 -22 -5 -13 -9 -17 -9 -10 -1
6 -6 12 -12 12 -7 0 -6 -8 3 -22 8 -13 19 -41 23 -63 7 -35 9 -37 14 -16 4 13
15 25 25 27 20 3 36 21 36 42 0 6 4 12 10 12 5 0 8 29 7 66 -2 49 -7 68 -19
75 -11 6 -15 19 -13 37 1 15 -5 35 -13 45 -12 14 -17 39 -17 93 0 41 -3 74 -7
74 -13 0 -9 45 5 64 8 11 20 17 27 14 25 -8 102 -345 103 -448 0 -31 -23 -168
-33 -194 -5 -15 -10 -37 -10 -49 0 -41 -80 -218 -128 -282 -34 -46 -60 -70
-95 -86 -27 -13 -52 -30 -57 -39 -8 -13 -9 -13 -10 0 0 8 -9 21 -20 28 -12 7
-25 23 -30 35 -7 17 -9 18 -9 5 -1 -10 -6 -18 -12 -18 -5 0 -8 -4 -5 -9 3 -4
-1 -16 -8 -26 -13 -18 -14 -18 -20 3 -8 26 -1 42 20 42 8 0 14 6 14 14 0 9 12
16 33 18 28 3 32 7 32 31 -1 18 4 27 16 27 13 0 22 12 47 63 2 4 -5 7 -15 8
-12 0 -9 4 10 11 15 5 27 14 27 20 0 6 -6 5 -15 -2 -12 -10 -19 -10 -27 -2 -7
7 -8 12 -2 12 5 0 10 54 11 125 1 117 32 338 52 376 5 8 5 23 0 32 -6 11 -5
24 3 38 10 17 10 23 0 26 -6 3 -10 9 -6 14 3 5 0 9 -5 9 -11 0 -51 36 -51 45
0 3 7 5 15 5 13 0 15 8 10 43 -4 23 -8 58 -8 77 -1 19 -5 37 -8 40 -4 3 -9 39
-12 81 -3 41 -11 88 -18 105 -7 16 -11 35 -10 42 1 8 -5 24 -13 37 -18 28 -20
39 -6 30 6 -3 10 -2 10 4 0 5 -5 13 -10 16 -8 5 -7 11 1 21 9 11 14 10 30 -9
11 -13 18 -17 19 -9z m690 -52 c0 -11 -19 -15 -25 -6 -3 5 1 10 9 10 9 0 16
-2 16 -4z m-1076 -105 c-3 -3 -12 3 -21 12 -13 12 -14 17 -4 17 8 0 11 6 7 16
-3 9 -3 21 1 27 4 7 10 -5 14 -28 4 -22 5 -42 3 -44z m533 47 c-3 -7 -5 -2 -5
12 0 14 2 19 5 13 2 -7 2 -19 0 -25z m-317 -17 c0 -6 -4 -13 -10 -16 -5 -3
-10 1 -10 9 0 9 5 16 10 16 6 0 10 -4 10 -9z m325 -43 c-4 -33 -4 -34 -19 -12
-13 17 -13 20 2 26 9 4 18 7 18 7 1 1 0 -9 -1 -21z m-302 -10 c3 -12 1 -29 -4
-37 -8 -13 -9 -12 -6 6 3 13 1 26 -4 29 -12 7 -12 24 0 24 5 0 11 -10 14 -22z
m-163 -8 c0 -5 -4 -10 -10 -10 -5 0 -10 5 -10 10 0 6 5 10 10 10 6 0 10 -4 10
-10z m-83 -22 c-3 -8 -6 -5 -6 6 -1 11 2 17 5 13 3 -3 4 -12 1 -19z m170 -20
c-3 -8 -6 -5 -6 6 -1 11 2 17 5 13 3 -3 4 -12 1 -19z m-90 -10 c-3 -8 -6 -5
-6 6 -1 11 2 17 5 13 3 -3 4 -12 1 -19z m498 12 c3 -5 1 -10 -4 -10 -6 0 -11
5 -11 10 0 6 2 10 4 10 3 0 8 -4 11 -10z m-265 -80 c3 -3 6 -14 6 -25 1 -11 3
-24 5 -30 2 -5 0 -10 -6 -10 -5 0 -9 5 -7 11 1 7 -5 14 -13 18 -23 9 -38 55
-23 73 11 13 14 12 22 -8 6 -13 13 -26 16 -29z m780 36 c0 -3 -4 -8 -10 -11
-5 -3 -10 -1 -10 4 0 6 5 11 10 11 6 0 10 -2 10 -4z m-1046 -31 c19 -14 19
-15 -6 -15 -27 0 -43 12 -31 24 9 9 16 7 37 -9z m66 -13 c0 -13 -36 -43 -43
-36 -10 10 12 44 28 44 8 0 15 -4 15 -8z m955 -104 c-15 -22 -22 -37 -16 -34
6 4 11 2 11 -3 0 -6 -6 -11 -14 -11 -8 0 -17 -6 -19 -12 -3 -8 -6 -5 -6 5 -1
10 -5 16 -10 12 -5 -3 -12 -1 -16 5 -3 5 -2 10 2 10 5 0 14 9 21 21 8 12 9 18
4 15 -5 -3 -12 3 -15 14 -3 11 -2 19 2 18 18 -2 44 4 34 9 -7 2 -13 9 -13 14
0 6 5 7 10 4 6 -3 10 -2 10 4 0 5 8 17 18 27 16 17 17 16 20 -20 2 -28 -4 -49
-23 -78z m-1007 27 c-13 -28 -31 -35 -21 -7 5 14 21 31 30 32 2 0 -3 -11 -9
-25z m-248 -7 c22 -7 42 -20 45 -28 2 -8 13 -55 24 -103 12 -49 33 -123 47
-165 14 -42 28 -87 30 -99 2 -12 9 -34 14 -48 6 -15 10 -37 10 -50 0 -13 4
-25 10 -27 13 -4 20 -68 7 -68 -5 0 -5 -5 2 -13 14 -17 4 -27 -26 -27 -13 0
-22 -4 -18 -9 5 -9 -23 -31 -39 -31 -5 0 -24 58 -25 80 -2 37 -14 80 -23 80
-5 0 -14 -13 -19 -29 -6 -16 -17 -32 -25 -35 -8 -3 -14 -12 -14 -21 0 -8 -3
-15 -7 -15 -5 0 -9 -11 -10 -25 -1 -14 -4 -35 -5 -48 -1 -17 -8 -23 -22 -22
-30 2 -45 88 -23 136 8 19 18 47 22 64 9 38 23 55 41 48 20 -7 18 7 -3 23 -17
12 -16 13 5 14 15 0 22 6 22 19 0 11 -4 22 -9 26 -6 3 -10 22 -10 43 0 20 -7
60 -15 87 -9 28 -16 60 -16 73 0 12 -6 25 -12 27 -14 6 -19 155 -5 155 4 0 25
-6 47 -12z m200 -18 c0 -5 -2 -10 -4 -10 -3 0 -8 5 -11 10 -3 6 -1 10 4 10 6
0 11 -4 11 -10z m85 -30 c3 -5 1 -10 -4 -10 -6 0 -11 5 -11 10 0 6 2 10 4 10
3 0 8 -4 11 -10z m-369 -47 c-10 -10 -19 5 -10 18 6 11 8 11 12 0 2 -7 1 -15
-2 -18z m298 6 c-2 -37 -34 -69 -34 -34 0 8 5 15 11 15 6 0 8 9 4 21 -5 16 -3
20 6 17 8 -3 14 -11 13 -19z m46 17 c0 -3 -4 -8 -10 -11 -5 -3 -10 -1 -10 4 0
6 5 11 10 11 6 0 10 -2 10 -4z m-100 -30 c0 -3 -4 -8 -10 -11 -5 -3 -10 -1
-10 4 0 6 5 11 10 11 6 0 10 -2 10 -4z m130 -27 c0 -5 -4 -9 -10 -9 -5 0 -10
7 -10 16 0 8 5 12 10 9 6 -3 10 -10 10 -16z m16 -31 c4 -5 -4 -8 -17 -6 -12 1
-24 8 -26 15 -5 14 34 6 43 -9z m-403 -70 c2 -38 1 -68 -3 -68 -5 0 -6 -19 -3
-41 6 -39 5 -41 -14 -31 -26 14 -36 83 -23 153 18 94 35 89 43 -13z m1308 50
c-10 -27 -31 -36 -31 -13 0 9 4 14 9 11 5 -3 11 1 15 9 3 8 8 15 10 15 3 0 2
-10 -3 -22z m-1036 2 c3 -5 -1 -10 -10 -10 -9 0 -13 5 -10 10 3 6 8 10 10 10
2 0 7 -4 10 -10z m745 -30 c0 -5 -2 -10 -4 -10 -3 0 -8 5 -11 10 -3 6 -1 10 4
10 6 0 11 -4 11 -10z m-755 -50 c-3 -5 -10 -10 -16 -10 -5 0 -9 5 -9 10 0 6 7
10 16 10 8 0 12 -4 9 -10z m105 -60 c-6 -11 -15 -20 -20 -20 -16 0 -11 18 8
29 24 14 24 14 12 -9z m906 -61 c27 -28 29 -37 33 -114 2 -56 -2 -94 -10 -115
-16 -34 -21 -36 -39 -15 -7 8 -16 12 -21 9 -5 -3 -9 0 -9 5 0 6 -10 11 -22 11
-13 0 -39 14 -58 30 -31 27 -33 31 -17 41 10 6 17 22 17 40 0 42 21 122 34
131 25 17 63 7 92 -23z m-870 -11 c9 -18 25 -42 35 -54 14 -15 18 -33 17 -70
-3 -64 11 -144 26 -144 6 0 3 -5 -6 -11 -10 -5 -18 -18 -18 -27 0 -9 -14 4
-30 30 -22 35 -28 55 -24 76 4 21 1 35 -13 48 -43 41 -71 130 -53 163 16 31
47 26 66 -11z m-412 -59 c3 -17 6 -39 6 -48 -1 -14 -2 -14 -9 -1 -15 25 -23
80 -13 80 5 0 12 -14 16 -31z m586 -164 c0 -8 -8 -23 -19 -34 -10 -10 -21 -25
-24 -32 -4 -11 -6 -10 -12 3 -5 12 2 27 22 47 33 35 33 35 33 16z m-218 -82
c-7 -12 -11 -10 -16 13 -4 16 -9 38 -12 49 -3 11 4 5 15 -13 15 -22 19 -38 13
-49z m-61 20 c-8 -15 -10 -15 -11 -2 0 17 10 32 18 25 2 -3 -1 -13 -7 -23z
m-35 -37 c8 -8 8 -13 -3 -21 -21 -16 -16 -96 7 -103 5 -2 10 -10 10 -18 0 -8
10 -14 21 -14 17 0 20 -4 16 -22 -3 -12 -2 -30 4 -40 7 -14 6 -20 -5 -24 -9
-3 -21 -21 -28 -40 -12 -33 -33 -42 -33 -13 0 8 -10 20 -22 27 -29 16 -29 27
-2 29 12 1 24 4 27 7 7 7 -18 126 -32 151 -17 30 -9 92 12 92 9 0 22 -5 28
-11z m57 0 c5 -12 -2 -14 -31 -7 -2 1 0 6 3 11 9 14 22 12 28 -4z m797 -36 c0
-10 8 -20 19 -23 12 -3 21 -18 26 -43 6 -34 4 -41 -21 -61 -15 -12 -35 -36
-43 -54 -30 -61 -41 -48 -37 43 6 129 15 167 37 161 11 -3 19 -13 19 -23z
m-70 -32 c0 -36 -4 -35 -14 5 -4 16 -2 27 4 27 5 0 10 -14 10 -32z m-483 -71
c-3 -23 -8 -31 -20 -29 -16 3 -22 -14 -19 -58 0 -8 -12 0 -28 19 -18 21 -28
44 -28 63 1 24 8 32 42 48 48 22 60 12 53 -43z m-670 31 c-3 -8 -6 -5 -6 6 -1
11 2 17 5 13 3 -3 4 -12 1 -19z m721 0 c-2 -6 -10 -14 -16 -16 -7 -2 -10 2 -6
12 7 18 28 22 22 4z m-470 -78 c7 -12 16 -19 21 -16 4 3 8 -7 7 -21 -2 -40
-19 -37 -38 6 -10 20 -18 41 -18 44 0 14 16 6 28 -13z m68 -24 c20 -21 17 -28
-6 -16 -11 6 -20 15 -20 20 0 14 9 12 26 -4z m203 -25 c17 -11 6 -31 -16 -31
-9 0 -14 -3 -10 -6 7 -7 -29 -44 -43 -44 -13 0 -13 13 2 47 19 42 38 52 67 34z
m-208 -68 c13 -16 12 -17 -3 -4 -10 7 -18 15 -18 17 0 8 8 3 21 -13z m980 -74
c1 -79 -31 -245 -51 -259 -13 -9 -40 -72 -34 -81 3 -5 0 -9 -5 -9 -6 0 -14 0
-18 0 -5 -1 -23 -15 -40 -32 -25 -24 -30 -35 -22 -45 8 -8 8 -17 2 -25 -5 -7
-23 -46 -39 -85 -16 -40 -32 -73 -36 -73 -10 0 -20 38 -13 50 3 5 1 19 -5 30
-8 15 -7 23 8 38 14 14 18 34 19 91 0 52 4 75 16 84 9 7 17 36 21 72 4 45 3
54 -4 36 -6 -13 -13 -21 -16 -18 -9 9 15 45 35 52 20 6 34 52 19 61 -5 3 -2
14 7 24 14 15 14 22 5 40 -7 12 -8 20 -2 16 5 -3 27 8 47 24 21 17 42 30 46
30 5 0 9 5 9 12 0 12 41 60 47 55 1 -2 3 -41 4 -88z m-864 58 c10 -22 9 -24
-23 -25 -22 -1 -32 2 -28 9 3 6 12 8 20 5 8 -3 14 -1 14 4 0 6 -4 10 -10 10
-5 0 -10 5 -10 10 0 19 27 10 37 -13z m215 -12 c0 -5 -5 -11 -11 -13 -6 -2
-11 4 -11 13 0 9 5 15 11 13 6 -2 11 -8 11 -13z m-274 -58 c4 1 9 -1 11 -3 2
-2 -3 -4 -12 -4 -8 0 -22 -3 -31 -6 -11 -4 -16 0 -16 13 0 29 13 36 28 16 7
-10 16 -17 20 -16z m80 12 c3 -8 10 -17 16 -21 14 -9 -19 -22 -39 -14 -8 3
-12 12 -9 20 3 9 -1 13 -12 13 -9 -1 -18 3 -20 8 -2 6 10 10 28 9 18 0 34 -7
36 -15z m32 1 c0 -5 -2 -10 -4 -10 -3 0 -8 5 -11 10 -3 6 -1 10 4 10 6 0 11
-4 11 -10z m296 -5 c-3 -8 -1 -15 3 -15 13 0 21 -27 14 -45 -6 -18 -58 -47
-66 -38 -4 3 -14 0 -24 -8 -15 -13 -16 -12 -9 6 5 11 13 40 18 64 7 30 13 39
19 30 6 -11 9 -10 15 4 3 9 13 17 21 17 9 0 13 -6 9 -15z m-506 -55 c34 -35
33 -31 20 -65 -12 -32 -30 -24 -30 14 0 16 -7 34 -15 41 -14 12 -21 40 -10 40
3 0 19 -14 35 -30z m168 -1 c-13 -9 -51 4 -55 18 -3 7 8 7 31 -1 20 -6 30 -14
24 -17z m576 -59 c-10 -4 -21 -6 -24 -3 -8 7 24 22 34 16 5 -4 1 -10 -10 -13z
m106 -10 c0 -5 -5 -10 -11 -10 -5 0 -7 5 -4 10 3 6 8 10 11 10 2 0 4 -4 4 -10z
m-420 -50 c0 -5 -9 -10 -21 -10 -11 0 -17 5 -14 10 3 6 13 10 21 10 8 0 14 -4
14 -10z m260 -11 c0 -5 -4 -7 -10 -4 -5 3 -10 2 -10 -3 0 -11 -49 -26 -57 -18
-6 6 47 35 65 36 6 0 12 -5 12 -11z m-94 -35 c-4 -22 -2 -33 4 -29 6 4 8 -6 6
-24 -2 -17 -2 -31 -1 -31 1 0 15 18 30 40 27 38 57 51 70 30 3 -5 -3 -10 -13
-10 -11 0 -22 -7 -26 -15 -4 -10 1 -15 14 -15 27 0 25 -18 -5 -46 -33 -30 -32
-41 7 -49 26 -6 28 -9 15 -17 -9 -5 -17 -15 -17 -22 0 -18 -47 -113 -60 -121
-7 -4 -5 5 3 21 8 16 17 38 19 49 1 11 10 25 18 32 10 9 11 12 2 13 -6 0 -29
-17 -50 -38 -20 -20 -54 -49 -75 -62 -20 -14 -35 -31 -32 -37 2 -7 -3 -13 -13
-14 -11 -1 -9 -3 6 -8 l24 -6 -26 -28 c-54 -58 -65 -104 -51 -204 3 -26 1 -33
-13 -33 -14 0 -17 -11 -19 -66 -1 -37 -7 -72 -12 -77 -18 -18 -12 -37 10 -37
13 0 18 -4 13 -12 -9 -14 -12 -30 -18 -93 -3 -22 -10 -74 -16 -115 -6 -41 -9
-87 -6 -102 3 -15 1 -28 -4 -28 -6 0 -10 -5 -10 -11 0 -5 5 -7 10 -4 13 8 42
-20 39 -37 -1 -7 -1 -26 0 -43 1 -23 4 -26 11 -15 16 25 23 -15 16 -88 -10
-104 -17 -135 -28 -124 -6 6 -6 29 1 63 9 43 8 62 -4 94 -8 22 -14 33 -15 25
0 -16 -34 -50 -49 -50 -30 0 -62 194 -59 359 2 66 6 121 9 121 12 0 17 50 5
50 -7 0 -6 4 2 9 12 7 18 40 21 109 1 14 7 22 19 22 15 1 15 2 2 13 -8 7 -15
17 -16 22 0 6 -4 29 -8 52 -7 33 -14 43 -33 48 -25 6 -25 6 -5 23 11 10 30 47
42 82 12 35 30 75 41 88 17 22 19 42 19 184 0 123 3 159 13 155 6 -2 12 -14
11 -26 0 -11 5 -21 13 -21 7 0 13 5 13 11 0 6 7 3 16 -5 8 -9 22 -16 30 -16
15 0 17 -15 8 -72 -5 -26 -10 -35 -20 -31 -11 4 -14 -3 -12 -26 1 -17 4 -31 6
-31 2 0 30 27 63 60 61 62 65 73 49 129 -6 22 -6 40 1 52 15 29 21 23 15 -17z
m-496 -26 c0 -5 -7 -3 -15 6 -8 8 -15 18 -15 22 0 3 7 1 15 -6 8 -7 15 -17 15
-22z m630 -28 c6 -11 7 -20 2 -20 -6 0 -12 9 -15 20 -3 11 -3 20 -1 20 2 0 8
-9 14 -20z m-630 -46 c0 -8 -4 -14 -10 -14 -5 0 -10 9 -10 21 0 11 5 17 10 14
6 -3 10 -13 10 -21z m650 -2 c0 -4 -10 -13 -22 -21 -23 -14 -23 -14 -4 8 20
22 26 25 26 13z m-626 -69 c-2 -46 -15 -83 -29 -83 -15 0 -18 66 -4 93 15 26
34 20 33 -10z m186 -38 c6 -8 10 -22 8 -32 -3 -14 -8 -11 -21 15 -18 32 -9 44
13 17z m-113 -99 c-5 -14 10 -36 25 -36 4 0 8 7 8 15 0 8 6 15 14 15 18 0 31
-39 18 -52 -14 -14 -69 -13 -87 2 -17 14 -21 35 -5 25 6 -4 10 5 10 19 0 14 5
26 11 26 6 0 9 -6 6 -14z m353 -203 c0 -27 -4 -43 -9 -37 -11 12 -22 70 -14
78 16 15 23 2 23 -41z m-379 -26 c34 -23 46 -58 21 -63 -7 -1 -8 0 -2 3 7 3 4
10 -7 18 -15 12 -22 11 -40 -1 -25 -16 -30 -5 -13 27 7 13 7 19 0 19 -5 0 -10
5 -10 10 0 16 14 12 51 -13z m-51 -11 c0 -3 -4 -8 -10 -11 -5 -3 -10 -1 -10 4
0 6 5 11 10 11 6 0 10 -2 10 -4z m582 -58 c-7 -7 -8 -17 -1 -30 12 -22 6 -23
-16 -2 -15 15 -15 18 1 35 10 11 20 17 22 14 3 -3 1 -10 -6 -17z m-494 -21 c7
-8 7 -18 2 -27 -5 -8 -6 -18 -4 -22 3 -4 0 -16 -6 -25 -11 -17 -11 -17 -6 0 3
9 1 17 -4 17 -14 0 -31 37 -24 54 7 19 28 21 42 3z m475 -75 c-3 -12 -9 -22
-14 -22 -12 0 -11 7 2 32 13 25 20 19 12 -10z m-403 -2 c0 -5 -4 -10 -10 -10
-5 0 -10 5 -10 10 0 6 5 10 10 10 6 0 10 -4 10 -10z m246 -46 c-11 -7 -22 -12
-25 -9 -2 3 4 12 15 19 10 8 21 12 24 9 3 -2 -4 -11 -14 -19z m-36 6 c0 -5 -4
-10 -9 -10 -6 0 -13 5 -16 10 -3 6 1 10 9 10 9 0 16 -4 16 -10z m148 -51 c-15
-44 -28 -45 -23 -2 2 21 4 39 4 40 1 1 7 0 15 -3 11 -4 12 -12 4 -35z m-532
-5 c-3 -9 -6 -18 -6 -20 0 -2 -4 -4 -9 -4 -5 0 -7 9 -4 20 3 11 10 20 15 20 6
0 7 -7 4 -16z m136 -36 c-7 -7 -12 -8 -12 -2 0 6 3 14 7 17 3 4 9 5 12 2 2 -3
-1 -11 -7 -17z m288 -188 c0 -5 -4 -10 -10 -10 -5 0 -10 5 -10 10 0 6 5 10 10
10 6 0 10 -4 10 -10z m-104 -517 c-3 -4 -6 -1 -6 5 0 7 -8 12 -17 12 -15 0
-16 2 -3 10 10 6 17 4 23 -6 5 -9 6 -18 3 -21z m451 -279 c85 -72 92 -82 93
-120 0 -36 -21 -50 -50 -34 -21 11 -80 83 -80 98 0 5 -10 12 -23 16 -34 8
-111 87 -95 98 31 21 86 0 155 -58z m-72 -54 c17 -19 17 -22 3 -36 -10 -10
-24 -13 -42 -8 -35 8 -45 33 -21 50 26 19 39 18 60 -6z m-190 -60 c3 -5 1 -10
-4 -10 -6 0 -11 5 -11 10 0 6 2 10 4 10 3 0 8 -4 11 -10z m-1225 -25 c0 -28
-20 -41 -47 -30 -16 6 -15 9 10 31 35 30 37 30 37 -1z m-205 -5 c-3 -5 -10
-10 -16 -10 -5 0 -9 5 -9 10 0 6 7 10 16 10 8 0 12 -4 9 -10z m1896 0 c27 -15
25 -42 -3 -38 -15 2 -24 11 -26 26 -4 25 1 27 29 12z m-698 -31 c-5 -16 -8
-18 -14 -7 -13 20 -11 38 5 32 8 -3 12 -13 9 -25z m836 -95 c54 -62 71 -105
49 -131 -7 -9 -13 -29 -14 -45 -1 -16 -7 -35 -14 -41 -10 -10 -11 -4 -7 24 9
59 -3 118 -25 125 -10 3 -29 22 -42 42 -59 96 -25 112 53 26z m-629 -26 c0 -5
-5 -8 -11 -8 -6 0 -9 -7 -6 -15 4 -8 2 -17 -3 -20 -6 -4 -10 2 -11 12 0 10 -2
33 -4 52 l-3 35 19 -25 c10 -13 19 -27 19 -31z m-1230 -12 c0 -8 -4 -18 -10
-21 -5 -3 -10 -17 -10 -31 0 -13 -4 -24 -10 -24 -5 0 -10 10 -10 22 0 17 -3
19 -12 10 -17 -17 -28 -15 -28 7 0 22 35 51 62 51 10 0 18 -6 18 -14z m2058
-21 c2 -9 -6 -31 -17 -46 -12 -16 -20 -33 -17 -38 3 -5 -1 -14 -9 -21 -8 -7
-15 -9 -16 -4 0 5 -2 24 -5 42 -7 58 54 121 64 67z m-818 -15 c0 -5 -4 -10
-10 -10 -5 0 -10 5 -10 10 0 6 5 10 10 10 6 0 10 -4 10 -10z m45 -29 c3 -5 1
-12 -5 -16 -5 -3 -10 1 -10 9 0 18 6 21 15 7z m945 -11 c0 -5 -2 -10 -4 -10
-3 0 -8 5 -11 10 -3 6 -1 10 4 10 6 0 11 -4 11 -10z m-2620 -20 c0 -25 -107
-137 -135 -142 -15 -2 -21 -12 -23 -40 -2 -21 2 -46 8 -58 6 -11 8 -26 3 -33
-4 -6 -9 -39 -10 -72 -3 -41 -9 -64 -20 -72 -32 -25 -43 -16 -43 36 0 28 -4
52 -8 55 -18 11 -52 -119 -55 -210 -4 -97 -9 -114 -33 -114 -13 0 -15 14 -12
88 4 82 44 265 57 258 3 -2 16 0 29 5 17 6 22 16 22 42 0 20 11 50 26 73 15
21 31 52 37 69 15 45 111 135 145 135 6 0 12 -9 12 -20z m682 -32 c6 -18 -20
-41 -39 -34 -14 6 -14 8 2 26 21 23 32 25 37 8z m68 -2 c0 -3 -4 -8 -10 -11
-5 -3 -10 -1 -10 4 0 6 5 11 10 11 6 0 10 -2 10 -4z m-350 -25 c0 -14 -18 -23
-30 -16 -6 4 -8 11 -5 16 8 12 35 12 35 0z m331 -32 c11 -21 0 -38 -24 -39 -5
0 -5 -4 -2 -10 3 -5 -5 -21 -19 -34 -14 -13 -26 -28 -26 -34 0 -6 -24 -37 -54
-68 -61 -65 -86 -68 -86 -11 0 39 18 66 104 155 64 66 88 75 107 41z m1892
-10 c9 -17 17 -39 17 -48 0 -10 9 -26 20 -36 26 -24 25 -41 -2 -48 -35 -10
-68 54 -68 131 0 40 10 41 33 1z m-2528 10 c-4 -5 1 -19 10 -29 11 -12 13 -20
6 -25 -14 -8 -31 2 -31 20 0 7 -5 15 -12 17 -15 5 -1 28 18 28 8 0 12 -5 9
-11z m795 1 c0 -5 -4 -10 -10 -10 -5 0 -10 5 -10 10 0 6 5 10 10 10 6 0 10 -4
10 -10z m1074 -17 c3 -10 9 -25 12 -33 5 -12 4 -13 -7 -2 -7 6 -21 12 -31 12
-20 0 -21 1 -12 24 8 21 30 20 38 -1z m-1160 -30 c4 -21 10 -72 15 -113 4 -41
17 -96 29 -122 12 -26 22 -52 22 -57 0 -6 4 -11 9 -11 9 0 20 -25 26 -59 1 -9
-4 -24 -12 -33 -12 -14 -19 -15 -37 -5 -11 7 -25 18 -29 25 -4 6 -13 12 -18
12 -17 0 -61 38 -74 63 -7 15 -20 22 -40 22 -17 0 -31 3 -33 8 -8 19 11 65 29
70 16 4 19 14 19 62 0 76 18 142 43 160 33 23 44 18 51 -22z m-1049 -54 c7
-30 -15 -79 -35 -79 -13 0 -13 61 0 95 12 32 26 25 35 -16z m1310 31 c3 -5 3
-15 -1 -21 -6 -11 -23 6 -24 24 0 10 18 9 25 -3z m-1085 -10 c0 -12 -28 -25
-36 -17 -9 9 6 27 22 27 8 0 14 -5 14 -10z m1987 -9 c3 -12 11 -17 19 -14 10
4 14 -3 14 -22 l0 -28 -30 31 c-31 33 -38 52 -19 52 6 0 13 -9 16 -19z m-1857
-11 c0 -5 -4 -10 -10 -10 -5 0 -10 5 -10 10 0 6 5 10 10 10 6 0 10 -4 10 -10z
m2390 -43 c0 -13 -3 -27 -7 -31 -4 -3 -8 -16 -10 -28 -5 -30 -6 -30 -39 -17
-16 6 -23 13 -16 16 6 3 12 11 12 18 0 7 7 15 15 19 8 3 15 15 15 26 0 11 7
20 15 20 9 0 15 -9 15 -23z m-626 -2 c3 -9 -1 -18 -10 -22 -19 -7 -26 0 -18
21 8 20 20 21 28 1z m332 -5 c7 0 18 -17 23 -37 15 -53 14 -63 -8 -63 -14 0
-18 -5 -14 -20 3 -11 9 -20 14 -20 5 0 -3 -13 -17 -30 -20 -22 -34 -29 -58
-27 -45 3 -78 37 -36 37 11 0 20 4 20 10 0 5 14 31 30 57 l30 47 -32 29 -33
29 34 -6 c18 -3 39 -6 47 -6z m-2266 -72 c-3 -35 -12 -73 -20 -85 -11 -17 -11
-24 -1 -37 7 -8 18 -14 24 -13 6 1 11 -18 11 -48 0 -33 5 -54 15 -62 18 -13
15 -18 -16 -27 -31 -10 -62 23 -58 60 l3 28 -18 -22 -19 -22 -6 22 c-5 14 -2
25 7 32 10 8 14 33 13 91 0 94 17 145 49 145 20 0 21 -3 16 -62z m258 34 c2
-7 -3 -12 -12 -12 -9 0 -16 7 -16 16 0 17 22 14 28 -4z m1420 -7 c-3 -3 -9 2
-12 12 -6 14 -5 15 5 6 7 -7 10 -15 7 -18z m188 -7 c-11 -15 -16 -18 -16 -7 0
16 21 42 28 34 2 -2 -3 -14 -12 -27z m859 8 c38 -16 42 -30 20 -60 -15 -20
-35 -14 -35 12 0 10 -7 28 -16 40 -18 26 -15 27 31 8z m-837 -31 c-3 -29 -18
-34 -18 -7 0 17 8 32 17 32 1 0 2 -11 1 -25z m633 -12 c1 -10 8 -70 10 -80 4
-21 -4 -35 -38 -67 -20 -19 -41 -32 -46 -29 -5 3 -6 22 -2 42 4 20 9 52 11 70
2 22 11 42 26 53 25 19 38 22 39 11z m-661 -17 c0 -3 -4 -8 -10 -11 -5 -3 -10
-1 -10 4 0 6 5 11 10 11 6 0 10 -2 10 -4z m1065 -16 c3 -5 1 -10 -4 -10 -6 0
-11 5 -11 10 0 6 2 10 4 10 3 0 8 -4 11 -10z m-2777 -17 c5 -17 -26 -29 -40
-15 -6 6 -7 15 -3 22 9 14 37 9 43 -7z m439 -45 c-3 -8 -6 -5 -6 6 -1 11 2 17
5 13 3 -3 4 -12 1 -19z m941 -11 c-1 -1 -14 -11 -27 -22 l-24 -20 8 25 c12 41
27 54 38 35 5 -9 7 -17 5 -18z m-2016 -1 c16 -11 15 -14 -8 -39 -34 -37 -54
-27 -40 18 12 38 21 42 48 21z m2328 -6 c0 -5 -4 -10 -10 -10 -5 0 -10 5 -10
10 0 6 5 10 10 10 6 0 10 -4 10 -10z m290 -57 c0 -7 4 -13 9 -13 13 0 77 -117
94 -171 8 -24 20 -70 27 -101 7 -32 18 -58 23 -58 6 0 6 -5 0 -12 -6 -7 -13
-42 -16 -78 -3 -36 -15 -86 -27 -113 -11 -26 -18 -52 -14 -59 4 -6 3 -8 -3 -5
-6 4 -23 -10 -39 -31 -31 -41 -56 -61 -96 -79 -32 -14 -38 -1 -11 25 15 15 14
17 -8 22 -13 3 -26 15 -28 25 -4 24 -19 35 -47 35 -25 0 -136 141 -117 147 7
3 0 17 -17 35 -16 17 -27 34 -25 39 3 4 -8 16 -25 25 -16 10 -30 23 -30 29 -1
5 -8 -1 -16 -15 -11 -18 -13 -19 -9 -5 22 69 15 90 -35 97 -25 3 -40 35 -23
47 6 3 14 15 20 25 10 19 11 19 17 0 3 -11 22 -28 41 -38 19 -10 38 -28 41
-40 4 -12 15 -27 26 -34 10 -7 16 -18 13 -23 -3 -5 2 -6 11 -2 13 5 16 2 12
-13 -3 -11 1 -25 9 -32 7 -7 13 -10 13 -7 0 2 9 -3 20 -12 11 -10 20 -22 20
-27 0 -6 15 -24 33 -41 52 -47 77 -85 77 -116 0 -16 3 -29 6 -29 10 0 31 26
38 47 3 11 16 24 28 30 23 10 31 45 30 128 -1 28 -1 62 -1 78 0 15 -7 40 -15
56 -10 18 -12 31 -5 38 12 12 -7 69 -27 77 -8 3 -14 11 -14 19 0 7 -9 30 -20
52 -11 22 -20 45 -20 52 0 20 -38 54 -43 40 -3 -7 -4 0 -3 15 1 28 16 41 16
14 0 -24 42 -44 70 -34 14 5 20 12 14 16 -6 4 -14 16 -17 27 -5 14 1 11 18
-10 14 -16 25 -36 25 -42z m-2745 31 c0 -16 -8 -20 -49 -22 -44 -3 -47 -2 -33
12 18 19 57 36 72 32 6 -1 10 -11 10 -22z m2680 16 c-3 -5 -1 -10 4 -10 6 0
11 -4 11 -10 0 -14 -27 -13 -36 1 -3 6 0 15 7 20 18 11 22 11 14 -1z m-2195
-68 c0 -15 -2 -15 -10 -2 -13 20 -13 33 0 25 6 -3 10 -14 10 -23z m2460 -2 c0
-5 -2 -10 -4 -10 -3 0 -8 5 -11 10 -3 6 -1 10 4 10 6 0 11 -4 11 -10z m35 0
c-3 -5 -11 -10 -16 -10 -6 0 -7 5 -4 10 3 6 11 10 16 10 6 0 7 -4 4 -10z
m-1764 -23 c14 -12 32 -21 42 -19 9 2 17 -1 17 -7 0 -32 -99 9 -100 42 0 13
17 7 41 -16z m-1161 -59 c0 -40 6 -90 13 -111 12 -34 70 -96 90 -97 5 0 21 -8
35 -19 15 -10 52 -26 82 -36 78 -25 170 -70 204 -99 27 -22 29 -27 18 -50 -15
-34 -25 -33 -57 5 -20 24 -36 33 -64 35 -49 3 -269 111 -289 141 -16 26 -42
31 -42 8 0 -8 -6 -15 -14 -15 -8 0 -22 -7 -31 -16 -12 -12 -13 -19 -4 -30 6
-8 8 -14 3 -14 -5 0 -2 -5 6 -10 13 -8 13 -11 -2 -26 -16 -17 -19 -17 -36 -1
-10 9 -23 17 -29 17 -5 0 -15 11 -23 24 -11 21 -10 29 8 59 12 18 37 42 57 53
28 15 34 22 27 39 -14 40 -8 160 11 188 28 43 37 32 37 -45z m3060 18 c0 -3
-4 -8 -10 -11 -5 -3 -10 -1 -10 4 0 6 5 11 10 11 6 0 10 -2 10 -4z m315 -46
c3 -5 -1 -10 -9 -10 -9 0 -16 5 -16 10 0 6 4 10 9 10 6 0 13 -4 16 -10z
m-2845 -4 c0 -3 -4 -8 -10 -11 -5 -3 -10 -1 -10 4 0 6 5 11 10 11 6 0 10 -2
10 -4z m-350 -21 c0 -8 -7 -15 -15 -15 -8 0 -15 7 -15 15 0 8 7 15 15 15 8 0
15 -7 15 -15z m390 -25 c0 -12 -28 -25 -36 -17 -9 9 6 27 22 27 8 0 14 -5 14
-10z m2480 0 c0 -5 -2 -10 -4 -10 -3 0 -8 5 -11 10 -3 6 -1 10 4 10 6 0 11 -4
11 -10z m-2720 -21 c0 -5 -4 -9 -10 -9 -5 0 -10 7 -10 16 0 8 5 12 10 9 6 -3
10 -10 10 -16z m171 8 c-1 -12 -15 -9 -19 4 -3 6 1 10 8 8 6 -3 11 -8 11 -12z
m1326 -4 c11 -10 28 -39 37 -65 10 -26 24 -49 32 -52 8 -3 14 -10 14 -16 0 -6
8 -23 18 -38 71 -105 90 -130 116 -152 44 -37 106 -81 106 -75 0 3 12 -2 26
-12 14 -9 47 -17 74 -18 50 -2 82 -24 94 -63 16 -49 -96 -49 -140 -1 -9 10
-22 15 -28 11 -21 -13 -71 -9 -113 9 -33 14 -43 24 -43 41 0 18 -2 20 -10 8
-8 -12 -17 -7 -55 30 -25 24 -47 52 -51 62 -3 10 -10 17 -16 15 -18 -4 -67 90
-74 143 -5 35 -11 50 -21 50 -13 0 -13 4 1 25 19 29 14 45 -15 45 -14 0 -19 7
-19 29 0 27 6 33 41 40 3 0 15 -7 26 -16z m-920 -59 c-1 -1 -14 -4 -28 -7 -26
-7 -29 0 -20 45 0 3 12 -3 25 -15 14 -12 24 -22 23 -23z m-1102 -1 c-26 -58
-44 -122 -45 -151 0 -36 39 -105 70 -124 11 -7 20 -23 20 -35 0 -18 -6 -23
-24 -23 -30 0 -62 -39 -43 -52 9 -7 8 -8 -3 -7 -8 1 -23 -1 -33 -6 -24 -10
-47 12 -47 46 0 31 16 38 40 17 8 -7 1 3 -17 22 -28 31 -31 40 -26 75 4 32 1
44 -16 59 -12 11 -21 27 -21 36 0 24 52 101 89 133 38 31 67 37 56 10z m1001
-8 c-4 -20 -1 -25 15 -25 20 0 20 -1 3 -17 -17 -17 -16 -18 19 -21 20 -2 37
-6 37 -9 0 -12 -36 -32 -57 -33 -25 0 -58 -52 -49 -76 3 -8 -1 -14 -9 -14 -8
0 -15 -5 -15 -11 0 -5 -4 -7 -10 -4 -5 3 -11 -1 -11 -9 -1 -9 -2 -21 -3 -28 0
-7 -12 -18 -26 -25 -14 -7 -19 -13 -12 -13 7 0 29 10 50 23 57 36 102 49 119
35 17 -13 13 -54 -5 -50 -16 3 -16 -15 1 -21 6 -3 3 -6 -8 -6 -17 -1 -17 -3
-5 -11 12 -8 11 -10 -6 -10 -12 0 -37 -15 -56 -32 -19 -18 -50 -42 -69 -52
-19 -11 -43 -31 -53 -44 -13 -16 -26 -22 -41 -20 -12 3 -30 -1 -40 -9 -19 -13
-18 -18 16 -85 6 -11 5 -18 -1 -18 -17 0 -11 -28 7 -39 10 -5 15 -13 11 -16
-4 -4 -1 -14 7 -22 28 -28 11 -58 -20 -35 -13 9 -58 112 -81 185 -10 31 -22
57 -26 57 -4 0 -8 4 -8 10 0 5 7 7 15 4 10 -4 15 0 15 11 0 9 8 30 17 46 15
24 15 31 4 38 -10 6 -5 16 21 42 18 19 42 52 53 74 11 22 28 46 38 53 9 7 15
18 11 23 -3 5 -2 9 3 7 4 -1 29 19 56 45 26 26 56 47 67 47 11 0 20 5 20 10 0
6 -7 10 -15 10 -20 0 -19 19 2 42 21 24 24 23 19 -7z m2174 21 c0 -11 -19 -15
-25 -6 -3 5 1 10 9 10 9 0 16 -2 16 -4z m416 -23 c-10 -10 -19 5 -10 18 6 11
8 11 12 0 2 -7 1 -15 -2 -18z m-1166 13 c0 -2 -7 -7 -16 -10 -8 -3 -12 -2 -9
4 6 10 25 14 25 6z m-1234 -41 c42 -1 65 -20 26 -21 -15 -1 -47 -5 -71 -9
l-43 -8 13 24 c7 13 12 28 11 33 -2 5 4 3 13 -4 9 -8 32 -14 51 -15z m784 9
c0 -2 -7 -4 -15 -4 -8 0 -15 4 -15 10 0 5 7 7 15 4 8 -4 15 -8 15 -10z m-1399
-34 c14 -45 4 -65 -17 -36 -16 22 -19 76 -4 76 5 0 15 -18 21 -40z m536 34
c-3 -3 -12 -4 -19 -1 -8 3 -5 6 6 6 11 1 17 -2 13 -5z m1398 -4 c3 -5 2 -10
-4 -10 -5 0 -13 5 -16 10 -3 6 -2 10 4 10 5 0 13 -4 16 -10z m-1995 -15 c9
-11 10 -19 2 -27 -14 -14 -32 -1 -32 23 0 23 13 25 30 4z m173 -11 c21 -29 16
-54 -11 -54 -24 0 -42 19 -42 45 0 42 26 47 53 9z m1204 20 c-3 -3 -12 -4 -19
-1 -8 3 -5 6 6 6 11 1 17 -2 13 -5z m-573 -10 c19 -7 22 -25 4 -21 -7 1 -12
-4 -10 -10 2 -12 -8 -16 -25 -10 -5 1 -6 8 -5 16 2 8 -2 18 -10 22 -16 10 21
13 46 3z m526 -4 c19 -12 5 -17 -67 -23 -82 -8 -97 -25 -18 -21 70 4 105 -7
105 -31 0 -19 -19 -20 -26 -1 -3 8 -15 11 -30 8 l-26 -5 31 -15 c23 -11 29
-18 21 -27 -6 -7 -21 -10 -35 -8 -13 3 -45 -2 -71 -11 -26 -9 -58 -16 -71 -16
-13 0 -23 -4 -23 -9 0 -5 -15 -8 -34 -5 -19 2 -37 0 -41 -5 -6 -10 -77 -7 -94
4 -10 6 -15 4 -79 -28 -19 -9 -40 -17 -48 -17 -8 0 -14 -4 -14 -10 0 -5 -9
-10 -20 -10 -11 0 -23 -6 -26 -14 -3 -8 -15 -17 -27 -21 -19 -6 -20 -8 -4 -12
18 -5 24 -33 7 -33 -5 0 -10 4 -10 9 0 5 -9 7 -19 4 -21 -5 -35 -29 -25 -44 3
-5 -4 -9 -15 -9 -21 0 -23 -4 -23 -52 -1 -16 -4 -28 -8 -28 -3 0 -5 -14 -2
-30 4 -25 2 -29 -13 -24 -15 6 -16 4 -5 -15 8 -16 8 -26 1 -35 -6 -7 -8 -16
-4 -19 3 -4 1 -7 -5 -7 -6 0 -16 9 -22 20 -8 14 -8 20 0 20 6 0 2 13 -9 29
-26 36 -26 60 -1 131 13 37 15 57 8 61 -6 4 -8 15 -4 24 5 15 4 16 -9 5 -9 -7
-18 -10 -21 -7 -10 10 5 39 16 32 6 -3 17 1 26 9 8 9 22 16 31 16 9 0 13 6 9
15 -3 9 0 15 10 15 8 0 13 4 10 8 -7 12 39 52 111 96 52 31 74 38 129 41 65 3
66 3 61 -20 -6 -33 9 -36 88 -19 70 15 83 20 73 29 -11 11 -48 13 -48 3 0 -6
-9 -8 -21 -5 -14 4 -19 2 -16 -8 8 -20 -32 -6 -43 15 -8 14 -4 20 21 31 27 11
33 10 40 -4 8 -13 15 -14 42 -5 38 14 150 35 192 36 17 1 37 -2 45 -8z m310
-22 c0 -5 -7 -3 -15 6 -8 8 -15 18 -15 22 0 3 7 1 15 -6 8 -7 15 -17 15 -22z
m900 22 c0 -5 -5 -10 -11 -10 -5 0 -7 5 -4 10 3 6 8 10 11 10 2 0 4 -4 4 -10z
m-1595 -21 c-10 -15 -25 -10 -19 6 4 8 10 12 15 9 5 -3 7 -10 4 -15z m725 11
c0 -5 -5 -10 -11 -10 -5 0 -7 5 -4 10 3 6 8 10 11 10 2 0 4 -4 4 -10z m54 -5
c11 -8 16 -15 10 -15 -5 0 -19 -3 -31 -6 -18 -5 -21 -3 -16 15 6 25 11 25 37
6z m1006 -48 c71 -32 150 -97 150 -123 0 -6 9 -19 20 -29 11 -10 20 -23 20
-29 0 -7 9 -29 20 -51 11 -22 20 -34 20 -27 0 6 13 18 30 27 25 13 29 19 24
45 -5 20 0 40 14 65 12 19 19 42 16 50 -10 25 5 67 23 63 18 -3 27 -47 26
-118 -1 -51 -26 -109 -38 -89 -11 16 -35 -17 -35 -46 0 -14 -10 -26 -25 -33
-17 -8 -25 -8 -25 -1 0 6 -5 7 -11 3 -6 -3 -7 -9 -3 -13 13 -9 9 -297 -4 -360
-12 -55 -55 -156 -69 -163 -5 -2 -21 -18 -38 -37 -16 -19 -23 -30 -15 -26 8 5
3 -4 -12 -20 -16 -15 -28 -38 -28 -51 0 -12 -7 -30 -16 -38 -22 -22 -31 -20
-11 2 10 10 14 21 11 24 -8 8 -66 -12 -82 -29 -7 -7 -24 -16 -38 -19 -13 -3
-24 -10 -24 -15 0 -5 -5 -9 -10 -9 -26 0 -98 -43 -94 -55 6 -13 -5 -18 -66
-31 -19 -3 -45 -13 -57 -21 -12 -8 -26 -12 -31 -9 -6 3 -15 -1 -22 -9 -19 -22
-39 -18 -50 10 -5 14 -12 25 -15 25 -4 0 -3 -4 0 -10 3 -5 2 -17 -3 -26 -7
-13 -10 -13 -21 -1 -8 10 -8 17 -2 21 6 4 8 13 5 20 -3 7 2 19 11 26 13 11 11
18 -21 56 -19 24 -32 48 -29 54 3 5 0 10 -7 10 -17 0 -63 49 -54 57 3 4 -4 17
-16 30 -12 13 -18 23 -14 23 3 0 -1 14 -10 31 -17 33 -9 54 18 44 8 -3 21 -16
27 -29 7 -12 26 -30 41 -40 16 -9 46 -37 66 -62 34 -41 94 -85 94 -68 0 4 7 1
15 -6 21 -17 99 -4 154 27 125 70 216 159 271 268 34 68 35 70 35 200 0 124
-7 210 -20 258 -12 42 -48 117 -58 117 -14 0 -63 56 -59 69 2 6 -3 9 -11 5 -8
-3 -22 2 -31 11 -9 9 -21 13 -27 10 -5 -4 -18 0 -27 9 -10 8 -33 22 -52 30
l-35 14 35 14 c48 20 84 14 170 -25z m370 24 c0 -6 -4 -13 -10 -16 -5 -3 -10
1 -10 9 0 9 5 16 10 16 6 0 10 -4 10 -9z m-1680 -12 c0 -6 -7 -9 -15 -6 -8 4
-17 2 -20 -3 -4 -6 4 -10 17 -10 17 0 19 -3 9 -9 -7 -5 -22 -6 -32 -4 -21 6
-25 29 -6 36 22 10 47 7 47 -4z m633 -18 c18 -7 18 -8 -1 -31 l-19 -24 -12 22
c-18 35 -5 48 32 33z m-1963 -22 c0 -5 -7 -9 -15 -9 -8 0 -15 7 -15 15 0 9 6
12 15 9 8 -4 15 -10 15 -15z m1910 0 c0 -5 -4 -9 -8 -9 -5 0 -9 7 -9 15 0 8 4
12 9 9 4 -3 8 -9 8 -15z m348 -1 c-2 -13 -11 -24 -22 -26 -11 -3 -26 -10 -34
-18 -12 -13 -52 -20 -52 -9 0 10 58 63 64 58 3 -4 6 -1 6 5 0 7 9 12 21 12 15
0 20 -5 17 -22z m-621 6 c-3 -3 -12 -4 -19 -1 -8 3 -5 6 6 6 11 1 17 -2 13 -5z
m-1182 -14 c-3 -6 -13 -10 -21 -10 -8 0 -14 -7 -14 -15 0 -8 -4 -15 -10 -15
-5 0 -10 4 -10 9 0 23 13 37 36 39 14 1 23 -2 19 -8z m1315 -10 c0 -5 -2 -10
-4 -10 -3 0 -8 5 -11 10 -3 6 -1 10 4 10 6 0 11 -4 11 -10z m30 -30 c0 -5 -5
-10 -11 -10 -5 0 -7 5 -4 10 3 6 8 10 11 10 2 0 4 -4 4 -10z m-1291 -9 c7 -5
10 -14 7 -20 -4 -6 -2 -11 5 -11 9 0 10 -3 2 -11 -7 -7 -21 -6 -48 5 -32 14
-35 18 -25 31 14 17 38 19 59 6z m619 -44 c7 3 12 0 10 -8 -2 -7 7 -15 19 -17
12 -2 36 -17 54 -33 17 -16 35 -29 40 -29 5 0 43 -31 85 -70 41 -38 81 -70 89
-70 7 0 15 -6 18 -14 3 -8 15 -20 27 -26 19 -10 20 -10 8 9 -6 11 -16 17 -20
15 -4 -3 -8 4 -8 15 0 26 78 93 105 89 17 -3 19 -9 17 -41 -4 -44 -25 -90 -37
-79 -5 4 -5 1 -1 -6 4 -7 3 -19 -3 -26 -15 -18 3 -32 66 -55 38 -13 49 -22 51
-42 3 -23 -1 -26 -57 -35 -52 -8 -66 -7 -98 8 -49 24 -56 23 -51 -11 4 -24 1
-27 -16 -24 -17 4 -18 3 -6 -6 13 -9 12 -11 -6 -11 -11 0 -29 6 -39 14 -16 12
-17 19 -7 67 10 52 10 55 -16 76 -24 19 -28 20 -39 6 -14 -19 -36 -8 -29 15 4
10 -4 25 -19 37 -13 11 -51 45 -84 75 -33 30 -66 60 -73 66 -27 22 -238 -3
-238 -28 0 -5 -11 -19 -24 -32 -70 -64 -105 -311 -50 -357 8 -6 14 -15 14 -19
0 -4 13 -22 29 -38 l28 -31 60 41 c52 36 59 44 47 56 -8 7 -14 18 -14 23 0 6
-8 3 -17 -6 -15 -16 -18 -16 -28 -1 -7 9 -15 13 -18 9 -4 -3 -7 3 -7 14 0 14
15 30 45 47 25 15 45 29 45 31 0 5 -56 -11 -92 -26 -15 -6 -35 -9 -43 -5 -29
11 7 46 83 82 41 19 78 34 83 34 16 0 10 -14 -18 -37 -22 -18 -25 -24 -14 -32
7 -4 22 -6 32 -4 21 6 54 66 52 95 -1 11 5 18 17 18 23 0 42 -49 28 -74 -7
-13 -6 -21 2 -29 10 -9 11 -9 6 0 -10 18 11 25 27 8 9 -9 34 -15 60 -15 25 0
56 -6 71 -13 l26 -14 -26 -12 c-15 -6 -29 -10 -31 -7 -2 2 -17 0 -33 -4 -24
-7 -28 -6 -23 8 5 12 2 14 -13 7 -10 -4 -30 -10 -44 -13 -22 -5 -24 -4 -11 12
8 9 11 19 8 22 -3 3 -15 -8 -27 -24 -13 -17 -33 -33 -46 -36 -13 -4 -24 -11
-24 -17 0 -6 -3 -8 -7 -6 -5 3 -14 -1 -20 -9 -17 -17 3 -30 22 -14 17 14 143
22 151 9 3 -5 -5 -9 -16 -9 -15 0 -20 -5 -17 -14 3 -7 0 -19 -6 -25 -9 -9 -8
-15 6 -22 23 -14 21 -31 -6 -58 -27 -24 -36 -19 -55 34 -6 17 -11 24 -11 18
-1 -7 -8 -13 -16 -13 -8 0 -15 -9 -15 -20 0 -11 -4 -28 -9 -38 -6 -9 -12 -29
-15 -43 -3 -14 -16 -37 -29 -51 -14 -15 -27 -37 -31 -51 -3 -13 -26 -53 -51
-88 -25 -35 -63 -99 -85 -141 -57 -110 -83 -100 -40 14 34 90 27 100 -30 41
-28 -29 -58 -53 -67 -53 -9 0 -24 -6 -32 -14 -40 -34 -222 -49 -316 -25 -90
23 -313 128 -373 176 -77 63 -84 115 -26 203 l29 43 7 -34 c4 -19 8 -46 10
-61 1 -16 5 -28 9 -28 4 0 9 -8 11 -18 6 -20 67 -64 120 -86 35 -15 37 -15 33
4 -2 12 2 20 10 20 7 0 21 3 30 6 14 6 16 1 13 -32 -3 -36 -1 -40 30 -49 17
-5 32 -13 32 -18 0 -4 5 -5 10 -2 6 3 10 1 10 -4 0 -6 10 -11 23 -11 12 1 37
-2 55 -6 22 -4 38 -2 50 8 9 8 33 21 52 28 44 17 82 44 140 96 25 23 68 60 95
82 66 54 113 95 98 88 -26 -13 -113 95 -113 140 0 8 -4 22 -9 32 -5 9 -13 26
-16 37 -7 19 -8 19 -18 -5 -40 -96 -101 -210 -122 -230 -14 -13 -25 -27 -25
-31 0 -15 -91 -107 -111 -112 -10 -3 -19 -1 -19 3 0 5 -13 11 -29 15 -40 8
-32 34 34 110 65 75 130 164 139 190 4 11 10 40 13 65 6 48 19 81 31 77 12 -4
82 44 82 57 0 7 16 30 35 52 19 21 35 49 35 62 0 12 6 22 14 22 22 0 27 15 16
45 -9 23 -8 26 9 20 12 -4 47 11 101 44 46 28 99 53 119 57 20 3 40 7 45 8 6
1 30 -1 55 -5 25 -3 52 -4 59 -2z m757 3 c3 -5 2 -10 -4 -10 -5 0 -13 5 -16
10 -3 6 -2 10 4 10 5 0 13 -4 16 -10z m-1010 -10 c3 -5 -3 -10 -15 -10 -12 0
-18 5 -15 10 3 6 10 10 15 10 5 0 12 -4 15 -10z m470 -10 c-8 -14 8 -13 22 1
7 7 19 8 30 4 10 -5 21 -9 25 -9 17 -2 19 -17 4 -32 -13 -12 -27 -15 -56 -10
-28 4 -40 3 -40 -6 0 -6 -3 -8 -7 -5 -3 4 -12 2 -19 -4 -15 -12 -38 -3 -29 12
3 5 -1 6 -9 3 -15 -6 -18 -2 -20 29 -1 6 15 15 34 18 56 10 72 10 65 -1z
m1205 -14 c0 -3 -4 -8 -10 -11 -5 -3 -10 -1 -10 4 0 6 5 11 10 11 6 0 10 -2
10 -4z m-2482 -56 c-3 -16 -1 -30 3 -30 8 0 -5 -29 -35 -72 -10 -15 -23 -25
-28 -22 -6 4 -6 10 0 16 6 6 8 16 6 22 -3 7 2 26 11 42 8 16 15 39 15 52 0 14
6 22 16 22 12 0 15 -7 12 -30z m-190 -72 c1 -29 5 -65 8 -80 4 -19 -1 -33 -15
-47 -37 -37 -44 -27 -38 57 9 128 42 179 45 70z m544 29 c-12 -13 -22 -33 -22
-46 0 -18 -5 -22 -22 -19 -35 5 -29 38 11 65 44 30 61 29 33 0z m2172 -16 c-2
-2 1 -10 7 -18 12 -13 10 -14 -23 -17 -7 -1 -13 15 -15 38 -2 37 -2 38 16 20
10 -11 17 -21 15 -23z m-1957 3 c-9 -9 -28 6 -21 18 4 6 10 6 17 -1 6 -6 8
-13 4 -17z m-7 -29 c0 -8 -2 -15 -4 -15 -2 0 -11 -3 -20 -6 -10 -4 -16 -1 -16
9 0 14 13 24 33 26 4 1 7 -6 7 -14z m-955 -20 c16 -25 3 -65 -22 -65 -14 0
-19 10 -21 46 -2 38 0 45 14 42 9 -2 22 -12 29 -23z m3005 14 c0 -6 9 -8 23
-4 22 7 22 7 2 -9 -27 -21 -45 -20 -45 4 0 11 5 20 10 20 6 0 10 -5 10 -11z
m-570 -25 c0 -8 -4 -14 -10 -14 -5 0 -7 -7 -4 -15 4 -8 1 -15 -5 -15 -6 0 -11
4 -11 10 0 5 -7 7 -15 4 -9 -4 -15 0 -15 10 0 9 -4 16 -10 16 -5 0 -10 4 -10
9 0 6 18 9 40 9 27 0 40 -5 40 -14z m-2606 -10 c9 -3 16 -15 16 -25 0 -10 6
-19 13 -19 20 0 49 -36 52 -65 4 -29 35 -116 47 -130 4 -5 8 -17 8 -28 0 -10
4 -16 9 -13 5 4 7 -3 4 -14 -6 -22 33 -126 54 -148 26 -27 44 -70 31 -74 -7
-3 -13 -22 -13 -46 l0 -41 -31 45 c-17 24 -37 59 -44 77 -7 17 -20 50 -30 72
-15 35 -32 91 -36 120 -3 23 -17 45 -25 39 -5 -3 -8 -2 -7 3 1 4 -11 35 -27
68 -16 33 -28 70 -26 83 1 12 -5 36 -13 54 -24 47 -20 57 18 42z m2476 -10 c0
-9 -31 -37 -36 -32 -9 9 8 38 22 38 8 0 14 -3 14 -6z m-1981 -48 c-6 -6 -13
-6 -21 2 -8 8 -8 15 2 28 13 15 15 14 21 -3 4 -10 3 -22 -2 -27z m1231 14 c0
-5 -4 -10 -9 -10 -6 0 -13 5 -16 10 -3 6 1 10 9 10 9 0 16 -4 16 -10z m-1169
-46 c4 -16 7 -22 8 -14 1 8 8 2 16 -15 10 -22 14 -25 14 -11 1 11 4 17 7 13 4
-3 -3 -27 -15 -52 -11 -24 -21 -50 -21 -56 0 -19 -53 -4 -71 21 -26 35 -16
123 15 138 30 15 40 10 47 -24z m1137 4 c14 -14 16 -28 2 -28 -5 0 -14 9 -20
20 -12 22 -1 27 18 8z m1136 -32 c10 -24 31 -58 46 -74 52 -57 77 -165 35
-148 -8 3 -15 1 -15 -3 0 -5 -7 -12 -16 -15 -8 -3 -12 -2 -9 3 3 5 1 12 -5 16
-5 3 -10 15 -10 25 0 10 -6 23 -14 27 -15 9 -79 133 -68 133 4 0 1 4 -6 8 -10
7 -10 15 -2 36 5 15 14 24 20 21 5 -3 10 -1 10 4 0 25 17 8 34 -33z m-624 12
c0 -6 -6 -5 -15 2 -8 7 -15 14 -15 16 0 2 7 1 15 -2 8 -4 15 -11 15 -16z
m-520 -18 c0 -5 -4 -10 -10 -10 -5 0 -10 5 -10 10 0 6 5 10 10 10 6 0 10 -4
10 -10z m914 -47 c10 4 11 -2 6 -21 -14 -54 -23 -72 -33 -72 -6 0 -7 3 -4 6 3
4 0 16 -8 28 -20 27 -19 46 3 76 l17 25 3 -23 c2 -14 9 -22 16 -19z m1216 -3
c0 -5 -7 -10 -15 -10 -19 0 -19 -9 -1 -29 9 -10 12 -22 7 -29 -12 -20 -58 -24
-75 -7 -13 14 -17 13 -40 -10 -20 -20 -35 -25 -76 -25 -38 0 -50 3 -46 13 3 6
9 20 12 29 4 10 24 22 48 28 22 5 55 15 71 21 73 27 115 34 115 19z m-3956 -8
c2 -4 -4 -9 -15 -9 -10 -1 -19 2 -19 8 0 11 27 12 34 1z m2641 -22 c3 -5 1
-10 -4 -10 -6 0 -11 5 -11 10 0 6 2 10 4 10 3 0 8 -4 11 -10z m-2588 -22 c-3
-8 -6 -5 -6 6 -1 11 2 17 5 13 3 -3 4 -12 1 -19z m41 -34 c14 -15 14 -16 -3
-13 -10 2 -20 10 -23 17 -5 17 6 15 26 -4z m340 2 c7 -4 10 -11 8 -15 -3 -4
10 -5 29 -3 18 2 35 -1 39 -6 4 -6 -3 -8 -16 -5 -22 4 -23 4 -4 -11 11 -9 29
-14 40 -10 13 3 16 2 9 -3 -8 -6 -3 -14 17 -28 37 -24 38 -35 5 -35 -14 0 -25
5 -25 10 0 6 -12 10 -26 10 -14 0 -45 14 -69 30 -24 17 -48 30 -54 30 -11 0
-41 28 -41 39 0 9 71 7 88 -3z m461 -24 c-5 -2 -9 -10 -9 -18 0 -21 -18 -17
-30 6 -9 16 -8 20 5 20 8 0 15 5 15 10 0 6 6 5 14 -2 8 -7 10 -14 5 -16z
m1620 -8 c-12 -13 -19 -24 -15 -24 4 0 4 -5 1 -10 -4 -6 -13 -3 -23 7 -9 10
-14 14 -9 9 12 -16 8 -26 -7 -20 -8 3 -19 -3 -25 -15 -7 -12 -26 -23 -49 -26
-20 -4 -50 -13 -67 -20 -16 -7 -58 -15 -93 -18 -34 -3 -69 -10 -76 -16 -7 -6
-20 -10 -27 -8 -8 2 -11 2 -6 0 19 -12 3 -23 -33 -23 -38 0 -60 20 -22 20 9 0
26 7 36 15 25 19 15 19 -29 1 -21 -9 -37 -11 -40 -5 -4 5 -10 7 -15 4 -10 -6
-80 52 -80 67 0 5 19 8 43 7 24 -2 49 1 56 6 9 5 12 4 8 -2 -8 -13 71 -7 125
9 20 6 46 8 58 5 11 -3 34 -2 50 3 29 8 43 -3 18 -13 -9 -4 -7 -6 3 -6 9 -1
28 8 41 19 14 10 28 16 32 13 3 -3 6 -1 6 5 0 12 54 27 85 23 16 -1 17 0 6 8
-11 7 -6 10 20 13 48 5 54 -1 28 -28z m-1594 -14 c-3 -5 -10 -10 -16 -10 -5 0
-9 5 -9 10 0 6 7 10 16 10 8 0 12 -4 9 -10z m929 -16 c3 -8 2 -12 -4 -9 -6 3
-10 10 -10 16 0 14 7 11 14 -7z m1993 -16 c-3 -8 -6 -5 -6 6 -1 11 2 17 5 13
3 -3 4 -12 1 -19z m-3187 -28 c0 -5 -5 -10 -11 -10 -5 0 -7 5 -4 10 3 6 8 10
11 10 2 0 4 -4 4 -10z m2413 -21 c3 -12 0 -22 -9 -26 -18 -6 -19 -5 -28 25 -6
18 -3 22 12 22 11 0 22 -9 25 -21z m41 -15 c10 -27 7 -34 -16 -34 -19 0 -20
-2 -6 -17 21 -25 47 -81 40 -87 -13 -14 -52 -4 -66 16 -20 28 -20 38 -2 38 11
0 13 7 6 30 -7 23 -5 30 6 30 8 0 14 9 14 20 0 24 15 27 24 4z m-576 -12 c5
-15 -9 -20 -81 -26 -43 -4 -57 -2 -54 7 2 7 15 11 29 9 13 -2 31 4 38 13 14
17 62 15 68 -3z m-515 -57 c16 1 56 -4 90 -10 91 -18 237 -103 237 -138 0 -8
12 -19 27 -26 15 -7 33 -21 41 -32 7 -10 22 -19 33 -19 16 0 19 -5 14 -19 -7
-22 12 -38 27 -23 10 10 68 -13 68 -27 0 -5 12 -8 28 -8 67 -1 92 -7 92 -20 0
-8 4 -12 8 -9 5 3 20 -1 33 -8 14 -7 37 -16 52 -20 33 -8 34 -21 5 -38 -51
-27 -274 -9 -286 23 -2 5 -9 9 -16 9 -7 0 -23 11 -36 25 -13 14 -29 25 -37 25
-7 0 -13 5 -13 11 0 5 -4 8 -9 5 -12 -8 10 -56 25 -56 16 0 26 -42 14 -54 -7
-7 -10 -6 -10 1 0 7 -8 14 -19 18 -19 6 -58 91 -47 102 8 8 -33 63 -48 63 -7
0 -21 10 -32 21 -10 12 -39 31 -64 43 -25 12 -54 27 -65 33 -37 20 -124 35
-165 28 -41 -7 -45 -10 -131 -107 -44 -51 -72 -60 -88 -29 -12 21 15 87 50
124 10 12 19 29 19 40 0 13 5 17 18 13 11 -4 27 3 42 16 17 16 37 23 65 23 34
0 40 3 37 20 -2 12 0 16 5 9 4 -6 21 -10 36 -9z m-1829 -60 c3 -8 1 -15 -4
-15 -6 0 -10 7 -10 15 0 8 2 15 4 15 2 0 6 -7 10 -15z m702 -42 c-10 -10 -19
5 -10 18 6 11 8 11 12 0 2 -7 1 -15 -2 -18z m1624 -3 c0 -5 -4 -10 -10 -10 -5
0 -10 5 -10 10 0 6 5 10 10 10 6 0 10 -4 10 -10z m962 -52 c-9 -9 -15 -9 -24
0 -9 9 -7 12 12 12 19 0 21 -3 12 -12z m-751 -35 c13 -16 12 -17 -3 -4 -10 7
-18 15 -18 17 0 8 8 3 21 -13z m-509 -43 c-1 -7 3 -19 9 -27 7 -8 8 -13 3 -12
-5 1 -18 0 -29 -1 -18 -2 -17 -3 3 -9 23 -6 22 -7 -20 -41 -41 -34 -46 -35
-126 -35 -77 0 -85 2 -106 26 -12 14 -28 23 -35 21 -9 -3 -11 0 -6 8 4 7 2 16
-6 20 -7 5 -14 16 -15 25 -2 14 5 15 44 9 26 -4 56 -8 67 -11 47 -10 128 -3
145 12 9 8 24 15 34 15 9 0 15 4 12 9 -4 5 2 8 11 6 10 -1 17 -8 15 -15z"/>
<path d="M3790 7655 c0 -8 6 -15 13 -15 7 0 22 -8 33 -17 30 -27 64 -44 64
-33 0 5 -9 14 -19 20 -11 5 -26 16 -33 22 -8 7 -24 19 -36 26 -18 10 -22 10
-22 -3z"/>
<path d="M3798 7588 c7 -9 29 -19 48 -23 20 -3 43 -9 52 -12 9 -3 2 5 -16 16
-19 12 -48 25 -65 28 -28 6 -30 4 -19 -9z"/>
<path d="M4246 5013 c-6 -14 -5 -15 5 -6 7 7 10 15 7 18 -3 3 -9 -2 -12 -12z"/>
<path d="M3963 4555 c0 -8 4 -15 9 -15 4 0 8 7 8 15 0 8 -4 15 -8 15 -5 0 -9
-7 -9 -15z"/>
<path d="M4595 2380 c-3 -5 -2 -10 4 -10 5 0 13 5 16 10 3 6 2 10 -4 10 -5 0
-13 -4 -16 -10z"/>
<path d="M4255 1691 c-3 -5 -1 -12 5 -16 5 -3 10 1 10 9 0 18 -6 21 -15 7z"/>
<path d="M2581 1704 c-1 -7 -10 -14 -21 -17 -19 -5 -29 -27 -12 -27 18 0 44
28 39 41 -3 8 -6 9 -6 3z"/>
<path d="M3398 2013 c6 -2 18 -2 25 0 6 3 1 5 -13 5 -14 0 -19 -2 -12 -5z"/>
<path d="M3538 1963 c7 -3 16 -2 19 1 4 3 -2 6 -13 5 -11 0 -14 -3 -6 -6z"/>
<path d="M2945 1860 c-3 -5 -1 -10 4 -10 6 0 11 5 11 10 0 6 -2 10 -4 10 -3 0
-8 -4 -11 -10z"/>
<path d="M2910 1850 c0 -5 5 -10 11 -10 5 0 7 5 4 10 -3 6 -8 10 -11 10 -2 0
-4 -4 -4 -10z"/>
<path d="M2884 1821 c4 -5 1 -11 -6 -13 -8 -3 -9 -6 -1 -11 6 -4 18 2 28 13
18 19 17 20 -4 20 -12 0 -20 -4 -17 -9z"/>
<path d="M5320 1889 c0 -5 5 -7 10 -4 6 3 10 8 10 11 0 2 -4 4 -10 4 -5 0 -10
-5 -10 -11z"/>
<path d="M5250 1740 c-9 -6 -10 -10 -3 -10 6 0 15 5 18 10 8 12 4 12 -15 0z"/>
<path d="M3135 1054 c-22 -18 -35 -34 -28 -34 7 0 21 10 33 22 11 12 20 18 20
12 0 -5 5 -1 11 9 18 30 6 27 -36 -9z"/>
<path d="M3203 1050 c5 -31 13 -32 25 -5 10 22 9 25 -8 25 -14 0 -19 -6 -17
-20z"/>
<path d="M4790 1160 c0 -5 5 -10 11 -10 5 0 7 5 4 10 -3 6 -8 10 -11 10 -2 0
-4 -4 -4 -10z"/>
<path d="M3587 8669 c-9 -5 -22 -7 -27 -4 -6 4 -9 1 -8 -6 2 -7 -10 -17 -27
-22 -16 -5 -38 -13 -47 -18 -10 -5 -25 -9 -33 -9 -8 0 -15 -4 -15 -10 0 -5 19
-10 43 -10 38 0 50 6 93 45 49 45 54 53 21 34z"/>
<path d="M3230 8576 c0 -2 7 -6 15 -10 8 -3 15 -1 15 4 0 6 -7 10 -15 10 -8 0
-15 -2 -15 -4z"/>
<path d="M3200 8248 c0 -6 -7 -20 -17 -30 -9 -10 -13 -21 -9 -25 8 -9 56 49
49 59 -7 12 -23 9 -23 -4z"/>
<path d="M3130 8096 c-12 -33 -12 -36 -1 -36 10 0 25 50 17 58 -3 2 -10 -7
-16 -22z"/>
<path d="M3072 7935 c-7 -8 -9 -15 -4 -15 5 0 15 7 22 15 16 19 -1 19 -18 0z"/>
<path d="M3048 7849 c-1 -28 0 -56 4 -62 5 -7 8 -8 9 -2 2 12 6 38 15 83 5 25
3 32 -9 32 -11 0 -16 -14 -19 -51z"/>
<path d="M3026 7735 c-16 -19 -33 -32 -37 -29 -5 3 -9 -2 -9 -10 0 -14 -12
-20 -32 -17 -5 0 -8 -6 -8 -14 0 -8 5 -15 11 -15 5 0 7 -5 4 -10 -9 -15 5 -71
16 -64 5 3 9 -1 9 -9 0 -8 7 -17 15 -21 15 -5 10 -24 -24 -95 -13 -26 -33 -25
-29 0 2 18 -2 24 -17 24 -13 0 -19 6 -17 15 2 10 -5 7 -22 -9 -14 -13 -23 -27
-21 -31 3 -5 -2 -11 -11 -14 -11 -4 -15 -19 -13 -58 2 -67 8 -90 21 -82 6 4 8
-1 4 -14 -4 -11 -3 -23 3 -26 5 -3 7 -14 4 -25 -3 -13 2 -20 17 -24 12 -3 20
-11 19 -19 -2 -16 23 -78 32 -78 11 0 -3 -54 -21 -80 -9 -14 -18 -32 -18 -40
-7 -80 -15 -129 -26 -151 -9 -18 -10 -32 -4 -43 7 -13 5 -21 -9 -31 -12 -10
-14 -14 -4 -15 9 0 11 -8 7 -26 -4 -14 -2 -32 4 -39 7 -9 8 -26 1 -56 -5 -24
-8 -46 -5 -51 3 -4 6 -48 8 -98 2 -76 0 -90 -12 -85 -10 4 -12 1 -7 -12 25
-59 24 -139 0 -129 -24 9 -26 -25 -3 -45 20 -16 20 -18 6 -19 -20 0 -25 -44
-7 -56 6 -3 9 -17 6 -30 -5 -29 8 -40 27 -25 11 9 15 6 19 -15 3 -16 0 -27 -9
-31 -8 -3 -14 -17 -13 -32 0 -14 3 -21 6 -14 3 10 9 10 26 0 29 -16 36 -27 30
-44 -3 -7 -1 -13 4 -13 6 0 10 -14 11 -31 0 -17 5 -36 11 -43 7 -9 7 -16 -1
-24 -8 -8 -9 -12 -1 -12 6 0 9 -8 6 -19 -3 -11 2 -21 12 -25 14 -5 16 -2 12
16 -3 13 -13 61 -22 108 -8 47 -20 106 -25 131 -9 48 -4 116 11 125 5 3 -3 23
-18 45 -26 40 -26 43 -28 227 -2 103 -4 192 -5 197 -5 20 0 45 9 45 5 0 12 -8
15 -17 3 -10 26 -27 51 -39 54 -25 49 -29 84 86 13 41 29 89 36 106 15 34 11
44 -14 44 -9 0 -22 9 -29 21 -9 14 -19 18 -34 13 -18 -5 -20 -3 -14 20 4 15 0
41 -9 62 -28 69 -20 82 37 54 25 -12 26 -14 10 -26 -16 -13 -16 -13 1 -15 9
-1 22 -3 27 -4 6 -1 12 -3 15 -4 14 -3 -18 -41 -34 -41 -14 0 -18 -5 -14 -20
3 -11 9 -20 13 -20 27 0 66 100 51 129 -5 9 -12 37 -16 63 -6 39 -3 53 15 84
22 35 22 38 8 91 -9 30 -14 70 -11 89 3 25 -3 51 -23 92 -27 54 -28 64 -29
194 0 76 0 138 0 138 0 0 -13 -16 -29 -35z m24 -274 c0 -10 -7 -24 -15 -31
-12 -10 -15 -10 -15 3 0 23 11 47 21 47 5 0 9 -8 9 -19z m-140 -31 c0 -5 -4
-10 -10 -10 -5 0 -10 5 -10 10 0 6 5 10 10 10 6 0 10 -4 10 -10z m130 -207 c0
-2 -12 -3 -26 -3 -14 0 -23 4 -19 10 3 6 0 10 -7 10 -10 0 -10 2 1 9 11 7 51
-13 51 -26z m-70 -7 c0 -3 -4 -8 -10 -11 -5 -3 -10 -1 -10 4 0 6 5 11 10 11 6
0 10 -2 10 -4z m-50 -1036 c0 -5 -4 -10 -10 -10 -5 0 -10 5 -10 10 0 6 5 10
10 10 6 0 10 -4 10 -10z"/>
<path d="M2941 7737 c-1 -25 1 -27 19 -17 21 11 28 40 9 40 -5 0 -7 -4 -4 -10
3 -5 2 -10 -4 -10 -5 0 -12 6 -14 13 -3 6 -6 -1 -6 -16z"/>
<path d="M3113 7555 c-12 -13 -16 -30 -14 -52 2 -22 16 -14 28 16 12 33 4 55
-14 36z"/>
<path d="M3130 7320 c0 -5 5 -10 11 -10 5 0 7 5 4 10 -3 6 -8 10 -11 10 -2 0
-4 -4 -4 -10z"/>
<path d="M3331 6831 c-1 -8 -17 -38 -37 -67 -26 -41 -41 -54 -60 -54 -18 0
-24 5 -24 23 -1 21 -1 22 -15 3 -8 -11 -15 -33 -15 -49 0 -40 -21 -108 -31
-101 -5 3 -6 -2 -3 -11 4 -9 -2 -26 -12 -38 -10 -12 -12 -16 -4 -9 16 14 64
17 55 3 -8 -14 10 -22 30 -15 13 5 14 8 3 15 -9 6 -7 9 8 9 23 0 38 -22 36
-55 -1 -19 0 -19 5 -1 4 14 7 16 13 6 6 -9 11 -7 19 8 8 15 8 23 -1 28 -7 4
-8 3 -4 -4 4 -7 2 -12 -3 -12 -6 0 -11 3 -11 8 1 19 17 30 43 27 15 -2 27 1
27 6 0 5 -5 9 -11 9 -8 0 -7 6 2 16 12 15 11 16 -11 10 -24 -7 -24 -6 -6 8 11
9 26 16 32 16 7 0 25 5 39 12 19 9 25 19 25 44 0 18 -4 43 -9 57 -7 18 -5 26
9 34 18 12 24 59 9 69 -5 3 -9 -1 -9 -9 0 -8 -9 -22 -20 -32 -12 -10 -18 -25
-16 -32 3 -7 1 -13 -5 -13 -15 0 -4 71 13 81 9 6 7 9 -9 9 -12 0 -25 -5 -29
-12 -5 -8 -10 -6 -15 8 -4 11 -8 13 -8 5z m27 -61 c-15 -23 -28 -26 -28 -7 0
17 10 27 27 27 11 0 11 -4 1 -20z m-38 -31 c0 -5 -4 -9 -10 -9 -5 0 -10 7 -10
16 0 8 5 12 10 9 6 -3 10 -10 10 -16z"/>
<path d="M3320 6505 c-8 -9 -8 -15 -2 -15 12 0 26 19 19 26 -2 2 -10 -2 -17
-11z"/>
<path d="M3106 6483 c-11 -14 -13 -23 -6 -18 10 6 11 2 5 -21 -11 -42 -13
-156 -3 -176 6 -12 5 -18 -3 -18 -8 0 -8 -4 -2 -12 6 -7 19 -38 29 -68 10 -30
21 -57 25 -60 3 -3 5 -20 5 -37 -1 -34 13 -46 25 -22 31 65 31 65 11 110 -49
108 -79 251 -67 315 7 41 6 41 -19 7z"/>
<path d="M3297 6473 c-11 -10 -8 -43 4 -43 5 0 8 4 4 9 -3 5 -1 12 5 16 5 3
10 10 10 16 0 10 -14 12 -23 2z"/>
<path d="M2792 6308 c-11 -36 -11 -43 3 -57 15 -15 17 -14 30 3 12 16 12 22
-1 42 -9 13 -13 28 -10 33 4 5 3 12 -2 15 -4 2 -13 -14 -20 -36z"/>
<path d="M2980 5750 c-16 -10 -23 -40 -9 -40 5 0 9 -17 9 -37 0 -28 3 -34 10
-23 7 11 10 5 10 -25 0 -22 4 -47 10 -55 5 -9 5 -19 -2 -27 -7 -9 -7 -13 1
-13 6 0 11 -4 11 -10 0 -5 -7 -10 -15 -10 -9 0 -12 -6 -9 -15 4 -10 13 -13 25
-10 23 7 39 -27 39 -81 0 -19 3 -34 8 -34 4 0 7 28 7 63 0 46 -7 74 -24 107
-16 30 -24 60 -23 90 0 25 -4 52 -10 60 -8 12 -9 12 -4 -3 3 -11 2 -16 -4 -12
-6 4 -8 21 -4 40 6 35 -4 49 -26 35z"/>
<path d="M3409 5468 c-6 -21 -5 -38 1 -38 5 0 8 9 7 20 -1 17 -5 26 -8 18z"/>
<path d="M3007 5396 c-3 -8 2 -16 13 -19 18 -5 35 15 23 27 -11 11 -31 6 -36
-8z"/>
<path d="M3075 5338 c-4 -16 -10 -26 -14 -24 -4 3 -5 -11 -3 -31 3 -25 1 -34
-7 -29 -6 4 -11 1 -11 -8 0 -9 -7 -16 -16 -16 -14 0 -14 -1 0 -16 19 -19 19
-15 2 -50 -29 -60 -26 -148 4 -129 9 6 9 9 -1 16 -11 7 -10 9 4 9 14 0 17 -5
12 -20 -4 -13 0 -31 11 -47 15 -25 18 -25 29 -9 12 16 14 16 20 -4 5 -15 1
-26 -12 -35 -15 -12 -16 -16 -4 -27 10 -9 12 -9 7 0 -4 7 -1 12 7 12 25 0 44
-42 39 -83 -2 -21 -1 -68 3 -105 l8 -67 14 79 c10 58 10 82 2 92 -6 8 -8 25
-5 39 4 17 3 24 -6 23 -7 -2 -13 3 -14 10 -1 6 -2 13 -4 15 -5 6 -11 44 -11
64 0 12 -3 25 -9 28 -5 3 -5 17 2 35 8 23 7 34 -3 47 -12 14 -11 15 8 9 18 -6
36 6 103 72 68 68 80 85 80 113 0 31 -1 32 -15 13 -8 -10 -15 -27 -15 -36 0
-10 -9 -23 -20 -30 -11 -7 -20 -18 -20 -24 0 -21 -39 -47 -64 -42 -18 4 -26 0
-29 -14 -8 -27 -45 -23 -59 8 -10 22 -9 27 6 36 13 7 15 13 5 24 -6 7 -9 24
-6 36 3 13 2 39 -2 58 l-8 35 -8 -27z m15 -302 c0 -3 -4 -8 -10 -11 -5 -3 -10
-1 -10 4 0 6 5 11 10 11 6 0 10 -2 10 -4z"/>
<path d="M3135 4660 c-4 -6 -8 -34 -10 -63 -1 -28 -1 -41 2 -27 2 14 8 42 13
63 8 37 6 46 -5 27z"/>
<path d="M3607 4356 c-8 -19 22 -29 40 -15 11 10 11 14 1 20 -20 13 -35 11
-41 -5z"/>
<path d="M3613 4209 c3 -9 0 -22 -6 -28 -9 -9 -8 -11 6 -6 20 8 21 14 6 35 -9
13 -10 13 -6 -1z"/>
<path d="M3616 4151 c-4 -5 3 -7 14 -4 23 6 26 13 6 13 -8 0 -17 -4 -20 -9z"/>
<path d="M3610 4094 c0 -8 -11 -34 -25 -58 -24 -42 -33 -88 -21 -116 3 -8 1
-22 -5 -30 -8 -11 -12 -12 -16 -2 -6 16 -28 15 -42 -2 -10 -11 -8 -15 6 -19
15 -4 14 -6 -6 -12 l-24 -8 24 -18 c17 -13 20 -19 9 -20 -8 -1 -25 -3 -38 -4
-16 -2 -26 4 -32 19 -8 19 -9 19 -9 -6 -1 -23 3 -28 23 -28 20 0 24 -6 30 -41
l6 -40 27 20 c14 12 30 21 35 21 5 0 24 16 43 35 29 28 40 33 63 29 23 -5 32
-1 46 21 18 27 15 82 -3 70 -13 -7 -23 24 -15 48 4 13 2 17 -5 13 -7 -5 -11 2
-11 18 0 14 -7 29 -16 34 -9 5 -17 24 -19 43 -4 49 -4 49 -15 49 -5 0 -10 -7
-10 -16z"/>
<path d="M3693 3806 c-8 -10 -9 -16 0 -25 18 -18 27 -13 27 14 0 28 -9 31 -27
11z"/>
<path d="M3782 3716 c2 -16 9 -31 16 -34 17 -5 15 19 -4 43 -15 19 -15 19 -12
-9z"/>
<path d="M3448 3657 c-24 -23 -47 -50 -51 -60 -9 -25 -30 -21 -24 5 8 30 -9
59 -31 51 -24 -9 -72 -43 -72 -52 0 -4 22 -30 49 -59 40 -42 51 -63 57 -99 5
-34 4 -44 -5 -38 -8 4 -11 2 -10 -6 2 -8 -2 -24 -9 -36 -8 -15 -9 -29 -1 -51
9 -26 7 -33 -15 -56 -13 -15 -27 -23 -30 -17 -3 5 -15 7 -25 4 -32 -8 -42 26
-26 88 23 86 20 136 -11 164 -32 29 -83 33 -119 9 -16 -10 -31 -13 -42 -8 -10
4 -30 9 -45 11 -22 2 -28 -1 -28 -17 0 -10 -4 -22 -10 -25 -5 -3 -10 -14 -10
-23 0 -22 59 -162 75 -178 6 -7 24 -37 39 -67 14 -30 32 -60 39 -66 22 -18 54
-2 61 31 5 25 9 28 20 19 12 -10 12 -16 0 -41 -9 -17 -21 -27 -28 -24 -7 3
-21 -2 -30 -12 -16 -15 -16 -17 4 -31 12 -9 34 -13 51 -11 19 3 29 0 29 -8 0
-14 56 -64 71 -64 16 0 99 -73 99 -87 0 -7 10 -13 23 -13 13 0 43 -10 68 -22
32 -16 64 -22 119 -23 41 -1 81 3 88 8 6 5 12 7 12 3 0 -4 13 0 29 8 35 18 74
17 66 -2 -3 -7 -5 -16 -5 -18 0 -3 -4 -3 -8 0 -4 2 -14 0 -22 -5 -13 -8 86 -7
198 3 16 2 15 5 -8 28 -21 21 -35 27 -25 10 4 -6 -14 -10 -47 -10 l-53 0 0 50
c0 33 4 50 13 50 21 0 14 26 -23 81 -19 30 -35 58 -35 63 0 6 -7 0 -16 -12 -9
-13 -22 -21 -29 -18 -15 5 -38 -17 -28 -27 3 -4 -1 -7 -9 -7 -9 0 -19 -10 -23
-22 -6 -23 -6 -23 -18 4 -14 30 -27 27 -85 -24 -18 -15 -39 -28 -47 -28 -8 0
-17 -11 -21 -25 -4 -18 -12 -24 -28 -21 -11 2 -21 7 -21 12 0 5 -4 15 -8 22
-5 6 -6 16 -3 21 10 15 -43 19 -63 4 -20 -13 -20 -12 -16 39 6 59 29 178 50
253 8 28 17 69 21 93 5 40 4 42 -18 40 -17 -2 -23 2 -24 17 -1 11 -4 32 -9 47
-8 30 20 87 55 111 11 8 19 28 21 60 2 26 3 47 2 47 0 0 -21 -19 -45 -43z
m-388 -242 c0 -8 -4 -15 -10 -15 -5 0 -10 7 -10 15 0 8 5 15 10 15 6 0 10 -7
10 -15z m680 -385 c0 -5 -4 -10 -10 -10 -5 0 -10 5 -10 10 0 6 5 10 10 10 6 0
10 -4 10 -10z m-293 -86 c-3 -3 -12 -4 -19 -1 -8 3 -5 6 6 6 11 1 17 -2 13 -5z"/>
<path d="M3700 3654 c0 -8 5 -12 10 -9 6 4 8 11 5 16 -9 14 -15 11 -15 -7z"/>
<path d="M3587 3550 c-3 -11 -1 -20 4 -20 5 0 9 9 9 20 0 11 -2 20 -4 20 -2 0
-6 -9 -9 -20z"/>
<path d="M3580 3369 c-11 -24 -24 -65 -27 -91 -5 -41 -3 -48 11 -48 10 0 14
-5 11 -10 -5 -8 -11 -7 -20 0 -22 19 -35 2 -35 -45 0 -29 -5 -45 -15 -49 -9
-3 -15 -18 -15 -36 0 -20 -5 -30 -15 -30 -8 0 -15 -7 -15 -15 0 -19 14 -19 30
0 7 9 18 14 24 12 15 -6 68 32 61 44 -4 5 0 6 8 3 8 -3 17 1 20 9 7 17 139 87
165 87 19 0 19 1 0 40 -11 22 -22 40 -24 40 -2 0 -3 -15 -2 -32 2 -22 -1 -32
-9 -30 -7 1 -13 -3 -13 -9 0 -6 -10 -8 -22 -5 -13 3 -17 3 -10 0 22 -10 13
-21 -32 -38 -24 -9 -47 -24 -50 -31 -9 -25 -26 -17 -26 13 0 42 34 88 99 134
54 39 58 46 54 73 -8 42 -13 45 -76 52 l-55 6 -22 -44z"/>
<path d="M3750 3369 c0 -5 5 -7 10 -4 6 3 10 8 10 11 0 2 -4 4 -10 4 -5 0 -10
-5 -10 -11z"/>
<path d="M3760 3296 c0 -2 7 -7 16 -10 8 -3 12 -2 9 4 -6 10 -25 14 -25 6z"/>
<path d="M3470 3260 c-13 -8 -12 -10 3 -10 9 0 17 5 17 10 0 12 -1 12 -20 0z"/>
<path d="M3120 2966 c0 -9 5 -16 10 -16 6 0 10 4 10 9 0 6 -4 13 -10 16 -5 3
-10 -1 -10 -9z"/>
<path d="M3075 2770 c-3 -5 1 -10 9 -10 9 0 16 5 16 10 0 6 -4 10 -9 10 -6 0
-13 -4 -16 -10z"/>
<path d="M4126 2762 c-2 -4 -1 -14 5 -22 7 -12 9 -10 9 8 0 23 -5 28 -14 14z"/>
<path d="M4287 2717 c-3 -8 1 -14 9 -14 16 0 19 13 5 21 -5 3 -11 0 -14 -7z"/>
<path d="M3716 2307 c3 -10 9 -15 12 -12 3 3 0 11 -7 18 -10 9 -11 8 -5 -6z"/>
<path d="M4848 753 c7 -3 16 -2 19 1 4 3 -2 6 -13 5 -11 0 -14 -3 -6 -6z"/>
<path d="M4735 740 c-7 -12 32 -12 60 0 16 7 13 9 -17 9 -20 1 -40 -3 -43 -9z"/>
<path d="M5854 515 c-4 -8 -10 -15 -16 -15 -5 0 -24 -11 -42 -25 -18 -14 -36
-25 -39 -25 -3 0 -48 -26 -99 -58 -252 -158 -514 -271 -853 -367 l-90 -25 60
5 c33 3 89 10 125 16 36 5 77 11 93 12 15 0 27 6 27 13 0 14 28 27 41 18 5 -3
9 -1 9 5 0 6 7 8 15 5 8 -4 17 1 21 9 6 17 45 19 56 2 5 -6 8 -6 8 2 0 7 7 10
17 6 12 -5 15 -2 10 10 -6 16 8 23 36 18 4 0 7 6 7 14 0 15 10 19 43 16 9 -1
17 4 17 13 0 19 16 21 23 4 3 -8 6 -7 6 4 1 22 21 34 31 18 6 -9 12 -10 26 -1
18 10 18 10 -1 11 -19 1 -19 1 -2 11 14 8 22 8 30 0 14 -14 37 -14 37 -1 0 6
-8 10 -17 10 -16 1 -16 2 1 12 11 6 34 11 52 10 18 -1 46 5 61 13 15 8 23 15
16 15 -6 0 -11 9 -10 19 0 11 6 19 12 18 5 -1 9 4 8 11 -4 18 14 15 25 -4 8
-14 14 -12 52 15 24 17 52 31 62 31 11 0 16 5 13 10 -3 6 0 10 8 10 8 0 20 14
27 31 7 17 30 42 51 55 33 21 70 64 54 64 -3 0 -8 -7 -11 -15z"/>
</g>
</svg>
